<?xml version="1.0" encoding="UTF-8"?>
<svg width="71px" height="36px" viewBox="0 0 71 36" version="1.1" xmlns="http://www.w3.org/2000/svg" xmlns:xlink="http://www.w3.org/1999/xlink">
    <!-- Generator: Sketch 64 (93537) - https://sketch.com -->
    <title>Group</title>
    <desc>Created with Sketch.</desc>
    <g id="Symbols" stroke="none" stroke-width="1" fill="none" fill-rule="evenodd">
        <g id="end" transform="translate(-37.000000, -1.000000)">
            <g id="Group-17">
                <g id="Group" transform="translate(37.500000, 1.000000)">
                    <rect id="Rectangle" stroke="#FF0051" fill="#FFFFFF" x="25" y="8.5" width="45" height="20" rx="10"></rect>
                    <circle id="Oval" fill="#FF0051" cx="18" cy="18" r="18"></circle>
                    <path d="M12.4,11 C11.9066407,11 11.5,11.4066407 11.5,11.9 L11.5,25.1 C11.5,25.5933593 11.9066407,26 12.4,26 L22.6,26 C23.0933593,26 23.5,25.5933593 23.5,25.1 L23.5,22.7 L22.9,23.3 L22.9,25.1 C22.9,25.26875 22.76875,25.4 22.6,25.4 L12.4,25.4 C12.23125,25.4 12.1,25.26875 12.1,25.1 L12.1,11.9 C12.1,11.7300782 12.2300782,11.6 12.4,11.6 L22.6,11.6 C22.76875,11.6 22.9,11.73125 22.9,11.9 L22.9,13.7 L23.5,14.3 L23.5,11.9 C23.5,11.4066407 23.0933593,11 22.6,11 L12.4,11 Z M22.853125,14.928125 C22.740625,14.9480468 22.6503907,15.0300782 22.61875,15.1390625 C22.5871093,15.2492189 22.6199218,15.3664064 22.703125,15.44375 L25.459375,18.2 L16.6,18.2 C16.590625,18.2 16.58125,18.2 16.571875,18.2 C16.4066407,18.2082032 16.2777343,18.3488282 16.2859375,18.5140625 C16.2941407,18.6792968 16.4347657,18.8082032 16.6,18.8 L25.459375,18.8 L22.703125,21.55625 C22.6140625,21.6289064 22.5730468,21.7449218 22.5988282,21.8574218 C22.6246093,21.96875 22.7125,22.0566407 22.8238282,22.0824218 C22.9363282,22.1082032 23.0523439,22.0671875 23.125,21.978125 L26.396875,18.715625 L26.603125,18.5 L26.396875,18.284375 L23.125,15.021875 C23.0628907,14.9550782 22.9726564,14.9210939 22.88125,14.928125 C22.871875,14.928125 22.8625,14.928125 22.853125,14.928125 Z" id="Shape" fill="#FFFFFF" fill-rule="nonzero"></path>
                    <text id="END" font-family="Roboto-Regular, Roboto" font-size="13" font-weight="normal" fill="#FF0051">
                        <tspan x="39" y="23">END</tspan>
                    </text>
                </g>
            </g>
        </g>
    </g>
</svg>