<?xml version="1.0" encoding="UTF-8"?>
<svg width="23px" height="22px" viewBox="0 0 23 22" version="1.1" xmlns="http://www.w3.org/2000/svg" xmlns:xlink="http://www.w3.org/1999/xlink">
    <!-- Generator: Sketch 64 (93537) - https://sketch.com -->
    <title>icon-ticket</title>
    <desc>Created with Sketch.</desc>
    <g id="Action-Approval" stroke="none" stroke-width="1" fill="none" fill-rule="evenodd">
        <g id="Action-01" transform="translate(-1492.000000, -752.000000)" fill="#005350" fill-rule="nonzero">
            <g id="Group-9" transform="translate(1491.000000, 433.000000)">
                <g id="icons8-ticket" transform="translate(1.000000, 319.000000)">
                    <path d="M14.96,0.0275 C14.64375,0.0275 14.3360936,0.16156272 14.09375,0.39875 L14.08,0.385 L11.48125,2.95625 C11.4107814,2.99921864 11.3540627,3.06109364 11.31625,3.135 L0.78375,13.585 C0.78375,13.5901564 0.78375,13.5935936 0.78375,13.59875 C0.29734364,14.0851564 0.29734364,14.8723436 0.78375,15.35875 L2.15875,16.72 C2.31343772,16.8764064 2.56093772,16.8935936 2.73625,16.76125 C3.114375,16.45875 3.60765636,16.23875 4.0975,16.23875 C5.26796864,16.23875 6.16,17.17375 6.16,18.30125 C6.16,18.8117186 5.974375,19.2757814 5.65125,19.635 C5.49828136,19.8120314 5.51031272,20.0784377 5.67875,20.24 L7.04,21.60125 C7.52640636,22.0876564 8.31359364,22.0876564 8.8,21.60125 L19.20875,11.1925 L19.2225,11.1925 C19.3909377,11.1529686 19.5198436,11.0189064 19.5525,10.84875 C19.5525,10.8435936 19.5525,10.8401564 19.5525,10.835 L22,8.40125 C22.0171877,8.38921864 22.0257814,8.37375 22.04125,8.36 C22.570625,7.91656272 22.5689064,7.11390636 22.09625,6.64125 L20.72125,5.28 C20.5665627,5.12359364 20.3190627,5.10640636 20.14375,5.23875 C19.7673436,5.53953136 19.3479686,5.72 18.8375,5.72 C17.6670314,5.72 16.76125,4.785 16.76125,3.6575 C16.76125,3.14703136 16.9417186,2.71390636 17.2425,2.3375 C17.3748436,2.16218772 17.3576564,1.91468772 17.20125,1.76 L15.84,0.39875 C15.5976564,0.15640636 15.2796877,0.0275 14.96,0.0275 Z M14.96,0.92125 C15.0579686,0.92125 15.1559377,0.95218772 15.22125,1.0175 L16.34875,2.145 C16.080625,2.585 15.88125,3.08859364 15.88125,3.6575 C15.88125,5.25765636 17.1909377,6.6 18.8375,6.6 C19.408125,6.6 19.89625,6.400625 20.33625,6.1325 L21.46375,7.26 C21.594375,7.390625 21.6046877,7.60546864 21.4775,7.7 C21.4585936,7.71203136 21.4396877,7.72578136 21.4225,7.74125 L19.07125,10.0925 C18.981875,10.0117186 18.8615627,9.97218772 18.74125,9.9825 C18.57625,9.99796864 18.4353127,10.1045314 18.3734377,10.2592186 C18.3132814,10.4121877 18.3425,10.5875 18.4525,10.71125 L8.18125,20.9825 C8.050625,21.113125 7.789375,21.113125 7.65875,20.9825 L6.53125,19.855 C6.83031272,19.394375 7.04,18.871875 7.04,18.30125 C7.04,16.7010936 5.74406272,15.35875 4.0975,15.35875 C3.50796864,15.35875 2.990625,15.585625 2.54375,15.8675 L1.41625,14.74 C1.285625,14.609375 1.285625,14.348125 1.41625,14.2175 L11.715,3.97375 C11.8851564,4.14906272 12.1653127,4.15078136 12.340625,3.980625 C12.5159377,3.81046864 12.5176564,3.53031272 12.3475,3.355 L14.69875,1.0175 C14.7640627,0.95218772 14.8620314,0.92125 14.96,0.92125 Z M13.18625,4.455 L12.85625,4.675 L12.8425,5.07375 L12.93875,5.1975 L13.54375,5.81625 L13.92875,5.94 L14.245,5.70625 L14.25875,5.32125 L14.17625,5.18375 L13.5575,4.57875 L13.18625,4.455 Z M15.02875,6.2975 L14.7125,6.53125 L14.69875,6.91625 L14.78125,7.05375 L15.4,7.6725 L15.77125,7.79625 L16.10125,7.5625 L16.115,7.1775 L16.0325,7.04 L15.41375,6.42125 L15.02875,6.2975 Z M16.885,8.15375 L16.56875,8.37375 L16.555,8.7725 L16.6375,8.89625 L17.25625,9.515 L17.6275,9.63875 L17.9575,9.41875 L17.97125,9.02 L17.875,8.89625 L17.25625,8.2775 L16.885,8.15375 Z" id="icon-ticket"></path>
                </g>
            </g>
        </g>
    </g>
</svg>