<?xml version="1.0" encoding="UTF-8"?>
<svg width="18px" height="18px" viewBox="0 0 18 18" version="1.1" xmlns="http://www.w3.org/2000/svg" xmlns:xlink="http://www.w3.org/1999/xlink">
    <!-- Generator: Sketch 64 (93537) - https://sketch.com -->
    <title>icon-save</title>
    <desc>Created with Sketch.</desc>
    <g id="Symbols" stroke="none" stroke-width="1" fill="none" fill-rule="evenodd">
        <g id="rule-actions" transform="translate(-154.000000, -11.000000)" fill="#15C872" fill-rule="nonzero">
            <g id="Group-2">
                <g transform="translate(108.000000, 0.000000)">
                    <path d="M47.2857143,11 C46.5805195,11 46,11.5805195 46,12.2857143 L46,27.7142857 C46,28.4194807 46.5805195,29 47.2857143,29 L62.7142857,29 C63.4194807,29 64,28.4194807 64,27.7142857 L64,14.9425224 C64,14.8288657 63.9548146,14.7198713 63.8744419,14.6395091 L60.3604909,11.1255581 C60.2801287,11.0451854 60.1711342,11 60.0574776,11 L47.2857143,11 Z M47.2857143,11.8571429 L49.4285714,11.8571429 L49.4285714,17 C49.4285714,17.705195 50.0090907,18.2857143 50.7142857,18.2857143 L58.8571429,18.2857143 C59.5623379,18.2857143 60.1428571,17.705195 60.1428571,17 L60.1428571,12.1199777 L63.1428571,15.1199776 L63.1428571,27.7142857 C63.1428571,27.9519479 62.9519479,28.1428571 62.7142857,28.1428571 L60.5714286,28.1428571 L60.5714286,21.7142857 C60.5714286,21.0090907 59.9909093,20.4285714 59.2857143,20.4285714 L50.7142857,20.4285714 C50.0090907,20.4285714 49.4285714,21.0090907 49.4285714,21.7142857 L49.4285714,28.1428571 L47.2857143,28.1428571 C47.0480519,28.1428571 46.8571429,27.9519479 46.8571429,27.7142857 L46.8571429,12.2857143 C46.8571429,12.0480519 47.0480519,11.8571429 47.2857143,11.8571429 Z M50.2857143,11.8571429 L59.2857143,11.8571429 L59.2857143,17 C59.2857143,17.2376621 59.094805,17.4285714 58.8571429,17.4285714 L50.7142857,17.4285714 C50.4766236,17.4285714 50.2857143,17.2376621 50.2857143,17 L50.2857143,11.8571429 Z M56.7142857,12.7142857 C56.4776021,12.7142857 56.285738,12.9061735 56.2857143,13.1428571 L56.2857143,16.1428571 C56.285738,16.3795408 56.4776021,16.5714286 56.7142857,16.5714286 L58,16.5714286 C58.2366837,16.5714286 58.4285478,16.3795408 58.4285714,16.1428571 L58.4285714,13.1428571 C58.4285478,12.9061735 58.2366837,12.7142857 58,12.7142857 L56.7142857,12.7142857 Z M57.1428571,13.5714286 L57.5714286,13.5714286 L57.5714286,15.7142857 L57.1428571,15.7142857 L57.1428571,13.5714286 Z M50.7142857,21.2857143 L59.2857143,21.2857143 C59.5233764,21.2857143 59.7142857,21.4766236 59.7142857,21.7142857 L59.7142857,28.1428571 L50.2857143,28.1428571 L50.2857143,21.7142857 C50.2857143,21.4766236 50.4766236,21.2857143 50.7142857,21.2857143 Z M47.7142857,26.4285714 L47.7142857,27.2857143 L48.5714286,27.2857143 L48.5714286,26.4285714 L47.7142857,26.4285714 Z M61.4285714,26.4285714 L61.4285714,27.2857143 L62.2857143,27.2857143 L62.2857143,26.4285714 L61.4285714,26.4285714 Z" id="icon-save"></path>
                </g>
            </g>
        </g>
    </g>
</svg>