<?xml version="1.0" encoding="UTF-8"?>
<svg width="16px" height="15px" viewBox="0 0 16 15" version="1.1" xmlns="http://www.w3.org/2000/svg" xmlns:xlink="http://www.w3.org/1999/xlink">
    <!-- Generator: Sketch 64 (93537) - https://sketch.com -->
    <title>Shape</title>
    <desc>Created with Sketch.</desc>
    <g id="Symbols" stroke="none" stroke-width="1" fill="none" fill-rule="evenodd">
        <g id="end" transform="translate(-49.000000, -12.000000)" fill="#FFFFFF" fill-rule="nonzero">
            <g id="Group-17">
                <path d="M49.9,12 C49.4066407,12 49,12.4066407 49,12.9 L49,26.1 C49,26.5933593 49.4066407,27 49.9,27 L60.1,27 C60.5933593,27 61,26.5933593 61,26.1 L61,23.7 L60.4,24.3 L60.4,26.1 C60.4,26.26875 60.26875,26.4 60.1,26.4 L49.9,26.4 C49.73125,26.4 49.6,26.26875 49.6,26.1 L49.6,12.9 C49.6,12.7300782 49.7300782,12.6 49.9,12.6 L60.1,12.6 C60.26875,12.6 60.4,12.73125 60.4,12.9 L60.4,14.7 L61,15.3 L61,12.9 C61,12.4066407 60.5933593,12 60.1,12 L49.9,12 Z M60.353125,15.928125 C60.240625,15.9480468 60.1503907,16.0300782 60.11875,16.1390625 C60.0871093,16.2492189 60.1199218,16.3664064 60.203125,16.44375 L62.959375,19.2 L54.1,19.2 C54.090625,19.2 54.08125,19.2 54.071875,19.2 C53.9066407,19.2082032 53.7777343,19.3488282 53.7859375,19.5140625 C53.7941407,19.6792968 53.9347657,19.8082032 54.1,19.8 L62.959375,19.8 L60.203125,22.55625 C60.1140625,22.6289064 60.0730468,22.7449218 60.0988282,22.8574218 C60.1246093,22.96875 60.2125,23.0566407 60.3238282,23.0824218 C60.4363282,23.1082032 60.5523439,23.0671875 60.625,22.978125 L63.896875,19.715625 L64.103125,19.5 L63.896875,19.284375 L60.625,16.021875 C60.5628907,15.9550782 60.4726564,15.9210939 60.38125,15.928125 C60.371875,15.928125 60.3625,15.928125 60.353125,15.928125 Z" id="Shape"></path>
            </g>
        </g>
    </g>
</svg>