<?xml version="1.0" encoding="UTF-8"?>
<svg width="24px" height="24px" viewBox="0 0 24 24" version="1.1" xmlns="http://www.w3.org/2000/svg" xmlns:xlink="http://www.w3.org/1999/xlink">
    <!-- Generator: Sketch 64 (93537) - https://sketch.com -->
    <title>icon-notify</title>
    <desc>Created with Sketch.</desc>
    <g id="Action-Approval" stroke="none" stroke-width="1" fill="none" fill-rule="evenodd">
        <g id="Action-01" transform="translate(-1492.000000, -691.000000)" fill="#005350" fill-rule="nonzero">
            <g id="Group-9" transform="translate(1491.000000, 433.000000)">
                <g id="icons8-commercial" transform="translate(1.000000, 258.000000)">
                    <path d="M19.7486416,0 C19.6039403,0.00203791304 19.4653534,0.0652173913 19.3695652,0.173233565 C19.1677988,0.252717391 18.9436143,0.293478261 18.7968751,0.436141565 C18.550272,0.670516174 18.3403534,0.957880696 18.1141304,1.28600557 C17.6657609,1.94021739 17.162364,2.7574727 16.4429348,3.56657635 C15.0061143,5.1827447 12.7581522,6.7826087 8.34782609,6.7826087 C8.32744591,6.7826087 8.30910313,6.7826087 8.28872296,6.78464661 L2.60869565,6.78464661 C1.17595096,6.78464661 0.00407634783,7.95855965 0.00407634783,9.39130435 L0.00407634783,12 C0.00407634783,13.1066577 0.707201217,14.0523099 1.6875,14.4273099 C1.71603287,14.4599186 1.74864157,14.488451 1.78532609,14.5129075 C1.95652174,14.6331522 2.41100557,15.4504075 2.78396765,16.7934783 C3.1548913,18.138587 3.53396765,19.9993205 3.96807078,22.2656249 C4.05163043,22.7017664 4.19633165,23.1399459 4.53464661,23.4782609 C4.87296209,23.8186143 5.37635896,24 5.97146765,24 L7.71195652,24 C8.19293478,24 8.62907635,23.9062503 8.95108696,23.6086957 C9.275136,23.3131795 9.39130435,22.875 9.39130435,22.4347826 C9.39130435,21.5176633 8.8451087,20.8858696 8.23980991,20.2826087 C8.33559809,20.3783969 8.20312487,20.201087 8.13994591,19.8994565 C8.07676643,19.5957882 8.01970122,19.1576087 7.97282609,18.6093751 C7.88722852,17.6229621 7.84442922,16.2350546 7.83423913,14.6066577 L8.25815217,14.6066577 C8.31114157,14.6148099 8.36413043,14.6148099 8.41711983,14.6086957 C8.42323357,14.6086957 8.42934783,14.6086957 8.43546209,14.6086957 C12.8641304,14.6086957 15.0917118,16.3247285 16.5203807,18.0692937 C17.2336957,18.9415763 17.7330162,19.826087 18.1793478,20.5292118 C18.4014944,20.8817937 18.6073372,21.1895379 18.8539403,21.4422553 C19.1005435,21.6949727 19.4266304,21.9130435 19.826087,21.9130435 L19.8648099,21.9130435 C20.0686143,21.9130435 20.2744565,21.8050273 20.4028534,21.6766304 C20.5292118,21.5461957 20.6107336,21.3974186 20.6820652,21.2201087 C20.8288043,20.8654894 20.9408969,20.3722826 21.0427988,19.6059783 C21.2038043,18.4014944 21.324049,16.4898099 21.3688857,13.5652174 L21.6277174,13.5652174 C22.8301633,13.5652174 23.8226901,12.6521739 23.9347826,11.4639944 C23.961277,11.4008155 23.9755435,11.3315217 23.9755435,11.2622285 C23.9755435,9.97214661 22.9341031,8.86956522 21.6277174,8.86956522 L21.3688857,8.86956522 C21.3220111,5.65964661 21.175272,3.56861426 20.9775814,2.29483722 C20.8593751,1.52649443 20.7330162,1.03125026 20.574049,0.676630435 C20.4945652,0.501358957 20.4089677,0.354619826 20.2805708,0.22826087 C20.1521739,0.103940348 19.9544838,0 19.7486416,0 Z M19.6243205,1.12092417 C19.7160329,1.32472852 19.8383155,1.74456522 19.9483696,2.45380435 C20.1684783,3.8926633 20.3478261,6.48505461 20.3478261,10.9565217 C20.3478261,15.4300273 20.201087,18.0264944 20.0074727,19.4673913 C19.913723,20.1766304 19.8057068,20.5923913 19.7221466,20.7982336 C19.6875,20.7798913 19.6793478,20.7921198 19.599864,20.712636 C19.4572012,20.5658969 19.2697012,20.3029894 19.0597826,19.9707882 C18.6379075,19.3043478 18.1080162,18.362772 17.3274459,17.4089677 C15.8131795,15.5604621 13.300272,13.6915763 8.8675273,13.5754075 L8.8675273,7.81385896 C13.2105981,7.68546209 15.7051633,5.9673913 17.2235056,4.25951113 C18.0122285,3.37092417 18.550272,2.49456522 18.976223,1.87703791 C19.1881795,1.56929374 19.3736416,1.32676643 19.5163043,1.19021739 C19.5815217,1.12703791 19.5896739,1.14130435 19.6243205,1.12092417 Z M2.60869565,7.82404904 L7.82812487,7.82404904 L7.82812487,13.5672553 L7.40421183,13.5672553 C7.36956522,13.5611416 7.3328807,13.5570652 7.29619565,13.5570652 C7.26562487,13.5591031 7.23301617,13.5611416 7.20448383,13.5672553 L2.60869565,13.5672553 C1.73641304,13.5672553 1.03940243,12.8722826 1.03940243,12 L1.03940243,9.39130435 C1.03940243,8.51902174 1.73641304,7.82404904 2.60869565,7.82404904 Z M21.3811143,9.91304348 L21.6277174,9.91304348 C22.3389944,9.91304348 22.9320652,10.536685 22.9320652,11.2622285 C22.9320652,11.987772 22.3695652,12.5217391 21.6277174,12.5217391 L21.3770379,12.5217391 C21.3831522,12.0020379 21.3913043,11.537364 21.3913043,10.9565217 C21.3913043,10.5692937 21.3831522,10.2717391 21.3811143,9.91304348 Z M3.13451113,14.6066577 L6.79076087,14.6066577 C6.79891304,16.2554348 6.84375026,17.663723 6.93138574,18.6970111 C6.98029878,19.2717391 7.04144035,19.7404894 7.11888574,20.111413 C7.19633165,20.4823372 7.224864,20.7432068 7.50203791,21.0203807 C8.08084226,21.5971466 8.34782609,21.9089677 8.34782609,22.4347826 C8.34782609,22.7119565 8.29483722,22.7955162 8.24592417,22.8403534 C8.19701113,22.8851901 8.05434783,22.9565217 7.71195652,22.9565217 L5.97146765,22.9565217 C5.56385896,22.9565217 5.39673913,22.8668478 5.27445652,22.7445652 C5.15421183,22.6222826 5.05638574,22.4042118 4.99320678,22.0699727 C4.55910313,19.7955162 4.17798939,17.9225546 3.78872296,16.5163043 C3.57269009,15.7398099 3.38111426,15.1059783 3.13451113,14.6066577 Z" id="icon-notify"></path>
                </g>
            </g>
        </g>
    </g>
</svg>