<?xml version="1.0" encoding="UTF-8"?>
<svg width="22px" height="26px" viewBox="0 0 22 26" version="1.1" xmlns="http://www.w3.org/2000/svg" xmlns:xlink="http://www.w3.org/1999/xlink">
    <!-- Generator: Sketch 64 (93537) - https://sketch.com -->
    <title>icon-markascompleted</title>
    <desc>Created with Sketch.</desc>
    <g id="Mark-as" stroke="none" stroke-width="1" fill="none" fill-rule="evenodd">
        <g id="Resolution-01" transform="translate(-1493.000000, -630.000000)" fill="#005350" fill-rule="nonzero">
            <g id="Group-13" transform="translate(1448.000000, 264.000000)">
                <g id="icon-completed" transform="translate(45.000000, 366.000000)">
                    <path d="M7.34782609,0 C7.05265713,0 6.75174217,0.108142422 6.5386377,0.321246617 C6.32553378,0.534350813 6.2173913,0.835265713 6.2173913,1.13043478 L1.69565217,1.13043478 C0.760782609,1.13043478 0,1.89121739 0,2.82608696 L0,24.3043478 C0,25.2392174 0.760782609,26 1.69565217,26 L19.7826087,26 C20.5671304,26 21.229221,25.4650127 21.4219601,24.740404 C21.4586993,24.6013605 21.4782609,24.4546957 21.4782609,24.3043478 L21.4782609,2.82608696 C21.4782609,1.89121739 20.7174783,1.13043478 19.7826087,1.13043478 L15.2608696,1.13043478 C15.2608696,0.835265713 15.1527271,0.534350813 14.9396232,0.321246617 C14.7265187,0.108142422 14.4256037,0 14.1304348,0 L7.34782609,0 Z M7.34782609,1.13043478 L14.1304348,1.13043478 L14.1304348,4.52173913 L7.34782609,4.52173913 L7.34782609,1.13043478 Z M1.69565217,2.26086957 L6.2173913,2.26086957 L6.2173913,3.39130435 L2.26086957,3.39130435 L2.26086957,23.7391304 L19.2173913,23.7391304 L19.2173913,3.39130435 L15.2608696,3.39130435 L15.2608696,2.26086957 L19.7826087,2.26086957 C20.0940435,2.26086957 20.3478261,2.51408696 20.3478261,2.82608696 L20.3478261,24.3043478 C20.3478261,24.6163478 20.0940435,24.8695652 19.7826087,24.8695652 L1.69565217,24.8695652 C1.38421739,24.8695652 1.13043478,24.6163478 1.13043478,24.3043478 L1.13043478,2.82608696 C1.13043478,2.51408696 1.38421739,2.26086957 1.69565217,2.26086957 Z M3.39130435,4.52173913 L6.2173913,4.52173913 C6.2173913,4.81690809 6.32553378,5.11782304 6.5386377,5.33092752 C6.75174217,5.54403143 7.05265713,5.65217391 7.34782609,5.65217391 L14.1304348,5.65217391 C14.4256037,5.65217391 14.7265187,5.54403143 14.9396232,5.33092752 C15.1527271,5.11782304 15.2608696,4.81690809 15.2608696,4.52173913 L18.0869565,4.52173913 L18.0869565,22.6086957 L3.39130435,22.6086957 L3.39130435,4.52173913 Z M15.8227753,8.47158137 C15.636541,8.47421013 15.4635262,8.56835668 15.360224,8.72333574 L9.9144873,16.6639777 L6.03413709,13.1015628 C5.88693439,12.9561814 5.67206873,12.902833 5.47396058,12.9624782 C5.27585243,13.0221233 5.12615619,13.1852317 5.08368735,13.3877182 C5.0412185,13.5902046 5.11276286,13.7997153 5.27021074,13.9339336 L10.1098847,18.3783967 L16.2919499,9.36362078 C16.4149464,9.19000029 16.4300301,8.96202059 16.3309801,8.77370889 C16.23193,8.58539719 16.0355272,8.46865732 15.8227753,8.47158137 Z" id="icon-markascompleted"></path>
                </g>
            </g>
        </g>
    </g>
</svg>