<?xml version="1.0" encoding="UTF-8"?>
<svg width="33px" height="33px" viewBox="0 0 33 33" version="1.1" xmlns="http://www.w3.org/2000/svg" xmlns:xlink="http://www.w3.org/1999/xlink">
    <!-- Generator: Sketch 64 (93537) - https://sketch.com -->
    <title>icon-rule</title>
    <desc>Created with Sketch.</desc>
    <g id="Automation-flow" stroke="none" stroke-width="1" fill="none" fill-rule="evenodd">
        <g id="RuleBook" transform="translate(-123.000000, -107.000000)" fill="#015250" fill-rule="nonzero">
            <path d="M129.55875,107.350625 L129.084375,107.804375 L123.804375,113.084375 L123.350625,113.55875 L123.804375,114.033125 L134.116875,124.345625 L125.84625,132.61625 C125.761172,132.693594 125.696719,132.79414 125.660625,132.905 L124.340625,137.855 C124.281328,138.081875 124.34836,138.32164 124.51336,138.48664 C124.67836,138.65164 124.918125,138.718672 125.145,138.659375 L130.095,137.339375 C130.20586,137.303282 130.306407,137.238828 130.38375,137.15375 L153.195,114.3425 C153.192422,114.345078 153.73125,113.80625 153.73125,113.80625 C154.986797,112.550703 154.984219,110.521719 153.73125,109.26875 C152.475703,108.013203 150.449297,108.015782 149.19375,109.26875 L140.345625,118.116875 L130.033125,107.804375 L129.55875,107.350625 Z M129.55875,109.2275 L130.63125,110.3 L129.785625,111.145625 L130.734375,112.094375 L131.58,111.24875 L132.61125,112.28 L131.105625,113.785625 L132.054375,114.734375 L133.56,113.22875 L134.59125,114.26 L133.745625,115.105625 L134.694375,116.054375 L135.54,115.20875 L136.57125,116.24 L135.065625,117.745625 L136.014375,118.694375 L137.52,117.18875 L138.55125,118.22 L137.705625,119.065625 L138.55125,119.91125 L135.065625,123.396875 L125.2275,113.55875 L129.55875,109.2275 Z M149.585625,110.733125 L152.266875,113.414375 L129.579375,136.101875 L126.898125,133.420625 L149.585625,110.733125 Z M145.44,123.231875 L144.965625,123.685625 L143.645625,125.005625 L144.594375,125.954375 L145.44,125.10875 L146.47125,126.14 L144.965625,127.645625 L145.914375,128.594375 L147.42,127.08875 L148.45125,128.12 L147.605625,128.965625 L148.554375,129.914375 L149.4,129.06875 L150.43125,130.1 L148.925625,131.605625 L149.874375,132.554375 L151.38,131.04875 L152.41125,132.08 L151.565625,132.925625 L152.514375,133.874375 L153.36,133.02875 L153.7725,133.44125 L149.44125,137.7725 L140.16,128.511875 L139.231875,129.44 L148.966875,139.195625 L149.44125,139.649375 L149.915625,139.195625 L155.195625,133.915625 L155.649375,133.44125 L155.195625,132.966875 L145.44,123.231875 Z" id="icon-rule"></path>
        </g>
    </g>
</svg>