<?xml version="1.0" encoding="UTF-8"?>
<svg width="24px" height="28px" viewBox="0 0 24 28" version="1.1" xmlns="http://www.w3.org/2000/svg" xmlns:xlink="http://www.w3.org/1999/xlink">
    <!-- Generator: Sketch 64 (93537) - https://sketch.com -->
    <title>icon-markaspre</title>
    <desc>Created with Sketch.</desc>
    <g id="Mark-as" stroke="none" stroke-width="1" fill="none" fill-rule="evenodd">
        <g id="Resolution-01" transform="translate(-1493.000000, -869.000000)" fill="#005350" fill-rule="nonzero">
            <g id="Group-13" transform="translate(1448.000000, 264.000000)">
                <g id="icon-m-approved" transform="translate(45.000000, 605.000000)">
                    <path d="M11.6666667,0 C8.62239583,0 5.65787775,1.00716175 3.64583333,3.26302083 C1.66569025,5.48014308 0.68131525,8.87304717 1.33072917,13.453125 C0.51725275,14.3030598 0,15.5175784 0,16.9166667 C0,18.0628257 0.528645833,19.083659 1.22135417,19.8880208 C1.83658883,20.6035159 2.58626317,21.1276042 3.31770833,21.4557292 C4.0445965,23.7047527 5.61002633,25.3430993 7.21875,26.3958333 C8.88671875,27.4873048 10.5546875,28 11.6666667,28 C12.7718098,28 14.4352215,27.4986979 16.0963542,26.4140625 C17.6936848,25.370443 19.2408854,23.734375 19.9973958,21.4739583 C20.8131513,21.1367188 21.5833333,20.5716146 22.1848958,19.8333333 C22.854818,19.0107423 23.3333333,17.9967451 23.3333333,16.9166667 C23.3333333,15.5107423 22.7978514,14.3076173 21.9479167,13.4348958 C22.5654298,8.86621108 21.5878909,5.47786458 19.6328125,3.26302083 C17.6435548,1.00716175 14.7109375,0 11.6666667,0 Z M11.6666667,1.16666667 C14.4557292,1.16666667 17.0283202,2.08723958 18.7578125,4.046875 C20.4873048,6.00651042 21.4352215,9.04622425 20.78125,13.5078125 L20.7265625,13.8177083 L20.9635417,14.0364583 C21.7018229,14.6767577 22.1666667,15.6634117 22.1666667,16.9166667 C22.1666667,17.6458333 21.8317056,18.4410806 21.2916667,19.1041667 C20.7516278,19.7672527 20.0133465,20.2890625 19.359375,20.5078125 L19.0677083,20.5989583 L18.9765625,20.890625 C18.3522138,22.9778646 16.9462889,24.4589847 15.4583333,25.4296875 C13.9703778,26.4003909 12.3707681,26.8333333 11.6666667,26.8333333 C10.9694013,26.8333333 9.353841,26.3912763 7.85677083,25.4114583 C6.35970067,24.4316409 4.95149725,22.9436847 4.35677083,20.890625 L4.265625,20.6171875 L3.9921875,20.5078125 C3.40885417,20.2890625 2.65917983,19.7945965 2.09635417,19.140625 C1.5335285,18.4866535 1.16666667,17.6959638 1.16666667,16.9166667 C1.16666667,15.6634117 1.640625,14.5970055 2.296875,14.0364583 L2.55208333,13.8177083 L2.49739583,13.5078125 C1.81608058,9.04850275 2.77083333,6.00651042 4.52083333,4.046875 C6.27083333,2.08723958 8.87760417,1.16666667 11.6666667,1.16666667 Z M16.1692708,9.69791667 L15.8411458,10.1901042 L11.1015625,17.5364583 L7.96614583,14.7291667 L7.546875,14.3463542 L6.76302083,15.203125 L7.20052083,15.6041667 L10.8098958,18.8671875 L11.3203125,19.3229167 L11.6848958,18.7578125 L16.8255208,10.8098958 L17.1354167,10.3359375 L16.1692708,9.69791667 Z" id="icon-markaspre"></path>
                </g>
            </g>
        </g>
    </g>
</svg>