<?xml version="1.0" encoding="UTF-8"?>
<svg width="21px" height="14px" viewBox="0 0 21 14" version="1.1" xmlns="http://www.w3.org/2000/svg" xmlns:xlink="http://www.w3.org/1999/xlink">
    <!-- Generator: Sketch 64 (93537) - https://sketch.com -->
    <title>icon-back</title>
    <desc>Created with Sketch.</desc>
    <g id="Symbols" stroke="none" stroke-width="1" fill="none" fill-rule="evenodd">
        <g id="rule-actions" transform="translate(0.000000, -14.000000)" fill="#00433F" fill-rule="nonzero">
            <g id="Group-11">
                <g transform="translate(0.000000, 10.000000)">
                    <g id="button">
                        <g id="icons8-left" transform="translate(0.000000, 4.000000)">
                            <path d="M7.47395833,0.0546875 C7.34635417,0.07747425 7.23242217,0.141276333 7.14583333,0.236979167 L0.783854167,6.58072917 L0.3828125,7 L0.783854167,7.41927083 L7.14583333,13.7630208 C7.28710967,13.9361979 7.51269517,14.0159507 7.73144517,13.9658202 C7.94791667,13.9156902 8.11881525,13.7447917 8.16894517,13.5283202 C8.21907567,13.3095702 8.13932292,13.0839847 7.96614583,12.9427083 L2.60677083,7.58333333 L19.8333333,7.58333333 C20.0429688,7.58561183 20.2389326,7.47623683 20.3460285,7.29394517 C20.4508465,7.1116535 20.4508465,6.8883465 20.3460285,6.70605483 C20.2389326,6.52376317 20.0429688,6.41438817 19.8333333,6.41666667 L2.60677083,6.41666667 L7.96614583,1.05729167 C8.15527358,0.881836083 8.2054035,0.603841 8.0914715,0.373697917 C7.979818,0.141276333 7.72688817,0.0136721667 7.47395833,0.0546875 Z" id="icon-back"></path>
                        </g>
                    </g>
                </g>
            </g>
        </g>
    </g>
</svg>