<?xml version="1.0" encoding="UTF-8"?>
<svg width="46px" height="46px" viewBox="0 0 46 46" version="1.1" xmlns="http://www.w3.org/2000/svg" xmlns:xlink="http://www.w3.org/1999/xlink">
    <!-- Generator: Sketch 64 (93537) - https://sketch.com -->
    <title>icon-add-rule</title>
    <desc>Created with Sketch.</desc>
    <g id="Automation-flow" stroke="none" stroke-width="1" fill="none" fill-rule="evenodd">
        <g id="RuleBook1" transform="translate(-461.000000, -318.000000)">
            <g id="Group-19" transform="translate(415.000000, 262.000000)">
                <g id="icon-add-rule" transform="translate(46.000000, 56.000000)">
                    <rect id="Rectangle" fill="#F1F1F1" x="0" y="0" width="46" height="46" rx="23"></rect>
                    <path d="M32.8571429,28 C34.9941408,28 36.7142857,29.7201449 36.7142857,31.8571429 C36.7142857,33.9941408 34.9941408,35.7142857 32.8571429,35.7142857 C30.7201449,35.7142857 29,33.9941408 29,31.8571429 C29,29.7201449 30.7201449,28 32.8571429,28 Z" id="Path" fill="#015250" fill-rule="nonzero"></path>
                    <polygon id="Path" fill="#FFFFFF" fill-rule="nonzero" points="32.2142857 29.2857143 32.2142857 31.2142857 30.2857143 31.2142857 30.2857143 32.5 32.2142857 32.5 32.2142857 34.4285714 33.5 34.4285714 33.5 32.5 35.4285714 32.5 35.4285714 31.2142857 33.5 31.2142857 33.5 29.2857143"></polygon>
                    <path d="M16.7094021,13 L16.4259595,13.2711191 L13.2711191,16.4259595 L13,16.7094021 L13.2711191,16.9928448 L19.4329167,23.1546424 L14.491155,28.0964041 C14.4403203,28.1426177 14.4018091,28.202695 14.3802427,28.2689344 L13.5915326,31.2265972 C13.5561021,31.3621568 13.596154,31.5054185 13.6947428,31.6040072 C13.7933315,31.702596 13.9365932,31.7426479 14.0721528,31.7072174 L17.0298156,30.9185073 C17.096055,30.8969412 17.1561327,30.8584297 17.2023459,30.807595 L30.8322422,17.1776988 C30.8307018,17.1792391 31.1526557,16.8572853 31.1526557,16.8572853 C31.9028546,16.1070863 31.9013143,14.894753 31.1526557,14.1460943 C30.4024567,13.3958954 29.1916637,13.3974361 28.4414647,14.1460943 L23.1546424,19.4329167 L16.9928448,13.2711191 L16.7094021,13 Z M16.7094021,14.1214472 L17.3502291,14.7622741 L16.8449617,15.2675415 L17.4118471,15.8344269 L17.9171145,15.3291595 L18.5332942,15.9453392 L17.6336718,16.8449617 L18.2005572,17.4118471 L19.1001796,16.5122246 L19.7163594,17.1284044 L19.211092,17.6336718 L19.7779773,18.2005572 L20.2832447,17.6952898 L20.8994245,18.3114695 L19.999802,19.211092 L20.5666874,19.7779773 L21.4663099,18.8783549 L22.0824896,19.4945346 L21.5772222,19.999802 L22.0824896,20.5050694 L19.999802,22.587757 L14.1214472,16.7094021 L16.7094021,14.1214472 Z M28.675613,15.0210696 L30.2776804,16.623137 L16.7217257,30.1790916 L15.1196584,28.5770243 L28.675613,15.0210696 Z M26.1985704,22.4891683 L25.9151277,22.7602874 L25.1264176,23.5489974 L25.693303,24.1158828 L26.1985704,23.6106154 L26.8147502,24.2267952 L25.9151277,25.1264176 L26.4820131,25.693303 L27.3816355,24.7936806 L27.9978153,25.4098603 L27.4925479,25.9151277 L28.0594333,26.4820131 L28.5647007,25.9767457 L29.1808804,26.5929254 L28.281258,27.4925479 L28.8481434,28.0594333 L29.7477658,27.1598108 L30.3639456,27.7759906 L29.8586782,28.281258 L30.4255635,28.8481434 L30.9308309,28.342876 L31.1773028,28.5893479 L28.5893479,31.1773028 L23.04373,25.6440086 L22.4891683,26.1985704 L28.3059052,32.0276309 L28.5893479,32.29875 L28.8727905,32.0276309 L32.0276309,28.8727905 L32.29875,28.5893479 L32.0276309,28.3059052 L26.1985704,22.4891683 Z" id="Shape" fill="#015250" fill-rule="nonzero"></path>
                </g>
            </g>
        </g>
    </g>
</svg>