<?xml version="1.0" encoding="UTF-8"?>
<svg width="37px" height="22px" viewBox="0 0 37 22" version="1.1" xmlns="http://www.w3.org/2000/svg" xmlns:xlink="http://www.w3.org/1999/xlink">
    <!-- Generator: Sketch 64 (93537) - https://sketch.com -->
    <title>list-dependent-rules</title>
    <desc>Created with Sketch.</desc>
    <defs>
        <linearGradient x1="50%" y1="0%" x2="50%" y2="139.649416%" id="linearGradient-1">
            <stop stop-color="#FFFFFF" offset="0%"></stop>
            <stop stop-color="#00D77D" offset="100%"></stop>
        </linearGradient>
    </defs>
    <g id="Automation-flow" stroke="none" stroke-width="1" fill="none" fill-rule="evenodd">
        <g id="RuleBook3" transform="translate(-1516.000000, -707.000000)">
            <g id="Category" transform="translate(1469.000000, 349.000000)">
                <g id="list-dependent-rules" transform="translate(47.000000, 358.000000)">
                    <rect id="Rectangle" fill="url(#linearGradient-1)" opacity="0.607724144" x="3" y="4" width="30" height="15"></rect>
                    <path d="M-1.27897692e-13,0 L-1.27897692e-13,22 L5.5,22 L5.5,20.4285714 L1.57142857,20.4285714 L1.57142857,1.57142857 L5.5,1.57142857 L5.5,0 L-1.27897692e-13,0 Z M30.6428571,0 L30.6428571,1.57142857 L34.5714286,1.57142857 L34.5714286,20.4285714 L30.6428571,20.4285714 L30.6428571,22 L36.1428571,22 L36.1428571,0 L30.6428571,0 Z M7.07142857,5.5 L7.07142857,7.07142857 L29.0714286,7.07142857 L29.0714286,5.5 L7.07142857,5.5 Z M7.07142857,10.2142857 L7.07142857,11.7857143 L25.9285714,11.7857143 L25.9285714,10.2142857 L7.07142857,10.2142857 Z M7.07142857,14.9285714 L7.07142857,16.5 L29.0714286,16.5 L29.0714286,14.9285714 L7.07142857,14.9285714 Z" id="Shape" fill="#015250" fill-rule="nonzero"></path>
                </g>
            </g>
        </g>
    </g>
</svg>