<?xml version="1.0" encoding="UTF-8"?>
<svg width="31px" height="31px" viewBox="0 0 31 31" version="1.1" xmlns="http://www.w3.org/2000/svg" xmlns:xlink="http://www.w3.org/1999/xlink">
    <!-- Generator: Sketch 64 (93537) - https://sketch.com -->
    <title>list-custom</title>
    <desc>Created with Sketch.</desc>
    <defs>
        <linearGradient x1="50%" y1="0%" x2="50%" y2="139.649416%" id="linearGradient-1">
            <stop stop-color="#FFFFFF" offset="0%"></stop>
            <stop stop-color="#00D77D" offset="100%"></stop>
        </linearGradient>
    </defs>
    <g id="Automation-flow" stroke="none" stroke-width="1" fill="none" fill-rule="evenodd">
        <g id="RuleBook3" transform="translate(-1662.000000, -593.000000)">
            <g id="Category" transform="translate(1469.000000, 349.000000)">
                <g id="list-custom" transform="translate(193.000000, 244.598882)">
                    <rect id="Rectangle" fill="url(#linearGradient-1)" x="20" y="14.4011176" width="8" height="12"></rect>
                    <path d="M17.7034314,0.00896071312 C16.7418047,-0.112133189 16.0532321,1.02044999 16.5827206,1.81349503 C16.6040899,1.84673675 16.6302083,1.87997787 16.658701,1.90847052 L18.5582108,3.67501463 L16.5827206,5.65050483 C16.4022672,5.82383495 16.3476561,6.09214116 16.4450064,6.32245658 C16.5399819,6.55277199 16.7702973,6.6999843 17.0196078,6.69523522 L18.8431373,6.69523522 C18.8431373,9.03163228 20.7616422,10.9501372 23.0980392,10.9501372 C25.4344363,10.9501372 27.3529412,9.03163228 27.3529412,6.69523522 L27.3529412,6.18236758 C27.3553154,6.15150069 27.3553154,6.11825897 27.3529412,6.08739209 C27.3529412,6.06839699 27.3529412,6.04940189 27.3529412,6.03040679 L27.3529412,3.75099503 C27.3553154,3.72012814 27.3553154,3.68688642 27.3529412,3.65601954 C27.3529412,3.63702444 27.3529412,3.61802934 27.3529412,3.59903424 L27.3529412,1.71851954 C27.3553154,1.4098495 27.1273742,1.1486666 26.8210784,1.1106764 L17.7034314,0.00896071312 Z M17.7414216,1.24364209 L26.1372549,2.25038228 L26.1372549,3.0481764 L19.6979167,3.0481764 L17.7414216,1.24364209 Z M19.7169118,4.26386267 L26.1372549,4.26386267 L26.1372549,5.47954895 L18.5012255,5.47954895 L19.7169118,4.26386267 Z M20.0588235,6.69523522 L26.1372549,6.69523522 C26.1372549,8.36917809 24.7719821,9.73445091 23.0980392,9.73445091 C21.4240964,9.73445091 20.0588235,8.36917809 20.0588235,6.69523522 Z M21.8823529,11.5579803 C20.3532475,11.5579803 19.0354625,12.3937646 18.3112745,13.5714607 L18.2922794,13.5524656 L8.6997549,26.1462156 L3.64705882,26.1462156 L3.64705882,15.2050391 L1.82352941,15.2050391 C0.823912529,15.2050391 -1.79412041e-13,16.0289517 -1.79412041e-13,17.0285686 L-1.79412041e-13,25.5383725 C-1.79412041e-13,26.5379894 0.823912529,27.3619019 1.82352941,27.3619019 L2.43137255,27.3619019 L2.43137255,28.5775882 C2.43137255,29.577205 3.25528508,30.4011176 4.25490196,30.4011176 L13.9803922,30.4011176 C14.980009,30.4011176 15.8039216,29.577205 15.8039216,28.5775882 L15.8039216,26.1462156 L14.4742647,26.1462156 L17.627451,21.9862891 L17.627451,29.7932744 C17.627451,30.1280629 17.9005057,30.4011176 18.2352941,30.4011176 L29.7843137,30.4011176 C30.1191022,30.4011176 30.3921569,30.1280629 30.3921569,29.7932744 L30.3921569,13.9893529 C30.3921569,12.64545 29.3046878,11.5579803 27.9607843,11.5579803 L21.8823529,11.5579803 Z M21.8823529,12.7736666 L26.4981618,12.7736666 L18.8431373,22.0242793 L18.8431373,20.1817548 C18.8360139,19.9276952 18.6698071,19.7045031 18.4276193,19.6237737 C18.1854321,19.5430448 17.9195008,19.6213994 17.7604167,19.820848 L12.9546569,26.1462156 L10.2383578,26.1462156 L19.2610294,14.2932744 C19.275276,14.2742793 19.2871478,14.2552842 19.2990196,14.2362891 C19.8000155,13.3862588 20.7663912,12.7736666 21.8823529,12.7736666 Z M28.0557598,12.7736666 C28.5804992,12.8069083 28.9746478,13.1108299 29.1194853,13.5714607 L18.8431373,25.7093284 L18.8431373,23.9427842 L28.0557598,12.7736666 Z M29.1764706,15.3949901 L29.1764706,26.7540588 L19.5459559,26.7540588 L29.1764706,15.3949901 Z M1.82352941,16.4207254 L2.43137255,16.4207254 L2.43137255,26.1462156 L1.82352941,26.1462156 C1.48636673,26.1462156 1.21568627,25.8755358 1.21568627,25.5383725 L1.21568627,17.0285686 C1.21568627,16.6914059 1.48636673,16.4207254 1.82352941,16.4207254 Z M3.64705882,27.3619019 L14.5882353,27.3619019 L14.5882353,28.5775882 C14.5882353,28.9147515 14.3175555,29.1854313 13.9803922,29.1854313 L4.25490196,29.1854313 C3.91773927,29.1854313 3.64705882,28.9147515 3.64705882,28.5775882 L3.64705882,27.3619019 Z M18.8431373,27.969745 L29.1764706,27.969745 L29.1764706,29.1854313 L18.8431373,29.1854313 L18.8431373,27.969745 Z" id="Shape" fill="#015250" fill-rule="nonzero"></path>
                </g>
            </g>
        </g>
    </g>
</svg>