<?xml version="1.0" encoding="UTF-8"?>
<svg width="15px" height="19px" viewBox="0 0 15 19" version="1.1" xmlns="http://www.w3.org/2000/svg" xmlns:xlink="http://www.w3.org/1999/xlink">
    <!-- Generator: Sketch 64 (93537) - https://sketch.com -->
    <title>mark-posted</title>
    <desc>Created with Sketch.</desc>
    <g id="Mark-as" stroke="none" stroke-width="1" fill="none" fill-rule="evenodd">
        <g id="Mark-as-posted" transform="translate(-758.000000, -557.000000)" fill="#FFFFFF" fill-rule="nonzero">
            <g id="Group-15" transform="translate(668.000000, 537.000000)">
                <g id="Group-13">
                    <g id="Group-16" transform="translate(61.000000, 0.000000)">
                        <path d="M29.3357121,20 C29.1388665,20.0371104 28.9968793,20.2113674 29.0000521,20.4130536 L29.0000521,38.5874142 C29.0000521,38.8149163 29.1856576,39.0006412 29.4131597,39.0006412 L40.1525546,39.0006412 C40.2622719,39.0036951 40.3703759,38.9617441 40.4494369,38.8842965 L43.7538661,35.5798673 C43.8313136,35.5008064 43.8732646,35.3927024 43.8700374,35.282985 L43.8700374,20.4130536 C43.8700374,20.1855515 43.6844859,20 43.4569838,20 L29.4131597,20 C29.4002518,20 29.3873438,20 29.3744359,20 C29.361528,20 29.34862,20 29.3357121,20 Z M29.8262133,20.8261073 L43.0439301,20.8261073 L43.0439301,34.8699314 L40.1525546,34.8699314 C40.1396466,34.8699314 40.1267387,34.8699314 40.1138308,34.8699314 C39.90085,34.8892933 39.7378875,35.0683909 39.7395009,35.282985 L39.7395009,38.1743606 L29.8262133,38.1743606 L29.8262133,20.8261073 Z M36.4350717,21.6522146 C36.2075696,21.6522146 36.0220181,21.8377661 36.0220181,22.0652682 C36.0220181,22.2927703 36.2075696,22.4783219 36.4350717,22.4783219 C36.6625738,22.4783219 36.8481254,22.2927703 36.8481254,22.0652682 C36.8481254,21.8377661 36.6625738,21.6522146 36.4350717,21.6522146 Z M30.9879267,22.8913755 C30.791081,22.9284859 30.6490939,23.1027429 30.6522667,23.3044292 L30.6522667,36.9351996 C30.6522667,37.1627017 30.8378722,37.3482533 31.0653743,37.3482533 L39.3264473,37.3482533 L39.3264473,36.522146 L31.4784279,36.522146 L31.4784279,23.7174828 L41.3917155,23.7174828 L41.3917155,34.4568777 L42.2178228,34.4568777 L42.2178228,23.3044292 C42.2178228,23.0769271 42.0322713,22.8913755 41.8047692,22.8913755 L31.0653743,22.8913755 C31.0524664,22.8913755 31.0395584,22.8913755 31.0266505,22.8913755 C31.0137426,22.8913755 31.0008346,22.8913755 30.9879267,22.8913755 Z M40.5656082,35.6960387 L42.4501655,35.6960387 L40.5656082,37.580596 L40.5656082,35.6960387 Z" id="mark-posted"></path>
                    </g>
                </g>
            </g>
        </g>
    </g>
</svg>