<?xml version="1.0" encoding="UTF-8"?>
<svg width="17px" height="20px" viewBox="0 0 17 20" version="1.1" xmlns="http://www.w3.org/2000/svg" xmlns:xlink="http://www.w3.org/1999/xlink">
    <!-- Generator: Sketch 64 (93537) - https://sketch.com -->
    <title>mark-completed</title>
    <desc>Created with Sketch.</desc>
    <g id="Mark-as" stroke="none" stroke-width="1" fill="none" fill-rule="evenodd">
        <g id="Mark-as-completed" transform="translate(-747.000000, -557.000000)" fill="#FFFFFF" fill-rule="nonzero">
            <g id="Group-15" transform="translate(668.000000, 537.000000)">
                <g id="Group-13">
                    <g id="Group-16" transform="translate(61.000000, 0.000000)">
                        <path d="M23.6521739,20 C23.4251209,20 23.1936478,20.0831865 23.0297213,20.2471128 C22.8657952,20.4110391 22.7826087,20.6425121 22.7826087,20.8695652 L19.3043478,20.8695652 C18.5852174,20.8695652 18,21.4547826 18,22.173913 L18,38.6956522 C18,39.4147826 18.5852174,40 19.3043478,40 L33.2173913,40 C33.8208696,40 34.33017,39.5884713 34.4784309,39.03108 C34.5066917,38.9241235 34.5217391,38.8113043 34.5217391,38.6956522 L34.5217391,22.173913 C34.5217391,21.4547826 33.9365217,20.8695652 33.2173913,20.8695652 L29.7391304,20.8695652 C29.7391304,20.6425121 29.6559439,20.4110391 29.4920178,20.2471128 C29.3280913,20.0831865 29.0966183,20 28.8695652,20 L23.6521739,20 Z M23.6521739,20.8695652 L28.8695652,20.8695652 L28.8695652,23.4782609 L23.6521739,23.4782609 L23.6521739,20.8695652 Z M19.3043478,21.7391304 L22.7826087,21.7391304 L22.7826087,22.6086957 L19.7391304,22.6086957 L19.7391304,38.2608696 L32.7826087,38.2608696 L32.7826087,22.6086957 L29.7391304,22.6086957 L29.7391304,21.7391304 L33.2173913,21.7391304 C33.4569565,21.7391304 33.6521739,21.933913 33.6521739,22.173913 L33.6521739,38.6956522 C33.6521739,38.9356522 33.4569565,39.1304348 33.2173913,39.1304348 L19.3043478,39.1304348 C19.0647826,39.1304348 18.8695652,38.9356522 18.8695652,38.6956522 L18.8695652,22.173913 C18.8695652,21.933913 19.0647826,21.7391304 19.3043478,21.7391304 Z M20.6086957,23.4782609 L22.7826087,23.4782609 C22.7826087,23.7053139 22.8657952,23.936787 23.0297213,24.1007135 C23.1936478,24.2646396 23.4251209,24.3478261 23.6521739,24.3478261 L28.8695652,24.3478261 C29.0966183,24.3478261 29.3280913,24.2646396 29.4920178,24.1007135 C29.6559439,23.936787 29.7391304,23.7053139 29.7391304,23.4782609 L31.9130435,23.4782609 L31.9130435,37.3913043 L20.6086957,37.3913043 L20.6086957,23.4782609 Z M30.1713657,26.5166011 C30.0281085,26.5186232 29.8950201,26.5910436 29.815557,26.7102583 L25.6265287,32.8184443 L22.6416439,30.0781252 C22.5284111,29.9662934 22.3631298,29.9252562 22.2107389,29.971137 C22.058348,30.0170179 21.9431971,30.1424859 21.9105287,30.2982447 C21.8778604,30.4540036 21.9328945,30.6151656 22.0540083,30.7184104 L25.7768343,34.1372283 L30.5322691,27.2027852 C30.6268818,27.069231 30.6384847,26.893862 30.5622923,26.7490068 C30.4861,26.6041517 30.3350209,26.5143518 30.1713657,26.5166011 Z" id="mark-completed"></path>
                    </g>
                </g>
            </g>
        </g>
    </g>
</svg>