<?xml version="1.0" encoding="UTF-8"?>
<svg width="18px" height="17px" viewBox="0 0 18 17" version="1.1" xmlns="http://www.w3.org/2000/svg" xmlns:xlink="http://www.w3.org/1999/xlink">
    <!-- Generator: Sketch 64 (93537) - https://sketch.com -->
    <title>mark-cancelled</title>
    <desc>Created with Sketch.</desc>
    <g id="Mark-as" stroke="none" stroke-width="1" fill="none" fill-rule="evenodd">
        <g id="Mark-as-completed" transform="translate(-751.000000, -559.000000)" fill="#FFFFFF" fill-rule="nonzero">
            <g id="Group-15" transform="translate(668.000000, 537.000000)">
                <g id="Group-13">
                    <g id="Group-16" transform="translate(61.000000, 0.000000)">
                        <path d="M25.1762575,22 C25.004492,22.0323821 24.8805954,22.184437 24.8834111,22.3604264 L24.8834111,25.2438374 C24.8834111,25.2551008 24.8834111,25.2663641 24.8834111,25.2776274 L24.8834111,34.254497 C24.8834111,34.8514532 24.3990881,35.3357761 23.8021319,35.3357761 C23.7908686,35.3357761 23.7796053,35.3357761 23.7683419,35.3357761 C23.1882807,35.3174733 22.7208528,34.838782 22.7208528,34.254497 L22.7208528,26.3251166 L24.1625583,26.3251166 L24.1625583,25.6042638 L22.3604264,25.6042638 C22.1619104,25.6042638 22,25.7661742 22,25.9646902 L22,34.254497 C22,35.2020241 22.7476033,35.9791935 23.6782353,36.0453656 C23.6824592,36.0453656 23.6852748,36.0453656 23.6894987,36.0453656 C23.6965382,36.0495894 23.7049858,36.0538133 23.7120253,36.0566289 C23.7429996,36.0580367 23.771158,36.0566289 23.8021319,36.0566289 L31.0106596,36.0566289 C31.1401878,36.0580367 31.2612687,35.9904568 31.3274405,35.8778235 C31.3922048,35.7651903 31.3922048,35.6272148 31.3274405,35.5145815 C31.2612687,35.4019483 31.1401878,35.3343683 31.0106596,35.3357761 L25.2325741,35.3357761 C25.4634723,35.0330742 25.6042638,34.6613845 25.6042638,34.254497 L25.6042638,25.3001541 C25.6056716,25.2818513 25.6056716,25.2621403 25.6042638,25.2438374 L25.6042638,22.7208528 L37.8587608,22.7208528 L37.8587608,30.2898068 C37.857353,30.419335 37.9249329,30.5404159 38.0375662,30.6065877 C38.1501994,30.671352 38.288175,30.671352 38.4008082,30.6065877 C38.5134415,30.5404159 38.5810214,30.419335 38.5796352,30.2898068 L38.5796352,22.3604264 C38.5796352,22.1619104 38.4177032,22 38.2191872,22 L25.2438374,22 C25.2325741,22 25.2213108,22 25.2100475,22 C25.1987841,22 25.1875208,22 25.1762575,22 Z M27.7668221,24.8834111 L27.7668221,25.6042638 L35.6962025,25.6042638 L35.6962025,24.8834111 L27.7668221,24.8834111 Z M27.7668221,26.3251166 L27.7668221,27.0459694 L35.6962025,27.0459694 L35.6962025,26.3251166 L27.7668221,26.3251166 Z M27.7668221,29.2085276 L27.7668221,29.9293804 L31.3710859,29.9293804 L31.3710859,29.2085276 L27.7668221,29.2085276 Z M32.0919387,29.2085276 L32.0919387,29.9293804 L35.6962025,29.9293804 L35.6962025,29.2085276 L32.0919387,29.2085276 Z M27.7668221,30.6502332 L27.7668221,31.3710859 L31.3710859,31.3710859 L31.3710859,30.6502332 L27.7668221,30.6502332 Z M32.0919387,30.6502332 L32.0919387,31.3710859 L32.8127915,31.3710859 L33.8940706,30.6502332 L32.0919387,30.6502332 Z M36.0566289,30.9768696 C33.8771756,30.9768696 32.0919387,32.7621065 32.0919387,34.9415598 C32.0919387,37.1210131 33.8771756,38.90625 36.0566289,38.90625 C38.2360822,38.90625 40.0213191,37.1210131 40.0213191,34.9415598 C40.0213191,32.7621065 38.2360822,30.9768696 36.0566289,30.9768696 Z M36.0566289,31.6977224 C36.8183111,31.6977224 37.5180454,31.9652265 38.072764,32.4073118 L33.5223809,36.9576949 C33.0802956,36.4029763 32.8127915,35.703242 32.8127915,34.9415598 C32.8127915,33.1563229 34.271392,31.6977224 36.0566289,31.6977224 Z M27.7668221,32.0919387 L27.7668221,32.8127915 L31.3710859,32.8127915 L31.3710859,32.0919387 L27.7668221,32.0919387 Z M38.5908769,32.9141614 C39.0371861,33.4702881 39.3004664,34.1770616 39.3004664,34.9415598 C39.3004664,36.7267967 37.8418658,38.1853972 36.0566289,38.1853972 C35.2921307,38.1853972 34.5853572,37.9221169 34.0292305,37.4758078 L38.5908769,32.9141614 Z M27.7668221,33.5336442 L27.7668221,34.254497 L31.3710859,34.254497 L31.3710859,33.5336442 L27.7668221,33.5336442 Z" id="mark-cancelled"></path>
                    </g>
                </g>
            </g>
        </g>
    </g>
</svg>