<?xml version="1.0" encoding="UTF-8"?>
<svg width="23px" height="20px" viewBox="0 0 23 20" version="1.1" xmlns="http://www.w3.org/2000/svg" xmlns:xlink="http://www.w3.org/1999/xlink">
    <!-- Generator: Sketch 64 (93537) - https://sketch.com -->
    <title>icon-assessment</title>
    <desc>Created with Sketch.</desc>
    <g id="Action-Approval" stroke="none" stroke-width="1" fill="none" fill-rule="evenodd">
        <g id="Action-01" transform="translate(-1494.000000, -815.000000)" fill="#005350" fill-rule="nonzero">
            <g id="Group-9" transform="translate(1491.000000, 433.000000)">
                <g id="icons8-send" transform="translate(3.000000, 382.000000)">
                    <path d="M0,0 L0,16 L11.5,16 L11.5,15 L1,15 L1,13.9902345 L7.404297,8.9257815 C7.921875,9.3789065 8.8789065,10.2109375 9,10.3164065 C9.761719,10.980469 10.5703125,11.1484375 11.0878905,11.1484375 C11.605469,11.1484375 12.4140625,10.980469 13.1777345,10.3164065 C13.7695315,9.8007815 19.589844,4.7265625 21,3.498047 L21,12 L22,13 L22,0 L0,0 Z M1,1 L21,1 L21,2.171875 C20.482422,2.623047 13.15625,9.0097655 12.5214845,9.5625 C11.9609375,10.0507815 11.390625,10.1484375 11.0878905,10.1484375 C10.7851565,10.1484375 10.216797,10.048828 9.65625,9.5625 C9.0039065,8.9941405 1.220703,2.2109375 1,2.017578 L1,1 Z M1,3.34375 C1.8476565,4.0839845 4.359375,6.2734375 6.636719,8.2578125 L1,12.714844 L1,3.34375 Z M17.9941405,11.4941405 C17.7910155,11.496094 17.609375,11.6191405 17.53125,11.8066405 C17.455078,11.996094 17.5,12.2109375 17.6464845,12.3535155 L20.292969,15 L13.5,15 L13.5,16 L20.292969,16 L17.6464845,18.6464845 C17.515625,18.7714845 17.4628905,18.9589845 17.5097655,19.1328125 C17.5546875,19.308594 17.6914065,19.4453125 17.8671875,19.4902345 C18.0410155,19.5371095 18.2285155,19.484375 18.3535155,19.3535155 L22.2070315,15.5 L18.3535155,11.6464845 C18.2597655,11.548828 18.1308595,11.496094 17.9941405,11.4941405 Z" id="icon-assessment"></path>
                </g>
            </g>
        </g>
    </g>
</svg>