<?xml version="1.0" encoding="UTF-8"?>
<svg width="18px" height="12px" viewBox="0 0 18 12" version="1.1" xmlns="http://www.w3.org/2000/svg" xmlns:xlink="http://www.w3.org/1999/xlink">
    <!-- Generator: Sketch 64 (93537) - https://sketch.com -->
    <title>icon-next</title>
    <desc>Created with Sketch.</desc>
    <g id="Symbols" stroke="none" stroke-width="1" fill="none" fill-rule="evenodd">
        <g id="action-bg" transform="translate(-371.000000, -22.000000)" fill="#005350" fill-rule="nonzero">
            <path d="M382.002763,22.0015232 C381.81429,22.0348986 381.663119,22.1723275 381.61011,22.3549111 C381.557102,22.5394583 381.612073,22.7357849 381.751465,22.8653602 L386.369067,27.4829617 L371.526777,27.4829617 C371.51107,27.4829617 371.495364,27.4829617 371.479658,27.4829617 C371.202838,27.4967047 370.986878,27.7322966 371.000621,28.0091169 C371.014364,28.2859373 371.249956,28.5018968 371.526777,28.4881538 L386.369067,28.4881538 L381.751465,33.1057553 C381.602257,33.227478 381.533543,33.4218409 381.576735,33.6103145 C381.619926,33.7968249 381.767172,33.9440699 381.953682,33.9872615 C382.142155,34.0304536 382.336519,33.9617392 382.458241,33.812531 L387.93968,28.3467987 L388.285214,27.9855577 L387.93968,27.6243168 L382.458241,22.1585845 C382.354188,22.0466785 382.203017,21.9897439 382.049882,22.0015232 C382.034176,22.0015232 382.01847,22.0015232 382.002763,22.0015232 Z" id="icon-next"></path>
        </g>
    </g>
</svg>