<?xml version="1.0" encoding="UTF-8"?>
<svg width="16px" height="18px" viewBox="0 0 16 18" version="1.1" xmlns="http://www.w3.org/2000/svg" xmlns:xlink="http://www.w3.org/1999/xlink">
    <!-- Generator: Sketch 64 (93537) - https://sketch.com -->
    <title>icon-deactivate</title>
    <desc>Created with Sketch.</desc>
    <g id="Symbols" stroke="none" stroke-width="1" fill="none" fill-rule="evenodd">
        <g id="rule-actions" transform="translate(-660.000000, -11.000000)" fill="#EF5059" fill-rule="nonzero">
            <g id="Group-2">
                <g transform="translate(633.000000, 0.000000)">
                    <path d="M28.875,11 C28.5053572,11 28.1955116,11.1873009 27.9726562,11.4101562 C27.9496816,11.4328847 27.929741,11.4584874 27.9133301,11.4863281 L27.1647949,12.7702637 C27.0622181,12.8978829 27,13.0615681 27,13.25 L27,27.5 C27,27.934625 27.315375,28.25 27.75,28.25 L35.2778321,28.25 C35.0712071,28.01975 34.8874451,27.76925 34.7314455,27.5 L27.75,27.5 L27.75,13.25 L36.75,13.25 L36.75,21.1630858 C36.989625,21.0528357 37.240125,20.9650741 37.5,20.8979491 L37.5,13.25 C37.5,13.0410969 37.4261872,12.8605408 37.302246,12.7285156 C37.3010434,12.7265513 37.2998227,12.7245981 37.2985841,12.7226562 L36.5485841,11.4475098 C36.5414385,11.4353599 36.5336136,11.4236225 36.5251466,11.4123535 C36.3226466,11.1423535 36.0123536,11 35.6623534,11 L28.875,11 Z M28.875,11.75 L35.6623534,11.75 C35.7609754,11.75 35.8962765,11.8303397 35.921631,11.8613281 L36.2973634,12.5 L28.1909179,12.5 L28.5234375,11.9301758 C28.6586887,11.797994 28.728165,11.75 28.875,11.75 Z M29.25,14.375 C29.0541668,14.375 28.8545213,14.4467484 28.7131346,14.5881346 C28.5717484,14.7295212 28.5,14.9291668 28.5,15.125 L28.5,16.625 C28.5,16.7617655 28.5794644,16.8806071 28.6486815,17 C28.5794644,17.1193929 28.5,17.2382345 28.5,17.375 L28.5,18.875 C28.5,19.0708332 28.5717484,19.2704787 28.7131346,19.4118654 C28.8545213,19.5532516 29.0541668,19.625 29.25,19.625 L35.25,19.625 C35.4458332,19.625 35.6454787,19.5532516 35.7868654,19.4118654 C35.9282516,19.2704787 36,19.0708332 36,18.875 L36,17.375 C36,17.2382345 35.9205356,17.1193929 35.8513185,17 C35.9205356,16.8806071 36,16.7617655 36,16.625 L36,15.125 C36,14.9291668 35.9282516,14.7295212 35.7868654,14.5881346 C35.6454787,14.4467484 35.4458332,14.375 35.25,14.375 L29.25,14.375 Z M29.25,15.125 L35.25,15.125 L35.25,16.625 L29.25,16.625 L29.25,15.125 Z M29.25,17.375 L35.25,17.375 L35.25,18.875 L29.25,18.875 L29.25,17.375 Z M38.6191406,21.494873 C38.4123221,21.4981059 38.2471677,21.6681756 38.25,21.875 L38.25,25.25 C38.2480874,25.3852385 38.3191407,25.5110305 38.4359523,25.5792079 C38.5527639,25.6473853 38.6972361,25.6473853 38.8140477,25.5792079 C38.9308593,25.5110305 39.0019126,25.3852385 39,25.25 L39,21.875 C39.001388,21.7736374 38.9616837,21.67603 38.8899339,21.6044181 C38.818184,21.5328062 38.7205004,21.4932899 38.6191406,21.494873 Z M32.25,21.5 C31.8357864,21.5 31.5,21.8357864 31.5,22.25 C31.5,22.6642136 31.8357864,23 32.25,23 C32.6642136,23 33,22.6642136 33,22.25 C33,21.8357864 32.6642136,21.5 32.25,21.5 Z M37.0737304,21.8728029 C37.0149083,21.8740349 36.9572013,21.8890888 36.9052733,21.916748 C35.699031,22.5402927 34.875,23.801828 34.875,25.25 C34.875,27.3167502 36.5582498,29 38.625,29 C40.6917502,29 42.375,27.3167502 42.375,25.25 C42.375,23.801828 41.550969,22.5402927 40.3447267,21.916748 C40.1606768,21.8216892 39.9344144,21.8938308 39.8393556,22.0778808 C39.7442968,22.2619308 39.8164384,22.4881932 40.0004884,22.583252 C40.9647457,23.0817072 41.625,24.085922 41.625,25.25 C41.625,26.9114997 40.2864998,28.25 38.625,28.25 C36.9635002,28.25 35.625,26.9114997 35.625,25.25 C35.625,24.085922 36.2852543,23.0817072 37.2495116,22.583252 C37.4064981,22.5048254 37.4881116,22.3280243 37.4459632,22.1576747 C37.4038149,21.9873251 37.2491751,21.8689784 37.0737304,21.8728029 Z M32.25,24.5 C31.8357864,24.5 31.5,24.8357864 31.5,25.25 C31.5,25.6642136 31.8357864,26 32.25,26 C32.6642136,26 33,25.6642136 33,25.25 C33,24.8357864 32.6642136,24.5 32.25,24.5 Z" id="icon-deactivate"></path>
                </g>
            </g>
        </g>
    </g>
</svg>