<?xml version="1.0" encoding="UTF-8"?>
<svg width="17px" height="16px" viewBox="0 0 17 16" version="1.1" xmlns="http://www.w3.org/2000/svg" xmlns:xlink="http://www.w3.org/1999/xlink">
    <!-- Generator: Sketch 64 (93537) - https://sketch.com -->
    <title>icon-savedraft</title>
    <desc>Created with Sketch.</desc>
    <g id="Symbols" stroke="none" stroke-width="1" fill="none" fill-rule="evenodd">
        <g id="rule-actions" transform="translate(-474.000000, -12.000000)" fill="#005350" fill-rule="nonzero">
            <g id="Group-2">
                <g transform="translate(458.000000, 0.000000)">
                    <path d="M17.0434783,12 C16.4687499,12 16,12.4687499 16,13.0434783 L16,26.9565217 C16,27.5312501 16.4687499,28 17.0434783,28 L30.9565217,28 C31.5312501,28 32,27.5312501 32,26.9565217 L32,21.25 L29.2065217,24.0434783 L29.2065217,27.3043478 L18.7934783,27.3043478 L18.7934783,21.326087 C18.7934783,20.7934783 19.2282609,20.3586957 19.7608696,20.3586957 L26.9130435,20.3586957 L29.7826087,17.4891304 C30.3804348,16.8913043 31.2513586,16.7296195 32,17 L32,15.4782609 C32,15.3858696 31.9673913,15.2934783 31.9021739,15.2282609 L28.7717391,12.0978261 C28.7065217,12.0326087 28.6141304,12 28.5217391,12 L17.0434783,12 Z M19.4782609,12.6956522 L27.4782609,12.6956522 C27.8614132,12.6956522 28.173913,13.0081523 28.173913,13.3913043 L28.173913,17.2173913 C28.173913,17.6005437 27.8614132,17.9130435 27.4782609,17.9130435 L19.4782609,17.9130435 C19.0951089,17.9130435 18.7826087,17.6005437 18.7826087,17.2173913 L18.7826087,13.3913043 C18.7826087,13.0081523 19.0951089,12.6956522 19.4782609,12.6956522 Z M25.7391304,13.3913043 C25.5461958,13.3913043 25.3913043,13.5461958 25.3913043,13.7391304 L25.3913043,16.8695652 C25.3913043,17.0625002 25.5461958,17.2173913 25.7391304,17.2173913 L26.7826087,17.2173913 C26.9755437,17.2173913 27.1304348,17.0625002 27.1304348,16.8695652 L27.1304348,13.7391304 C27.1304348,13.5461958 26.9755437,13.3913043 26.7826087,13.3913043 L25.7391304,13.3913043 Z M31.2826087,17.5652174 C30.9198369,17.5652174 30.548913,17.701087 30.2717391,17.9782609 L30.1956522,18.0652174 C30.1671197,18.0828803 30.1413043,18.1046195 30.1195652,18.1304348 L24.6630435,23.5869565 C24.6182066,23.6277176 24.5842393,23.6807064 24.5652174,23.7391304 L24.0108696,25.826087 C23.9796195,25.9456522 24.0149457,26.0720108 24.1019023,26.1589673 C24.1888588,26.2459238 24.3152174,26.2812501 24.4347826,26.25 L26.5217391,25.6956522 C26.5801631,25.6766306 26.6331523,25.642663 26.673913,25.5978261 L32.0434783,20.2282609 C32.0434783,20.2282609 32.0896741,20.1820654 32.1304348,20.1413043 C32.1562501,20.1195652 32.1779892,20.0937499 32.1956522,20.0652174 C32.232337,20.0285325 32.2826087,19.9891304 32.2826087,19.9891304 C32.8369565,19.4347826 32.8355979,18.5312501 32.2826087,17.9782609 C32.0054348,17.701087 31.6453805,17.5652174 31.2826087,17.5652174 Z M30.5217391,18.7065217 L31.5543478,19.7391304 L26.25,25.0434783 L26.2282609,25.0543478 L25.2065217,24.0326087 L25.2173913,24.0108696 L30.5217391,18.7065217 Z M17.3913043,25.5652174 L18.0869565,25.5652174 L18.0869565,26.2608696 L17.3913043,26.2608696 L17.3913043,25.5652174 Z M29.9130435,25.5652174 L30.6086957,25.5652174 L30.6086957,26.2608696 L29.9130435,26.2608696 L29.9130435,25.5652174 Z" id="icon-savedraft"></path>
                </g>
            </g>
        </g>
    </g>
</svg>