<?xml version="1.0" encoding="UTF-8"?>
<svg width="26px" height="21px" viewBox="0 0 26 21" version="1.1" xmlns="http://www.w3.org/2000/svg" xmlns:xlink="http://www.w3.org/1999/xlink">
    <!-- Generator: Sketch 64 (93537) - https://sketch.com -->
    <title>icon-markaspaid</title>
    <desc>Created with Sketch.</desc>
    <g id="Mark-as" stroke="none" stroke-width="1" fill="none" fill-rule="evenodd">
        <g id="Resolution-01" transform="translate(-1492.000000, -752.000000)" fill="#005350" fill-rule="nonzero">
            <g id="Group-13" transform="translate(1448.000000, 264.000000)">
                <g id="icon-m-paid" transform="translate(44.000000, 487.000000)">
                    <path d="M12.6947993,0.996750758 C12.5807383,1.00875744 12.4726802,1.06078505 12.3906363,1.14082792 L5.92317242,7.65631758 L1.02454874,7.65631758 C0.756405382,7.65631758 0.482258167,7.75036808 0.288154334,7.94447192 C0.0940505009,8.13857575 0,8.41272296 0,8.68086632 L0,10.7299638 C0,10.9981077 0.0940505009,11.2722544 0.288154334,11.4663582 C0.482258167,11.660462 0.756405382,11.7545125 1.02454874,11.7545125 L1.10459161,11.7545125 L3.85806636,20.9114169 C3.86206876,20.9214222 3.86807159,20.9334288 3.87407493,20.9434341 C4.09019068,21.5197427 4.64248649,22 5.33085517,22 L20.1868119,22 C20.8631744,22 21.4654969,21.5697694 21.6435922,20.9274255 C21.6455931,20.9234236 21.6415912,20.9154193 21.6435922,20.9114169 L21.6596008,20.8954084 L24.5091269,11.7545125 L24.5891698,11.7545125 C24.8573137,11.7545125 25.1314604,11.660462 25.3255642,11.4663582 C25.5196681,11.2722544 25.6137186,10.9981077 25.6137186,10.7299638 L25.6137186,8.68086632 C25.6137186,8.41272296 25.5196681,8.13857575 25.3255642,7.94447192 C25.1314604,7.75036808 24.8573137,7.65631758 24.5891698,7.65631758 L19.6905461,7.65631758 L13.1110222,1.14082792 C13.0009631,1.03277031 12.8488817,0.97874124 12.6947993,0.996750758 Z M12.7588336,2.24541954 L18.2177573,7.65631758 L7.39596123,7.65631758 L12.7588336,2.24541954 Z M1.02454874,8.68086632 L19.4184004,8.68086632 C19.4564209,8.68486872 19.4924399,8.68486872 19.5304604,8.68086632 L24.5891698,8.68086632 L24.5891698,10.7299638 L24.1249212,10.7299638 C23.9068045,10.7319648 23.7127006,10.874041 23.6446639,11.0821524 L20.6670692,20.6232626 C20.6670692,20.6292659 20.6670692,20.6332678 20.6670692,20.6392712 C20.6270477,20.795355 20.4209372,20.9754512 20.1868119,20.9754512 L5.33085517,20.9754512 C5.10273325,20.9754512 4.94264751,20.8253707 4.85059795,20.5912455 L4.83458938,20.5912455 L1.96905461,11.098161 C1.90702126,10.8840462 1.71291743,10.7339662 1.48879739,10.7299638 L1.02454874,10.7299638 L1.02454874,8.68086632 Z M16.9050542,11.5464011 L16.536857,11.8985897 L11.7823105,16.6531362 L9.58913588,14.4599616 L9.22093868,14.1077729 L8.50055284,14.8281588 L8.85274147,15.196356 L11.4141133,17.7577278 L11.7823105,18.1099165 L12.1505077,17.7577278 L17.2732514,12.6349841 L17.6254401,12.2667869 L16.9050542,11.5464011 Z" id="icon-markaspaid"></path>
                </g>
            </g>
        </g>
    </g>
</svg>