<?xml version="1.0" encoding="UTF-8"?>
<svg width="26px" height="26px" viewBox="0 0 26 26" version="1.1" xmlns="http://www.w3.org/2000/svg" xmlns:xlink="http://www.w3.org/1999/xlink">
    <!-- Generator: Sketch 64 (93537) - https://sketch.com -->
    <title>icon-addtag</title>
    <desc>Created with Sketch.</desc>
    <g id="Mark-as" stroke="none" stroke-width="1" fill="none" fill-rule="evenodd">
        <g id="Resolution-01" transform="translate(-1490.000000, -570.000000)" fill="#005350" fill-rule="nonzero">
            <g id="Group-13" transform="translate(1448.000000, 264.000000)">
                <g id="icon-tags" transform="translate(42.000000, 306.000000)">
                    <path d="M13.0746222,-0.000755026619 C12.9046579,0.00145216349 12.7346935,0.0124892442 12.5625214,0.0345622754 C12.2159705,0.0787089029 11.8385167,0.191282944 11.5383196,0.493687202 L0.448686761,11.58332 C-0.127426587,12.1594334 -0.127426587,13.1085862 0.448686761,13.6846995 L3.66256125,16.9162326 C3.68904922,16.9427206 3.71995214,16.9670014 3.7508545,16.9868672 C3.75968383,16.9956966 3.77734248,16.9956966 3.7861718,17.0045259 C3.79279394,17.011148 3.79720832,17.0155624 3.80383045,17.0221845 C3.81928191,17.037636 3.82369629,17.059709 3.83914776,17.0751605 L12.3153002,25.551313 C12.8914136,26.1274263 13.8405664,26.1274263 14.4166797,25.551313 L25.5063125,14.4616802 C25.8043024,14.1636903 25.9212908,13.7818221 25.9654375,13.4374784 C26.0095841,13.0931347 26.0007548,12.7532059 26.0007548,12.4309353 L26.0007548,12.3603007 C26.0007548,12.3073247 26.0007548,12.230068 26.0007548,12.1307382 C26.0007548,12.0667258 26.0007548,11.9475296 26.0007548,11.8658585 C26.0007548,11.6981013 26.0007548,11.5457955 26.0007548,11.3184403 C26.0007548,10.6429972 26.0007548,9.73136887 26.0007548,8.82857048 C26.0007548,7.0229737 26.0007548,5.21516916 26.0007548,5.17322972 C26.0007548,4.19317459 25.195079,3.38970597 24.217231,3.38970597 L22.6102938,3.38970597 L22.6102938,1.78276873 C22.6102938,0.802713594 21.8068252,-0.000755026619 20.82677,-0.000755026619 L13.5690645,-0.000755026619 C13.4123438,-0.000755026619 13.2445866,-0.00296221673 13.0746222,-0.000755026619 Z M13.0922809,1.12939864 C13.2357573,1.12939864 13.4013073,1.12939864 13.5690645,1.12939864 L20.82677,1.12939864 C21.1953945,1.12939864 21.4801401,1.41414424 21.4801401,1.78276873 L21.4801401,3.38970597 L19.361102,3.38970597 C19.339029,3.36542518 19.3147482,3.34335215 19.2904674,3.31907136 C18.9615752,2.99017913 18.5245233,2.82462914 18.0896791,2.82462914 C17.654835,2.82462914 17.2177831,2.99017913 16.8888909,3.31907136 C16.8646101,3.34335215 16.8403298,3.36542518 16.8182562,3.38970597 C16.54234,3.38749878 16.248765,3.38749878 15.9529824,3.42502327 C15.6064315,3.4691699 15.2289777,3.58174394 14.9287806,3.8841482 L3.83914776,14.973781 C3.7508545,15.0620743 3.67139057,15.1547825 3.60958529,15.2563194 L1.24332606,12.8900602 C1.09764247,12.7443766 1.09984966,12.5214357 1.24332606,12.3779593 L12.3329589,1.2883265 C12.392557,1.22872841 12.505131,1.17575246 12.7214492,1.14705729 C12.8296083,1.13381358 12.9488045,1.12939864 13.0922809,1.12939864 Z M16.4827419,4.51985963 L24.217231,4.51985963 C24.5858555,4.51985963 24.8706011,4.80460524 24.8706011,5.17322972 C24.8706011,5.20854702 24.8706011,7.0229737 24.8706011,8.82857048 C24.8706011,9.73136887 24.8706011,10.6429972 24.8706011,11.3184403 C24.8706011,11.6561618 24.8706011,11.9342859 24.8706011,12.1307382 C24.8706011,12.230068 24.8706011,12.3073247 24.8706011,12.3603007 C24.8706011,12.3867887 24.8706011,12.4000329 24.8706011,12.4132766 C24.8706011,12.4265209 24.8706011,12.4309353 24.8706011,12.4309353 C24.8706011,12.7730718 24.8816376,13.0820982 24.8529425,13.2962092 C24.8242473,13.5103202 24.7734785,13.6052356 24.7116733,13.6670409 L13.6220404,24.7566737 C13.4763568,24.9023578 13.2534159,24.9001501 13.1099395,24.7566737 L4.63378705,16.2805212 C4.48810346,16.1348376 4.49031065,15.9118967 4.63378705,15.7684203 L15.7234199,4.67878749 C15.783018,4.6191894 15.895592,4.56621345 16.1119102,4.53751828 C16.2200693,4.52427458 16.3392655,4.51985963 16.4827419,4.51985963 Z M21.4801401,6.21509013 C21.045296,6.21509013 20.6082441,6.38064012 20.2793518,6.70953236 C19.6215674,7.36731739 19.6215674,8.45332443 20.2793518,9.1111089 C20.9371369,9.76889393 22.0231439,9.76889393 22.6809284,9.1111089 C23.3387134,8.45332443 23.3387134,7.36731739 22.6809284,6.70953236 C22.3520362,6.38064012 21.9149843,6.21509013 21.4801401,6.21509013 Z M21.4801401,7.34524379 C21.6236165,7.34524379 21.773715,7.39159761 21.8862891,7.50417165 C22.1114372,7.72931974 22.1114372,8.09132208 21.8862891,8.3164696 C21.6611416,8.54161768 21.2991392,8.54161768 21.0739911,8.3164696 C20.8488436,8.09132208 20.8488436,7.72931974 21.0739911,7.50417165 C21.1865652,7.39159761 21.3366637,7.34524379 21.4801401,7.34524379 Z" id="icon-addtag"></path>
                </g>
            </g>
        </g>
    </g>
</svg>