<?xml version="1.0" encoding="UTF-8"?>
<svg width="16px" height="16px" viewBox="0 0 16 16" version="1.1" xmlns="http://www.w3.org/2000/svg" xmlns:xlink="http://www.w3.org/1999/xlink">
    <!-- Generator: Sketch 64 (93537) - https://sketch.com -->
    <title>icon-follow-up</title>
    <desc>Created with Sketch.</desc>
    <g id="Mark-as" stroke="none" stroke-width="1" fill="none" fill-rule="evenodd">
        <g id="Mark-as-follow-up" transform="translate(-711.000000, -559.000000)" fill="#FFFFFF" fill-rule="nonzero">
            <g id="Group-15" transform="translate(668.000000, 536.000000)">
                <g id="Group-13">
                    <g id="Group-16" transform="translate(31.000000, 0.000000)">
                        <path d="M12,23 L12,33.5182381 C12.0013253,33.7104186 12.1577206,33.8668139 12.3499011,33.8681392 L19.4751592,33.8681392 L19.4751592,37.1020733 L18.0225396,35.6494537 C17.940366,35.5646292 17.8197561,35.5288438 17.7044477,35.5540262 C17.5772109,35.5765576 17.4751565,35.6693345 17.4393711,35.7925951 C17.4035857,35.9171812 17.4406964,36.0497195 17.5347987,36.1371946 L19.5705867,38.1729826 L19.8144572,38.40625 L20.0583276,38.1729826 L22.0941156,36.1371946 C22.2293048,36.0020057 22.2293048,35.7846429 22.0941156,35.6494537 C21.9589267,35.5142648 21.741564,35.5142648 21.6063747,35.6494537 L20.1537552,37.1020733 L20.1537552,33.8681392 L27.2790132,33.8681392 C27.4711937,33.8668139 27.627589,33.7104186 27.6289143,33.5182381 L27.6289143,23 L26.9291122,23 L26.9291122,33.1683371 L12.6998021,33.1683371 L12.6998021,23 L12,23 Z M21.309489,25.364483 C21.2949097,25.3671339 21.2803307,25.3711098 21.2670767,25.375086 C21.13984,25.3976175 21.0377856,25.4903944 21.0020002,25.6136549 C20.9662148,25.7382411 21.0033255,25.8707794 21.0974277,25.9582545 L22.5500473,27.4108741 L16.5911261,27.4108741 C16.5805231,27.4108741 16.56992,27.4108741 16.5593169,27.4108741 C16.372438,27.4201518 16.2266458,27.5791978 16.2359235,27.7660767 C16.2452013,27.9529555 16.4042472,28.0987478 16.5911261,28.0894701 L22.5500473,28.0894701 L21.0974277,29.5420896 C20.9622389,29.6772789 20.9622389,29.8946416 21.0974277,30.0298305 C21.232617,30.1650197 21.4499797,30.1650197 21.5851686,30.0298305 L23.6209566,27.9940425 L23.854224,27.7501721 L23.6209566,27.5063016 L21.5851686,25.4705136 C21.5149234,25.3949669 21.412869,25.3565308 21.309489,25.364483 Z" id="icon-follow-up"></path>
                    </g>
                </g>
            </g>
        </g>
    </g>
</svg>