<?xml version="1.0" encoding="UTF-8"?>
<svg width="37px" height="36px" viewBox="0 0 37 36" version="1.1" xmlns="http://www.w3.org/2000/svg" xmlns:xlink="http://www.w3.org/1999/xlink">
    <!-- Generator: Sketch 64 (93537) - https://sketch.com -->
    <title>list-vendor</title>
    <desc>Created with Sketch.</desc>
    <defs>
        <linearGradient x1="50%" y1="0%" x2="50%" y2="139.649416%" id="linearGradient-1">
            <stop stop-color="#FFFFFF" offset="0%"></stop>
            <stop stop-color="#00D77D" offset="100%"></stop>
        </linearGradient>
    </defs>
    <g id="Automation-flow" stroke="none" stroke-width="1" fill="none" fill-rule="evenodd">
        <g id="RuleBook3" transform="translate(-1661.000000, -370.000000)">
            <g id="Category" transform="translate(1469.000000, 349.000000)">
                <g id="list-vendor" transform="translate(192.642081, 21.000000)">
                    <polygon id="Rectangle" fill="url(#linearGradient-1)" points="11.2907765 11.302608 25.3579186 11 24.199973 11.302608 25.3579186 21 10.3579186 21"></polygon>
                    <path d="M17.7108598,-7.10542736e-15 C14.9976245,-7.10542736e-15 12.7696833,2.22794118 12.7696833,4.94117647 L9.10791863,4.94117647 L9.04174216,5.55882353 L7.12262451,22.5 L7.03438922,23.2941176 L28.3873304,23.2941176 L28.2990951,22.5 L26.3799775,5.55882353 L26.313801,4.94117647 L22.6520363,4.94117647 C22.6520363,2.22794118 20.4240951,-7.10542736e-15 17.7108598,-7.10542736e-15 Z M17.7108598,1.41176471 C19.6547935,1.41176471 21.2402716,2.99724282 21.2402716,4.94117647 L14.181448,4.94117647 C14.181448,2.99724282 15.7669262,1.41176471 17.7108598,1.41176471 Z M10.3652716,6.35294118 L12.7696833,6.35294118 L12.7696833,7.25735294 C12.3478085,7.50275718 12.063801,7.94944871 12.063801,8.47058824 C12.063801,9.25091929 12.6952346,9.88235294 13.4755657,9.88235294 C14.2558968,9.88235294 14.8873304,9.25091929 14.8873304,8.47058824 C14.8873304,7.94944871 14.6033229,7.50275718 14.181448,7.25735294 L14.181448,6.35294118 L21.2402716,6.35294118 L21.2402716,7.25735294 C20.8183968,7.50275718 20.5343892,7.94944871 20.5343892,8.47058824 C20.5343892,9.25091929 21.1658229,9.88235294 21.9461539,9.88235294 C22.726485,9.88235294 23.3579186,9.25091929 23.3579186,8.47058824 C23.3579186,7.94944871 23.0739111,7.50275718 22.6520363,7.25735294 L22.6520363,6.35294118 L25.056448,6.35294118 L26.7990951,21.8823529 L8.62262451,21.8823529 L10.3652716,6.35294118 Z M5.60056569,18.9044118 C5.53990428,18.9181984 5.47924216,18.9402572 5.4240951,18.9705882 L0.659389221,21.1764706 C0.637330397,21.1819856 0.615271574,21.1902572 0.59321275,21.1985294 L0.52703628,21.2205882 C0.455345456,21.2398899 0.389168985,21.2702209 0.328506868,21.3088235 C0.31472028,21.3143386 0.298175809,21.3226101 0.284389221,21.3308824 C0.284389221,21.3391546 0.284389221,21.3446689 0.284389221,21.3529412 C0.0169259502,21.5514706 -0.0740670145,21.9099268 0.0638009855,22.2132353 L0.0638009855,24.7058824 C0.0610436326,24.9595588 0.196153927,25.1966915 0.416742162,25.3235294 L17.3579186,35.2058824 C17.5757497,35.3327209 17.8459699,35.3327209 18.063801,35.2058824 L35.0049775,25.3235294 C35.2255657,25.1966915 35.3606758,24.9595588 35.3579186,24.7058824 L35.3579186,22.2352941 C35.5123304,21.9099268 35.3992791,21.5211395 35.0932128,21.3308824 C35.0463379,21.2950369 34.993948,21.2647059 34.938801,21.2426471 L34.9167422,21.2205882 C34.8753817,21.2012866 34.8285069,21.1875 34.7843892,21.1764706 L29.9976245,18.9705882 C29.8956026,18.9209562 29.7797935,18.8988974 29.6667422,18.9044118 C29.3248304,18.9071689 29.0353085,19.1525739 28.9746464,19.4862134 C28.9167422,19.8226101 29.1042422,20.1534925 29.4240951,20.2720588 L33.1079186,21.9485294 L17.7108598,30.9485294 L2.31380099,21.9485294 L5.99762451,20.2720588 C6.34505134,20.1562504 6.5490951,19.7922798 6.46085981,19.4365807 C6.37538169,19.0781252 6.03071275,18.8465075 5.66674216,18.9044118 C5.64468334,18.9044118 5.62262451,18.9044118 5.60056569,18.9044118 Z M1.47556569,23.1176471 L17.3579186,32.3823529 C17.5757497,32.5091915 17.8459699,32.5091915 18.063801,32.3823529 L33.9461539,23.1176471 L33.9461539,24.2867647 L17.7108598,33.7720588 L1.47556569,24.2867647 L1.47556569,23.1176471 Z" id="Shape" fill="#015250" fill-rule="nonzero"></path>
                </g>
            </g>
        </g>
    </g>
</svg>