<?xml version="1.0" encoding="UTF-8"?>
<svg width="37px" height="37px" viewBox="0 0 37 37" version="1.1" xmlns="http://www.w3.org/2000/svg" xmlns:xlink="http://www.w3.org/1999/xlink">
    <!-- Generator: Sketch 64 (93537) - https://sketch.com -->
    <title>list-amount</title>
    <desc>Created with Sketch.</desc>
    <defs>
        <linearGradient x1="50%" y1="0%" x2="50%" y2="139.649416%" id="linearGradient-1">
            <stop stop-color="#FFFFFF" offset="0%"></stop>
            <stop stop-color="#00D77D" offset="100%"></stop>
        </linearGradient>
    </defs>
    <g id="Automation-flow" stroke="none" stroke-width="1" fill="none" fill-rule="evenodd">
        <g id="RuleBook3" transform="translate(-1659.000000, -482.000000)">
            <g id="Category" transform="translate(1469.000000, 349.000000)">
                <g id="list-amount" transform="translate(190.000000, 133.000000)">
                    <rect id="Rectangle" fill="url(#linearGradient-1)" x="6" y="14" width="17" height="17" rx="7.5"></rect>
                    <path d="M22.0806452,0 C17.0733367,0 12.6371596,2.48267374 9.93069556,6.27778463 C8.54599324,7.24987429 7.32447106,8.46440287 6.31974561,9.88640358 C6.31275202,9.89572818 6.30575842,9.90505277 6.29876542,9.91437737 C2.49199834,12.620842 0,17.0640121 0,22.0806452 C0,30.3072705 6.69272948,37 14.9193548,37 C19.9313259,37 24.372165,34.5126637 27.078629,30.7105598 C28.4586694,29.7408017 29.6778605,28.5332661 30.6802544,27.1135964 C30.689579,27.1042718 30.6942416,27.0926162 30.7035662,27.08096 C34.5103327,24.376827 37,19.9359879 37,14.9193548 C37,6.69272948 30.3072705,0 22.0806452,0 Z M22.0806452,1.19354839 C29.6498867,1.19354839 35.8064516,7.35011326 35.8064516,14.9193548 C35.8064516,18.3834428 34.5126637,21.5468121 32.3866556,23.9642137 C33.3820565,21.4512352 33.67345,18.7074721 33.2048891,15.9753653 C32.6733871,12.8726061 31.2070944,10.0682335 28.9691912,7.86762868 C28.7314137,7.63684476 28.3560988,7.63917576 28.1229839,7.87462227 C27.8922,8.11006819 27.8968625,8.48771406 28.1323085,8.71849798 C30.1907134,10.7442665 31.5381173,13.3225178 32.0276589,16.1781754 C32.6477443,19.791457 31.8248488,23.4303807 29.7081653,26.4259073 C29.4191028,26.8315275 29.1090601,27.2115044 28.7850302,27.5774953 C29.4610638,25.875756 29.8387097,24.0224923 29.8387097,22.0806452 C29.8387097,13.8540198 23.1459802,7.16129032 14.9193548,7.16129032 C12.9821697,7.16129032 11.1312375,7.53660519 9.42949834,8.21263876 C11.3177295,6.53887334 13.6302295,5.40826613 16.1781754,4.97001008 C18.590915,4.55739682 21.0665951,4.79284274 23.3394657,5.65303665 C23.6471774,5.7695944 23.9921875,5.61573826 24.1087453,5.30569556 C24.2253024,4.99798387 24.0691153,4.65297379 23.7614036,4.53641663 C21.2880544,3.60162535 18.5979086,3.34753024 15.9776969,3.79511089 C14.9589842,3.97227823 13.9729086,4.24735413 13.0334553,4.6156754 C15.4508569,2.48966734 18.6142262,1.19354839 22.0806452,1.19354839 Z M25.4491556,5.34998755 C25.2183723,5.32434476 24.9852574,5.43857092 24.8663686,5.65536824 C24.7078505,5.94443074 24.812752,6.30809002 25.1018145,6.46660816 C25.5657134,6.72070327 26.0202876,7.00743477 26.453881,7.31514647 C26.5611142,7.38974324 26.682334,7.42471003 26.8012221,7.42471003 C26.9877141,7.42471003 27.171875,7.33845766 27.2884328,7.17527752 C27.4795867,6.90719521 27.4166455,6.53421134 27.1462322,6.34305681 C26.6753404,6.00737132 26.1811367,5.69499763 25.6776085,5.41759073 C25.6053427,5.38029234 25.528415,5.35698115 25.4491556,5.34998755 Z M14.9193548,8.35483871 C22.4885964,8.35483871 28.6451613,14.5114036 28.6451613,22.0806452 C28.6451613,29.6498867 22.4885964,35.8064516 14.9193548,35.8064516 C7.35011326,35.8064516 1.19354839,29.6498867 1.19354839,22.0806452 C1.19354839,14.5114036 7.35011326,8.35483871 14.9193548,8.35483871 Z M14.9193548,10.1451613 C8.33852052,10.1451613 2.98387097,15.4998108 2.98387097,22.0806452 C2.98387097,28.6614795 8.33852052,34.016129 14.9193548,34.016129 C21.5001892,34.016129 26.8548387,28.6614795 26.8548387,22.0806452 C26.8548387,18.7098037 25.4188508,15.4788306 22.9128653,13.2199472 C22.6680948,12.9984879 22.2904489,13.0171371 22.0713206,13.2619076 C21.8498612,13.5066787 21.870842,13.8843246 22.1156125,14.1057839 C24.3675024,16.138546 25.6612903,19.0454892 25.6612903,22.0806452 C25.6612903,28.0040951 20.8428048,32.8225806 14.9193548,32.8225806 C8.99590489,32.8225806 4.17741935,28.0040951 4.17741935,22.0806452 C4.17741935,16.1571952 8.99590489,11.3387097 14.9193548,11.3387097 C15.51846,11.3387097 16.1175658,11.3876637 16.7050154,11.4879032 C17.0313763,11.5438508 17.339088,11.3223915 17.392704,10.9960306 C17.4463206,10.6720013 17.2271928,10.3642896 16.903163,10.310673 C16.2504412,10.2011089 15.5837322,10.1451613 14.9193548,10.1451613 Z M19.0641384,10.93309 C18.8310235,10.937752 18.6142262,11.079952 18.5233118,11.3107359 C18.402092,11.6161166 18.5536166,11.9634577 18.8613283,12.0846774 C19.3532009,12.278163 19.8357483,12.5136089 20.2949852,12.7770286 C20.3882311,12.8329762 20.4931327,12.858619 20.5933723,12.858619 C20.7985134,12.858619 20.9989919,12.7513864 21.1108871,12.5602319 C21.2740678,12.275832 21.1784903,11.9121727 20.8940904,11.7466609 C20.3835685,11.4506048 19.8474045,11.1918471 19.2972533,10.9750504 C19.220325,10.9447456 19.1410662,10.9307584 19.0641384,10.93309 Z M14.9193548,14.3225806 C14.590663,14.3225806 14.3225806,14.588332 14.3225806,14.9193548 L14.3225806,16.1129032 C13.0054815,16.1129032 11.9354839,17.1829009 11.9354839,18.5 L11.9354839,20.2903226 C11.9354839,21.6074217 13.0054815,22.6774194 14.3225806,22.6774194 L15.516129,22.6774194 C16.1735134,22.6774194 16.7096774,23.213584 16.7096774,23.8709677 L16.7096774,25.6612903 C16.7096774,26.3186747 16.1735134,26.8548387 15.516129,26.8548387 L15.516129,23.8709677 C15.516129,23.5399449 15.2480467,23.2741935 14.9193548,23.2741935 C14.590663,23.2741935 14.3225806,23.5399449 14.3225806,23.8709677 L14.3225806,26.8548387 C13.6651969,26.8548387 13.1290323,26.3186747 13.1290323,25.6612903 C13.1290323,25.3302674 12.86095,25.0645161 12.5322581,25.0645161 C12.2035662,25.0645161 11.9354839,25.3302674 11.9354839,25.6612903 C11.9354839,26.9783895 13.0054815,28.0483871 14.3225806,28.0483871 L14.3225806,29.2419355 C14.3225806,29.572959 14.590663,29.8387097 14.9193548,29.8387097 C15.2480467,29.8387097 15.516129,29.572959 15.516129,29.2419355 L15.516129,28.0483871 C16.8332282,28.0483871 17.9032258,26.9783895 17.9032258,25.6612903 L17.9032258,23.8709677 C17.9032258,22.5538686 16.8332282,21.483871 15.516129,21.483871 L15.516129,18.5 C15.516129,18.1689771 15.2480467,17.9032258 14.9193548,17.9032258 C14.590663,17.9032258 14.3225806,18.1689771 14.3225806,18.5 L14.3225806,21.483871 C13.6651969,21.483871 13.1290323,20.947707 13.1290323,20.2903226 L13.1290323,18.5 C13.1290323,17.8426162 13.6651969,17.3064516 14.3225806,17.3064516 L15.516129,17.3064516 C16.1735134,17.3064516 16.7096774,17.8426162 16.7096774,18.5 C16.7096774,18.8310235 16.9777597,19.0967742 17.3064516,19.0967742 C17.6351435,19.0967742 17.9032258,18.8310235 17.9032258,18.5 C17.9032258,17.1829009 16.8332282,16.1129032 15.516129,16.1129032 L15.516129,14.9193548 C15.516129,14.588332 15.2480467,14.3225806 14.9193548,14.3225806 Z M6.79763105,23.3977443 C6.72070327,23.3860887 6.6414439,23.3860887 6.56218513,23.4047379 C6.24048624,23.4793347 6.04000771,23.8010336 6.11460448,24.1227319 C6.67174929,26.5308088 8.21730076,28.6311747 10.359627,29.8853327 C10.455204,29.9389492 10.5601061,29.966923 10.6603451,29.966923 C10.8678178,29.966923 11.0659654,29.8596899 11.1778605,29.6708669 C11.3433723,29.386467 11.2477947,29.0204762 10.9633948,28.854965 C9.10313745,27.7663182 7.76039552,25.9433592 7.27551648,23.8523185 C7.2219005,23.61221 7.02608397,23.4397053 6.79763105,23.3977443 Z" id="Shape" fill="#015250" fill-rule="nonzero"></path>
                </g>
            </g>
        </g>
    </g>
</svg>