<?xml version="1.0" encoding="UTF-8"?>
<svg width="34px" height="34px" viewBox="0 0 34 34" version="1.1" xmlns="http://www.w3.org/2000/svg" xmlns:xlink="http://www.w3.org/1999/xlink">
    <!-- Generator: Sketch 64 (93537) - https://sketch.com -->
    <title>list-indexing-fields</title>
    <desc>Created with Sketch.</desc>
    <defs>
        <linearGradient x1="50%" y1="0%" x2="50%" y2="139.649416%" id="linearGradient-1">
            <stop stop-color="#FFFFFF" offset="0%"></stop>
            <stop stop-color="#00D77D" offset="100%"></stop>
        </linearGradient>
    </defs>
    <g id="Automation-flow" stroke="none" stroke-width="1" fill="none" fill-rule="evenodd">
        <g id="RuleBook3" transform="translate(-1660.000000, -700.000000)">
            <g id="Category" transform="translate(1469.000000, 349.000000)">
                <g id="list-indexing-fields" transform="translate(191.670315, 351.670542)">
                    <rect id="Rectangle" fill="url(#linearGradient-1)" opacity="0.608863467" x="4.32968489" y="4.32945833" width="24" height="24" rx="12"></rect>
                    <path d="M16.3190599,7.84012673e-05 C15.9440289,0.00602378454 15.6445491,0.314416699 15.6496849,0.689458333 L15.6496849,1.38672394 C12.0345649,1.54910189 8.75851593,3.00437825 6.25452881,5.29273955 L5.25046611,4.28867712 C5.12244178,4.15707485 4.94664544,4.08282843 4.76304428,4.08281773 C4.48633659,4.08289039 4.23726214,4.25061142 4.13313918,4.5069814 C4.02901622,4.76335137 4.09060797,5.05724741 4.28890368,5.25023955 L5.29429428,6.25563029 C3.00720282,8.76005601 1.54928119,12.0348993 1.3869505,15.6494583 L0.689684893,15.6494583 C0.444452469,15.6459901 0.216349565,15.7748335 0.092721242,15.9866519 C-0.0309070807,16.1984702 -0.0309070807,16.4604465 0.092721242,16.6722648 C0.216349565,16.8840831 0.444452469,17.0129265 0.689684893,17.0094583 L1.3869505,17.0094583 C1.54928119,20.6240174 3.00720282,23.8988607 5.29429428,26.4032864 L4.28890368,27.4086773 C4.11126196,27.579233 4.03970384,27.8324983 4.10182679,28.0707977 C4.16394973,28.309097 4.35004635,28.4951936 4.58834573,28.5573165 C4.8266451,28.6194394 5.07991041,28.5478812 5.25046611,28.3702394 L6.25452881,27.3661773 C8.75851593,29.6545384 12.0345649,31.1098146 15.6496849,31.2721925 L15.6496849,31.9694583 C15.6462167,32.2146908 15.7750601,32.4427937 15.9868784,32.566422 C16.1986968,32.6900503 16.460673,32.6900503 16.6724914,32.566422 C16.8843097,32.4427937 17.0131531,32.2146908 17.0096849,31.9694583 L17.0096849,31.2721925 C20.6248049,31.1098146 23.9008539,29.6545384 26.404841,27.3661773 L27.5789038,28.5402394 C27.3389175,28.9450795 27.192419,29.4106938 27.192419,29.9121925 C27.192419,31.4063531 28.4182591,32.6321925 29.912419,32.6321925 C31.4065796,32.6321925 32.632419,31.4063531 32.632419,29.9121925 C32.632419,28.4180325 31.4065796,27.1921925 29.912419,27.1921925 C29.4109204,27.1921925 28.945306,27.338691 28.540466,27.5786773 L27.3650758,26.4032864 C29.6521667,23.8988607 31.1100887,20.6240174 31.272419,17.0094583 L31.9696849,17.0094583 C32.2149173,17.0129265 32.4430202,16.8840831 32.5666485,16.6722648 C32.6902769,16.4604465 32.6902769,16.1984702 32.5666485,15.9866519 C32.4430202,15.7748335 32.2149173,15.6459901 31.9696849,15.6494583 L31.272419,15.6494583 C31.1100887,12.0348993 29.6521667,8.76005601 27.3650758,6.25563029 L28.370466,5.25023955 C28.571583,5.05474543 28.6320543,4.75583474 28.5227415,4.49753892 C28.4134287,4.23924311 28.1567566,4.07455001 27.8764038,4.08281773 C27.6997407,4.0880817 27.5320665,4.16191553 27.4089038,4.28867712 L26.404841,5.29273955 C23.9008539,3.00437825 20.6248049,1.54910189 17.0096849,1.38672394 L17.0096849,0.689458333 C17.0122019,0.505654121 16.9402047,0.328659444 16.8100983,0.198803216 C16.6799919,0.0689469879 16.5028589,-0.00270932043 16.3190599,7.84012673e-05 Z M16.2353879,2.73211455 C16.2979475,2.74087355 16.3614223,2.74087355 16.4239819,2.73211455 C23.8676977,2.78279291 29.8763341,8.79143121 29.9270288,16.2351614 C29.9182698,16.2977209 29.9182698,16.3611958 29.9270288,16.4237553 C29.8763219,23.8692643 23.8648499,29.8789609 16.418669,29.9268023 C16.3856735,29.9221513 16.3523808,29.9199317 16.3190599,29.9201614 C16.2906156,29.920595 16.2622264,29.922813 16.2340599,29.9268023 C8.79096009,29.8754147 2.78303266,23.8670407 2.73234111,16.4237553 C2.74110011,16.3611958 2.74110011,16.2977209 2.73234111,16.2351614 C2.78303565,8.79143121 8.79167205,2.78279291 16.2353879,2.73211455 Z M10.1578879,7.49344245 C9.77163909,7.49344245 9.38482993,7.63962477 9.09405989,7.93039617 L7.93062273,9.09383333 C7.34825577,9.67496813 7.34908129,10.6386213 7.93062273,11.2201614 L11.212419,14.5032864 C11.0072984,15.0751494 10.8896849,15.6885026 10.8896849,16.3294583 C10.8896849,16.9545959 11.0022535,17.5532829 11.1978099,18.1131303 L7.93062273,21.3816462 C7.34908061,21.9631863 7.34825577,22.9268394 7.93062273,23.5079742 L9.09405989,24.6714114 C9.67559997,25.2529521 10.6392531,25.2524809 11.2203879,24.6700833 L14.4610129,21.4307864 C15.044882,21.6457779 15.6727498,21.7694583 16.3296849,21.7694583 C16.98662,21.7694583 17.6144878,21.6457779 18.1983569,21.4307864 L21.4389819,24.6700833 C22.0205219,25.2516234 22.9841751,25.2524489 23.5653099,24.6700833 L24.7287471,23.5066462 C25.3102885,22.9251047 25.3111133,21.9614523 24.7287471,21.3803175 L21.4615599,18.1131303 C21.6571163,17.5532829 21.7696849,16.9545959 21.7696849,16.3294583 C21.7696849,15.7043207 21.6571163,15.1056338 21.4615599,14.5457864 L24.7287471,11.2785992 C25.3111133,10.6974644 25.3102885,9.73381193 24.7287471,9.15227049 L23.5653099,7.98883333 C23.2747425,7.69765053 22.8890587,7.55190409 22.5028099,7.55188029 C22.1165611,7.55185581 21.7297519,7.69806329 21.4389819,7.98883333 L18.1983569,11.2281303 C17.6144878,11.0131388 16.98662,10.8894583 16.3296849,10.8894583 C15.6887291,10.8894583 15.0753759,11.0070718 14.5035129,11.2121925 L11.2203879,7.93039617 C10.9298205,7.63921201 10.5441368,7.49344245 10.1578879,7.49344245 Z M10.1565599,8.84547153 C10.1917132,8.84524097 10.2271045,8.86019009 10.2574971,8.89063029 L10.2588258,8.89195833 L13.2324971,11.8656303 C12.7001883,12.2364887 12.2367153,12.6999617 11.8658569,13.2322705 L8.89218489,10.2585992 C8.83044769,10.196862 8.82997645,10.1175094 8.89085685,10.0567242 L8.89218489,10.0567242 L10.0556227,8.89195833 C10.08649,8.86108973 10.1214066,8.84570677 10.1565599,8.84547153 Z M22.5014819,8.90390887 C22.5366351,8.90368629 22.5720264,8.91862725 22.602419,8.94906745 L22.602419,8.95039617 L23.7671849,10.1138333 C23.8289221,10.1755705 23.8293933,10.2549231 23.7685129,10.3157083 L23.7671849,10.3170364 L20.8187471,13.2654742 C20.4518673,12.7302217 19.9894204,12.2656804 19.4600758,11.8908644 L22.400544,8.95039617 C22.4314126,8.91952689 22.4663286,8.90413645 22.5014819,8.90390887 Z M16.3296849,12.2494583 C18.5910609,12.2494583 20.4096849,14.0680823 20.4096849,16.3294583 C20.4096849,18.5908344 18.5910609,20.4094583 16.3296849,20.4094583 C14.0683089,20.4094583 12.2496849,18.5908344 12.2496849,16.3294583 C12.2496849,14.0680823 14.0683089,12.2494583 16.3296849,12.2494583 Z M11.8406227,19.3934425 C12.2075025,19.9286949 12.6699494,20.3932363 13.199294,20.7680523 L10.2588258,23.7098492 L10.2574971,23.7098492 C10.1967125,23.7707636 10.1173613,23.7715864 10.0556227,23.7098492 L8.89218489,22.5450833 L8.89085685,22.5450833 C8.82994245,22.4842981 8.83041369,22.4049483 8.89218489,22.3432083 L11.8406227,19.3934425 Z M20.8187471,19.3934425 L23.7671849,22.3418803 L23.7685129,22.3432083 C23.8294273,22.4039935 23.8289561,22.4833434 23.7671849,22.5450833 L22.602419,23.7085205 L22.602419,23.7098492 C22.5416338,23.7707636 22.4622839,23.7702924 22.400544,23.7085205 L19.4600758,20.7680523 C19.9894204,20.3932363 20.4518673,19.9286949 20.8187471,19.3934425 Z M29.912419,28.5521925 C30.6715812,28.5521925 31.272419,29.1530309 31.272419,29.9121925 C31.272419,30.6713547 30.6715812,31.2721925 29.912419,31.2721925 C29.1532575,31.2721925 28.552419,30.6713547 28.552419,29.9121925 C28.552419,29.1530309 29.1532575,28.5521925 29.912419,28.5521925 Z" id="Shape" fill="#015250" fill-rule="nonzero"></path>
                </g>
            </g>
        </g>
    </g>
</svg>