<?xml version="1.0" encoding="UTF-8"?>
<svg width="36px" height="31px" viewBox="0 0 36 31" version="1.1" xmlns="http://www.w3.org/2000/svg" xmlns:xlink="http://www.w3.org/1999/xlink">
    <!-- Generator: Sketch 64 (93537) - https://sketch.com -->
    <title>list-tag</title>
    <desc>Created with Sketch.</desc>
    <defs>
        <linearGradient x1="50%" y1="0%" x2="50%" y2="139.649416%" id="linearGradient-1">
            <stop stop-color="#FFFFFF" offset="0%"></stop>
            <stop stop-color="#00D77D" offset="100%"></stop>
        </linearGradient>
    </defs>
    <g id="Automation-flow" stroke="none" stroke-width="1" fill="none" fill-rule="evenodd">
        <g id="RuleBook3" transform="translate(-1803.000000, -596.000000)">
            <g id="Category" transform="translate(1469.000000, 349.000000)">
                <g id="list-tag" transform="translate(334.000000, 247.000000)">
                    <path d="M17.9297297,1.50810811 C19.2702703,1.59189189 20.554955,2.17837838 21.5045045,3.12792793 L33.8486486,15.4720721 C34.9378378,16.5612613 34.9378378,18.3207207 33.8486486,19.4099099 L23.9621622,29.2963964 C22.872973,30.3855856 21.1135135,30.3855856 20.0243243,29.2963964 L7.68018018,16.9522523 C6.73063063,16.0027027 6.14414414,14.718018 6.06036036,13.3774775 L5.64144144,7.03783784 C5.41801802,3.65855856 8.21081081,0.865765766 11.5900901,1.08918919 L17.9297297,1.50810811 Z" id="Path" fill="#FFFFFF" fill-rule="nonzero"></path>
                    <path d="M22.0072072,30.9441441 C21.0297297,30.9441441 20.136036,30.5531532 19.4378378,29.8828829 L7.09369369,17.5387387 C6.0045045,16.4495495 5.33423423,14.9693694 5.22252252,13.4333333 C5.19459459,12.9585586 5.52972973,12.5675676 6.0045045,12.5396396 C6.47927928,12.5117117 6.87027027,12.8468468 6.8981982,13.3216216 C6.98198198,14.4666667 7.45675676,15.5558559 8.26666667,16.3657658 L20.6108108,28.7099099 C20.9738739,29.072973 21.4765766,29.2684685 21.9792793,29.2684685 C22.5099099,29.2684685 22.9846847,29.072973 23.3756757,28.7099099 L33.2621622,18.8234234 C33.6252252,18.4603604 33.8486486,17.9576577 33.8486486,17.454955 C33.8486486,16.9243243 33.6531532,16.4495495 33.2621622,16.0864865 L20.918018,3.71441441 C20.1081081,2.9045045 19.0189189,2.4018018 17.8738739,2.34594595 L11.5342342,1.92702703 C10.1657658,1.84324324 8.82522523,2.34594595 7.84774775,3.2954955 C6.87027027,4.27297297 6.36756757,5.61351351 6.47927928,6.98198198 C6.50720721,7.45675676 6.17207207,7.84774775 5.6972973,7.87567568 C5.22252252,7.9036036 4.83153153,7.56846847 4.8036036,7.09369369 C4.69189189,5.25045045 5.36216216,3.43513514 6.67477477,2.12252252 C7.98738739,0.80990991 9.8027027,0.13963964 11.6459459,0.251351351 L17.9855856,0.67027027 C19.5495495,0.781981982 21.0018018,1.42432432 22.090991,2.54144144 L34.4351351,14.8855856 C35.8594595,16.3099099 35.8594595,18.6 34.4351351,20.0243243 L24.5765766,29.8828829 C23.8783784,30.5810811 22.9567568,30.9441441 22.0072072,30.9441441 Z" id="Path" fill="#015250" fill-rule="nonzero"></path>
                    <rect id="Rectangle" fill="url(#linearGradient-1)" opacity="0.455403646" transform="translate(20.889317, 15.938680) rotate(-44.000000) translate(-20.889317, -15.938680) " x="13.3893167" y="6.4386796" width="15" height="19"></rect>
                    <path d="M6.8981982,11.3108108 C4.58018018,11.3108108 2.26216216,10.445045 0.446846847,8.74144144 L0.446846847,8.74144144 C0.13963964,8.46216216 0.0837837838,8.01531532 0.279279279,7.68018018 C0.586486486,7.23333333 1.2009009,7.17747748 1.56396396,7.51261261 L1.59189189,7.54054054 C4.35675676,10.1657658 8.6018018,10.3612613 11.5621622,8.07117117 C11.8972973,7.81981982 12.3720721,7.84774775 12.6792793,8.15495495 L12.7072072,8.18288288 C13.0423423,8.54594595 12.9864865,9.1045045 12.5954955,9.38378378 C10.9198198,10.6684685 8.90900901,11.3108108 6.8981982,11.3108108 Z" id="Path" fill="#015250" fill-rule="nonzero"></path>
                    <path d="M1.06126126,17.0081081 C0.977477477,17.0081081 0.893693694,17.0081081 0.837837838,16.9801802 C0.390990991,16.8405405 0.13963964,16.3936937 0.279279279,15.9468468 L0.279279279,15.890991 C0.418918919,15.4441441 0.865765766,15.1927928 1.31261261,15.3324324 C1.75945946,15.4720721 2.01081081,15.9189189 1.87117117,16.3657658 L1.87117117,16.4216216 C1.75945946,16.7567568 1.42432432,17.0081081 1.06126126,17.0081081 Z" id="Path" fill="#444B54" fill-rule="nonzero"></path>
                    <path d="M1.06126126,16.9522523 C0.977477477,16.9522523 0.893693694,16.9522523 0.837837838,16.9243243 C0.390990991,16.7846847 0.13963964,16.3378378 0.279279279,15.890991 C0.67027027,14.5783784 1.34054054,13.3774775 2.23423423,12.3441441 C2.54144144,12.009009 3.07207207,11.9531532 3.40720721,12.2603604 C3.74234234,12.5675676 3.7981982,13.0981982 3.49099099,13.4333333 C2.73693694,14.2711712 2.20630631,15.2486486 1.87117117,16.3378378 C1.75945946,16.7288288 1.42432432,16.9522523 1.06126126,16.9522523 Z" id="Path" fill="#015250" fill-rule="nonzero"></path>
                    <path d="M17.6783784,13.8522523 L18.5441441,16.3936937 C18.6,16.5612613 18.5720721,16.7567568 18.4603604,16.8963964 L16.8684685,19.0468468 C16.5891892,19.4099099 16.8684685,19.9405405 17.3153153,19.9405405 L19.9963964,19.9126126 C20.1918919,19.9126126 20.3594595,19.9963964 20.4711712,20.136036 L22.0072072,22.3144144 C22.2864865,22.7054054 22.872973,22.5936937 22.9846847,22.1468468 L23.7666667,19.6054054 C23.8225225,19.4378378 23.9621622,19.2981982 24.1297297,19.2423423 L26.6711712,18.4603604 C27.118018,18.3207207 27.2018018,17.7342342 26.8387387,17.4828829 L24.6603604,15.9468468 C24.5207207,15.8351351 24.409009,15.6675676 24.4369369,15.4720721 L24.4648649,12.790991 C24.4648649,12.3162162 23.9342342,12.0648649 23.5711712,12.3441441 L21.4207207,13.936036 C21.2810811,14.0477477 21.0855856,14.0756757 20.918018,14.0198198 L18.3765766,13.1261261 C17.9576577,12.9864865 17.5387387,13.4054054 17.6783784,13.8522523 Z" id="Path" fill="#00D77D" fill-rule="nonzero"></path>
                    <path d="M14.1873874,11.3666667 C13.9081081,11.3666667 13.6288288,11.227027 13.4891892,10.9756757 C13.2378378,10.5846847 13.3495495,10.0540541 13.7405405,9.83063063 C14.2432432,9.52342342 14.5783784,8.99279279 14.6342342,8.37837838 C14.6900901,7.84774775 14.5504505,7.34504505 14.2153153,6.95405405 C13.8801802,6.53513514 13.4333333,6.28378378 12.9027027,6.22792793 C12.2603604,6.17207207 11.618018,6.42342342 11.1990991,6.92612613 C10.8918919,7.28918919 10.3612613,7.31711712 10.0261261,7.03783784 C9.66306306,6.73063063 9.63513514,6.2 9.91441441,5.86486486 C10.6963964,4.94324324 11.8693694,4.46846847 13.0702703,4.58018018 C14.0198198,4.69189189 14.9135135,5.13873874 15.5,5.89279279 C16.0864865,6.64684685 16.3936937,7.5963964 16.281982,8.54594595 C16.1702703,9.66306306 15.5558559,10.6405405 14.6063063,11.254955 C14.4945946,11.3387387 14.354955,11.3666667 14.1873874,11.3666667 Z" id="Path" fill="#015250" fill-rule="nonzero"></path>
                </g>
            </g>
        </g>
    </g>
</svg>