<?xml version="1.0" encoding="UTF-8"?>
<svg width="36px" height="36px" viewBox="0 0 36 36" version="1.1" xmlns="http://www.w3.org/2000/svg" xmlns:xlink="http://www.w3.org/1999/xlink">
    <!-- Generator: Sketch 64 (93537) - https://sketch.com -->
    <title>list-docum-type</title>
    <desc>Created with Sketch.</desc>
    <defs>
        <linearGradient x1="50%" y1="0%" x2="50%" y2="139.649416%" id="linearGradient-1">
            <stop stop-color="#FFFFFF" offset="0%"></stop>
            <stop stop-color="#00D77D" offset="100%"></stop>
        </linearGradient>
    </defs>
    <g id="Automation-flow" stroke="none" stroke-width="1" fill="none" fill-rule="evenodd">
        <g id="RuleBook3" transform="translate(-1518.000000, -368.000000)">
            <g id="Category" transform="translate(1469.000000, 349.000000)">
                <g id="list-docum-type" transform="translate(49.000000, 19.753989)">
                    <rect id="Rectangle" fill="url(#linearGradient-1)" x="3" y="9.24601064" width="15" height="23"></rect>
                    <rect id="Rectangle" fill="url(#linearGradient-1)" opacity="0.450567336" x="17" y="2.24601064" width="15" height="23"></rect>
                    <path d="M26.7965426,3.55271368e-15 C26.7606383,0.00299182979 26.7217422,0.00598442553 26.685838,0.0119680851 L13.787234,0.0119680851 L13.787234,4.42220783 L15.3191489,5.95412272 L15.3191489,1.54388298 L26.0425532,1.54388298 L26.0425532,9.20345745 L33.7021277,9.20345745 L33.7021277,27.5864362 L22.9787234,27.5864362 L22.9787234,29.1183511 L35.2340426,29.1183511 L35.2340426,8.56615711 C35.2490025,8.48238051 35.2490025,8.39860391 35.2340426,8.31781915 L35.2340426,8.12034613 L35.0874337,7.97074468 C35.045545,7.91988051 34.9976727,7.87200817 34.9468085,7.83011949 C34.9438167,7.83011949 34.9438167,7.82712766 34.9408249,7.82712766 L27.4158911,0.299202128 C27.3740025,0.245346128 27.3261301,0.197473787 27.2722741,0.155585106 L27.1256653,0.0119680851 L26.9281915,0.0119680851 C26.883311,0.00598442553 26.8414231,3.55271368e-15 26.7965426,3.55271368e-15 Z M27.5744681,2.62699506 L32.6190163,7.67154255 L27.5744681,7.67154255 L27.5744681,2.62699506 Z M13.0093085,6.12765957 C12.9734043,6.1306514 12.9345082,6.133644 12.8986039,6.13962766 L-2.20268248e-13,6.13962766 L-2.20268248e-13,35.2460106 L21.4468085,35.2460106 L21.4468085,14.6938167 C21.4617684,14.6100401 21.4617684,14.5262635 21.4468085,14.4454787 L21.4468085,14.2480057 L21.3001997,14.0984043 C21.258311,14.0445483 21.2074468,13.9966759 21.1535908,13.9547872 L13.6286571,6.4268617 C13.5867684,6.3730057 13.5388961,6.32513336 13.4850401,6.28324468 L13.3384312,6.13962766 L13.1409574,6.13962766 C13.0960769,6.133644 13.054189,6.12765957 13.0093085,6.12765957 Z M1.53191489,7.67154255 L12.2553191,7.67154255 L12.2553191,15.331117 L19.9148936,15.331117 L19.9148936,33.7140957 L1.53191489,33.7140957 L1.53191489,7.67154255 Z M13.787234,8.75465464 L18.8317823,13.7992021 L13.787234,13.7992021 L13.787234,8.75465464 Z M21.6323142,12.2672872 L23.1642291,13.7992021 L30.6382979,13.7992021 L30.6382979,12.2672872 L21.6323142,12.2672872 Z M22.9787234,16.8630319 L22.9787234,18.3949468 L27.5744681,18.3949468 L27.5744681,16.8630319 L22.9787234,16.8630319 Z M4.59574468,18.3949468 L4.59574468,19.9268617 L16.8510638,19.9268617 L16.8510638,18.3949468 L4.59574468,18.3949468 Z M22.9787234,21.4587766 L22.9787234,22.9906915 L30.6382979,22.9906915 L30.6382979,21.4587766 L22.9787234,21.4587766 Z M4.59574468,22.9906915 L4.59574468,24.5226064 L13.787234,24.5226064 L13.787234,22.9906915 L4.59574468,22.9906915 Z M4.59574468,27.5864362 L4.59574468,29.1183511 L16.8510638,29.1183511 L16.8510638,27.5864362 L4.59574468,27.5864362 Z" id="Shape" fill="#015250" fill-rule="nonzero"></path>
                </g>
            </g>
        </g>
    </g>
</svg>