<?xml version="1.0" encoding="UTF-8"?>
<svg width="20px" height="24px" viewBox="0 0 20 24" version="1.1" xmlns="http://www.w3.org/2000/svg" xmlns:xlink="http://www.w3.org/1999/xlink">
    <!-- Generator: Sketch 64 (93537) - https://sketch.com -->
    <title>mark-preapproced</title>
    <desc>Created with Sketch.</desc>
    <g id="Mark-as" stroke="none" stroke-width="1" fill="none" fill-rule="evenodd">
        <g id="Mark-as-pre-approved" transform="translate(-750.000000, -554.000000)" fill="#FFFFFF" fill-rule="nonzero">
            <g id="Group-15" transform="translate(668.000000, 537.000000)">
                <g id="Group-13">
                    <g id="Group-16" transform="translate(61.000000, 0.000000)">
                        <path d="M31,17 C28.390625,17 25.8496095,17.8632815 24.125,19.796875 C22.4277345,21.6972655 21.5839845,24.605469 22.140625,28.53125 C21.4433595,29.2597655 21,30.3007815 21,31.5 C21,32.482422 21.453125,33.357422 22.046875,34.046875 C22.574219,34.6601565 23.216797,35.109375 23.84375,35.390625 C24.466797,37.3183595 25.808594,38.7226565 27.1875,39.625 C28.6171875,40.560547 30.046875,41 31,41 C31.9472655,41 33.373047,40.5703125 34.796875,39.640625 C36.1660155,38.746094 37.4921875,37.34375 38.140625,35.40625 C38.839844,35.1171875 39.5,34.6328125 40.015625,34 C40.589844,33.294922 41,32.4257815 41,31.5 C41,30.294922 40.5410155,29.263672 39.8125,28.515625 C40.341797,24.5996095 39.5039065,21.6953125 37.828125,19.796875 C36.123047,17.8632815 33.609375,17 31,17 Z M31,18 C33.390625,18 35.595703,18.7890625 37.078125,20.46875 C38.560547,22.1484375 39.373047,24.7539065 38.8125,28.578125 L38.765625,28.84375 L38.96875,29.03125 C39.6015625,29.580078 40,30.4257815 40,31.5 C40,32.125 39.7128905,32.8066405 39.25,33.375 C38.7871095,33.9433595 38.154297,34.390625 37.59375,34.578125 L37.34375,34.65625 L37.265625,34.90625 C36.730469,36.6953125 35.5253905,37.964844 34.25,38.796875 C32.9746095,39.6289065 31.6035155,40 31,40 C30.402344,40 29.017578,39.621094 27.734375,38.78125 C26.451172,37.9414065 25.2441405,36.6660155 24.734375,34.90625 L24.65625,34.671875 L24.421875,34.578125 C23.921875,34.390625 23.279297,33.966797 22.796875,33.40625 C22.314453,32.845703 22,32.167969 22,31.5 C22,30.4257815 22.40625,29.511719 22.96875,29.03125 L23.1875,28.84375 L23.140625,28.578125 C22.5566405,24.7558595 23.375,22.1484375 24.875,20.46875 C26.375,18.7890625 28.609375,18 31,18 Z M34.859375,25.3125 L34.578125,25.734375 L30.515625,32.03125 L27.828125,29.625 L27.46875,29.296875 L26.796875,30.03125 L27.171875,30.375 L30.265625,33.171875 L30.703125,33.5625 L31.015625,33.078125 L35.421875,26.265625 L35.6875,25.859375 L34.859375,25.3125 Z" id="mark-preapproced"></path>
                    </g>
                </g>
            </g>
        </g>
    </g>
</svg>