<?xml version="1.0" encoding="UTF-8"?>
<svg width="16px" height="16px" viewBox="0 0 16 16" version="1.1" xmlns="http://www.w3.org/2000/svg" xmlns:xlink="http://www.w3.org/1999/xlink">
    <!-- Generator: Sketch 64 (93537) - https://sketch.com -->
    <title>icon-add</title>
    <desc>Created with Sketch.</desc>
    <g id="Automation-flow" stroke="none" stroke-width="1" fill="none" fill-rule="evenodd">
        <g id="RuleBook2" transform="translate(-192.000000, -353.000000)" fill="#015250" fill-rule="nonzero">
            <g id="Group-7" transform="translate(140.000000, 300.000000)">
                <g id="Group-8" transform="translate(35.000000, 42.000000)">
                    <path d="M25,11 C20.5858417,11 17,14.5858417 17,19 C17,23.4141583 20.5858417,27 25,27 C29.4141583,27 33,23.4141583 33,19 C33,14.5858417 29.4141583,11 25,11 Z M25,11.6956522 C29.0381997,11.6956522 32.3043478,14.9618003 32.3043478,19 C32.3043478,23.0381997 29.0381997,26.3043478 25,26.3043478 C20.9618003,26.3043478 17.6956522,23.0381997 17.6956522,19 C17.6956522,14.9618003 20.9618003,11.6956522 25,11.6956522 Z M24.6521739,14.826087 L24.6521739,18.6521739 L20.826087,18.6521739 L20.826087,19.3478261 L24.6521739,19.3478261 L24.6521739,23.173913 L25.3478261,23.173913 L25.3478261,19.3478261 L29.173913,19.3478261 L29.173913,18.6521739 L25.3478261,18.6521739 L25.3478261,14.826087 L24.6521739,14.826087 Z" id="icon-add"></path>
                </g>
            </g>
        </g>
    </g>
</svg>