<?xml version="1.0" encoding="UTF-8"?>
<svg width="21px" height="22px" viewBox="0 0 21 22" version="1.1" xmlns="http://www.w3.org/2000/svg" xmlns:xlink="http://www.w3.org/1999/xlink">
    <!-- Generator: Sketch 64 (93537) - https://sketch.com -->
    <title>icon-updatecoding</title>
    <desc>Created with Sketch.</desc>
    <g id="Mark-as" stroke="none" stroke-width="1" fill="none" fill-rule="evenodd">
        <g id="Resolution-01" transform="translate(-1496.000000, -452.000000)" fill="#005350" fill-rule="nonzero">
            <g id="Group-13" transform="translate(1448.000000, 264.000000)">
                <g id="icon-invoice" transform="translate(48.000000, 188.000000)">
                    <path d="M0,0 L0,21.0833333 L9.79508475,21.0833333 C9.40504308,20.824375 9.05401704,20.5140833 8.74235037,20.1666667 L0.916666667,20.1666667 L0.916666667,0.916666667 L16.5,0.916666667 L16.5,12.409017 C16.8474167,12.7206837 17.1577083,13.0717098 17.4166667,13.4617514 L17.4166667,0 L0,0 Z M3.20833333,4.58333333 L3.20833333,5.5 L14.2083333,5.5 L14.2083333,4.58333333 L3.20833333,4.58333333 Z M3.66666667,7.33333333 C3.41320833,7.33333333 3.20833333,7.53866667 3.20833333,7.79166667 L3.20833333,15.5833333 C3.20833333,15.8363333 3.41320833,16.0416667 3.66666667,16.0416667 L5.42301421,16.0416667 C5.47251028,16.0498475 5.52301363,16.0498475 5.57250971,16.0416667 L7.35660796,16.0416667 C7.38273296,15.72725 7.43672325,15.422 7.51326492,15.125 L5.95833333,15.125 L5.95833333,13.75 L8.0745445,13.75 C8.26521117,13.4209167 8.48937192,13.11475 8.74145525,12.8333333 L5.95833333,12.8333333 L5.95833333,11 L11.3813475,11 C11.4308436,11.0081808 11.481347,11.0081808 11.530843,11 L14.2083333,11 L14.2083333,7.79166667 C14.2083333,7.53866667 14.0034583,7.33333333 13.75,7.33333333 L3.66666667,7.33333333 Z M4.125,8.25 L5.04166667,8.25 L5.04166667,10.0833333 L4.125,10.0833333 L4.125,8.25 Z M5.95833333,8.25 L11,8.25 L11,10.0833333 L5.95833333,10.0833333 L5.95833333,8.25 Z M11.9166667,8.25 L13.2916667,8.25 L13.2916667,10.0833333 L11.9166667,10.0833333 L11.9166667,8.25 Z M4.125,11 L5.04166667,11 L5.04166667,12.8333333 L4.125,12.8333333 L4.125,11 Z M12.8333333,11.9166667 C10.3074556,11.9166667 8.25,13.9741241 8.25,16.5 C8.25,19.0258759 10.3074556,21.0833333 12.8333333,21.0833333 C13.402631,21.0833333 13.9456235,20.9742871 14.4491375,20.7834472 C14.6988701,21.0978382 15.0026507,21.3668267 15.3523764,21.5694174 C15.3526748,21.5694177 15.3529732,21.5694177 15.3532715,21.5694174 C15.8253072,21.842601 16.3750812,22 16.9583333,22 C18.7246116,22 20.1666667,20.5579449 20.1666667,18.7916667 C20.1666667,17.1506931 18.9210514,15.7914726 17.3280438,15.606608 C16.9106667,13.5066681 15.0534276,11.9166667 12.8333333,11.9166667 Z M12.8333333,12.8333333 C14.8638077,12.8333333 16.5,14.469527 16.5,16.5 C16.5,18.530473 14.8638077,20.1666667 12.8333333,20.1666667 C10.8028589,20.1666667 9.16666667,18.530473 9.16666667,16.5 C9.16666667,14.469527 10.8028589,12.8333333 12.8333333,12.8333333 Z M4.125,13.75 L5.04166667,13.75 L5.04166667,15.125 L4.125,15.125 L4.125,13.75 Z M11.948893,14.5861004 L11.5773927,16.6682945 L12.2657879,16.6682945 C12.3414129,16.5637945 12.5003899,16.3666177 12.8413899,16.3666177 C12.9633066,16.3666177 13.4930826,16.4134181 13.4930826,17.0711264 C13.4930826,17.3044181 13.3533482,17.7971191 12.8413899,17.7971191 C12.3651816,17.7971191 12.2406941,17.404134 12.2228191,17.232259 L11.4592285,17.232259 C11.4518951,17.684634 11.7772114,18.4210611 12.8575031,18.4210611 C13.8837114,18.4210611 14.2557782,17.5670431 14.2557782,17.0711264 C14.2557782,16.8107931 14.1186645,15.7910156 13.0938312,15.7910156 C12.6607062,15.7910156 12.4606795,15.9779084 12.3570966,16.08195 L12.3463542,16.0703125 L12.4967448,15.2163087 L14.0516764,15.2163087 L14.0516764,14.5861004 L11.948893,14.5861004 Z M17.4139813,16.5456541 C18.4645904,16.7554315 19.25,17.6770729 19.25,18.7916667 C19.25,20.0623051 18.2289717,21.0833333 16.9583333,21.0833333 C16.5390573,21.0833333 16.1496894,20.9712548 15.8125,20.7762858 L15.8116049,20.7762858 C15.6182858,20.6642164 15.4447718,20.5225323 15.2923989,20.3609212 C16.5549739,19.5535115 17.3980414,18.147525 17.4139813,16.5456541 Z" id="icon-updatecoding"></path>
                </g>
            </g>
        </g>
    </g>
</svg>