<?xml version="1.0" encoding="UTF-8"?>
<svg width="24px" height="24px" viewBox="0 0 24 24" version="1.1" xmlns="http://www.w3.org/2000/svg" xmlns:xlink="http://www.w3.org/1999/xlink">
    <!-- Generator: Sketch 64 (93537) - https://sketch.com -->
    <title>icon-sendforapproval</title>
    <desc>Created with Sketch.</desc>
    <g id="Action-Approval" stroke="none" stroke-width="1" fill="none" fill-rule="evenodd">
        <g id="Action-01" transform="translate(-1493.000000, -452.000000)" fill="#005350" fill-rule="nonzero">
            <g id="Group-9" transform="translate(1491.000000, 433.000000)">
                <g id="icons8-submit_for_approval" transform="translate(2.000000, 19.000000)">
                    <path d="M10.9304069,0.000414624179 C10.7820923,-0.0053678526 10.6378249,0.0495347721 10.5308801,0.152459221 C10.4239352,0.255383671 10.3635474,0.397442415 10.3636453,0.545869639 L10.3636453,4.90950976 L0.545455015,4.90950976 C0.244221005,4.90953988 -3.55271368e-15,5.15373076 -3.55271368e-15,5.45496477 L-3.55271368e-15,18.5458851 C-3.55271368e-15,18.8471191 0.244221005,19.09131 0.545455015,19.0913401 L10.3636453,19.0913401 L10.3636453,23.4549803 C10.3638253,23.6709522 10.491404,23.8664832 10.6890081,23.9536411 C10.8866123,24.040799 11.1170311,24.0031712 11.2766432,23.8576793 L23.8221085,12.403124 C23.9352063,12.2997752 23.9996315,12.1536309 23.9996315,12.000425 C23.9996315,11.847219 23.9352063,11.7010747 23.8221085,11.5977259 L11.2766432,0.143170456 C11.1816936,0.0562176186 11.059049,0.00565035311 10.9304069,0.000414624179 Z M11.4545553,1.78166616 L22.6459711,12.000425 L11.4545553,22.2191838 L11.4545553,18.5458851 C11.4545252,18.2446511 11.2103343,18.0004602 10.9091003,18.0004301 L1.09091003,18.0004301 L1.09091003,6.00041979 L10.9091003,6.00041979 C11.2103343,6.00038967 11.4545252,5.75619878 11.4545553,5.45496477 L11.4545553,1.78166616 Z M14.1850262,8.1758436 C14.0246024,8.17657875 13.8726332,8.24788748 13.7695433,8.37080528 L8.95313243,13.9478695 L6.36648275,11.5966606 C6.22330844,11.4589443 6.0165878,11.4099478 5.8268341,11.4687543 C5.6370804,11.5275608 5.4942965,11.6848721 5.45409366,11.8794187 C5.41389083,12.0739654 5.48262572,12.2749867 5.63352758,12.4041893 L8.63353016,15.1314644 C8.74228881,15.2301008 8.88621698,15.2807313 9.03277679,15.2719097 C9.17933659,15.2630881 9.31615262,15.1955593 9.41229483,15.0845896 L14.5941175,9.08458444 C14.7375398,8.92388248 14.7729724,8.69383325 14.6845531,8.49742264 C14.5961338,8.30101203 14.4004198,8.17501937 14.1850262,8.1758436 L14.1850262,8.1758436 Z" id="icon-sendforapproval"></path>
                </g>
            </g>
        </g>
    </g>
</svg>