<?xml version="1.0" encoding="UTF-8"?>
<svg width="18px" height="18px" viewBox="0 0 18 18" version="1.1" xmlns="http://www.w3.org/2000/svg" xmlns:xlink="http://www.w3.org/1999/xlink">
    <!-- Generator: Sketch 64 (93537) - https://sketch.com -->
    <title>icon-savetest</title>
    <desc>Created with Sketch.</desc>
    <g id="Symbols" stroke="none" stroke-width="1" fill="none" fill-rule="evenodd">
        <g id="rule-actions" transform="translate(-309.000000, -11.000000)" fill="#FA6400" fill-rule="nonzero">
            <g id="Group-2">
                <g transform="translate(283.000000, 0.000000)">
                    <g id="icon-savetest" transform="translate(26.000000, 11.000000)">
                        <path d="M1.28571429,0 C0.5805195,0 0,0.5805195 0,1.28571429 L0,16.7142857 C0,17.4194807 0.5805195,18 1.28571429,18 L16.7142857,18 C17.4194807,18 18,17.4194807 18,16.7142857 L18,3.94252243 C18,3.82886575 17.9548146,3.71987127 17.8744419,3.63950914 L14.3604909,0.125558057 C14.2801287,0.0451853925 14.1711342,0 14.0574776,0 L1.28571429,0 Z M1.28571429,0.857142857 L3.42857143,0.857142857 L3.42857143,6 C3.42857143,6.705195 4.00909071,7.28571429 4.71428571,7.28571429 L12.8571429,7.28571429 C13.5623379,7.28571429 14.1428571,6.705195 14.1428571,6 L14.1428571,1.11997766 L17.1428571,4.11997757 L17.1428571,16.7142857 C17.1428571,16.9519479 16.9519479,17.1428571 16.7142857,17.1428571 L14.5714286,17.1428571 L14.5714286,10.7142857 C14.5714286,10.0090907 13.9909093,9.42857143 13.2857143,9.42857143 L4.71428571,9.42857143 C4.00909071,9.42857143 3.42857143,10.0090907 3.42857143,10.7142857 L3.42857143,17.1428571 L1.28571429,17.1428571 C1.04805193,17.1428571 0.857142857,16.9519479 0.857142857,16.7142857 L0.857142857,1.28571429 C0.857142857,1.04805193 1.04805193,0.857142857 1.28571429,0.857142857 Z M4.28571429,0.857142857 L13.2857143,0.857142857 L13.2857143,6 C13.2857143,6.23766214 13.094805,6.42857143 12.8571429,6.42857143 L4.71428571,6.42857143 C4.47662357,6.42857143 4.28571429,6.23766214 4.28571429,6 L4.28571429,0.857142857 Z M10.7142857,1.71428571 C10.4776021,1.71428571 10.285738,1.90617348 10.2857143,2.14285714 L10.2857143,5.14285714 C10.285738,5.3795408 10.4776021,5.57142857 10.7142857,5.57142857 L12,5.57142857 C12.2366837,5.57142857 12.4285478,5.3795408 12.4285714,5.14285714 L12.4285714,2.14285714 C12.4285478,1.90617348 12.2366837,1.71428571 12,1.71428571 L10.7142857,1.71428571 Z M11.1428571,2.57142857 L11.5714286,2.57142857 L11.5714286,4.71428571 L11.1428571,4.71428571 L11.1428571,2.57142857 Z M4.71428571,10.2857143 L13.2857143,10.2857143 C13.5233764,10.2857143 13.7142857,10.4766236 13.7142857,10.7142857 L13.7142857,17.1428571 L4.28571429,17.1428571 L4.28571429,10.7142857 C4.28571429,10.4766236 4.47662357,10.2857143 4.71428571,10.2857143 Z M1.71428571,15.4285714 L1.71428571,16.2857143 L2.57142857,16.2857143 L2.57142857,15.4285714 L1.71428571,15.4285714 Z M15.4285714,15.4285714 L15.4285714,16.2857143 L16.2857143,16.2857143 L16.2857143,15.4285714 L15.4285714,15.4285714 Z" id="Shape"></path>
                        <path d="M6.29837607,11.4001235 C6.19125036,11.403076 6.09246443,11.458643 6.03431219,11.5486594 L5.60393883,12.193585 L5.55950499,12.1491511 C5.47798897,12.0642483 5.35694242,12.0300475 5.24304874,12.0597387 C5.12915507,12.08943 5.04021136,12.1783737 5.01052009,12.2922673 C4.98082883,12.406161 5.01502957,12.5272076 5.09993231,12.6087236 L5.42493401,12.9337253 C5.49378592,13.0025543 5.58986482,13.0368964 5.68674648,13.0273067 C5.78362814,13.0177169 5.87110987,12.9652052 5.9251319,12.8842136 L6.57513529,11.9092085 C6.64444471,11.808421 6.65130175,11.6772559 6.59287937,11.5697908 C6.53445699,11.4623258 6.42064872,11.3967593 6.29837607,11.4001235 Z M7.92973223,12.0539356 C7.81252494,12.052278 7.7035046,12.1138579 7.64441723,12.2150952 C7.58532985,12.3163324 7.58532985,12.4415423 7.64441723,12.5427795 C7.7035046,12.6440167 7.81252494,12.7055966 7.92973223,12.703939 L12.479756,12.703939 C12.5969633,12.7055966 12.7059836,12.6440167 12.765071,12.5427795 C12.8241584,12.4415423 12.8241584,12.3163324 12.765071,12.2150952 C12.7059836,12.1138579 12.5969633,12.052278 12.479756,12.0539356 L7.92973223,12.0539356 Z M5.97972204,14.0039458 C5.44509113,14.0039458 5.00471695,14.4443199 5.00471695,14.9789509 C5.00471695,15.513582 5.44509113,15.953956 5.97972204,15.953956 C6.51435296,15.953956 6.95472714,15.513582 6.95472714,14.9789509 C6.95472714,14.4443199 6.51435296,14.0039458 5.97972204,14.0039458 Z M5.97972204,14.6539492 C6.16306506,14.6539492 6.30472374,14.795608 6.30472374,14.9789509 C6.30472374,15.1622938 6.16306506,15.3039526 5.97972204,15.3039526 C5.79637903,15.3039526 5.65472035,15.1622938 5.65472035,14.9789509 C5.65472035,14.795608 5.79637903,14.6539492 5.97972204,14.6539492 Z M7.92973223,14.6539492 C7.81252494,14.6522916 7.7035046,14.7138715 7.64441723,14.8151087 C7.58532985,14.916346 7.58532985,15.0415559 7.64441723,15.1427931 C7.7035046,15.2440303 7.81252494,15.3056102 7.92973223,15.3039526 L12.479756,15.3039526 C12.5969633,15.3056102 12.7059836,15.2440303 12.765071,15.1427931 C12.8241584,15.0415559 12.8241584,14.916346 12.765071,14.8151087 C12.7059836,14.7138715 12.5969633,14.6522916 12.479756,14.6539492 L7.92973223,14.6539492 Z" id="Shape"></path>
                    </g>
                </g>
            </g>
        </g>
    </g>
</svg>