<?xml version="1.0" encoding="UTF-8"?>
<svg width="26px" height="18px" viewBox="0 0 26 18" version="1.1" xmlns="http://www.w3.org/2000/svg" xmlns:xlink="http://www.w3.org/1999/xlink">
    <!-- Generator: Sketch 64 (93537) - https://sketch.com -->
    <title>icon-mailing</title>
    <desc>Created with Sketch.</desc>
    <g id="Action-Approval" stroke="none" stroke-width="1" fill="none" fill-rule="evenodd">
        <g id="Action-01" transform="translate(-1491.000000, -635.000000)" fill-rule="nonzero">
            <g id="Group-9" transform="translate(1491.000000, 433.000000)">
                <g id="icon-mailing" transform="translate(0.000000, 202.000000)">
                    <path d="M6.75,17.3863636 L23.1136364,17.3863636 C24.2386364,17.3863636 25.1590909,16.4659091 25.1590909,15.3409091 L25.1590909,2.65909091 C25.1590909,1.53409091 24.2386364,0.613636364 23.1136364,0.613636364 L6.75,0.613636364 C5.625,0.613636364 4.70454545,1.53409091 4.70454545,2.65909091 L4.70454545,15.3409091 C4.70454545,16.4659091 5.625,17.3863636 6.75,17.3863636 Z" id="Path" fill="#FFFFFF"></path>
                    <path d="M23.1136364,18 L3.68181818,18 C3.33409091,18 3.06818182,17.7340909 3.06818182,17.3863636 C3.06818182,17.0386364 3.33409091,16.7727273 3.68181818,16.7727273 L23.1136364,16.7727273 C23.9113636,16.7727273 24.5454545,16.1181818 24.5454545,15.5454545 L24.5454545,5.31818182 C24.5454545,4.97045455 24.8113636,4.70454545 25.1590909,4.70454545 C25.5068182,4.70454545 25.7727273,4.97045455 25.7727273,5.31818182 L25.7727273,15.5454545 C25.7727273,16.8545455 24.525,18 23.1136364,18 Z" id="Path" fill="#005350"></path>
                    <path d="M14.9318182,10.0227273 C12.0272727,10.0227273 9.32727273,8.87727273 7.32272727,6.77045455 C7.09772727,6.525 7.09772727,6.13636364 7.34318182,5.91136364 C7.58863636,5.68636364 7.97727273,5.68636364 8.20227273,5.93181818 C9.98181818,7.77272727 12.3545455,8.79545455 14.9113636,8.79545455 C17.4681818,8.79545455 19.8613636,7.77272727 21.6204545,5.93181818 C21.8454545,5.68636364 22.2340909,5.68636364 22.4795455,5.91136364 C22.725,6.13636364 22.725,6.525 22.5,6.77045455 C20.5363636,8.87727273 17.8363636,10.0227273 14.9318182,10.0227273 Z M4.70454545,5.72727273 C4.35681818,5.72727273 4.09090909,5.46136364 4.09090909,5.11363636 L4.09090909,2.65909091 C4.09090909,1.18636364 5.27727273,0 6.75,0 L23.1136364,0 C24.5863636,0 25.7727273,1.18636364 25.7727273,2.65909091 C25.7727273,3.00681818 25.5068182,3.27272727 25.1590909,3.27272727 C24.8113636,3.27272727 24.5454545,3.00681818 24.5454545,2.65909091 C24.5454545,1.86136364 23.9113636,1.22727273 23.1136364,1.22727273 L6.75,1.22727273 C5.95227273,1.22727273 5.31818182,1.86136364 5.31818182,2.65909091 L5.31818182,5.11363636 C5.31818182,5.46136364 5.05227273,5.72727273 4.70454545,5.72727273 Z" id="Shape" fill="#005350"></path>
                    <path d="M4.70454545,9.81818182 L3.27272727,9.81818182 C2.925,9.81818182 2.65909091,9.55227273 2.65909091,9.20454545 C2.65909091,8.85681818 2.925,8.59090909 3.27272727,8.59090909 L4.70454545,8.59090909 C5.05227273,8.59090909 5.31818182,8.85681818 5.31818182,9.20454545 C5.31818182,9.55227273 5.05227273,9.81818182 4.70454545,9.81818182 Z" id="Path" fill="#005350"></path>
                    <path d="M0.613636364,18 C0.572727273,18 0.531818182,18 0.490909091,17.9795455 C0.45,17.9795455 0.409090909,17.9590909 0.368181818,17.9386364 C0.327272727,17.9181818 0.306818182,17.8977273 0.265909091,17.8772727 C0.225,17.8568182 0.204545455,17.8363636 0.163636364,17.7954545 C0.0613636364,17.7136364 0,17.55 0,17.3863636 C0,17.2227273 0.0613636364,17.0590909 0.184090909,16.9568182 C0.204545455,16.9363636 0.245454545,16.8954545 0.286363636,16.875 C0.327272727,16.8545455 0.347727273,16.8340909 0.388636364,16.8136364 C0.429545455,16.7931818 0.470454545,16.7931818 0.511363636,16.7727273 C0.715909091,16.7318182 0.920454545,16.7931818 1.06363636,16.9363636 C1.08409091,16.9568182 1.125,16.9977273 1.14545455,17.0181818 C1.16590909,17.0590909 1.18636364,17.0795455 1.20681818,17.1204545 C1.22727273,17.1613636 1.22727273,17.2022727 1.24772727,17.2431818 C1.24772727,17.2840909 1.26818182,17.325 1.26818182,17.3659091 C1.26818182,17.5295455 1.20681818,17.6931818 1.08409091,17.7954545 C0.940909091,17.9386364 0.777272727,18 0.613636364,18 Z" id="Path" fill="#005350"></path>
                    <path d="M6.75,13.9090909 L1.63636364,13.9090909 C1.28863636,13.9090909 1.02272727,13.6431818 1.02272727,13.2954545 C1.02272727,12.9477273 1.28863636,12.6818182 1.63636364,12.6818182 L6.75,12.6818182 C7.09772727,12.6818182 7.36363636,12.9477273 7.36363636,13.2954545 C7.36363636,13.6431818 7.09772727,13.9090909 6.75,13.9090909 Z" id="Path" fill="#005350"></path>
                </g>
            </g>
        </g>
    </g>
</svg>