<?xml version="1.0" encoding="UTF-8"?>
<svg width="23px" height="24px" viewBox="0 0 23 24" version="1.1" xmlns="http://www.w3.org/2000/svg" xmlns:xlink="http://www.w3.org/1999/xlink">
    <!-- Generator: Sketch 64 (93537) - https://sketch.com -->
    <title>icon-filter</title>
    <desc>Created with Sketch.</desc>
    <g id="Automation-flow" stroke="none" stroke-width="1" fill="none" fill-rule="evenodd">
        <g id="RuleBook" transform="translate(-127.000000, -188.000000)" fill="#5D5D5D" fill-rule="nonzero">
            <g id="Group-8" transform="translate(127.000000, 188.000000)">
                <path d="M21.973491,1.7633344e-06 L0.989024717,1.7633344e-06 C0.618915169,-0.000696548539 0.279609133,0.206060775 0.110422865,0.535332299 C-0.0610970359,0.869037627 -0.0309935307,1.27088425 0.18813186,1.57565289 L7.87595654,12.4054418 C7.87852351,12.4091756 7.88132384,12.412676 7.88389082,12.4164098 C8.16322319,12.7935202 8.31420738,13.2502065 8.31514082,13.7197276 L8.31514082,22.5491513 C8.31350728,22.8107482 8.41618585,23.061844 8.60054059,23.2473655 C8.78489527,23.4328871 9.03552436,23.5369658 9.29688799,23.5369658 C9.42990338,23.5369658 9.5612853,23.5103627 9.68403283,23.4594901 L14.0040004,21.8121992 C14.3911453,21.6941188 14.648075,21.3289098 14.648075,20.8890254 L14.648075,13.7197276 C14.6487751,13.2504398 14.7999927,12.7935202 15.0790917,12.4164098 C15.0816587,12.412676 15.084459,12.4091756 15.0870259,12.4054418 L22.7746172,1.5751862 C22.9937427,1.27065084 23.0238461,0.869037627 22.8523263,0.535332299 C22.68314,0.206060775 22.343834,-0.000696548539 21.973491,1.7633344e-06 Z M14.11578,11.7086278 C13.6863969,12.2913286 13.4542033,12.9958436 13.4528032,13.7197276 L13.4528032,20.7438753 L9.50994601,22.2471829 L9.50994601,13.7197276 C9.50854582,12.9958436 9.27635228,12.2913286 8.84673576,11.7086278 L1.38317046,1.19480873 L21.5795787,1.19480873 L14.11578,11.7086278 Z" id="icon-filter"></path>
            </g>
        </g>
    </g>
</svg>