<?xml version="1.0" encoding="UTF-8"?>
<svg width="10px" height="10px" viewBox="0 0 10 10" version="1.1" xmlns="http://www.w3.org/2000/svg" xmlns:xlink="http://www.w3.org/1999/xlink">
    <!-- Generator: Sketch 64 (93537) - https://sketch.com -->
    <title>icon-edit</title>
    <desc>Created with Sketch.</desc>
    <g id="Symbols" stroke="none" stroke-width="1" fill="none" fill-rule="evenodd" opacity="0.501906622">
        <g id="new-card" transform="translate(-449.000000, -46.000000)" fill="#000000" fill-rule="nonzero">
            <g id="icons8-edit" transform="translate(449.000000, 46.000000)">
                <path d="M8.94021739,0 C8.66932739,0 8.39928674,0.106148043 8.19293478,0.3125 L8.01630435,0.489130435 L9.51086957,1.98369869 C9.51002043,1.98454478 9.6875,1.80706522 9.6875,1.80706522 C10.101053,1.39351217 10.1002039,0.725203913 9.6875,0.3125 C9.48029891,0.106148043 9.21110739,0 8.94021739,0 Z M7.68342391,0.876358696 C7.6341713,0.883152174 7.58831522,0.907778478 7.55434783,0.944293478 L0.502717391,8.00271739 C0.474694348,8.02819304 0.453464783,8.06131109 0.441576087,8.09782609 L0.00679347826,9.72826087 C-0.0127378261,9.80298913 0.00934108696,9.88196326 0.063688913,9.93631109 C0.118036739,9.99065891 0.19701087,10.0127378 0.27173913,9.99320652 L1.90217391,9.55842391 C1.93868891,9.54653543 1.97180717,9.52530565 1.99728261,9.49728261 L9.05570652,2.44565217 C9.14232348,2.36158283 9.14317261,2.22316587 9.05910326,2.13654891 C8.97503391,2.04993217 8.83661696,2.04908283 8.75,2.13315217 L1.73233696,9.15081522 L0.849184783,8.26766304 L7.86684783,1.25 C7.932235,1.18716043 7.9517663,1.08950413 7.9152513,1.00628391 C7.87873652,0.923063913 7.79466717,0.871263696 7.70380435,0.876358696 C7.69701087,0.876358696 7.69021739,0.876358696 7.68342391,0.876358696 Z" id="icon-edit"></path>
            </g>
        </g>
    </g>
</svg>