<?xml version="1.0" encoding="UTF-8"?>
<svg width="30px" height="30px" viewBox="0 0 30 30" version="1.1" xmlns="http://www.w3.org/2000/svg" xmlns:xlink="http://www.w3.org/1999/xlink">
    <!-- Generator: Sketch 64 (93537) - https://sketch.com -->
    <title>list-coding</title>
    <desc>Created with Sketch.</desc>
    <defs>
        <linearGradient x1="50%" y1="0%" x2="50%" y2="139.649416%" id="linearGradient-1">
            <stop stop-color="#FFFFFF" offset="0%"></stop>
            <stop stop-color="#00D77D" offset="100%"></stop>
        </linearGradient>
    </defs>
    <g id="Automation-flow" stroke="none" stroke-width="1" fill="none" fill-rule="evenodd">
        <g id="RuleBook3" transform="translate(-1521.000000, -487.000000)">
            <g id="Category" transform="translate(1469.000000, 349.000000)">
                <g id="list-coding" transform="translate(52.000000, 138.000000)">
                    <path d="M27.8571429,25.7142857 L2.14285714,25.7142857 C0.964285714,25.7142857 0,26.6785714 0,27.8571429 L0,27.8571429 C0,29.0357143 0.964285714,30 2.14285714,30 L27.8571429,30 C29.0357143,30 30,29.0357143 30,27.8571429 L30,27.8571429 C30,26.6785714 29.0357143,25.7142857 27.8571429,25.7142857 Z" id="Path" fill="#015250" fill-rule="nonzero"></path>
                    <polygon id="Path" fill="#FFFFFF" fill-rule="nonzero" points="2.67857143 28.3928571 2.67857143 1.39285714 4.28571429 0.642857143 6.42857143 1.71428571 8.57142857 0.642857143 10.7142857 1.71428571 12.8571429 0.642857143 15 1.71428571 17.1428571 0.642857143 19.2857143 1.71428571 21.4285714 0.642857143 23.5714286 1.71428571 25.7142857 0.642857143 27.3214286 1.39285714 27.3214286 28.3928571"></polygon>
                    <rect id="Rectangle" fill="url(#linearGradient-1)" x="4.6875" y="6.5625" width="20.625" height="19.6875"></rect>
                    <path d="M17.1428571,1.17857143 L18.8571429,2.03571429 L19.2857143,2.25 L19.7142857,2.03571429 L21.4285714,1.17857143 L23.1428571,2.03571429 L23.5714286,2.25 L24,2.03571429 L25.7142857,1.17857143 L26.7857143,1.71428571 L26.7857143,27.8571429 L3.21428571,27.8571429 L3.21428571,1.71428571 L4.28571429,1.17857143 L6,2.03571429 L6.42857143,2.25 L6.85714286,2.03571429 L8.57142857,1.17857143 L10.2857143,2.03571429 L10.7142857,2.25 L11.1428571,2.03571429 L12.8571429,1.17857143 L14.5714286,2.03571429 L15,2.25 L15.4285714,2.03571429 L17.1428571,1.17857143 M25.7142857,0 L23.5714286,1.07142857 L21.4285714,0 L19.2857143,1.07142857 L17.1428571,0 L15,1.07142857 L12.8571429,0 L10.7142857,1.07142857 L8.57142857,0 L6.42857143,1.07142857 L4.28571429,0 L2.14285714,1.07142857 L2.14285714,28.9285714 L27.8571429,28.9285714 L27.8571429,1.07142857 L25.7142857,0 L25.7142857,0 Z" id="Shape" fill="#015250" fill-rule="nonzero"></path>
                    <path d="M6.42857143,5.35714286 L18.2142857,5.35714286 L18.2142857,6.42857143 L6.42857143,6.42857143 L6.42857143,5.35714286 Z M22.5,5.35714286 L24.6428571,5.35714286 L24.6428571,6.42857143 L22.5,6.42857143 L22.5,5.35714286 Z M6.42857143,8.57142857 L16.0714286,8.57142857 L16.0714286,9.64285714 L6.42857143,9.64285714 L6.42857143,8.57142857 Z M22.5,8.57142857 L24.6428571,8.57142857 L24.6428571,9.64285714 L22.5,9.64285714 L22.5,8.57142857 Z M6.42857143,15 L16.0714286,15 L16.0714286,16.0714286 L6.42857143,16.0714286 L6.42857143,15 Z M22.5,15 L24.6428571,15 L24.6428571,16.0714286 L22.5,16.0714286 L22.5,15 Z M16.0714286,22.5 L24.6428571,22.5 L24.6428571,23.5714286 L16.0714286,23.5714286 L16.0714286,22.5 Z M6.42857143,11.7857143 L18.2142857,11.7857143 L18.2142857,12.8571429 L6.42857143,12.8571429 L6.42857143,11.7857143 Z M22.5,11.7857143 L24.6428571,11.7857143 L24.6428571,12.8571429 L22.5,12.8571429 L22.5,11.7857143 Z M6.96428571,19.2857143 C6.66841888,19.2857143 6.42857143,19.5255617 6.42857143,19.8214286 C6.42857143,20.1172954 6.66841888,20.3571429 6.96428571,20.3571429 C7.26015254,20.3571429 7.5,20.1172954 7.5,19.8214286 C7.5,19.5255617 7.26015254,19.2857143 6.96428571,19.2857143 Z M9.10714286,19.2857143 C8.81127603,19.2857143 8.57142857,19.5255617 8.57142857,19.8214286 C8.57142857,20.1172954 8.81127603,20.3571429 9.10714286,20.3571429 C9.40300969,20.3571429 9.64285714,20.1172954 9.64285714,19.8214286 C9.64285714,19.5255617 9.40300969,19.2857143 9.10714286,19.2857143 Z M11.25,19.2857143 C10.9541332,19.2857143 10.7142857,19.5255617 10.7142857,19.8214286 C10.7142857,20.1172954 10.9541332,20.3571429 11.25,20.3571429 C11.5458668,20.3571429 11.7857143,20.1172954 11.7857143,19.8214286 C11.7857143,19.5255617 11.5458668,19.2857143 11.25,19.2857143 Z M13.3928571,19.2857143 C13.0969903,19.2857143 12.8571429,19.5255617 12.8571429,19.8214286 C12.8571429,20.1172954 13.0969903,20.3571429 13.3928571,20.3571429 C13.688724,20.3571429 13.9285714,20.1172954 13.9285714,19.8214286 C13.9285714,19.5255617 13.688724,19.2857143 13.3928571,19.2857143 Z M15.5357143,19.2857143 C15.2398475,19.2857143 15,19.5255617 15,19.8214286 C15,20.1172954 15.2398475,20.3571429 15.5357143,20.3571429 C15.8315811,20.3571429 16.0714286,20.1172954 16.0714286,19.8214286 C16.0714286,19.5255617 15.8315811,19.2857143 15.5357143,19.2857143 Z M17.6785714,19.2857143 C17.3827046,19.2857143 17.1428571,19.5255617 17.1428571,19.8214286 C17.1428571,20.1172954 17.3827046,20.3571429 17.6785714,20.3571429 C17.9744383,20.3571429 18.2142857,20.1172954 18.2142857,19.8214286 C18.2142857,19.5255617 17.9744383,19.2857143 17.6785714,19.2857143 Z M19.8214286,19.2857143 C19.5255617,19.2857143 19.2857143,19.5255617 19.2857143,19.8214286 C19.2857143,20.1172954 19.5255617,20.3571429 19.8214286,20.3571429 C20.1172954,20.3571429 20.3571429,20.1172954 20.3571429,19.8214286 C20.3571429,19.5255617 20.1172954,19.2857143 19.8214286,19.2857143 Z M21.9642857,19.2857143 C21.6684189,19.2857143 21.4285714,19.5255617 21.4285714,19.8214286 C21.4285714,20.1172954 21.6684189,20.3571429 21.9642857,20.3571429 C22.2601525,20.3571429 22.5,20.1172954 22.5,19.8214286 C22.5,19.5255617 22.2601525,19.2857143 21.9642857,19.2857143 Z M24.1071429,19.2857143 C23.811276,19.2857143 23.5714286,19.5255617 23.5714286,19.8214286 C23.5714286,20.1172954 23.811276,20.3571429 24.1071429,20.3571429 C24.4030097,20.3571429 24.6428571,20.1172954 24.6428571,19.8214286 C24.6428571,19.5255617 24.4030097,19.2857143 24.1071429,19.2857143 Z" id="Shape" fill="#015250" fill-rule="nonzero"></path>
                </g>
            </g>
        </g>
    </g>
</svg>