<?xml version="1.0" encoding="UTF-8"?>
<svg width="26px" height="22px" viewBox="0 0 26 22" version="1.1" xmlns="http://www.w3.org/2000/svg" xmlns:xlink="http://www.w3.org/1999/xlink">
    <!-- Generator: Sketch 64 (93537) - https://sketch.com -->
    <title>mark-paid</title>
    <desc>Created with Sketch.</desc>
    <g id="Mark-as" stroke="none" stroke-width="1" fill="none" fill-rule="evenodd">
        <g id="Mark-as-posted" transform="translate(-736.000000, -555.000000)" fill="#FFFFFF" fill-rule="nonzero">
            <g id="Group-15" transform="translate(668.000000, 537.000000)">
                <g id="Group-13">
                    <g id="Group-16" transform="translate(61.000000, 0.000000)">
                        <path d="M19.6947993,18.0034128 C19.5807383,18.0154195 19.4726802,18.0674471 19.3906363,18.14749 L12.9231724,24.6629796 L8.02454874,24.6629796 C7.75640538,24.6629796 7.48225817,24.7570301 7.28815433,24.9511339 C7.0940505,25.1452378 7,25.419385 7,25.6875284 L7,27.7366258 C7,28.0047697 7.0940505,28.2789164 7.28815433,28.4730202 C7.48225817,28.6671241 7.75640538,28.7611746 8.02454874,28.7611746 L8.10459161,28.7611746 L10.8580664,37.918079 C10.8620688,37.9280842 10.8680716,37.9400909 10.8740749,37.9500961 C11.0901907,38.5264048 11.6424865,39.006662 12.3308552,39.006662 L27.1868119,39.006662 C27.8631744,39.006662 28.4654969,38.5764314 28.6435922,37.9340875 C28.6455931,37.9300856 28.6415912,37.9220814 28.6435922,37.918079 L28.6596008,37.9020704 L31.5091269,28.7611746 L31.5891698,28.7611746 C31.8573137,28.7611746 32.1314604,28.6671241 32.3255642,28.4730202 C32.5196681,28.2789164 32.6137186,28.0047697 32.6137186,27.7366258 L32.6137186,25.6875284 C32.6137186,25.419385 32.5196681,25.1452378 32.3255642,24.9511339 C32.1314604,24.7570301 31.8573137,24.6629796 31.5891698,24.6629796 L26.6905461,24.6629796 L20.1110222,18.14749 C20.0009631,18.0394323 19.8488817,17.9854033 19.6947993,18.0034128 Z M19.7588336,19.2520816 L25.2177573,24.6629796 L14.3959612,24.6629796 L19.7588336,19.2520816 Z M8.02454874,25.6875284 L26.4184004,25.6875284 C26.4564209,25.6915308 26.4924399,25.6915308 26.5304604,25.6875284 L31.5891698,25.6875284 L31.5891698,27.7366258 L31.1249212,27.7366258 C30.9068045,27.7386268 30.7127006,27.880703 30.6446639,28.0888145 L27.6670692,37.6299246 C27.6670692,37.635928 27.6670692,37.6399299 27.6670692,37.6459332 C27.6270477,37.8020171 27.4209372,37.9821133 27.1868119,37.9821133 L12.3308552,37.9821133 C12.1027332,37.9821133 11.9426475,37.8320327 11.850598,37.5979075 L11.8345894,37.5979075 L8.96905461,28.104823 C8.90702126,27.8907082 8.71291743,27.7406282 8.48879739,27.7366258 L8.02454874,27.7366258 L8.02454874,25.6875284 Z M23.9050542,28.5530631 L23.536857,28.9052517 L18.7823105,33.6597983 L16.5891359,31.4666236 L16.2209387,31.114435 L15.5005528,31.8348208 L15.8527415,32.203018 L18.4141133,34.7643899 L18.7823105,35.1165785 L19.1505077,34.7643899 L24.2732514,29.6416462 L24.6254401,29.2734489 L23.9050542,28.5530631 Z" id="mark-paid"></path>
                    </g>
                </g>
            </g>
        </g>
    </g>
</svg>