<?xml version="1.0" encoding="UTF-8"?>
<svg width="47px" height="41px" viewBox="0 0 47 41" version="1.1" xmlns="http://www.w3.org/2000/svg" xmlns:xlink="http://www.w3.org/1999/xlink">
    <!-- Generator: Sketch 64 (93537) - https://sketch.com -->
    <title>icon-tickets</title>
    <desc>Created with Sketch.</desc>
    <g id="Dashboard-backup" stroke="none" stroke-width="1" fill="none" fill-rule="evenodd">
        <g id="Dashboard01" transform="translate(-154.000000, -835.000000)" fill-rule="nonzero">
            <g id="Group-5" transform="translate(132.000000, 799.000000)">
                <g id="icon-tickets" transform="translate(21.000000, 36.000000)">
                    <path d="M33.65625,0 C33.148438,0 32.660156,0.183594 32.28125,0.5625 L29.65625,3.1875 L28.0625,1.5625 C27.683594,1.183594 27.164063,1 26.65625,1 C26.148438,1 25.660156,1.183594 25.28125,1.5625 L1.5625,25.28125 C0.800781,26.042969 0.800781,27.300781 1.5625,28.0625 L5.78125,32.25 C6.105469,32.574219 6.605469,32.640625 7,32.40625 C7.734375,31.964844 8.675781,32.050781 9.3125,32.6875 C9.949219,33.324219 10.035156,34.265625 9.59375,35 C9.359375,35.394531 9.425781,35.894531 9.75,36.21875 L13.9375,40.4375 C14.699219,41.199219 15.957031,41.199219 16.71875,40.4375 L19.3125,37.8125 L20.9375,39.4375 C21.699219,40.199219 22.957031,40.199219 23.71875,39.4375 L47.4375,15.71875 C48.199219,14.957031 48.199219,13.699219 47.4375,12.9375 L43.21875,8.75 C42.894531,8.425781 42.394531,8.359375 42,8.59375 C41.265625,9.035156 40.324219,8.949219 39.6875,8.3125 C39.050781,7.675781 38.964844,6.734375 39.40625,6 C39.640625,5.605469 39.574219,5.105469 39.25,4.78125 L35.0625,0.5625 C34.683594,0.183594 34.164063,0 33.65625,0 Z" id="Path" fill="#005350"></path>
                    <path d="M33.65625,2 L33.6875,2 L37.5,5.84375 C37.078125,7.1875 37.21875,8.65625 38.28125,9.71875 C39.34375,10.78125 40.8125,10.921875 42.15625,10.5 L46,14.3125 L46,14.34375 L22.34375,38 L22.3125,38 L20.75,36.40625 L37.5,19.65625 L37.8125,19.96875 C38.199219,20.367188 38.835938,20.371094 39.234375,19.984375 C39.632813,19.597656 39.636719,18.960938 39.25,18.5625 L38.9375,18.25 L40.4375,16.71875 C41.195313,15.957031 41.199219,14.699219 40.4375,13.9375 L36.21875,9.75 C35.894531,9.425781 35.394531,9.359375 35,9.59375 C34.265625,10.035156 33.324219,9.949219 32.6875,9.3125 C32.050781,8.675781 31.964844,7.734375 32.40625,7 C32.640625,6.605469 32.574219,6.105469 32.25,5.78125 L31.09375,4.59375 L33.65625,2 Z" id="Path" fill="#FFFFFF"></path>
                    <path d="M26.65625,3 L26.6875,3 L28.65625,4.96875 C28.753906,5.300781 29.011719,5.558594 29.34375,5.65625 L30.5,6.84375 C30.078125,8.1875 30.21875,9.65625 31.28125,10.71875 C32.34375,11.78125 33.8125,11.921875 35.15625,11.5 L39,15.34375 L36.96875,17.40625 C36.945313,17.425781 36.925781,17.445313 36.90625,17.46875 L36.8125,17.53125 C36.765625,17.578125 36.722656,17.632813 36.6875,17.6875 L18.9375,35.375 C18.617188,35.480469 18.371094,35.738281 18.28125,36.0625 L15.34375,39 L11.5,35.15625 C11.921875,33.8125 11.78125,32.34375 10.71875,31.28125 C9.65625,30.21875 8.1875,30.078125 6.84375,30.5 L3,26.6875 L3,26.65625 L21.625,8.03125 L22.46875,8.34375 L23.21875,7.8125 L23.25,6.90625 L23.03125,6.625 L26.65625,3 Z" id="Path" fill="#FFFFFF"></path>
                    <polygon id="Path" fill="#005350" points="24.3125 8.46875 23.59375 8.96875 23.5625 9.875 23.75 10.15625 24.46875 10.875 25.3125 11.15625 26.03125 10.65625 26.0625 9.75 25.875 9.46875 25.15625 8.75"></polygon>
                    <polygon id="Path" fill="#005350" points="27.15625 11.3125 26.40625 11.8125 26.375 12.71875 26.59375 13 27.28125 13.6875 28.125 14 28.875 13.46875 28.90625 12.5625 28.6875 12.28125 28 11.59375"></polygon>
                    <polygon id="Path" fill="#005350" points="29.96875 14.125 29.25 14.625 29.21875 15.53125 29.40625 15.8125 30.125 16.53125 30.96875 16.8125 31.6875 16.3125 31.71875 15.40625 31.53125 15.125 30.8125 14.40625"></polygon>
                    <polygon id="Path" fill="#005350" points="32.8125 16.96875 32.0625 17.46875 32.03125 18.375 32.25 18.65625 32.9375 19.375 33.78125 19.65625 34.53125 19.125 34.5625 18.25 34.375 17.9375 33.65625 17.25"></polygon>
                </g>
            </g>
        </g>
    </g>
</svg>