<?xml version="1.0" encoding="UTF-8"?>
<svg width="20px" height="20px" viewBox="0 0 20 20" version="1.1" xmlns="http://www.w3.org/2000/svg" xmlns:xlink="http://www.w3.org/1999/xlink">
    <!-- Generator: Sketch 61.2 (89653) - https://sketch.com -->
    <title>edit</title>
    <desc>Created with Sketch.</desc>
    <g id="Invoice-template-flow" stroke="none" stroke-width="1" fill="none" fill-rule="evenodd">
        <g id="Invoice-template-landing-page-Copy" transform="translate(-1785.000000, -149.000000)" fill="#00433F" fill-rule="nonzero">
            <g id="edit" transform="translate(1785.000000, 149.000000)">
                <path d="M17.9255319,0 C17.3952791,0 16.8666889,0.207779149 16.462766,0.611702128 L16.1170213,0.957446809 L19.0425532,3.88298467 C19.0408911,3.88464085 19.3882979,3.53723404 19.3882979,3.53723404 C20.197806,2.72772596 20.1961438,1.41954809 19.3882979,0.611702128 C18.9827128,0.207779149 18.4557847,0 17.9255319,0 Z M15.4654255,1.71542553 C15.3690162,1.7287234 15.2792553,1.77692809 15.212766,1.84840426 L1.40957447,15.6648936 C1.35472085,15.7147512 1.31316511,15.7795877 1.28989362,15.8510638 L0.438829787,19.0425532 C0.400598298,19.1888298 0.443816596,19.3434174 0.550199574,19.4498004 C0.656582553,19.5561834 0.811170213,19.5994017 0.957446809,19.5611702 L4.14893617,18.7101064 C4.22041234,18.6868353 4.28523957,18.6452791 4.33510638,18.5904255 L18.1515957,4.78723404 C18.3211438,4.62267277 18.322806,4.35172894 18.1582447,4.18218085 C17.9936834,4.01263319 17.7227396,4.01097064 17.5531915,4.17553191 L3.81648936,17.912234 L2.08776596,16.1835106 L15.8244681,2.44680851 C15.95246,2.3238034 15.9906915,2.13264638 15.9192153,1.96974723 C15.8477396,1.80684851 15.6831783,1.70545234 15.5053191,1.71542553 C15.4920213,1.71542553 15.4787234,1.71542553 15.4654255,1.71542553 Z" id="Shape"></path>
            </g>
        </g>
    </g>
</svg>