<?xml version="1.0" encoding="UTF-8"?>
<svg width="23px" height="24px" viewBox="0 0 23 24" version="1.1" xmlns="http://www.w3.org/2000/svg" xmlns:xlink="http://www.w3.org/1999/xlink">
    <!-- Generator: Sketch 60.1 (88133) - https://sketch.com -->
    <title>filter</title>
    <desc>Created with Sketch.</desc>
    <g id="Admin-Master-Flow" stroke="none" stroke-width="1" fill="none" fill-rule="evenodd">
        <g id="Segment-setup" transform="translate(-122.000000, -204.000000)" fill="#5D5D5D" fill-rule="nonzero">
            <g id="Group-8" transform="translate(122.000000, 203.000000)">
                <path d="M21.973491,1.00000176 L0.989024717,1.00000176 C0.618915169,0.999303451 0.279609133,1.20606077 0.110422865,1.5353323 C-0.0610970359,1.86903763 -0.0309935307,2.27088425 0.18813186,2.57565289 L7.87595654,13.4054418 C7.87852351,13.4091756 7.88132384,13.412676 7.88389082,13.4164098 C8.16322319,13.7935202 8.31420738,14.2502065 8.31514082,14.7197276 L8.31514082,23.5491513 C8.31350728,23.8107482 8.41618585,24.061844 8.60054059,24.2473655 C8.78489527,24.4328871 9.03552436,24.5369658 9.29688799,24.5369658 C9.42990338,24.5369658 9.5612853,24.5103627 9.68403283,24.4594901 L14.0040004,22.8121992 C14.3911453,22.6941188 14.648075,22.3289098 14.648075,21.8890254 L14.648075,14.7197276 C14.6487751,14.2504398 14.7999927,13.7935202 15.0790917,13.4164098 C15.0816587,13.412676 15.084459,13.4091756 15.0870259,13.4054418 L22.7746172,2.5751862 C22.9937427,2.27065084 23.0238461,1.86903763 22.8523263,1.5353323 C22.68314,1.20606077 22.343834,0.999303451 21.973491,1.00000176 Z M14.11578,12.7086278 C13.6863969,13.2913286 13.4542033,13.9958436 13.4528032,14.7197276 L13.4528032,21.7438753 L9.50994601,23.2471829 L9.50994601,14.7197276 C9.50854582,13.9958436 9.27635228,13.2913286 8.84673576,12.7086278 L1.38317046,2.19480873 L21.5795787,2.19480873 L14.11578,12.7086278 Z" id="filter"></path>
            </g>
        </g>
    </g>
</svg>