<?xml version="1.0" encoding="UTF-8"?>
<svg width="23px" height="24px" viewBox="0 0 23 24" version="1.1" xmlns="http://www.w3.org/2000/svg" xmlns:xlink="http://www.w3.org/1999/xlink">
    <!-- Generator: Sketch 61.2 (89653) - https://sketch.com -->
    <title>filter</title>
    <desc>Created with Sketch.</desc>
    <g id="Invoice-template-flow" stroke="none" stroke-width="1" fill="none" fill-rule="evenodd">
        <g id="Invoice-template-landing-page" transform="translate(-126.000000, -209.000000)" fill="#5D5D5D" fill-rule="nonzero">
            <path d="M147.973491,209.000002 L126.989025,209.000002 C126.618915,208.999303 126.279609,209.206061 126.110423,209.535332 C125.938903,209.869038 125.969006,210.270884 126.188132,210.575653 L133.875957,221.405442 C133.878524,221.409176 133.881324,221.412676 133.883891,221.41641 C134.163223,221.79352 134.314207,222.250206 134.315141,222.719728 L134.315141,231.549151 C134.313507,231.810748 134.416186,232.061844 134.600541,232.247366 C134.784895,232.432887 135.035524,232.536966 135.296888,232.536966 C135.429903,232.536966 135.561285,232.510363 135.684033,232.45949 L140.004,230.812199 C140.391145,230.694119 140.648075,230.32891 140.648075,229.889025 L140.648075,222.719728 C140.648775,222.25044 140.799993,221.79352 141.079092,221.41641 C141.081659,221.412676 141.084459,221.409176 141.087026,221.405442 L148.774617,210.575186 C148.993743,210.270651 149.023846,209.869038 148.852326,209.535332 C148.68314,209.206061 148.343834,208.999303 147.973491,209.000002 Z M140.11578,220.708628 C139.686397,221.291329 139.454203,221.995844 139.452803,222.719728 L139.452803,229.743875 L135.509946,231.247183 L135.509946,222.719728 C135.508546,221.995844 135.276352,221.291329 134.846736,220.708628 L127.38317,210.194809 L147.579579,210.194809 L140.11578,220.708628 Z" id="filter"></path>
        </g>
    </g>
</svg>