<?xml version="1.0" encoding="UTF-8"?>
<svg width="26px" height="26px" viewBox="0 0 26 26" version="1.1" xmlns="http://www.w3.org/2000/svg" xmlns:xlink="http://www.w3.org/1999/xlink">
    <!-- Generator: Sketch 61.2 (89653) - https://sketch.com -->
    <title>info</title>
    <desc>Created with Sketch.</desc>
    <g id="Invoice-template-flow" stroke="none" stroke-width="1" fill="none" fill-rule="evenodd">
        <g id="New-Invoice-Email" transform="translate(-646.000000, -558.000000)" fill="#00433F" fill-rule="nonzero">
            <g id="Group-19" transform="translate(577.000000, 337.000000)">
                <path d="M82,221 C74.8269928,221 69,226.826993 69,234 C69,241.173007 74.8269928,247 82,247 C89.1730072,247 95,241.173007 95,234 C95,226.826993 89.1730072,221 82,221 Z M82,222.130435 C88.5620744,222.130435 93.8695652,227.437926 93.8695652,234 C93.8695652,240.562074 88.5620744,245.869565 82,245.869565 C75.4379256,245.869565 70.1304348,240.562074 70.1304348,234 C70.1304348,227.437926 75.4379256,222.130435 82,222.130435 Z M82,226.086957 C81.0635172,226.086957 80.3043478,226.846126 80.3043478,227.782609 C80.3043478,228.719092 81.0635172,229.478261 82,229.478261 C82.9364828,229.478261 83.6956522,228.719092 83.6956522,227.782609 C83.6956522,226.846126 82.9364828,226.086957 82,226.086957 L82,226.086957 Z M79.7391304,231.73913 L79.7391304,232.869565 L80.3043478,232.869565 L80.8695652,232.869565 L80.8695652,240.217391 L80.3043478,240.217391 L79.7391304,240.217391 L79.7391304,241.347826 L80.3043478,241.347826 L80.8695652,241.347826 L83.1304348,241.347826 L83.6956522,241.347826 L84.2608696,241.347826 L84.2608696,240.217391 L83.6956522,240.217391 L83.1304348,240.217391 L83.1304348,231.73913 L82.5652174,231.73913 L80.3043478,231.73913 L79.7391304,231.73913 Z" id="info"></path>
            </g>
        </g>
    </g>
</svg>