<?xml version="1.0" encoding="UTF-8"?>
<svg width="32px" height="21px" viewBox="0 0 32 21" version="1.1" xmlns="http://www.w3.org/2000/svg" xmlns:xlink="http://www.w3.org/1999/xlink">
    <!-- Generator: Sketch 61.2 (89653) - https://sketch.com -->
    <title>Shape</title>
    <desc>Created with Sketch.</desc>
    <g id="Invoice-template-flow" stroke="none" stroke-width="1" fill="none" fill-rule="evenodd">
        <g id="Invoice-view" transform="translate(-1700.000000, -1342.000000)" fill="#FFFFFF" fill-rule="nonzero">
            <path d="M1712.8,1342 C1711.62133,1342 1710.66667,1342.895 1710.66667,1344 L1710.66667,1345 L1710.36875,1345 C1708.46902,1345 1706.08058,1345.16914 1704.46458,1346.49414 C1703.21232,1347.51914 1700,1350.07227 1700,1350.07227 L1700,1352.63867 C1700,1352.63867 1704.58982,1349.04705 1705.86875,1347.99805 C1707.03995,1347.03905 1709.19435,1347 1710.36875,1347 L1710.66667,1347 L1710.66667,1354.6543 L1716.89167,1351.37695 L1716.89375,1351.37891 C1717.37908,1351.05191 1718.01123,1350.90241 1718.6875,1351.06641 C1719.46723,1351.25541 1720.08832,1351.88591 1720.23125,1352.62891 C1720.39232,1353.46991 1719.9907,1354.23816 1719.32083,1354.66016 L1716.08125,1357 L1712.27083,1359.75195 C1711.1519,1360.55995 1709.77893,1360.99805 1708.36667,1360.99805 L1704.26667,1360.99805 L1704.26667,1361 L1700,1361 L1700,1362.99805 L1702.13333,1362.99805 L1708.36667,1362.99805 C1710.23973,1362.99805 1712.08918,1362.40794 1713.57292,1361.33594 L1718.19375,1358 L1732,1358 L1732,1342 L1712.8,1342 Z M1712.8,1344 L1716,1344 C1715.6736,1345.507 1714.40747,1346.694 1712.8,1347 L1712.8,1344 Z M1725.6,1345 C1727.95627,1345 1729.86667,1347.239 1729.86667,1350 C1729.86667,1352.761 1727.95627,1355 1725.6,1355 C1723.24373,1355 1721.33333,1352.761 1721.33333,1350 C1721.33333,1347.239 1723.24373,1345 1725.6,1345 Z" id="Shape"></path>
        </g>
    </g>
</svg>