<?xml version="1.0" encoding="UTF-8"?>
<svg width="46px" height="46px" viewBox="0 0 46 46" version="1.1" xmlns="http://www.w3.org/2000/svg" xmlns:xlink="http://www.w3.org/1999/xlink">
    <!-- Generator: Sketch 62 (91390) - https://sketch.com -->
    <title>popup-eft</title>
    <desc>Created with Sketch.</desc>
    <g id="Invoice-template-flow" stroke="none" stroke-width="1" fill="none" fill-rule="evenodd">
        <g id="Invoice-view-Add-multiple-items-EFT" transform="translate(-624.000000, -393.000000)">
            <g id="Group-19" transform="translate(578.000000, 337.000000)">
                <g id="popup-eft" transform="translate(46.000000, 56.000000)">
                    <rect id="Rectangle" fill="#F1F1F1" x="0" y="0" width="46" height="46" rx="23"></rect>
                    <g id="icons8-cash_euro" transform="translate(11.000000, 13.000000)" fill-rule="nonzero">
                        <path d="M22.6,19.4 L6.6,19.4 C5.5,19.4 4.6,18.5 4.6,17.4 L4.6,8.6 C4.6,7.5 5.5,6.6 6.6,6.6 L22.6,6.6 C23.7,6.6 24.6,7.5 24.6,8.6 L24.6,17.4 C24.6,18.5 23.7,19.4 22.6,19.4" id="Path" fill="#13C872"></path>
                        <path d="M14.6,16 C12.9432,16 11.6,14.6568 11.6,13 C11.6,11.3432 12.9432,10 14.6,10 C16.2568,10 17.6,11.3432 17.6,13 C17.6,14.6568 16.2568,16 14.6,16 M22.6,8.6 L6.6,8.6 L6.6,17.4 L22.6,17.4 L22.6,8.6" id="Shape" fill="#C1E9D6"></path>
                        <path d="M14.6,10 C12.9432,10 11.6,11.3432 11.6,13 C11.6,14.6568 12.9432,16 14.6,16 C16.2568,16 17.6,14.6568 17.6,13 C17.6,11.3432 16.2568,10 14.6,10" id="Path" fill="#F3F2FA"></path>
                        <path d="M22.6,20 L6.6,20 C5.16,20 4,18.84 4,17.4 L4,15.4 C4,15.06 4.26,14.8 4.6,14.8 C4.94,14.8 5.2,15.06 5.2,15.4 L5.2,17.4 C5.2,18.18 5.82,18.8 6.6,18.8 L22.6,18.8 C23.38,18.8 24,18.18 24,17.4 L24,8.6 C24,7.82 23.38,7.2 22.6,7.2 C22.26,7.2 22,6.94 22,6.6 C22,6.26 22.26,6 22.6,6 C24.04,6 25.2,7.16 25.2,8.6 L25.2,17.4 C25.2,18.84 24.04,20 22.6,20 Z" id="Path" fill="#015250"></path>
                        <path d="M18.6,13.4 L2.6,13.4 C1.5,13.4 0.6,12.5 0.6,11.4 L0.6,2.6 C0.6,1.5 1.5,0.6 2.6,0.6 L18.6,0.6 C19.7,0.6 20.6,1.5 20.6,2.6 L20.6,11.4 C20.6,12.5 19.7,13.4 18.6,13.4" id="Path" fill="#13C872"></path>
                        <path d="M10.6,10 C8.9432,10 7.6,8.6568 7.6,7 C7.6,5.3432 8.9432,4 10.6,4 C12.2568,4 13.6,5.3432 13.6,7 C13.6,8.6568 12.2568,10 10.6,10 M18.6,2.6 L2.6,2.6 L2.6,11.4 L18.6,11.4 L18.6,2.6" id="Shape" fill="#C1E9D6"></path>
                        <path d="M10.6,4 C8.9432,4 7.6,5.3432 7.6,7 C7.6,8.6568 8.9432,10 10.6,10 C12.2568,10 13.6,8.6568 13.6,7 C13.6,5.3432 12.2568,4 10.6,4" id="Path" fill="#F3F2FA"></path>
                        <path d="M18.6,14 L2.6,14 C1.16,14 0,12.84 0,11.4 L0,2.6 C0,1.16 1.16,0 2.6,0 L18.6,0 C20.04,0 21.2,1.16 21.2,2.6 L21.2,11.4 C21.2,12.84 20.04,14 18.6,14 Z M2.6,1.2 C1.82,1.2 1.2,1.82 1.2,2.6 L1.2,11.4 C1.2,12.18 1.82,12.8 2.6,12.8 L18.6,12.8 C19.38,12.8 20,12.18 20,11.4 L20,2.6 C20,1.82 19.38,1.2 18.6,1.2 L2.6,1.2 Z" id="Shape" fill="#015250"></path>
                    </g>
                </g>
            </g>
        </g>
    </g>
</svg>