<?xml version="1.0" encoding="UTF-8"?>
<svg width="50px" height="37px" viewBox="0 0 50 37" version="1.1" xmlns="http://www.w3.org/2000/svg" xmlns:xlink="http://www.w3.org/1999/xlink">
    <!-- Generator: Sketch 61.2 (89653) - https://sketch.com -->
    <title>ship-to</title>
    <desc>Created with Sketch.</desc>
    <g id="Invoice-template-flow" stroke="none" stroke-width="1" fill="none" fill-rule="evenodd">
        <g id="Invoice-template-Creation" transform="translate(-405.000000, -800.000000)" fill="#015250" fill-rule="nonzero">
            <g id="Group-5" transform="translate(156.000000, 410.000000)">
                <g id="Group-4" transform="translate(19.000000, 0.000000)">
                    <g id="Group-10">
                        <g id="icons8-shipped" transform="translate(230.000000, 390.000000)">
                            <path d="M2.8125,0 C1.277344,0 0,1.277344 0,2.8125 L0,29 C0,30.644531 1.355469,32 3,32 L7.09375,32 C7.570313,34.835938 10.035156,37 13,37 C15.964844,37 18.429688,34.835938 18.90625,32 L34.09375,32 C34.570313,34.835938 37.035156,37 40,37 C42.964844,37 45.429688,34.835938 45.90625,32 L47,32 C47.832031,32 48.5625,31.625 49.09375,31.09375 C49.625,30.5625 50,29.832031 50,29 L50,19.40625 C50,18.28125 49.570313,17.25 49.1875,16.46875 C48.804688,15.6875 48.40625,15.125 48.40625,15.125 L48.40625,15.09375 L44.3125,9.59375 L44.28125,9.59375 L44.28125,9.5625 C43.394531,8.453125 41.972656,7 40,7 L32,7 C31.640625,7 31.3125,7.066406 31,7.1875 L31,2.90625 C31,1.304688 29.695313,0 28.09375,0 L2.8125,0 Z M2.8125,2 L28.09375,2 C28.492188,2 29,2.507813 29,2.90625 L29,30 L18.90625,30 C18.429688,27.164063 15.964844,25 13,25 C10.035156,25 7.570313,27.164063 7.09375,30 L3,30 C2.445313,30 2,29.554688 2,29 L2,2.8125 C2,2.347656 2.347656,2 2.8125,2 Z M22.9375,6.59375 L22.25,7.3125 L14.15625,16.1875 L8.90625,11.59375 L7.59375,13.09375 L8.34375,13.75 L13.53125,18.34375 L14.28125,19 L14.9375,18.28125 L23.75,8.6875 L24.40625,7.9375 L22.9375,6.59375 Z M32,9 L36,9 L36,18 C36,18.832031 36.375,19.5625 36.90625,20.09375 C37.4375,20.625 38.167969,21 39,21 L48,21 L48,29 C48,29.167969 47.875,29.4375 47.65625,29.65625 C47.4375,29.875 47.167969,30 47,30 L45.90625,30 C45.429688,27.164063 42.964844,25 40,25 C37.035156,25 34.570313,27.164063 34.09375,30 L31,30 L31,10 C31,9.832031 31.125,9.5625 31.34375,9.34375 C31.5625,9.125 31.832031,9 32,9 Z M38,9 L40,9 C40.824219,9 41.972656,9.925781 42.6875,10.8125 L46.78125,16.28125 L46.8125,16.3125 C46.832031,16.339844 47.101563,16.722656 47.40625,17.34375 C47.660156,17.859375 47.792969,18.472656 47.875,19 L39,19 C38.832031,19 38.5625,18.875 38.34375,18.65625 C38.125,18.4375 38,18.167969 38,18 L38,9 Z M13,27 C15.222656,27 17,28.777344 17,31 C17,33.222656 15.222656,35 13,35 C10.777344,35 9,33.222656 9,31 C9,28.777344 10.777344,27 13,27 Z M40,27 C42.222656,27 44,28.777344 44,31 C44,33.222656 42.222656,35 40,35 C37.777344,35 36,33.222656 36,31 C36,28.777344 37.777344,27 40,27 Z" id="ship-to"></path>
                        </g>
                    </g>
                </g>
            </g>
        </g>
    </g>
</svg>