<?xml version="1.0" encoding="UTF-8"?>
<svg width="69px" height="66px" viewBox="0 0 69 66" version="1.1" xmlns="http://www.w3.org/2000/svg" xmlns:xlink="http://www.w3.org/1999/xlink">
    <!-- Generator: Sketch 64 (93537) - https://sketch.com -->
    <title>edit-btn</title>
    <desc>Created with Sketch.</desc>
    <g id="Automation-flow" stroke="none" stroke-width="1" fill="none" fill-rule="evenodd">
        <g id="RuleBook2" transform="translate(-1832.000000, -183.000000)">
            <g id="edit-btn" transform="translate(1832.000000, 183.000000)">
                <rect id="Rectangle" fill="#21CF86" opacity="0.084937686" x="0" y="0" width="69" height="66"></rect>
                <path d="M44.2785756,21 C43.6897413,21 43.1009064,21.2180869 42.6560091,21.6629842 L42.1849414,22.1166049 C42.0715362,22.0577213 41.9428648,22.0402744 41.8185554,22.0642641 C41.711693,22.0882538 41.6157347,22.1427754 41.5394042,22.2212867 L24.0052176,39.7554736 C23.9506961,39.8099952 23.9092594,39.8754216 23.883089,39.9473901 L22.0337121,44.8674306 C21.9595628,45.0702513 22.0097224,45.299243 22.1645642,45.4519035 C22.3172253,45.6067454 22.5462164,45.6569055 22.7490371,45.5827557 L27.6690775,43.7333787 C27.741046,43.7072083 27.8064724,43.6657717 27.860994,43.6112501 L45.3951805,26.0770631 C45.5827355,25.8829659 45.6067247,25.5820057 45.4475214,25.3617381 L45.9011421,24.9081173 C46.7909367,24.0183227 46.7909367,22.5527787 45.9011421,21.6629842 C45.4562448,21.2180869 44.8674105,21 44.2785756,21 Z M44.2785756,22.1166049 C44.5838973,22.1166049 44.8913996,22.2234674 45.1160293,22.448097 C45.5674693,22.8995371 45.5674693,23.6715644 45.1160293,24.1230044 L44.6798555,24.5766252 L43.0049481,22.9017178 L43.4411219,22.448097 C43.6657516,22.2234674 43.9732539,22.1166049 44.2785756,22.1166049 Z M41.9232371,23.3902325 L44.2262347,25.6932301 L42.690903,27.211115 L40.4053523,24.9255642 L41.9232371,23.3902325 Z M39.6027925,25.7106771 L41.9057902,28.0136748 L27.4422671,42.4597512 L27.0235403,42.0235774 L27.0235403,41.1512298 C27.0235403,40.8437274 26.7727402,40.5929273 26.4652378,40.5929273 L25.5928902,40.5929273 L25.1567165,40.1742005 L39.6027925,25.7106771 Z M24.598414,41.2035707 L24.947353,41.5525097 C25.0542155,41.6571914 25.2003338,41.7138943 25.3486329,41.7095323 L25.9069354,41.7095323 L25.9069354,42.2678347 C25.9025739,42.4161338 25.9592762,42.5622522 26.0639579,42.6691146 L26.412897,43.0180537 L24.2843689,43.8206135 L23.7958542,43.3320988 L24.598414,41.2035707 Z" id="edit" fill="#015250" fill-rule="nonzero"></path>
            </g>
        </g>
    </g>
</svg>