<?xml version="1.0" encoding="UTF-8"?>
<svg width="26px" height="26px" viewBox="0 0 26 26" version="1.1" xmlns="http://www.w3.org/2000/svg" xmlns:xlink="http://www.w3.org/1999/xlink">
    <!-- Generator: Sketch 64 (93537) - https://sketch.com -->
    <title>icon-resolution</title>
    <desc>Created with Sketch.</desc>
    <g id="Action-Approval" stroke="none" stroke-width="1" fill="none" fill-rule="evenodd">
        <g id="Action-01" transform="translate(-1491.000000, -510.000000)" fill="#005350" fill-rule="nonzero">
            <g id="Group-9" transform="translate(1491.000000, 433.000000)">
                <g id="icons8-idea_sharing" transform="translate(0.000000, 77.000000)">
                    <path d="M15.8718416,0.00216076596 C12.9135638,0.0907582553 10.5106383,2.59308511 10.5106383,5.54920213 C10.5106383,7.10937528 11.2907246,8.32812528 11.9973404,9.31781915 C12.7017955,10.3053523 13.2765957,11.1027263 13.2765957,11.6451129 L13.2765957,13.2765957 C13.2765957,14.1863363 14.0264297,14.9361702 14.9361702,14.9361702 L15.0895946,14.9361702 C15.2819149,15.2646277 15.6341424,15.4893617 16.0425532,15.4893617 C16.450964,15.4893617 16.8031915,15.2646277 16.9955118,14.9361702 L17.1489362,14.9361702 C18.0586767,14.9361702 18.8085106,14.1863363 18.8085106,13.2765957 L18.8085106,11.6170213 C18.8085106,11.0940827 19.3833114,10.29887 20.087766,9.3113363 C20.7943818,8.32380319 21.5744681,7.09857034 21.5744681,5.53191489 C21.5744681,2.42669562 18.9965094,-0.0907577021 15.8718416,0.00216076596 Z M15.9042553,1.10854374 C18.4217086,1.03291251 20.4680851,3.03607034 20.4680851,5.53191489 C20.4680851,6.73121689 19.8651927,7.71875 19.1888298,8.66738711 C18.6248339,9.45395626 17.9787234,10.1865029 17.7734374,11.0638298 L16.5957447,11.0638298 L16.5957447,6.31416251 L17.5400597,5.36984694 C17.6848404,5.23154906 17.743185,5.02410226 17.6913233,4.83178191 C17.6416223,4.63730081 17.4903593,4.48603723 17.2958777,4.4363363 C17.1035573,4.3844746 16.8961105,4.44281915 16.7578126,4.58759987 L16.0425532,5.30285932 L15.3272937,4.58759987 C15.2235703,4.47955438 15.0809509,4.42121038 14.9296874,4.42121038 C14.7049533,4.42121038 14.5039894,4.55734694 14.4175532,4.76479374 C14.3332778,4.97440187 14.3829787,5.21210106 14.5450467,5.36984694 L15.4893617,6.31416251 L15.4893617,11.0638298 L14.3051862,11.0638298 C14.0934178,10.1908245 13.4559509,9.45611702 12.8962766,8.67386996 C12.2199137,7.72307209 11.6170213,6.73769974 11.6170213,5.54920213 C11.6170213,3.19597753 13.5553523,1.179854 15.9042553,1.10854374 Z M14.3829787,12.1702128 L17.7021277,12.1702128 L17.7021277,13.2765957 C17.7021277,13.5899267 17.4622671,13.8297872 17.1489362,13.8297872 L14.9361702,13.8297872 C14.6228392,13.8297872 14.3829787,13.5899267 14.3829787,13.2765957 L14.3829787,12.1702128 Z M23.8736702,14.380818 C23.7742689,14.3829787 23.6727063,14.3916223 23.5733044,14.4089096 C23.3075136,14.4499669 23.0460437,14.5472074 22.8061838,14.6963097 L16.6605721,18.4843753 C16.5179521,18.4065827 16.3450798,18.3223073 16.1160242,18.2121011 C15.8523936,18.0846076 15.5779586,17.9549533 15.4223735,17.8836436 C14.586104,17.5054852 11.9217086,16.4077459 9.89910226,15.5196146 C9.03474055,15.1392955 8.10987353,14.9448138 7.18500651,14.9361702 C6.26013949,14.9275266 5.3331117,15.104721 4.46010638,15.4699137 L0.894614638,16.9522937 C0.70661583,17.0257648 0.574800809,17.194315 0.546708638,17.3931182 C0.518617021,17.5919214 0.602892426,17.7907246 0.762799064,17.9117352 C0.922706255,18.0305851 1.13663591,18.056516 1.31815187,17.9744019 L4.88580438,16.4898605 C6.35089774,15.8783245 8.0018286,15.8934509 9.45611702,16.5330786 C11.4960106,17.4276927 14.2036235,18.5470414 14.9664231,18.892786 C15.1025597,18.9532914 15.3791554,19.0829456 15.6363032,19.206117 C15.8934509,19.3314497 16.1635638,19.4675863 16.1851731,19.4827128 C16.431516,19.6253327 16.5957447,19.8824799 16.5957447,20.1914894 C16.5957447,20.6560839 16.230552,21.0212766 15.7659574,21.0212766 C15.6989693,21.0212766 15.638464,21.0147937 15.5779586,20.9996678 C15.5779586,20.9996678 15.5779586,20.9996678 15.5757979,20.9975065 C15.5628327,20.9953457 15.1263298,20.8743351 14.5947476,20.71875 C14.0631649,20.5610041 13.3889628,20.3622009 12.725565,20.1655585 C11.3987701,19.7701129 10.1151927,19.3854722 10.1151927,19.3854722 C9.92503311,19.318484 9.711104,19.3617021 9.56200119,19.5 C9.41073817,19.6382979 9.34807209,19.8457447 9.39777247,20.0423871 C9.4474734,20.2411903 9.60089774,20.3946146 9.79970094,20.444315 C9.79970094,20.444315 11.0832778,20.8289563 12.412234,21.2244019 C13.0756318,21.4210437 13.7498339,21.6220083 14.2835774,21.7797541 C14.8151596,21.9353392 15.1544214,22.0369019 15.3208114,22.0757979 C15.4655916,22.1103723 15.6146944,22.1276596 15.7659574,22.1276596 C16.8291223,22.1276596 17.7021277,21.2546543 17.7021277,20.1914894 C17.7021277,19.8630319 17.6156915,19.5561838 17.46875,19.2839096 L23.3874669,15.638464 C23.3874669,15.638464 23.3896277,15.6363032 23.3917884,15.6363032 C23.8542222,15.344581 24.4506318,15.4785573 24.742354,15.9409906 C25.025432,16.3904586 24.9065827,16.969581 24.4700798,17.2699468 C24.4635969,17.2764297 24.4571146,17.2807512 24.4506318,17.2850733 L15.7227394,23.8974403 C15.1284906,24.3469084 14.3484043,24.4700798 13.6417884,24.2194149 L7.17420213,21.9245349 L7.20013298,21.9353392 C5.70910932,21.3194817 4.00415545,21.5269285 2.70545213,22.4820479 L2.70545213,22.4798871 L0.777925532,23.8931182 C0.529421404,24.0746342 0.477559702,24.4203789 0.656914894,24.6667222 C0.838430851,24.9152263 1.18417553,24.967088 1.43051889,24.7877329 L3.35804549,23.3723404 C4.34773936,22.6462766 5.64212115,22.4885307 6.77659574,22.9574468 C6.78523936,22.9617689 6.79388298,22.9639297 6.8025266,22.9660904 L13.274435,25.2631318 C14.3267955,25.6369681 15.5023274,25.4532914 16.39262,24.7790892 L25.1183511,18.1667222 L25.0989031,18.1796874 C25.9546211,17.5897606 26.205286,16.4617689 25.7536572,15.5477063 C25.7406915,15.4785573 25.7147606,15.4115691 25.6780254,15.3510638 C25.2760969,14.7157583 24.580286,14.3700136 23.8736702,14.380818 Z" id="icon-resolution"></path>
                </g>
            </g>
        </g>
    </g>
</svg>