<?xml version="1.0" encoding="UTF-8"?>
<svg width="27px" height="26px" viewBox="0 0 27 26" version="1.1" xmlns="http://www.w3.org/2000/svg" xmlns:xlink="http://www.w3.org/1999/xlink">
    <!-- Generator: Sketch 64 (93537) - https://sketch.com -->
    <title>icon=followup</title>
    <desc>Created with Sketch.</desc>
    <g id="Mark-as" stroke="none" stroke-width="1" fill="none" fill-rule="evenodd">
        <g id="Resolution-01" transform="translate(-1492.000000, -932.000000)" fill="#005350" fill-rule="nonzero">
            <g id="Group-13" transform="translate(1448.000000, 264.000000)">
                <g id="icon-followup" transform="translate(44.000000, 668.000000)">
                    <path d="M0.96875,0 L0.96875,17.3454921 C0.970935532,17.6624144 1.22884509,17.9203239 1.54576738,17.9225095 L13.2959394,17.9225095 L13.2959394,23.2555489 L10.900443,20.8600525 C10.7649317,20.7201695 10.5660354,20.6611562 10.3758818,20.7026841 C10.1660573,20.7398404 9.9977607,20.8928377 9.93874742,21.096105 C9.87973414,21.3015585 9.94093295,21.5201257 10.0961158,21.6643797 L13.4533078,25.0215717 L13.8554714,25.40625 L14.2576351,25.0215717 L17.6148271,21.6643797 C17.8377659,21.4414415 17.8377659,21.0829913 17.6148271,20.8600525 C17.3918888,20.6371142 17.0334386,20.6371142 16.8104998,20.8600525 L14.4150034,23.2555489 L14.4150034,17.9225095 L26.1651755,17.9225095 C26.4820978,17.9203239 26.7400073,17.6624144 26.7421929,17.3454921 L26.7421929,0 L25.5881581,0 L25.5881581,16.7684747 L2.12278476,16.7684747 L2.12278476,0 L0.96875,0 Z M16.3209093,3.89923864 C16.2968668,3.90361027 16.2728248,3.91016686 16.2509678,3.91672402 C16.0411433,3.9538803 15.8728467,4.10687761 15.8138334,4.31014496 C15.7548202,4.5155984 15.816019,4.73416558 15.9712018,4.87841965 L18.3666982,7.27391604 L8.53991741,7.27391604 C8.52243204,7.27391604 8.50494666,7.27391604 8.48746129,7.27391604 C8.17928169,7.28921588 7.9388575,7.55149651 7.95415735,7.8596761 C7.96945719,8.1678557 8.23173782,8.40827988 8.53991741,8.39298004 L18.3666982,8.39298004 L15.9712018,10.7884764 C15.7482636,11.0114152 15.7482636,11.3698654 15.9712018,11.5928037 C16.1941406,11.8157425 16.5525908,11.8157425 16.7755291,11.5928037 L20.1327211,8.23561167 L20.5173993,7.83344804 L20.1327211,7.43128441 L16.7755291,4.0740924 C16.6596886,3.94950924 16.491392,3.88612489 16.3209093,3.89923864 Z" id="icon=followup"></path>
                </g>
            </g>
        </g>
    </g>
</svg>