<?xml version="1.0" encoding="UTF-8"?>
<svg width="21px" height="26px" viewBox="0 0 21 26" version="1.1" xmlns="http://www.w3.org/2000/svg" xmlns:xlink="http://www.w3.org/1999/xlink">
    <!-- Generator: Sketch 64 (93537) - https://sketch.com -->
    <title>icon-markasposted</title>
    <desc>Created with Sketch.</desc>
    <g id="Mark-as" stroke="none" stroke-width="1" fill="none" fill-rule="evenodd">
        <g id="Resolution-01" transform="translate(-1494.000000, -691.000000)" fill="#005350" fill-rule="nonzero">
            <g id="Group-13" transform="translate(1448.000000, 264.000000)">
                <g id="icon-posted" transform="translate(46.000000, 427.000000)">
                    <path d="M0.459133644,0 C0.189768922,0.0507820683 -0.00452714636,0.289236334 -0.000185367372,0.565224927 L-0.000185367372,25.4351217 C-0.000185367372,25.7464368 0.253798167,26.0005838 0.565113317,26.0005838 L15.2609614,26.0005838 C15.4110993,26.0047627 15.5590294,25.9473568 15.6672168,25.8413771 L20.1890162,21.3195777 C20.2949959,21.2113903 20.3524018,21.0634602 20.3479857,20.9133223 L20.3479857,0.565224927 C20.3479857,0.253909776 20.094076,0 19.7827608,0 L0.565113317,0 C0.547450038,0 0.529786759,0 0.51212348,0 C0.494460201,0 0.476796923,0 0.459133644,0 Z M1.13033824,1.13044985 L19.2175359,1.13044985 L19.2175359,20.3480974 L15.2609614,20.3480974 C15.2432981,20.3480974 15.2256348,20.3480974 15.2079716,20.3480974 C14.9165275,20.3745923 14.6935287,20.6196704 14.6957365,20.9133223 L14.6957365,24.8698968 L1.13033824,24.8698968 L1.13033824,1.13044985 Z M10.1739371,2.26089971 C9.86262192,2.26089971 9.60871214,2.51480948 9.60871214,2.82612463 C9.60871214,3.13743978 9.86262192,3.39134956 10.1739371,3.39134956 C10.4852522,3.39134956 10.739162,3.13743978 10.739162,2.82612463 C10.739162,2.51480948 10.4852522,2.26089971 10.1739371,2.26089971 Z M2.72003335,3.95657449 C2.45066863,4.00735655 2.25637256,4.24581082 2.26071434,4.52179941 L2.26071434,23.174222 C2.26071434,23.4855371 2.51469787,23.7394469 2.82601302,23.7394469 L14.1305116,23.7394469 L14.1305116,22.6089971 L3.39123795,22.6089971 L3.39123795,5.08702434 L16.9566362,5.08702434 L16.9566362,19.7828724 L18.087086,19.7828724 L18.087086,4.52179941 C18.087086,4.21048426 17.8331763,3.95657449 17.5218611,3.95657449 L2.82601302,3.95657449 C2.80834974,3.95657449 2.79068647,3.95657449 2.77302319,3.95657449 C2.75535991,3.95657449 2.73769663,3.95657449 2.72003335,3.95657449 Z M15.8261863,21.4785472 L18.4050251,21.4785472 L15.8261863,24.0573859 L15.8261863,21.4785472 Z" id="icon-markasposted"></path>
                </g>
            </g>
        </g>
    </g>
</svg>