<?xml version="1.0" encoding="UTF-8"?>
<svg width="29px" height="27px" viewBox="0 0 29 27" version="1.1" xmlns="http://www.w3.org/2000/svg" xmlns:xlink="http://www.w3.org/1999/xlink">
    <!-- Generator: Sketch 64 (93537) - https://sketch.com -->
    <title>icon-markascancelled</title>
    <desc>Created with Sketch.</desc>
    <g id="Mark-as" stroke="none" stroke-width="1" fill="none" fill-rule="evenodd">
        <g id="Resolution-01" transform="translate(-1491.000000, -810.000000)" fill="#005350" fill-rule="nonzero">
            <g id="Group-13" transform="translate(1448.000000, 264.000000)">
                <g id="icon-m-cancel" transform="translate(43.000000, 546.000000)">
                    <path d="M5.055005,0 C4.78164065,0.0515360986 4.58445961,0.293531019 4.58894071,0.573617588 L4.58894071,5.16255829 C4.58894071,5.18048384 4.58894071,5.19840939 4.58894071,5.21633494 L4.58894071,19.502998 C4.58894071,20.4530521 3.81814207,21.2238508 2.86808794,21.2238508 C2.85016239,21.2238508 2.83223684,21.2238508 2.81431129,21.2238508 C1.89114549,21.1947219 1.14723518,20.432886 1.14723518,19.502998 L1.14723518,6.88341106 L3.44170553,6.88341106 L3.44170553,5.73617588 L0.573617588,5.73617588 C0.257679919,5.73617588 0,5.9938558 0,6.30979347 L0,19.502998 C0,21.0109847 1.1898085,22.2478476 2.6709069,22.3531604 C2.67762912,22.3531604 2.68211022,22.3531604 2.68883245,22.3531604 C2.70003577,22.3598826 2.71348022,22.3666048 2.72468354,22.3710859 C2.77397909,22.3733265 2.81879297,22.3710859 2.86808794,22.3710859 L14.3404397,22.3710859 C14.5465835,22.3733265 14.7392835,22.2657732 14.8445956,22.0865177 C14.9476678,21.9072622 14.9476678,21.6876745 14.8445956,21.508419 C14.7392835,21.3291635 14.5465835,21.2216102 14.3404397,21.2238508 L5.14463274,21.2238508 C5.51210651,20.7421015 5.73617588,20.1505583 5.73617588,19.502998 L5.73617588,5.25218604 C5.73841643,5.22305717 5.73841643,5.19168717 5.73617588,5.16255829 L5.73617588,1.14723518 L25.2391739,1.14723518 L25.2391739,13.1932045 C25.2369333,13.3993484 25.3444866,13.5920483 25.5237421,13.6973605 C25.7029976,13.8004327 25.9225853,13.8004327 26.1018408,13.6973605 C26.2810963,13.5920483 26.3886496,13.3993484 26.3864434,13.1932045 L26.3864434,0.573617588 C26.3864434,0.257679919 26.1287291,0 25.8127915,0 L5.16255829,0 C5.14463274,0 5.1267072,0 5.10878165,0 C5.0908561,0 5.07293055,0 5.055005,0 Z M9.17788141,4.58894071 L9.17788141,5.73617588 L21.7974684,5.73617588 L21.7974684,4.58894071 L9.17788141,4.58894071 Z M9.17788141,6.88341106 L9.17788141,8.03064624 L21.7974684,8.03064624 L21.7974684,6.88341106 L9.17788141,6.88341106 Z M9.17788141,11.4723518 L9.17788141,12.6195869 L14.9140573,12.6195869 L14.9140573,11.4723518 L9.17788141,11.4723518 Z M16.0612925,11.4723518 L16.0612925,12.6195869 L21.7974684,12.6195869 L21.7974684,11.4723518 L16.0612925,11.4723518 Z M9.17788141,13.7668221 L9.17788141,14.9140573 L14.9140573,14.9140573 L14.9140573,13.7668221 L9.17788141,13.7668221 Z M16.0612925,13.7668221 L16.0612925,14.9140573 L17.2085276,14.9140573 L18.9293804,13.7668221 L16.0612925,13.7668221 Z M22.3710859,14.2866631 C18.9024921,14.2866631 16.0612925,17.1278627 16.0612925,20.5964565 C16.0612925,24.0650504 18.9024921,26.90625 22.3710859,26.90625 C25.8396798,26.90625 28.6808794,24.0650504 28.6808794,20.5964565 C28.6808794,17.1278627 25.8396798,14.2866631 22.3710859,14.2866631 Z M22.3710859,15.4338982 C23.5833011,15.4338982 24.6969263,15.8596303 25.5797593,16.5632079 L18.3378373,23.8051299 C17.6342597,22.9222969 17.2085276,21.8086717 17.2085276,20.5964565 C17.2085276,17.7552569 19.5298863,15.4338982 22.3710859,15.4338982 Z M9.17788141,16.0612925 L9.17788141,17.2085276 L14.9140573,17.2085276 L14.9140573,16.0612925 L9.17788141,16.0612925 Z M26.4043346,17.3698576 C27.1146344,18.2549318 27.5336442,19.3797597 27.5336442,20.5964565 C27.5336442,23.4376561 25.2122856,25.7590148 22.3710859,25.7590148 C21.1543891,25.7590148 20.0295612,25.340005 19.144487,24.6297052 L26.4043346,17.3698576 Z M9.17788141,18.3557628 L9.17788141,19.502998 L14.9140573,19.502998 L14.9140573,18.3557628 L9.17788141,18.3557628 Z" id="icon-markascancelled"></path>
                </g>
            </g>
        </g>
    </g>
</svg>