<?xml version="1.0" encoding="UTF-8"?>
<svg width="25px" height="20px" viewBox="0 0 25 20" version="1.1" xmlns="http://www.w3.org/2000/svg" xmlns:xlink="http://www.w3.org/1999/xlink">
    <!-- Generator: Sketch 64 (93537) - https://sketch.com -->
    <title>icon-account</title>
    <desc>Created with Sketch.</desc>
    <g id="Action-Approval" stroke="none" stroke-width="1" fill="none" fill-rule="evenodd">
        <g id="Action-01" transform="translate(-1493.000000, -574.000000)" fill="#005350" fill-rule="nonzero">
            <g id="Group-9" transform="translate(1491.000000, 433.000000)">
                <g id="icons8-batch_assign" transform="translate(2.000000, 141.000000)">
                    <path d="M6.4,0 C3.75869968,0 1.6,2.15869968 1.6,4.8 C1.6,6.4167168 2.46058008,7.7823952 3.69375,8.6531248 C1.5285832,9.6810776 0,11.8510512 0,14.4 L1.6,14.4 C1.6,11.7395504 3.7395504,9.6 6.4,9.6 C9.0604496,9.6 11.2,11.7395504 11.2,14.4 L12.0562496,14.4 C12.453956,17.5450904 15.1514992,20 18.4,20 C21.92,20 24.8,17.12 24.8,13.6 C24.8,11.1050168 23.3492808,8.9370544 21.2531248,7.8828128 C21.9628824,7.0491248 22.4,5.9786584 22.4,4.8 C22.4,2.1528 20.2472,0 17.6,0 C14.9528,0 12.8,2.1528 12.8,4.8 C12.8,6.2905432 13.491032,7.615184 14.5609376,8.4953128 C14.1541592,8.8024536 13.78138,9.1520088 13.4578128,9.5453128 C12.8626352,10.05272 12.3681144,10.6670872 11.9906248,11.3578128 C11.3345656,10.1866464 10.3287224,9.233516 9.1062496,8.6531248 C10.3394208,7.7823952 11.2,6.4167168 11.2,4.8 C11.2,2.15869968 9.0413,0 6.4,0 Z M6.4,1.6 C8.1763,1.6 9.6,3.0237 9.6,4.8 C9.6,6.5763 8.1763,8 6.4,8 C4.62370032,8 3.2,6.5763 3.2,4.8 C3.2,3.0237 4.62370032,1.6 6.4,1.6 Z M17.6,1.6 C19.3648,1.6 20.8,3.0352 20.8,4.8 C20.8,5.8229856 20.3085112,6.7247856 19.5593752,7.3109376 C19.1826992,7.2412016 18.7960728,7.2 18.4,7.2 C17.600484,7.2 16.8369192,7.354088 16.1296872,7.625 C15.1074864,7.0902208 14.4,6.0316168 14.4,4.8 C14.4,3.0352 15.8352,1.6 17.6,1.6 Z M18.4,8.8 C21.04,8.8 23.2,10.96 23.2,13.6 C23.2,16.24 21.04,18.4 18.4,18.4 C15.76,18.4 13.6,16.24 13.6,13.6 C13.6,10.96 15.76,8.8 18.4,8.8 Z M20.8,11.4406248 L18.1593752,14.0796872 L16.3203128,12.2406248 L15.2,13.3593752 L18.1593752,16.3203128 L21.9203128,12.5593752 L20.8,11.4406248 Z" id="icon-account"></path>
                </g>
            </g>
        </g>
    </g>
</svg>