<?xml version="1.0" encoding="UTF-8"?>
<svg width="16px" height="16px" viewBox="0 0 16 16" version="1.1" xmlns="http://www.w3.org/2000/svg" xmlns:xlink="http://www.w3.org/1999/xlink">
    <!-- Generator: Sketch 64 (93537) - https://sketch.com -->
    <title>icon-add-white</title>
    <desc>Created with Sketch.</desc>
    <g id="Symbols" stroke="none" stroke-width="1" fill="none" fill-rule="evenodd">
        <g id="add-btn" transform="translate(-172.000000, -16.000000)" fill="#FFFFFF" fill-rule="nonzero">
            <g id="Group-9">
                <path d="M180,16 C175.585842,16 172,19.5858417 172,24 C172,28.4141583 175.585842,32 180,32 C184.414158,32 188,28.4141583 188,24 C188,19.5858417 184.414158,16 180,16 Z M180,16.6956522 C184.0382,16.6956522 187.304348,19.9618003 187.304348,24 C187.304348,28.0381997 184.0382,31.3043478 180,31.3043478 C175.9618,31.3043478 172.695652,28.0381997 172.695652,24 C172.695652,19.9618003 175.9618,16.6956522 180,16.6956522 Z M179.652174,19.826087 L179.652174,23.6521739 L175.826087,23.6521739 L175.826087,24.3478261 L179.652174,24.3478261 L179.652174,28.173913 L180.347826,28.173913 L180.347826,24.3478261 L184.173913,24.3478261 L184.173913,23.6521739 L180.347826,23.6521739 L180.347826,19.826087 L179.652174,19.826087 Z" id="icon-add-white"></path>
            </g>
        </g>
    </g>
</svg>