<?xml version="1.0" encoding="UTF-8"?>
<svg width="26px" height="14px" viewBox="0 0 26 14" version="1.1" xmlns="http://www.w3.org/2000/svg" xmlns:xlink="http://www.w3.org/1999/xlink">
    <!-- Generator: Sketch 64 (93537) - https://sketch.com -->
    <title>icon-next</title>
    <desc>Created with Sketch.</desc>
    <g id="Automation-flow" stroke="none" stroke-width="1" fill="none" fill-rule="evenodd">
        <g id="RuleBook1" transform="translate(-985.000000, -740.000000)" fill="#FFFFFF" fill-rule="nonzero">
            <g id="Group-19" transform="translate(415.000000, 262.000000)">
                <g id="Group-18" transform="translate(434.000000, 459.000000)">
                    <path d="M154.730742,19.0021913 C154.699675,19.0078402 154.668608,19.0163126 154.640365,19.0247857 C154.369232,19.0727985 154.151761,19.2704997 154.075505,19.5331592 C153.999249,19.7986436 154.078329,20.0810734 154.278855,20.2674766 L158.820325,24.8089473 L148.969175,24.8089473 C148.602017,21.5666536 145.845502,19.0247857 142.507182,19.0247857 C138.923148,19.0247857 136,21.9479339 136,25.5319675 C136,29.1160011 138.923148,32.0391494 142.507182,32.0391494 C145.845502,32.0391494 148.602017,29.4972815 148.969175,26.2549877 L158.820325,26.2549877 L154.278855,30.7964584 C153.990777,31.0845371 153.990777,31.547722 154.278855,31.8358 C154.566933,32.1238787 155.030118,32.1238787 155.318196,31.8358 L161.102358,26.0516383 L161.599434,25.5319675 L161.102358,25.0122967 L155.318196,19.2281351 C155.168509,19.0671503 154.951038,18.9852459 154.730742,19.0021913 Z M142.507182,20.4708261 C145.235454,20.4708261 147.449703,22.6088192 147.568323,25.3060237 C147.568323,25.3144968 147.568323,25.320145 147.568323,25.3286181 C147.534432,25.4557113 147.534432,25.5856294 147.568323,25.7127226 C147.568323,25.7211956 147.568323,25.7268439 147.568323,25.735317 C147.461,28.4438186 145.241102,30.593109 142.507182,30.593109 C139.702654,30.593109 137.44604,28.3364949 137.44604,25.5319675 C137.44604,22.7274401 139.702654,20.4708261 142.507182,20.4708261 Z" id="icon-next"></path>
                </g>
            </g>
        </g>
    </g>
</svg>