<?xml version="1.0" encoding="UTF-8"?>
<svg width="30px" height="30px" viewBox="0 0 30 30" version="1.1" xmlns="http://www.w3.org/2000/svg" xmlns:xlink="http://www.w3.org/1999/xlink">
    <!-- Generator: Sketch 64 (93537) - https://sketch.com -->
    <title>list-Special-rules</title>
    <desc>Created with Sketch.</desc>
    <defs>
        <linearGradient x1="50%" y1="0%" x2="50%" y2="139.649416%" id="linearGradient-1">
            <stop stop-color="#FFFFFF" offset="0%"></stop>
            <stop stop-color="#00D77D" offset="100%"></stop>
        </linearGradient>
    </defs>
    <g id="Automation-flow" stroke="none" stroke-width="1" fill="none" fill-rule="evenodd">
        <g id="RuleBook3" transform="translate(-1519.000000, -594.000000)">
            <g id="Category" transform="translate(1469.000000, 349.000000)">
                <g id="list-Special-rules" transform="translate(50.000000, 245.000000)">
                    <path d="M7,10 L21.7,10 L21.7,27.708104 L10,27.708104 C8.34314575,27.708104 7,26.3649582 7,24.708104 L7,10 L7,10 Z" id="Rectangle" fill="url(#linearGradient-1)" opacity="0.791806176"></path>
                    <path d="M3,0 C2.0953128,0 1.3195314,0.5625 0.80625,1.33125 C0.2929686,2.1 0,3.1007814 0,4.2 C0,5.2992186 0.2929686,6.3 0.80625,7.06875 C1.3195314,7.8375 2.0953128,8.4 3,8.4 L4.8,8.4 L4.8,24.6 C4.8,27.8484378 6.8460936,30 9,30 L27,30 C27.01875,30 27.0375,30 27.05625,30 C27.0632814,30 27.0679686,30 27.075,30 C27.1054686,30 27.1382814,29.9835936 27.16875,29.98125 C28.0007814,29.915625 28.7132814,29.390625 29.19375,28.66875 C29.7070314,27.9 30,26.8992186 30,25.8 C30,24.7007814 29.7070314,23.7 29.19375,22.93125 C28.6804686,22.1625 27.9046878,21.6 27,21.6 L24,21.6 L24,16.29375 C24.0023436,16.2632814 24.0023436,16.2304686 24,16.2 L24,7.8 C24.0046878,7.7625 24.0046878,7.725 24,7.6875 L24,5.4 C24,2.1515628 21.9539064,0 19.8,0 L3,0 Z M3,1.2 L17.7375,1.2 C17.7,1.2515628 17.6414064,1.2773436 17.60625,1.33125 C17.0929686,2.1 16.8,3.1007814 16.8,4.2 C16.8,5.2992186 17.0929686,6.3 17.60625,7.06875 C17.6414064,7.1226564 17.7,7.1484378 17.7375,7.2 L5.53125,7.2 C5.4703128,7.1835936 5.4070314,7.1765628 5.34375,7.18125 C5.325,7.1859378 5.30625,7.1929686 5.2875,7.2 L3,7.2 C2.5851564,7.2 2.15625,6.9492186 1.8,6.4125 C1.44375,5.8757814 1.2,5.08125 1.2,4.2 C1.2,3.31875 1.44375,2.5242186 1.8,1.9875 C2.15625,1.4507814 2.5851564,1.2 3,1.2 Z M19.78125,1.2 C19.7882814,1.2 19.7929686,1.2 19.8,1.2 C21.1265628,1.2 22.8,2.6484378 22.8,5.4 L22.8,7.6875 C22.7953128,7.725 22.7953128,7.7625 22.8,7.8 L22.8,16.2 C22.8,16.21875 22.8,16.2375 22.8,16.25625 L22.8,21.91875 C22.7203128,22.0851564 22.7203128,22.2773436 22.8,22.44375 L22.8,24.6 C22.8,26.390625 23.41875,27.853125 24.3375,28.8 L9,28.8 C7.6734378,28.8 6,27.3515628 6,24.6 L6,8.4 L19.8,8.4 L19.8,7.2 C19.3851564,7.2 18.95625,6.9492186 18.6,6.4125 C18.24375,5.8757814 18,5.08125 18,4.2 C18,3.31875 18.24375,2.5242186 18.6,1.9875 C18.9515628,1.4601564 19.3710936,1.2070314 19.78125,1.2 Z M8.83125,12.6 C8.5007814,12.646875 8.26875,12.9539064 8.315625,13.284375 C8.3625,13.6148436 8.6695314,13.846875 9,13.8 L10.2,13.8 C10.415625,13.8023436 10.6171878,13.6898436 10.7273436,13.5023436 C10.8351564,13.3148436 10.8351564,13.0851564 10.7273436,12.8976564 C10.6171878,12.7101564 10.415625,12.5976564 10.2,12.6 L9,12.6 C8.98125,12.6 8.9625,12.6 8.94375,12.6 C8.925,12.6 8.90625,12.6 8.8875,12.6 C8.86875,12.6 8.85,12.6 8.83125,12.6 Z M12.43125,12.6 C12.1007814,12.646875 11.86875,12.9539064 11.915625,13.284375 C11.9625,13.6148436 12.2695314,13.846875 12.6,13.8 L19.8,13.8 C20.015625,13.8023436 20.2171878,13.6898436 20.3273436,13.5023436 C20.4351564,13.3148436 20.4351564,13.0851564 20.3273436,12.8976564 C20.2171878,12.7101564 20.015625,12.5976564 19.8,12.6 L12.6,12.6 C12.58125,12.6 12.5625,12.6 12.54375,12.6 C12.525,12.6 12.50625,12.6 12.4875,12.6 C12.46875,12.6 12.45,12.6 12.43125,12.6 Z M8.83125,16.2 C8.5007814,16.246875 8.26875,16.5539064 8.315625,16.884375 C8.3625,17.2148436 8.6695314,17.446875 9,17.4 L10.2,17.4 C10.415625,17.4023436 10.6171878,17.2898436 10.7273436,17.1023436 C10.8351564,16.9148436 10.8351564,16.6851564 10.7273436,16.4976564 C10.6171878,16.3101564 10.415625,16.1976564 10.2,16.2 L9,16.2 C8.98125,16.2 8.9625,16.2 8.94375,16.2 C8.925,16.2 8.90625,16.2 8.8875,16.2 C8.86875,16.2 8.85,16.2 8.83125,16.2 Z M12.43125,16.2 C12.1007814,16.246875 11.86875,16.5539064 11.915625,16.884375 C11.9625,17.2148436 12.2695314,17.446875 12.6,17.4 L19.8,17.4 C20.015625,17.4023436 20.2171878,17.2898436 20.3273436,17.1023436 C20.4351564,16.9148436 20.4351564,16.6851564 20.3273436,16.4976564 C20.2171878,16.3101564 20.015625,16.1976564 19.8,16.2 L12.6,16.2 C12.58125,16.2 12.5625,16.2 12.54375,16.2 C12.525,16.2 12.50625,16.2 12.4875,16.2 C12.46875,16.2 12.45,16.2 12.43125,16.2 Z M8.83125,19.8 C8.5007814,19.846875 8.26875,20.1539064 8.315625,20.484375 C8.3625,20.8148436 8.6695314,21.046875 9,21 L10.2,21 C10.415625,21.0023436 10.6171878,20.8898436 10.7273436,20.7023436 C10.8351564,20.5148436 10.8351564,20.2851564 10.7273436,20.0976564 C10.6171878,19.9101564 10.415625,19.7976564 10.2,19.8 L9,19.8 C8.98125,19.8 8.9625,19.8 8.94375,19.8 C8.925,19.8 8.90625,19.8 8.8875,19.8 C8.86875,19.8 8.85,19.8 8.83125,19.8 Z M12.43125,19.8 C12.1007814,19.846875 11.86875,20.1539064 11.915625,20.484375 C11.9625,20.8148436 12.2695314,21.046875 12.6,21 L19.8,21 C20.015625,21.0023436 20.2171878,20.8898436 20.3273436,20.7023436 C20.4351564,20.5148436 20.4351564,20.2851564 20.3273436,20.0976564 C20.2171878,19.9101564 20.015625,19.7976564 19.8,19.8 L12.6,19.8 C12.58125,19.8 12.5625,19.8 12.54375,19.8 C12.525,19.8 12.50625,19.8 12.4875,19.8 C12.46875,19.8 12.45,19.8 12.43125,19.8 Z M24,22.8 L27,22.8 C27.4148436,22.8 27.84375,23.0507814 28.2,23.5875 C28.55625,24.1242186 28.8,24.91875 28.8,25.8 C28.8,26.68125 28.55625,27.4757814 28.2,28.0125 C27.853125,28.5328128 27.440625,28.7859378 27.0375,28.8 C27.0257814,28.8 27.0117186,28.8 27,28.8 C25.6734378,28.8 24,27.3515628 24,24.6 L24,22.8 Z M8.83125,23.4 C8.5007814,23.446875 8.26875,23.7539064 8.315625,24.084375 C8.3625,24.4148436 8.6695314,24.646875 9,24.6 L10.2,24.6 C10.415625,24.6023436 10.6171878,24.4898436 10.7273436,24.3023436 C10.8351564,24.1148436 10.8351564,23.8851564 10.7273436,23.6976564 C10.6171878,23.5101564 10.415625,23.3976564 10.2,23.4 L9,23.4 C8.98125,23.4 8.9625,23.4 8.94375,23.4 C8.925,23.4 8.90625,23.4 8.8875,23.4 C8.86875,23.4 8.85,23.4 8.83125,23.4 Z M12.43125,23.4 C12.1007814,23.446875 11.86875,23.7539064 11.915625,24.084375 C11.9625,24.4148436 12.2695314,24.646875 12.6,24.6 L19.8,24.6 C20.015625,24.6023436 20.2171878,24.4898436 20.3273436,24.3023436 C20.4351564,24.1148436 20.4351564,23.8851564 20.3273436,23.6976564 C20.2171878,23.5101564 20.015625,23.3976564 19.8,23.4 L12.6,23.4 C12.58125,23.4 12.5625,23.4 12.54375,23.4 C12.525,23.4 12.50625,23.4 12.4875,23.4 C12.46875,23.4 12.45,23.4 12.43125,23.4 Z" id="Shape" fill="#015250" fill-rule="nonzero"></path>
                </g>
            </g>
        </g>
    </g>
</svg>