<?xml version="1.0" encoding="UTF-8"?>
<svg width="37px" height="28px" viewBox="0 0 37 28" version="1.1" xmlns="http://www.w3.org/2000/svg" xmlns:xlink="http://www.w3.org/1999/xlink">
    <!-- Generator: Sketch 64 (93537) - https://sketch.com -->
    <title>list-org-structure</title>
    <desc>Created with Sketch.</desc>
    <defs>
        <linearGradient x1="50%" y1="0%" x2="50%" y2="139.649416%" id="linearGradient-1">
            <stop stop-color="#FFFFFF" offset="0%"></stop>
            <stop stop-color="#00D77D" offset="100%"></stop>
        </linearGradient>
    </defs>
    <g id="Automation-flow" stroke="none" stroke-width="1" fill="none" fill-rule="evenodd">
        <g id="RuleBook3" transform="translate(-1804.000000, -376.000000)">
            <g id="Category" transform="translate(1469.000000, 349.000000)">
                <g id="list-org-structure" transform="translate(335.000000, 27.000000)">
                    <rect id="Rectangle" fill="url(#linearGradient-1)" x="2" y="11" width="9" height="6"></rect>
                    <rect id="Rectangle-Copy" fill="url(#linearGradient-1)" x="25.7" y="2.25" width="9" height="6"></rect>
                    <rect id="Rectangle-Copy-2" fill="url(#linearGradient-1)" x="25.7" y="19.9" width="9" height="6"></rect>
                    <path d="M25.7894737,0 C24.577714,0 23.5789474,0.998766632 23.5789474,2.21052632 L23.5789474,4.78947368 L13.2631579,12.5263158 L13.2631579,11.0526316 C13.2631579,9.84087189 12.2643913,8.84210526 11.0526316,8.84210526 L2.21052632,8.84210526 C0.998766632,8.84210526 2.38031816e-13,9.84087189 2.38031816e-13,11.0526316 L2.38031816e-13,16.9473684 C2.38031816e-13,18.1591281 0.998766632,19.1578947 2.21052632,19.1578947 L11.0526316,19.1578947 C12.2643913,19.1578947 13.2631579,18.1591281 13.2631579,16.9473684 L13.2631579,15.4736842 L23.5789474,23.2105263 L23.5789474,25.7894737 C23.5789474,27.0012334 24.577714,28 25.7894737,28 L34.6315789,28 C35.8433386,28 36.8421053,27.0012334 36.8421053,25.7894737 L36.8421053,19.8947368 C36.8421053,18.6829772 35.8433386,17.6842105 34.6315789,17.6842105 L25.7894737,17.6842105 C24.577714,17.6842105 23.5789474,18.6829772 23.5789474,19.8947368 L23.5789474,21.3684211 L13.7697368,14 L23.5789474,6.63157895 L23.5789474,8.10526316 C23.5789474,9.31702284 24.577714,10.3157895 25.7894737,10.3157895 L34.6315789,10.3157895 C35.8433386,10.3157895 36.8421053,9.31702284 36.8421053,8.10526316 L36.8421053,2.21052632 C36.8421053,0.998766632 35.8433386,0 34.6315789,0 L25.7894737,0 Z M25.7894737,1.47368421 L34.6315789,1.47368421 C35.0402964,1.47368421 35.3684211,1.80180958 35.3684211,2.21052632 L35.3684211,8.10526316 C35.3684211,8.51398063 35.0402964,8.84210526 34.6315789,8.84210526 L25.7894737,8.84210526 C25.3807569,8.84210526 25.0526316,8.51398063 25.0526316,8.10526316 L25.0526316,2.21052632 C25.0526316,1.80180958 25.3807569,1.47368421 25.7894737,1.47368421 Z M2.21052632,10.3157895 L11.0526316,10.3157895 C11.4613491,10.3157895 11.7894737,10.6439148 11.7894737,11.0526316 L11.7894737,16.9473684 C11.7894737,17.3560859 11.4613491,17.6842105 11.0526316,17.6842105 L2.21052632,17.6842105 C1.80180958,17.6842105 1.47368421,17.3560859 1.47368421,16.9473684 L1.47368421,11.0526316 C1.47368421,10.6439148 1.80180958,10.3157895 2.21052632,10.3157895 Z M25.7894737,19.1578947 L34.6315789,19.1578947 C35.0402964,19.1578947 35.3684211,19.4860201 35.3684211,19.8947368 L35.3684211,25.7894737 C35.3684211,26.1981912 35.0402964,26.5263158 34.6315789,26.5263158 L25.7894737,26.5263158 C25.3807569,26.5263158 25.0526316,26.1981912 25.0526316,25.7894737 L25.0526316,19.8947368 C25.0526316,19.4860201 25.3807569,19.1578947 25.7894737,19.1578947 Z" id="Shape" fill="#015250" fill-rule="nonzero"></path>
                </g>
            </g>
        </g>
    </g>
</svg>