<?xml version="1.0" encoding="UTF-8"?>
<svg width="33px" height="34px" viewBox="0 0 33 34" version="1.1" xmlns="http://www.w3.org/2000/svg" xmlns:xlink="http://www.w3.org/1999/xlink">
    <!-- Generator: Sketch 64 (93537) - https://sketch.com -->
    <title>list-date-incurred</title>
    <desc>Created with Sketch.</desc>
    <defs>
        <linearGradient x1="50%" y1="0%" x2="50%" y2="139.649416%" id="linearGradient-1">
            <stop stop-color="#FFFFFF" offset="0%"></stop>
            <stop stop-color="#00D77D" offset="100%"></stop>
        </linearGradient>
    </defs>
    <g id="Automation-flow" stroke="none" stroke-width="1" fill="none" fill-rule="evenodd">
        <g id="RuleBook3" transform="translate(-1806.000000, -483.000000)">
            <g id="Category" transform="translate(1469.000000, 349.000000)">
                <g id="list-date-incurred" transform="translate(337.000000, 134.000000)">
                    <path d="M3,7 L29,7 L29,23.5793837 C27.3892957,21.4863139 26.171275,20.1635135 25.3459378,19.6109825 C21.3039666,16.9050406 18.2726835,17.8551335 16.32,19.6109825 C13.7692337,21.9046263 12.9991836,25.3676321 14.0098497,30 L3,30 L3,7 Z" id="Rectangle" fill="url(#linearGradient-1)"></path>
                    <path d="M6.8,0 C6.05671716,0 5.44,0.616717296 5.44,1.36 L5.44,2.72 L1.36,2.72 C0.57188,2.72 -2.87769808e-13,3.29188 -2.87769808e-13,4.08 L-2.87769808e-13,31.28 C-2.87769808e-13,32.06812 0.57188,32.64 1.36,32.64 L18.2404689,32.64 C17.4747889,32.29864 16.7779372,31.83624 16.1659378,31.28 L1.36,31.28 L1.36,10.2 L29.92,10.2 L29.92,24.055 C30.40484,24.20392 30.85908,24.419363 31.28,24.683203 L31.28,4.08 C31.28,3.29188 30.70812,2.72 29.92,2.72 L25.84,2.72 L25.84,1.36 C25.84,0.616717296 25.2232828,0 24.48,0 L23.12,0 C22.3767172,0 21.76,0.616717296 21.76,1.36 L21.76,2.72 L9.52,2.72 L9.52,1.36 C9.52,0.616717296 8.90328284,0 8.16,0 L6.8,0 Z M6.8,1.36 L8.16,1.36 L8.16,5.44 L6.8,5.44 L6.8,1.36 Z M23.12,1.36 L24.48,1.36 L24.48,5.44 L23.12,5.44 L23.12,1.36 Z M1.36,4.08 L5.44,4.08 L5.44,5.44 C5.44,6.1832827 6.05671716,6.8 6.8,6.8 L8.16,6.8 C8.90328284,6.8 9.52,6.1832827 9.52,5.44 L9.52,4.08 L21.76,4.08 L21.76,5.44 C21.76,6.1832827 22.3767172,6.8 23.12,6.8 L24.48,6.8 C25.2232828,6.8 25.84,6.1832827 25.84,5.44 L25.84,4.08 L29.92,4.08 L29.92,8.84 L1.36,8.84 L1.36,4.08 Z M5.44,12.92 L5.44,28.56 L14.2215622,28.56 C14.0366028,28.12616 13.894642,27.66988 13.789922,27.2 L11.56,27.2 L11.56,23.8 L13.79125,23.8 C13.89529,23.33012 14.0379309,22.87384 14.2228909,22.44 L11.56,22.44 L11.56,19.04 L14.96,19.04 L14.96,21.0946091 C15.34488,20.5308891 15.80456,20.025267 16.32,19.580547 L16.32,19.04 L17.0146091,19.04 C18.1814891,18.24304 19.57584,17.7578811 21.08,17.6932811 L21.08,17.68 L21.08,14.28 L24.48,14.28 L24.48,18.308203 C24.95872,18.512883 25.41568,18.760233 25.84,19.051953 L25.84,12.92 L5.44,12.92 Z M6.8,14.28 L10.2,14.28 L10.2,17.68 L6.8,17.68 L6.8,14.28 Z M11.56,14.28 L14.96,14.28 L14.96,17.68 L11.56,17.68 L11.56,14.28 Z M16.32,14.28 L19.72,14.28 L19.72,17.68 L16.32,17.68 L16.32,14.28 Z M6.8,19.04 L10.2,19.04 L10.2,22.44 L6.8,22.44 L6.8,19.04 Z M21.42,19.04 C17.8602932,19.04 14.96,21.9402959 14.96,25.5 C14.96,29.0597041 17.8602932,31.96 21.42,31.96 C22.4020818,31.96 23.3305906,31.7328895 24.1652341,31.3384378 C24.5434311,32.2104868 25.191703,32.9349956 26.0073439,33.4076561 C26.0077866,33.4076565 26.0082293,33.4076565 26.008672,33.4076561 C26.6588186,33.7833153 27.416378,34 28.22,34 C30.6528122,34 32.64,32.0128122 32.64,29.58 C32.64,27.1471878 30.6528122,25.16 28.22,25.16 C28.0984174,25.16 27.9828888,25.1794262 27.8640622,25.1892189 C27.6999544,21.7741127 24.8747414,19.04 21.42,19.04 Z M21.42,20.4 C24.2447091,20.4 26.52,22.6752929 26.52,25.5 C26.52,28.3247071 24.2447091,30.6 21.42,30.6 C18.5952909,30.6 16.32,28.3247071 16.32,25.5 C16.32,22.6752929 18.5952909,20.4 21.42,20.4 Z M20.1928122,22.7202341 L19.6429689,25.809453 L20.664297,25.809453 C20.776497,25.654413 21.0123611,25.361875 21.5182811,25.361875 C21.6991611,25.361875 22.483828,25.4326372 22.483828,26.4084378 C22.483828,26.7545578 22.2778411,27.4842189 21.5182811,27.4842189 C20.8117611,27.4842189 20.627067,26.901172 20.600547,26.646172 L19.466328,26.646172 C19.455448,27.317332 19.9394278,28.409922 21.5421878,28.409922 C23.0647078,28.409922 23.6167189,27.1441978 23.6167189,26.4084378 C23.6167189,26.0221978 23.4132922,24.5078909 21.8928122,24.5078909 C21.2502122,24.5078909 20.9534459,24.7851711 20.7997659,24.9395311 L20.7825,24.9222659 L21.005625,23.6552341 L23.3139061,23.6552341 L23.3139061,22.7202341 L20.1928122,22.7202341 Z M6.8,23.8 L10.2,23.8 L10.2,27.2 L6.8,27.2 L6.8,23.8 Z M28.22,26.52 C29.9175078,26.52 31.28,27.8824922 31.28,29.58 C31.28,31.2775078 29.9175078,32.64 28.22,32.64 C27.659542,32.64 27.1400934,32.4904306 26.688672,32.2296091 C26.069702,31.870408 25.591785,31.2968681 25.3459378,30.6159378 C26.6167402,29.6380135 27.5128034,28.2024832 27.785703,26.5558591 C27.9285044,26.5358433 28.0730744,26.52 28.22,26.52 Z" id="Shape" fill="#015250" fill-rule="nonzero"></path>
                </g>
            </g>
        </g>
    </g>
</svg>