<svg id="Layer_3" enable-background="new 0 0 64 64" height="512" viewBox="0 0 64 64" width="512" xmlns="http://www.w3.org/2000/svg"><g><path d="m48 19h-10v-9z" fill="#f4b2b0"/><path d="m42 62h-34c-3.314 0-6-2.686-6-6h34.042c0 3.29 2.667 5.958 5.958 5.958z" fill="#f4b2b0"/><g fill="#b3404a"><path d="m61.999.999h-39.999c-.552 0-1 .447-1 .999v3.001h-7c-.553 0-1 .447-1 1v3h-5.001c-.552 0-1 .447-1 1v44.999h-4.999c-.553 0-1 .448-1 1 0 3.86 3.14 7 7 7h34c2.785 0 5.189-1.639 6.315-4h5.685c.553 0 1-.447 1-1v-1h7c.265 0 .52-.104.707-.292s.293-.442.293-.708l-.001-54c0-.552-.447-.999-1-.999zm-53.999 59.999c-2.415 0-4.435-1.72-4.9-4h32.013c.226 1.56.97 2.954 2.052 4zm39-5c0 2.669-2.101 4.855-4.736 4.993-.084-.022-.172-.034-.264-.034-2.733 0-4.958-2.225-4.958-4.959 0-.552-.447-1-1-1h-27.043v-43.999h28.001v7.999c0 .553.447 1 1 1h9zm-8-38v-5.754l6.393 5.754zm14 39h-4.08c.047-.328.08-.66.08-1v-36.999c0-.284-.12-.554-.331-.744l-10-9c-.184-.165-.422-.256-.669-.256h-23v-2h38zm8-2h-6v-48.999c0-.553-.447-1-1-1h-31v-2h38z"/><path d="m13 16.999h20v1.999h-20z"/><path d="m13 20.999h8v1.999h-8z"/><path d="m25 20.999h8v1.999h-8z"/><path d="m13 26.999h20v1.999h-20z"/><path d="m13 30.999h8v1.999h-8z"/><path d="m25 30.999h8v1.999h-8z"/><path d="m23 36.999h20v1.999h-20z"/><path d="m35 40.999h8v1.999h-8z"/><path d="m23 44.999h20v1.999h-20z"/><path d="m35 48.999h8v1.999h-8z"/></g></g></svg>