<?xml version="1.0" encoding="UTF-8"?>
<svg width="16px" height="15px" viewBox="0 0 16 15" version="1.1" xmlns="http://www.w3.org/2000/svg" xmlns:xlink="http://www.w3.org/1999/xlink">
    <!-- Generator: Sketch 61.2 (89653) - https://sketch.com -->
    <title>check-pay</title>
    <desc>Created with Sketch.</desc>
    <g id="Invoice-template-flow" stroke="none" stroke-width="1" fill="none" fill-rule="evenodd">
        <g id="Invoice-template-Creation" transform="translate(-175.000000, -1496.000000)" fill="#015250" fill-rule="nonzero">
            <g id="Group-5" transform="translate(156.000000, 410.000000)">
                <path d="M19,1086 L19,1095 L34.6,1095 L34.6,1086 L19,1086 Z M21.4,1087.2 L32.2,1087.2 C32.2,1087.86328 32.7367186,1088.4 33.4,1088.4 L33.4,1092.6 C32.7367186,1092.6 32.2,1093.13672 32.2,1093.8 L21.4,1093.8 C21.4,1093.13672 20.8632814,1092.6 20.2,1092.6 L20.2,1088.4 C20.8632814,1088.4 21.4,1087.86328 21.4,1087.2 Z M26.8,1087.8 C25.4734378,1087.8 24.4,1089.00938 24.4,1090.5 C24.4,1091.99062 25.4734378,1093.2 26.8,1093.2 C28.1265628,1093.2 29.2,1091.99062 29.2,1090.5 C29.2,1089.00938 28.1265628,1087.8 26.8,1087.8 Z M26.8,1089 C27.4609378,1089 28,1089.67266 28,1090.5 C28,1091.32734 27.4609378,1092 26.8,1092 C26.1390628,1092 25.6,1091.32734 25.6,1090.5 C25.6,1089.67266 26.1390628,1089 26.8,1089 Z M22.3,1089.6 C21.803125,1089.6 21.4,1090.00312 21.4,1090.5 C21.4,1090.99688 21.803125,1091.4 22.3,1091.4 C22.796875,1091.4 23.2,1090.99688 23.2,1090.5 C23.2,1090.00312 22.796875,1089.6 22.3,1089.6 Z M31.3,1089.6 C30.803125,1089.6 30.4,1090.00312 30.4,1090.5 C30.4,1090.99688 30.803125,1091.4 31.3,1091.4 C31.796875,1091.4 32.2,1090.99688 32.2,1090.5 C32.2,1090.00312 31.796875,1089.6 31.3,1089.6 Z M26.2,1096.2 L26.2,1098 L23.8,1098 L26.8,1101 L29.8,1098 L27.4,1098 L27.4,1096.2 L26.2,1096.2 Z" id="check-pay"></path>
            </g>
        </g>
    </g>
</svg>