<?xml version="1.0" encoding="UTF-8"?>
<svg width="18px" height="18px" viewBox="0 0 18 18" version="1.1" xmlns="http://www.w3.org/2000/svg" xmlns:xlink="http://www.w3.org/1999/xlink">
    <!-- Generator: Sketch 61.2 (89653) - https://sketch.com -->
    <title>mail</title>
    <desc>Created with Sketch.</desc>
    <g id="Invoice-template-flow" stroke="none" stroke-width="1" fill="none" fill-rule="evenodd">
        <g id="Invoice-multi-selection-options" transform="translate(-306.000000, -212.000000)" fill="#00433F" fill-rule="nonzero">
            <g id="Group" transform="translate(127.000000, 198.000000)">
                <path d="M188,14 C187.617716,14 186.912896,14.0786471 186.305309,14.5976562 C186.117642,14.7397678 185.6984,15.1092238 185.090021,15.6363636 L182.272727,15.6363636 C182.046802,15.6363862 181.863659,15.8195292 181.863636,16.0454545 L181.863636,18.484819 C180.420083,19.7616715 179.13663,20.905007 179.13663,20.905007 C179.049689,20.98264 179,21.0936697 179,21.2102273 L179,31.5909091 C179,31.8168344 179.183166,32 179.409091,32 L196.590909,32 C196.816834,32 197,31.8168344 197,31.5909091 L197,21.2102273 C197,21.0936698 196.950311,20.9826401 196.86337,20.905007 C196.86337,20.905007 195.579962,19.7613938 194.136364,18.484819 L194.136364,16.0454545 C194.136341,15.8195292 193.953198,15.6363862 193.727273,15.6363636 L190.885209,15.6363636 C190.299786,15.1096396 189.880774,14.7383261 189.693892,14.5968573 C189.086517,14.0785654 188.382088,14 188,14 Z M188,14.8181818 C188.261796,14.8181818 188.77176,14.8831759 189.165749,15.2208807 C189.17249,15.2266983 189.179418,15.2322943 189.186524,15.2376598 C189.210576,15.2556804 189.512681,15.5249793 189.641957,15.6363636 L186.347656,15.6363636 C186.477929,15.5253186 186.789541,15.2555928 186.813476,15.2376598 C186.820582,15.2322943 186.82751,15.2266983 186.834251,15.2208807 C187.228241,14.883176 187.738204,14.8181818 188,14.8181818 Z M182.681818,16.4545455 L185.131569,16.4545455 C185.195351,16.4701247 185.261946,16.4701247 185.325728,16.4545455 L190.664684,16.4545455 C190.711468,16.4627549 190.759324,16.4627549 190.806108,16.4545455 L193.318182,16.4545455 L193.318182,18.6709873 L193.318182,23.6312146 L191.011452,25.4465555 C190.576513,25.1050374 189.782318,24.4844723 189.6875,24.4086469 C189.05724,23.9042468 188.382931,23.8181818 188,23.8181818 C187.586958,23.8181818 186.946186,23.943108 186.326083,24.39826 C186.213464,24.4807729 185.39305,25.1277575 184.98615,25.4449572 L182.681818,23.6312146 L182.681818,18.7237216 C182.688021,18.6829405 182.688021,18.6414559 182.681818,18.6006748 L182.681818,16.4545455 Z M184.318182,18.5 C184.170649,18.4979135 184.033421,18.5754263 183.959046,18.7028571 C183.884671,18.8302879 183.884671,18.9878939 183.959046,19.1153247 C184.033421,19.2427556 184.170649,19.3202683 184.318182,19.3181818 L191.681818,19.3181818 C191.829351,19.3202683 191.966579,19.2427556 192.040954,19.1153247 C192.115329,18.9878939 192.115329,18.8302879 192.040954,18.7028571 C191.966579,18.5754263 191.829351,18.4979135 191.681818,18.5 L184.318182,18.5 Z M181.863636,19.5786578 L181.863636,22.986417 L179.828569,21.3844104 C179.926144,21.297445 180.922544,20.4129541 181.863636,19.5786578 Z M194.136364,19.5786578 C195.077632,20.4130474 196.074194,21.2985181 196.171431,21.3852094 L194.136364,22.9872159 L194.136364,19.5786578 Z M184.318182,20.5454545 C184.170649,20.5433681 184.033421,20.6208808 183.959046,20.7483116 C183.884671,20.8757424 183.884671,21.0333485 183.959046,21.1607793 C184.033421,21.2882101 184.170649,21.3657228 184.318182,21.3636364 L188.818182,21.3636364 C188.965715,21.3657228 189.102942,21.2882101 189.177318,21.1607793 C189.251693,21.0333485 189.251693,20.8757424 189.177318,20.7483116 C189.102942,20.6208808 188.965715,20.5433681 188.818182,20.5454545 L184.318182,20.5454545 Z M179.818182,22.4183239 L184.322177,25.9635122 C183.655725,26.4854075 183.356299,26.7147872 182.552379,27.3465909 C181.157865,28.4425455 180.272976,29.1400033 179.818182,29.4983134 L179.818182,22.4183239 Z M196.181818,22.4183239 L196.181818,29.4999113 C195.585796,29.0328015 193.526169,27.4188662 191.674627,25.966708 L196.181818,22.4183239 Z M188,24.6363636 C188.261796,24.6363636 188.732942,24.6931606 189.176136,25.0478514 C189.73088,25.4914774 195.965648,30.3702632 196.181818,30.5394178 L196.181818,31.1818182 L179.818182,31.1818182 L179.818182,30.5386185 C179.93031,30.45031 181.406248,29.2880263 183.05815,27.9897906 C184.771606,26.6431783 186.590336,25.2193861 186.810281,25.0582386 C187.263632,24.7254816 187.768315,24.6363636 188,24.6363636 Z" id="mail"></path>
            </g>
        </g>
    </g>
</svg>