<?xml version="1.0" encoding="UTF-8"?>
<svg width="4px" height="16px" viewBox="0 0 4 16" version="1.1" xmlns="http://www.w3.org/2000/svg" xmlns:xlink="http://www.w3.org/1999/xlink">
    <!-- Generator: Sketch 60.1 (88133) - https://sketch.com -->
    <title>more</title>
    <desc>Created with Sketch.</desc>
    <g id="Invoice-template-flow" stroke="none" stroke-width="1" fill="none" fill-rule="evenodd" opacity="0.54">
        <g id="Invoice-view-Add-multiple-items" transform="translate(-1765.000000, -912.000000)" fill="#000000">
            <g id="Group-5" transform="translate(153.000000, 261.000000)">
                <g id="Group-16" transform="translate(22.000000, 584.000000)">
                    <g id="Group-3">
                        <g id="Group-20" transform="translate(0.000000, 50.000000)">
                            <g id="Material/Icons-black/more-vert" transform="translate(1586.000000, 13.000000)">
                                <path d="M6,8 C7.1,8 8,7.1 8,6 C8,4.9 7.1,4 6,4 C4.9,4 4,4.9 4,6 C4,7.1 4.9,8 6,8 L6,8 Z M6,10 C4.9,10 4,10.9 4,12 C4,13.1 4.9,14 6,14 C7.1,14 8,13.1 8,12 C8,10.9 7.1,10 6,10 L6,10 Z M6,16 C4.9,16 4,16.9 4,18 C4,19.1 4.9,20 6,20 C7.1,20 8,19.1 8,18 C8,16.9 7.1,16 6,16 L6,16 Z" id="Shape"></path>
                            </g>
                        </g>
                    </g>
                </g>
            </g>
        </g>
    </g>
</svg>