<?xml version="1.0" encoding="UTF-8"?>
<svg width="16px" height="16px" viewBox="0 0 16 16" version="1.1" xmlns="http://www.w3.org/2000/svg" xmlns:xlink="http://www.w3.org/1999/xlink">
    <!-- Generator: Sketch 61.2 (89653) - https://sketch.com -->
    <title>Print</title>
    <desc>Created with Sketch.</desc>
    <g id="Invoice-template-flow" stroke="none" stroke-width="1" fill="none" fill-rule="evenodd">
        <g id="Invoice-multi-selection-options" transform="translate(-502.000000, -214.000000)" fill="#00433F" fill-rule="nonzero">
            <g id="Group" transform="translate(127.000000, 198.000000)">
                <path d="M378.130435,16 L378.130435,20.5217391 L376.043478,20.5217391 C375.471315,20.5217391 375,20.9930539 375,21.5652174 L375,27.826087 C375,28.3982504 375.471315,28.8695652 376.043478,28.8695652 L378.130435,28.8695652 L378.130435,32 L387.869565,32 L387.869565,28.8695652 L389.956522,28.8695652 C390.528685,28.8695652 391,28.3982504 391,27.826087 L391,21.5652174 C391,20.9930539 390.528685,20.5217391 389.956522,20.5217391 L387.869565,20.5217391 L387.869565,16 L378.130435,16 Z M378.826087,16.6956522 L387.173913,16.6956522 L387.173913,20.5217391 L378.826087,20.5217391 L378.826087,16.6956522 Z M376.043478,21.2173913 L378.419837,21.2173913 C378.457399,21.2235997 378.495726,21.2235997 378.533288,21.2173913 L387.463315,21.2173913 C387.500877,21.2235997 387.539204,21.2235997 387.576766,21.2173913 L389.956522,21.2173913 C390.153054,21.2173913 390.304348,21.3686852 390.304348,21.5652174 L390.304348,27.826087 C390.304348,28.0226191 390.153054,28.173913 389.956522,28.173913 L387.869565,28.173913 L387.869565,25.0434783 L387.521739,25.0434783 L378.130435,25.0434783 L378.130435,28.173913 L376.043478,28.173913 C375.846946,28.173913 375.695652,28.0226191 375.695652,27.826087 L375.695652,21.5652174 C375.695652,21.3686852 375.846946,21.2173913 376.043478,21.2173913 Z M388.565217,22.2608696 C388.181019,22.2608696 387.869565,22.5723237 387.869565,22.9565217 C387.869565,23.3407198 388.181019,23.6521739 388.565217,23.6521739 C388.949415,23.6521739 389.26087,23.3407198 389.26087,22.9565217 C389.26087,22.5723237 388.949415,22.2608696 388.565217,22.2608696 Z M378.826087,25.7391304 L387.173913,25.7391304 L387.173913,28.4633151 C387.167705,28.5008774 387.167705,28.539204 387.173913,28.5767663 L387.173913,31.3043478 L378.826087,31.3043478 L378.826087,28.5801631 C378.832295,28.5426009 378.832295,28.5042742 378.826087,28.466712 L378.826087,25.7391304 Z M380.217391,26.7826087 C380.091953,26.7808347 379.975276,26.8467392 379.912039,26.9550862 C379.848802,27.0634332 379.848802,27.1974364 379.912039,27.3057834 C379.975276,27.4141303 380.091953,27.4800349 380.217391,27.4782609 L385.782609,27.4782609 C385.908047,27.4800349 386.024724,27.4141303 386.087961,27.3057834 C386.151198,27.1974364 386.151198,27.0634332 386.087961,26.9550862 C386.024724,26.8467392 385.908047,26.7808347 385.782609,26.7826087 L380.217391,26.7826087 Z M380.217391,28.173913 C380.091953,28.172139 379.975276,28.2380436 379.912039,28.3463906 C379.848802,28.4547375 379.848802,28.5887407 379.912039,28.6970877 C379.975276,28.8054347 380.091953,28.8713392 380.217391,28.8695652 L384.391304,28.8695652 C384.516743,28.8713392 384.63342,28.8054347 384.696657,28.6970877 C384.759894,28.5887407 384.759894,28.4547375 384.696657,28.3463906 C384.63342,28.2380436 384.516743,28.172139 384.391304,28.173913 L380.217391,28.173913 Z M380.217391,29.5652174 C380.091953,29.5634434 379.975276,29.6293479 379.912039,29.7376949 C379.848802,29.8460419 379.848802,29.9800451 379.912039,30.0883921 C379.975276,30.196739 380.091953,30.2626436 380.217391,30.2608696 L385.782609,30.2608696 C385.908047,30.2626436 386.024724,30.196739 386.087961,30.0883921 C386.151198,29.9800451 386.151198,29.8460419 386.087961,29.7376949 C386.024724,29.6293479 385.908047,29.5634434 385.782609,29.5652174 L380.217391,29.5652174 Z" id="Print"></path>
            </g>
        </g>
    </g>
</svg>