<?xml version="1.0" encoding="UTF-8"?>
<svg width="17px" height="16px" viewBox="0 0 17 16" version="1.1" xmlns="http://www.w3.org/2000/svg" xmlns:xlink="http://www.w3.org/1999/xlink">
    <!-- Generator: Sketch 61.2 (89653) - https://sketch.com -->
    <title>saveasdraft</title>
    <desc>Created with Sketch.</desc>
    <g id="Invoice-template-flow" stroke="none" stroke-width="1" fill="none" fill-rule="evenodd">
        <g id="New-Invoice" transform="translate(-1478.000000, -133.000000)" fill="#00433F" fill-rule="nonzero">
            <g id="Group" transform="translate(1127.000000, 118.000000)">
                <g id="icons8-save_as_filled" transform="translate(351.000000, 15.000000)">
                    <path d="M1.04347826,0 C0.468749913,0 0,0.468749913 0,1.04347826 L0,14.9565217 C0,15.5312501 0.468749913,16 1.04347826,16 L14.9565217,16 C15.5312501,16 16,15.5312501 16,14.9565217 L16,9.25 L13.2065217,12.0434783 L13.2065217,15.3043478 L2.79347826,15.3043478 L2.79347826,9.32608696 C2.79347826,8.79347826 3.22826087,8.35869565 3.76086957,8.35869565 L10.9130435,8.35869565 L13.7826087,5.48913043 C14.3804348,4.89130435 15.2513586,4.72961948 16,5 L16,3.47826087 C16,3.38586957 15.9673913,3.29347826 15.9021739,3.22826087 L12.7717391,0.097826087 C12.7065217,0.0326086957 12.6141304,0 12.5217391,0 L1.04347826,0 Z M3.47826087,0.695652174 L11.4782609,0.695652174 C11.8614132,0.695652174 12.173913,1.00815235 12.173913,1.39130435 L12.173913,5.2173913 C12.173913,5.60054365 11.8614132,5.91304348 11.4782609,5.91304348 L3.47826087,5.91304348 C3.09510887,5.91304348 2.7826087,5.60054365 2.7826087,5.2173913 L2.7826087,1.39130435 C2.7826087,1.00815235 3.09510887,0.695652174 3.47826087,0.695652174 Z M9.73913043,1.39130435 C9.54619583,1.39130435 9.39130435,1.54619583 9.39130435,1.73913043 L9.39130435,4.86956522 C9.39130435,5.06250017 9.54619583,5.2173913 9.73913043,5.2173913 L10.7826087,5.2173913 C10.9755437,5.2173913 11.1304348,5.06250017 11.1304348,4.86956522 L11.1304348,1.73913043 C11.1304348,1.54619583 10.9755437,1.39130435 10.7826087,1.39130435 L9.73913043,1.39130435 Z M15.2826087,5.56521739 C14.9198369,5.56521739 14.548913,5.70108696 14.2717391,5.97826087 L14.1956522,6.06521739 C14.1671197,6.08288035 14.1413043,6.10461948 14.1195652,6.13043478 L8.66304348,11.5869565 C8.61820661,11.6277176 8.5842393,11.6807064 8.56521739,11.7391304 L8.01086957,13.826087 C7.97961948,13.9456522 8.01494574,14.0720108 8.10190226,14.1589673 C8.18885878,14.2459238 8.31521739,14.2812501 8.43478261,14.25 L10.5217391,13.6956522 C10.5801631,13.6766306 10.6331523,13.642663 10.673913,13.5978261 L16.0434783,8.22826087 C16.0434783,8.22826087 16.0896741,8.18206539 16.1304348,8.14130435 C16.1562501,8.11956522 16.1779892,8.09374991 16.1956522,8.06521739 C16.232337,8.02853252 16.2826087,7.98913043 16.2826087,7.98913043 C16.8369565,7.43478261 16.8355979,6.53125009 16.2826087,5.97826087 C16.0054348,5.70108696 15.6453805,5.56521739 15.2826087,5.56521739 Z M14.5217391,6.70652174 L15.5543478,7.73913043 L10.25,13.0434783 L10.2282609,13.0543478 L9.20652174,12.0326087 L9.2173913,12.0108696 L14.5217391,6.70652174 Z M1.39130435,13.5652174 L2.08695652,13.5652174 L2.08695652,14.2608696 L1.39130435,14.2608696 L1.39130435,13.5652174 Z M13.9130435,13.5652174 L14.6086957,13.5652174 L14.6086957,14.2608696 L13.9130435,14.2608696 L13.9130435,13.5652174 Z" id="saveasdraft"></path>
                </g>
            </g>
        </g>
    </g>
</svg>