<?xml version="1.0" encoding="UTF-8"?>
<svg width="13px" height="14px" viewBox="0 0 13 14" version="1.1" xmlns="http://www.w3.org/2000/svg" xmlns:xlink="http://www.w3.org/1999/xlink">
    <!-- Generator: Sketch 64 (93537) - https://sketch.com -->
    <title>high-priority</title>
    <desc>Created with Sketch.</desc>
    <g id="Symbols" stroke="none" stroke-width="1" fill="none" fill-rule="evenodd">
        <g id="web-card" transform="translate(-131.000000, -179.000000)" fill="#E02020" fill-rule="nonzero">
            <g id="high-priority" transform="translate(131.000000, 179.000000)">
                <path d="M12.9230769,5.38461538 L12.9230769,6.46153846 C12.9230769,6.66938462 12.803,6.85892308 12.6150769,6.94830769 C12.4271538,7.03769231 12.2047692,7.01023077 12.0432308,6.87830769 L6.46153846,2.31107692 L0.879307692,6.87830769 C0.718307692,7.01023077 0.495923077,7.03715385 0.307461538,6.94830769 C0.119,6.85946154 0,6.66938462 0,6.46153846 L0,5.38461538 C0,5.22307692 0.0726923077,5.07015385 0.197615385,4.96784615 L6.12069231,0.121692308 C6.31938462,-0.0403846154 6.60423077,-0.0403846154 6.80292308,0.121692308 L12.726,4.96784615 C12.8503846,5.07015385 12.9230769,5.22307692 12.9230769,5.38461538 Z" id="Path"></path>
                <path d="M12.9230769,12.3846154 L12.9230769,13.4615385 C12.9230769,13.6693846 12.803,13.8589231 12.6150769,13.9483077 C12.4271538,14.0376923 12.2047692,14.0102308 12.0432308,13.8783077 L6.46153846,9.31107692 L0.879307692,13.8783077 C0.718307692,14.0102308 0.495923077,14.0371538 0.307461538,13.9483077 C0.119,13.8594615 -7.10542736e-15,13.6693846 -7.10542736e-15,13.4615385 L-7.10542736e-15,12.3846154 C-7.10542736e-15,12.2230769 0.0726923077,12.0701538 0.197615385,11.9678462 L6.12069231,7.12169231 C6.31938462,6.95961538 6.60423077,6.95961538 6.80292308,7.12169231 L12.726,11.9678462 C12.8503846,12.0701538 12.9230769,12.2230769 12.9230769,12.3846154 Z" id="Path"></path>
            </g>
        </g>
    </g>
</svg>