<?xml version="1.0" encoding="UTF-8"?>
<svg width="25px" height="25px" viewBox="0 0 25 25" version="1.1" xmlns="http://www.w3.org/2000/svg" xmlns:xlink="http://www.w3.org/1999/xlink">
    <!-- Generator: Sketch 64 (93537) - https://sketch.com -->
    <title>icon-mobile</title>
    <desc>Created with Sketch.</desc>
    <g id="Symbols" stroke="none" stroke-width="1" fill="none" fill-rule="evenodd">
        <g id="web-card-low" transform="translate(-13.000000, -17.000000)">
            <g id="Group-13">
                <g id="web-card">
                    <g id="Group-13">
                        <g id="icon-mobile" transform="translate(13.000000, 17.000000)">
                            <circle id="Oval" fill-opacity="0.0971645542" fill="#15C872" cx="12.5" cy="12.5" r="12.5"></circle>
                            <g id="icons8-phonelink_ring" transform="translate(7.500000, 5.000000)" fill-rule="nonzero">
                                <path d="M8.33103448,15.5862069 L1.04827586,15.5862069 C0.703448276,15.5862069 0.413793103,15.2965517 0.413793103,14.9517241 L0.413793103,1.04827586 C0.413793103,0.703448276 0.703448276,0.413793103 1.04827586,0.413793103 L8.33103448,0.413793103 C8.67586207,0.413793103 8.96551724,0.703448276 8.96551724,1.04827586 L8.96551724,14.9517241 C8.96551724,15.2965517 8.67586207,15.5862069 8.33103448,15.5862069" id="Path" fill="#15C872"></path>
                                <polyline id="Path" fill="#FFFFFF" points="0.413793103 0.482758621 8.96551724 0.482758621 8.96551724 12.8 0.413793103 12.8 0.413793103 0.482758621"></polyline>
                                <path d="M8.96551724,12.8 L7.69655172,12.8 L7.69655172,14.9517241 C7.69655172,15.2965517 7.55862069,15.5862069 7.2137931,15.5862069 L8.33103448,15.5862069 C8.67586207,15.5862069 8.96551724,15.2965517 8.96551724,14.9517241 L8.96551724,12.8" id="Path" fill-opacity="0.0996776661" fill="#000000"></path>
                                <path d="M8.61462069,0.482758621 L8.61462069,0.482758621 L7.4657931,0.482758621 C7.62772414,0.588689655 7.69655172,0.804689655 7.69655172,1.04827586 L7.69655172,12.8 L8.96551724,12.8 L8.96551724,1.04827586 C8.96551724,0.804689655 8.82096552,0.588689655 8.61462069,0.482758621" id="Path" fill-opacity="0.0996776661" fill="#000000"></path>
                                <path d="M8.33103448,16 L1.04827586,16 C0.468965517,16 0,15.5310345 0,14.9517241 L0,1.04827586 C0,0.468965517 0.468965517,0 1.04827586,0 L8.33103448,0 C8.91034483,0 9.37931034,0.468965517 9.37931034,1.04827586 L9.37931034,14.9517241 C9.37931034,15.5310345 8.91034483,16 8.33103448,16 Z M1.04827586,0.827586207 C0.924137931,0.827586207 0.827586207,0.924137931 0.827586207,1.04827586 L0.827586207,14.9517241 C0.827586207,15.0758621 0.924137931,15.1724138 1.04827586,15.1724138 L8.33103448,15.1724138 C8.45517241,15.1724138 8.55172414,15.0758621 8.55172414,14.9517241 L8.55172414,1.04827586 C8.55172414,0.924137931 8.45517241,0.827586207 8.33103448,0.827586207 L1.04827586,0.827586207 Z" id="Shape" fill="#005350"></path>
                                <path d="M5.95862069,2.06896552 L3.42068966,2.06896552 C3.1862069,2.06896552 3.00689655,1.88965517 3.00689655,1.65517241 C3.00689655,1.42068966 3.1862069,1.24137931 3.42068966,1.24137931 L5.94482759,1.24137931 C6.17931034,1.24137931 6.35862069,1.42068966 6.35862069,1.65517241 C6.35862069,1.88965517 6.17931034,2.06896552 5.95862069,2.06896552 Z" id="Path" fill="#A8B2C6"></path>
                                <path d="M4.68965517,14.6758621 C4.31724138,14.6758621 4,14.3586207 4,13.9862069 C4,13.6137931 4.31724138,13.2965517 4.68965517,13.2965517 C5.06206897,13.2965517 5.37931034,13.6137931 5.37931034,13.9862069 C5.37931034,14.3586207 5.06206897,14.6758621 4.68965517,14.6758621 Z" id="Path" fill="#FFFFFF"></path>
                            </g>
                        </g>
                    </g>
                </g>
            </g>
        </g>
    </g>
</svg>