<?xml version="1.0" encoding="UTF-8"?>
<svg width="15px" height="15px" viewBox="0 0 15 15" version="1.1" xmlns="http://www.w3.org/2000/svg" xmlns:xlink="http://www.w3.org/1999/xlink">
    <!-- Generator: Sketch 64 (93537) - https://sketch.com -->
    <title>icon-save-white</title>
    <desc>Created with Sketch.</desc>
    <g id="Reports" stroke="none" stroke-width="1" fill="none" fill-rule="evenodd">
        <g id="AP-LandingPage-Header-Total-Invoice-fixed-view" transform="translate(-1816.000000, -115.000000)" fill="#FFFFFF" fill-rule="nonzero">
            <g id="ap-nav" transform="translate(1161.000000, 103.000000)">
                <g id="Group-12">
                    <g id="Group-10" transform="translate(87.000000, 0.000000)">
                        <path d="M569.022727,12 C568.458864,12 568,12.4588636 568,13.0227273 L568,23.9318182 C568,24.4956818 568.458864,24.9545455 569.022727,24.9545455 L569.363636,24.9545455 L569.363636,24.2727273 L569.022727,24.2727273 C568.834886,24.2727273 568.681818,24.1196591 568.681818,23.9318182 L568.681818,13.0227273 C568.681818,12.8348864 568.834886,12.6818182 569.022727,12.6818182 L577.745206,12.6818182 L578.427024,13.3636364 L579.391157,13.3636364 L578.127397,12.0998757 C578.063647,12.0357848 577.976705,12 577.886364,12 L569.022727,12 Z M573.10831,14.0407893 C573.091794,14.0411516 573.075327,14.0427093 573.059038,14.0454545 L571.068182,14.0454545 C570.507397,14.0454545 570.045455,14.5073966 570.045455,15.0681818 L570.045455,25.9772727 C570.045455,26.538058 570.507397,27 571.068182,27 L581.977273,27 C582.538058,27 583,26.538058 583,25.9772727 L583,17.1136364 C583,17.0232276 582.964057,16.9365275 582.900124,16.8726031 L580.202814,14.175293 C580.126666,14.0754965 580.001838,14.0256167 579.877885,14.0454545 L573.166238,14.0454545 C573.147096,14.0422551 573.127716,14.0407893 573.10831,14.0407893 Z M571.068182,14.7272727 L572.772727,14.7272727 L572.772727,18.4772727 C572.772727,19.038058 573.234669,19.5 573.795455,19.5 L579.25,19.5 C579.810785,19.5 580.272727,19.038058 580.272727,18.4772727 L580.272727,15.2093393 L582.318182,17.2547939 L582.318182,25.9772727 C582.318182,26.1698966 582.169897,26.3181818 581.977273,26.3181818 L580.272727,26.3181818 L580.272727,22.2272727 C580.272727,21.6663222 579.810951,21.2045455 579.25,21.2045455 L573.795455,21.2045455 C573.234504,21.2045455 572.772727,21.6663222 572.772727,22.2272727 L572.772727,26.3181818 L571.068182,26.3181818 C570.875558,26.3181818 570.727273,26.1698966 570.727273,25.9772727 L570.727273,15.0681818 C570.727273,14.875558 570.875558,14.7272727 571.068182,14.7272727 Z M573.454545,14.7272727 L579.590909,14.7272727 L579.590909,18.4772727 C579.590909,18.6698966 579.442624,18.8181818 579.25,18.8181818 L573.795455,18.8181818 C573.602831,18.8181818 573.454545,18.6698966 573.454545,18.4772727 L573.454545,14.7272727 Z M577.545455,15.4090909 L577.545455,18.1363636 L578.568182,18.1363636 L578.568182,15.4090909 L577.545455,15.4090909 Z M573.795455,21.8863636 L579.25,21.8863636 C579.439049,21.8863636 579.590909,22.0382233 579.590909,22.2272727 L579.590909,26.3181818 L573.454545,26.3181818 L573.454545,22.2272727 C573.454545,22.0382233 573.606405,21.8863636 573.795455,21.8863636 Z M571.409091,24.9545455 L571.409091,25.6363636 L572.090909,25.6363636 L572.090909,24.9545455 L571.409091,24.9545455 Z M580.954545,24.9545455 L580.954545,25.6363636 L581.636364,25.6363636 L581.636364,24.9545455 L580.954545,24.9545455 Z" id="icon-save-white"></path>
                    </g>
                </g>
            </g>
        </g>
    </g>
</svg>