<?xml version="1.0" encoding="UTF-8"?>
<svg width="11px" height="11px" viewBox="0 0 11 11" version="1.1" xmlns="http://www.w3.org/2000/svg" xmlns:xlink="http://www.w3.org/1999/xlink">
    <!-- Generator: Sketch 64 (93537) - https://sketch.com -->
    <title>icon-time</title>
    <desc>Created with Sketch.</desc>
    <g id="Symbols" stroke="none" stroke-width="1" fill="none" fill-rule="evenodd">
        <g id="scheduled" transform="translate(-386.000000, -35.000000)" fill="#000000" fill-rule="nonzero">
            <g id="Group-13">
                <g id="Group-9">
                    <g id="Group-8" transform="translate(278.000000, 32.000000)">
                        <path d="M112.065217,3 L112.065217,3.7173913 L112.543478,3.7173913 L112.543478,3.97987431 C109.996815,4.22134349 108,6.36906613 108,8.97826087 C108,11.7488584 110.251142,14 113.021739,14 C115.792337,14 118.043478,11.7488584 118.043478,8.97826087 C118.043478,6.36906613 116.046664,4.22134349 113.5,3.97987431 L113.5,3.7173913 L113.978261,3.7173913 L113.978261,3 L112.065217,3 Z M116.665209,3.75242018 L116.185547,4.23208221 L117.28919,5.33572517 L117.768852,4.85606319 L116.665209,3.75242018 Z M113.021739,4.43478261 C115.533865,4.43478261 117.565217,6.46613467 117.565217,8.97826087 C117.565217,11.4903871 115.533865,13.5217391 113.021739,13.5217391 C110.509613,13.5217391 108.478261,11.4903871 108.478261,8.97826087 C108.478261,6.46613467 110.509613,4.43478261 113.021739,4.43478261 Z M110.628099,6.34549074 C110.530792,6.34549074 110.443202,6.40449754 110.406586,6.49465323 C110.369969,6.58480892 110.391629,6.68816109 110.461362,6.75602915 L112.560292,8.85495924 C112.549341,8.89515212 112.543689,8.93660347 112.543478,8.97826087 C112.543478,9.24239705 112.757603,9.45652174 113.021739,9.45652174 C113.063532,9.45650405 113.105143,9.45100834 113.145508,9.44017502 L113.570058,9.8647248 C113.630036,9.92719543 113.7191,9.95236028 113.802901,9.93051409 C113.886703,9.90866789 113.952146,9.84322437 113.973992,9.75942301 C113.995839,9.67562165 113.970674,9.58655742 113.908203,9.52657954 L113.483186,9.1015625 C113.494137,9.06136962 113.499789,9.01991827 113.5,8.97826087 C113.5,8.71412468 113.285875,8.5 113.021739,8.5 C112.979946,8.50001768 112.938335,8.5055134 112.89797,8.51634672 L110.799507,6.41788389 C110.754486,6.37160426 110.692665,6.34549074 110.628099,6.34549074 Z" id="icon-time"></path>
                    </g>
                </g>
            </g>
        </g>
    </g>
</svg>