<?xml version="1.0" encoding="UTF-8"?>
<svg width="20px" height="20px" viewBox="0 0 20 20" version="1.1" xmlns="http://www.w3.org/2000/svg" xmlns:xlink="http://www.w3.org/1999/xlink">
    <!-- Generator: Sketch 61.2 (89653) - https://sketch.com -->
    <title>ach</title>
    <desc>Created with Sketch.</desc>
    <g id="Invoice-template-flow" stroke="none" stroke-width="1" fill="none" fill-rule="evenodd">
        <g id="New-Invoice" transform="translate(-594.000000, -1623.000000)" fill="#00433F" fill-rule="nonzero">
            <g id="Group-6" transform="translate(98.000000, 322.000000)">
                <path d="M505.780585,1301.41966 C505.545897,1301.42338 505.358488,1301.61637 505.361702,1301.85106 L505.361702,1310.10406 L502.683843,1307.4262 C502.603728,1307.34384 502.493717,1307.29738 502.378823,1307.29737 C502.205664,1307.29742 502.049798,1307.40238 501.98464,1307.56281 C501.919481,1307.72324 501.958025,1307.90715 502.082114,1308.02793 L505.448969,1311.39478 C505.472302,1311.4255 505.499703,1311.4529 505.530419,1311.47623 L505.787234,1311.73305 L506.045711,1311.47457 C506.076079,1311.45143 506.103195,1311.42432 506.12633,1311.39395 L509.492354,1308.02793 C509.603517,1307.92119 509.648295,1307.76271 509.60942,1307.61358 C509.570544,1307.46446 509.454089,1307.34801 509.304967,1307.30913 C509.155844,1307.27026 508.997356,1307.31503 508.890625,1307.4262 L506.212766,1310.10406 L506.212766,1301.85106 C506.214341,1301.73604 506.169287,1301.62528 506.087868,1301.54402 C506.00645,1301.46276 505.895603,1301.41792 505.780585,1301.41966 Z M502.827626,1301.9109 C502.775102,1301.90905 502.722689,1301.91694 502.673039,1301.93418 C498.793942,1303.23581 496,1306.90054 496,1311.21277 C496,1316.61296 500.387036,1321 505.787234,1321 C511.187432,1321 515.574468,1316.61296 515.574468,1311.21277 C515.574468,1306.90054 512.780526,1303.23581 508.901429,1301.93418 C508.678578,1301.85936 508.437269,1301.97936 508.36245,1302.20221 C508.287631,1302.42506 508.407635,1302.66637 508.630486,1302.74119 C512.170112,1303.92892 514.723404,1307.26797 514.723404,1311.21277 C514.723404,1316.15299 510.727461,1320.14894 505.787234,1320.14894 C500.847007,1320.14894 496.851064,1316.15299 496.851064,1311.21277 C496.851064,1307.26797 499.404356,1303.92892 502.943983,1302.74119 C503.140694,1302.67763 503.263277,1302.48189 503.234586,1302.27717 C503.205896,1302.07244 503.034233,1301.91795 502.827626,1301.9109 Z" id="ach"></path>
            </g>
        </g>
    </g>
</svg>