<?xml version="1.0" encoding="UTF-8"?>
<svg width="24px" height="24px" viewBox="0 0 24 24" version="1.1" xmlns="http://www.w3.org/2000/svg" xmlns:xlink="http://www.w3.org/1999/xlink">
    <!-- Generator: Sketch 62 (91390) - https://sketch.com -->
    <title>add-dark-green</title>
    <desc>Created with Sketch.</desc>
    <g id="Invoice-template-flow" stroke="none" stroke-width="1" fill="none" fill-rule="evenodd">
        <g id="Invoice-view" transform="translate(-195.000000, -1140.000000)" fill="#015250" fill-rule="nonzero">
            <g id="Group-5" transform="translate(153.000000, 261.000000)">
                <g id="Group-16" transform="translate(22.000000, 584.000000)">
                    <g id="Group-3">
                        <g id="Group-20" transform="translate(0.000000, 149.000000)">
                            <g id="Group-23" transform="translate(1.000000, 126.000000)">
                                <path d="M31,20 C24.373,20 19,25.373 19,32 C19,38.627 24.373,44 31,44 C37.627,44 43,38.627 43,32 C43,25.373 37.627,20 31,20 Z M37,33 L32,33 L32,38 C32,38.553 31.552,39 31,39 C30.448,39 30,38.553 30,38 L30,33 L25,33 C24.448,33 24,32.553 24,32 C24,31.447 24.448,31 25,31 L30,31 L30,26 C30,25.447 30.448,25 31,25 C31.552,25 32,25.447 32,26 L32,31 L37,31 C37.552,31 38,31.447 38,32 C38,32.553 37.552,33 37,33 Z" id="add-dark-green"></path>
                            </g>
                        </g>
                    </g>
                </g>
            </g>
        </g>
    </g>
</svg>