<?xml version="1.0" encoding="UTF-8"?>
<svg width="42px" height="46px" viewBox="0 0 42 46" version="1.1" xmlns="http://www.w3.org/2000/svg" xmlns:xlink="http://www.w3.org/1999/xlink">
    <!-- Generator: Sketch 61.2 (89653) - https://sketch.com -->
    <title>bill-to</title>
    <desc>Created with Sketch.</desc>
    <g id="Invoice-template-flow" stroke="none" stroke-width="1" fill="none" fill-rule="evenodd">
        <g id="Invoice-template-Creation" transform="translate(-339.000000, -790.000000)" fill="#015250" fill-rule="nonzero">
            <g id="Group-5" transform="translate(156.000000, 410.000000)">
                <g id="Group-4" transform="translate(19.000000, 0.000000)">
                    <g id="Group-10">
                        <path d="M195,380 C192.03125,380 189.433594,381.730469 188.050781,384.265625 C187.097656,384.113281 186.132813,384.019531 185.199219,384.007813 L185.199219,384 L185,384 C173.398438,384 164,393.398438 164,405 C164,416.601563 173.398438,426 185,426 C196.601563,426 206,416.601563 206,405 C206,400.511719 204.476563,396.117188 201.839844,392.5625 C202.535156,390.96875 203,389.5 203,388.402344 C203,383.800781 199.398438,380 195,380 Z M195,382 C198.300781,382 201,384.898438 201,388.402344 C201,390.800781 197.800781,396.398438 195,400.5 C192.199219,396.398438 189,390.800781 189,388.402344 C189,384.898438 191.699219,382 195,382 Z M195,384 C192.800781,384 191,385.800781 191,388 C191,390.199219 192.800781,392 195,392 C197.199219,392 199,390.199219 199,388 C199,385.800781 197.199219,384 195,384 Z M195,386 C196.117188,386 197,386.882813 197,388 C197,389.117188 196.117188,390 195,390 C193.882813,390 193,389.117188 193,388 C193,386.882813 193.882813,386 195,386 Z M186,386.046875 C186.425781,386.066406 186.863281,386.105469 187.300781,386.15625 C187.113281,386.875 187,387.625 187,388.402344 C187,389.824219 187.769531,391.863281 188.828125,394 L186,394 L186,386.046875 Z M184,386.132813 L184,394 L177.71875,394 C179.179688,389.746094 181.4375,386.757813 184,386.132813 Z M179.398438,386.839844 C177.824219,388.578125 176.519531,391.035156 175.585938,394 L169.523438,394 C171.917969,390.640625 175.363281,388.082031 179.398438,386.839844 Z M200.855469,394.613281 C202.734375,397.375 203.785156,400.632813 203.960938,404 L195.992188,404 C195.988281,403.542969 195.96875,403.101563 195.941406,402.648438 C197.097656,400.980469 199.160156,397.890625 200.855469,394.613281 Z M168.265625,396 L175.03125,396 C174.445313,398.433594 174.09375,401.128906 174.027344,404 L166.050781,404 C166.199219,401.117188 166.96875,398.402344 168.265625,396 Z M177.109375,396 L184,396 L184,404 L176.027344,404 C176.101563,401.136719 176.476563,398.414063 177.109375,396 Z M186,396 L189.898438,396 C191.339844,398.589844 192.875,400.929688 193.902344,402.421875 C193.933594,402.9375 193.953125,403.46875 193.96875,404 L186,404 L186,396 Z M166.050781,406 L174.027344,406 C174.09375,408.871094 174.445313,411.566406 175.03125,414 L168.265625,414 C166.96875,411.597656 166.199219,408.882813 166.050781,406 Z M176.027344,406 L184,406 L184,414 L177.109375,414 C176.476563,411.585938 176.101563,408.863281 176.027344,406 Z M186,406 L193.972656,406 C193.898438,408.863281 193.523438,411.585938 192.890625,414 L186,414 L186,406 Z M195.972656,406 L203.949219,406 C203.800781,408.882813 203.03125,411.597656 201.734375,414 L194.96875,414 C195.554688,411.566406 195.90625,408.871094 195.972656,406 Z M169.523438,416 L175.585938,416 C176.519531,418.964844 177.824219,421.421875 179.398438,423.160156 C175.363281,421.917969 171.917969,419.359375 169.523438,416 Z M177.71875,416 L184,416 L184,423.871094 C181.441406,423.242188 179.179688,420.253906 177.71875,416 Z M186,416 L192.28125,416 C190.820313,420.253906 188.558594,423.242188 186,423.871094 L186,416 Z M194.414063,416 L200.476563,416 C198.082031,419.359375 194.636719,421.917969 190.601563,423.160156 C192.175781,421.421875 193.480469,418.964844 194.414063,416 Z" id="bill-to"></path>
                    </g>
                </g>
            </g>
        </g>
    </g>
</svg>