<?xml version="1.0" encoding="UTF-8"?>
<svg width="66px" height="67px" viewBox="0 0 66 67" version="1.1" xmlns="http://www.w3.org/2000/svg" xmlns:xlink="http://www.w3.org/1999/xlink">
    <!-- Generator: Sketch 61.2 (89653) - https://sketch.com -->
    <title>create-new-template-icon</title>
    <desc>Created with Sketch.</desc>
    <g id="Invoice-template-flow" stroke="none" stroke-width="1" fill="none" fill-rule="evenodd">
        <g id="Invoice-template-landing-page" transform="translate(-222.000000, -345.000000)" fill-rule="nonzero">
            <g id="invoice-tile" transform="translate(157.000000, 275.000000)">
                <g id="create-new-template-icon" transform="translate(65.000000, 70.000000)">
                    <path d="M1.23809524,0 C0.554342439,0 0,0.554342439 0,1.23809524 L0,50.7619048 C0,51.4456576 0.554342439,52 1.23809524,52 L50.7619048,52 C51.4456576,52 52,51.4456576 52,50.7619048 L52,1.23809524 C52,0.554342439 51.4456576,0 50.7619048,0 L1.23809524,0 Z M2.47619048,2.47619048 L49.5238095,2.47619048 L49.5238095,7.42857143 L2.47619048,7.42857143 L2.47619048,2.47619048 Z M2.47619048,9.9047619 L49.5238095,9.9047619 L49.5238095,49.5238095 L2.47619048,49.5238095 L2.47619048,9.9047619 Z M7.42857143,13.6190476 C6.74481863,13.6190476 6.19047619,14.1733901 6.19047619,14.8571429 L6.19047619,19.8095238 C6.19047619,20.4932766 6.74481863,21.047619 7.42857143,21.047619 L44.5714286,21.047619 C45.2551814,21.047619 45.8095238,20.4932766 45.8095238,19.8095238 L45.8095238,14.8571429 C45.8095238,14.1733901 45.2551814,13.6190476 44.5714286,13.6190476 L7.42857143,13.6190476 Z M8.66666667,16.0952381 L43.3333333,16.0952381 L43.3333333,18.5714286 L8.66666667,18.5714286 L8.66666667,16.0952381 Z M8.66666667,23.5238095 C7.31335082,23.5238095 6.19047619,24.6466839 6.19047619,26 L6.19047619,43.3333333 C6.19047619,44.6866494 7.31335082,45.8095238 8.66666667,45.8095238 L22.2857143,45.8095238 C23.6390304,45.8095238 24.7619048,44.6866494 24.7619048,43.3333333 L24.7619048,26 C24.7619048,24.6466839 23.6390304,23.5238095 22.2857143,23.5238095 L8.66666667,23.5238095 Z M29.7142857,23.5238095 C28.3609696,23.5238095 27.2380952,24.6466839 27.2380952,26 L27.2380952,43.3333333 C27.2380952,44.6866494 28.3609696,45.8095238 29.7142857,45.8095238 L43.3333333,45.8095238 C44.6866494,45.8095238 45.8095238,44.6866494 45.8095238,43.3333333 L45.8095238,26 C45.8095238,24.6466839 44.6866494,23.5238095 43.3333333,23.5238095 L29.7142857,23.5238095 Z M8.66666667,26 L22.2857143,26 L22.2857143,43.3333333 L8.66666667,43.3333333 L8.66666667,26 Z M29.7142857,26 L43.3333333,26 L43.3333333,43.3333333 L29.7142857,43.3333333 L29.7142857,26 Z" id="Shape" fill="#00433F"></path>
                    <path d="M54,43 C47.373,43 42,48.373 42,55 C42,61.627 47.373,67 54,67 C60.627,67 66,61.627 66,55 C66,48.373 60.627,43 54,43 Z M60,56 L55,56 L55,61 C55,61.553 54.552,62 54,62 C53.448,62 53,61.553 53,61 L53,56 L48,56 C47.448,56 47,55.553 47,55 C47,54.447 47.448,54 48,54 L53,54 L53,49 C53,48.447 53.448,48 54,48 C54.552,48 55,48.447 55,49 L55,54 L60,54 C60.552,54 61,54.447 61,55 C61,55.553 60.552,56 60,56 Z" id="Shape" fill="#5AC445"></path>
                </g>
            </g>
        </g>
    </g>
</svg>