<?xml version="1.0" encoding="UTF-8"?>
<svg width="18px" height="22px" viewBox="0 0 18 22" version="1.1" xmlns="http://www.w3.org/2000/svg" xmlns:xlink="http://www.w3.org/1999/xlink">
    <!-- Generator: Sketch 61.2 (89653) - https://sketch.com -->
    <title>delete</title>
    <desc>Created with Sketch.</desc>
    <g id="Invoice-template-flow" stroke="none" stroke-width="1" fill="none" fill-rule="evenodd">
        <g id="Invoice-template-landing-page-Copy" transform="translate(-1840.000000, -147.000000)" fill="#00433F" fill-rule="nonzero">
            <path d="M1846.6,147 L1845.5,148.1 L1840,148.1 L1840,150.3 L1857.6,150.3 L1857.6,148.1 L1852.1,148.1 L1851,147 L1846.6,147 Z M1841.1,152.5 L1841.1,166.8 C1841.1,168.01 1842.09,169 1843.3,169 L1854.3,169 C1855.51,169 1856.5,168.01 1856.5,166.8 L1856.5,152.5 L1841.1,152.5 Z M1844.4,154.7 L1846.6,154.7 L1846.6,166.8 L1844.4,166.8 L1844.4,154.7 Z M1851,154.7 L1853.2,154.7 L1853.2,166.8 L1851,166.8 L1851,154.7 Z" id="delete"></path>
        </g>
    </g>
</svg>