<?xml version="1.0" encoding="UTF-8"?>
<svg width="16px" height="16px" viewBox="0 0 16 16" version="1.1" xmlns="http://www.w3.org/2000/svg" xmlns:xlink="http://www.w3.org/1999/xlink">
    <!-- Generator: Sketch 62 (91390) - https://sketch.com -->
    <title>popup-add</title>
    <desc>Created with Sketch.</desc>
    <g id="Invoice-template-flow" stroke="none" stroke-width="1" fill="none" fill-rule="evenodd">
        <g id="Invoice-view" transform="translate(-925.000000, -813.000000)" fill="#FFFFFF" fill-rule="nonzero">
            <g id="Group-19" transform="translate(578.000000, 337.000000)">
                <g id="Group-18" transform="translate(306.000000, 461.000000)">
                    <path d="M49,15 C44.5697114,15 41,18.5697114 41,23 C41,27.4302886 44.5697114,31 49,31 C53.4302886,31 57,27.4302886 57,23 C57,22.1394234 56.8846154,21.2812498 56.5769231,20.4807692 L55.5769231,21.4615385 C55.6995194,21.9543268 55.7692308,22.4471157 55.7692308,23 C55.7692308,26.754808 52.754808,29.7692308 49,29.7692308 C45.2451926,29.7692308 42.2307692,26.754808 42.2307692,23 C42.2307692,19.2451926 45.2451926,16.2307692 49,16.2307692 C50.8461538,16.2307692 52.504808,16.9663465 53.6730769,18.1346154 L54.5384615,17.2692308 C53.1225963,15.8533655 51.1538462,15 49,15 Z M55.9423077,17.6346154 L49,24.5769231 L46.3653846,21.9423077 L45.4807692,22.8269231 L48.5576923,25.9038462 L49,26.3269231 L49.4423077,25.9038462 L56.8269231,18.5192308 L55.9423077,17.6346154 Z" id="popup-add"></path>
                </g>
            </g>
        </g>
    </g>
</svg>