<?xml version="1.0" encoding="UTF-8"?>
<svg width="16px" height="17px" viewBox="0 0 16 17" version="1.1" xmlns="http://www.w3.org/2000/svg" xmlns:xlink="http://www.w3.org/1999/xlink">
    <!-- Generator: Sketch 61.2 (89653) - https://sketch.com -->
    <title>preview</title>
    <desc>Created with Sketch.</desc>
    <g id="Invoice-template-flow" stroke="none" stroke-width="1" fill="none" fill-rule="evenodd">
        <g id="New-Invoice" transform="translate(-1289.000000, -132.000000)" fill="#00433F" fill-rule="nonzero">
            <g id="Group" transform="translate(1127.000000, 118.000000)">
                <g id="icons8-file_preview" transform="translate(162.000000, 14.000000)">
                    <path d="M9.19085106,0 L0,0 L0,15.9148936 L6.25382979,15.9148936 C5.96085106,15.6580851 5.7112766,15.4085106 5.5087234,15.1914894 L0.723404255,15.1914894 L0.723404255,0.723404255 L8.68085106,0.723404255 L8.68085106,4.34042553 L12.2978723,4.34042553 L12.2978723,10.1602128 C12.5510638,10.2578723 12.7897872,10.377234 13.0212766,10.5074468 L13.0212766,3.83042553 L9.19085106,0 Z M9.40425532,3.61702128 L9.40425532,1.23702128 L11.7878723,3.61702128 L9.40425532,3.61702128 Z M10.4893617,17 C7.74042553,17 5.57021277,14.0702128 5.49787234,13.9617021 L5.35319149,13.7446809 L5.49787234,13.5276596 C5.57021277,13.4191489 7.74042553,10.4893617 10.4893617,10.4893617 C13.2382979,10.4893617 15.4085106,13.4191489 15.4808511,13.5276596 L15.6255319,13.7446809 L15.4808511,13.9617021 C15.4085106,14.0702128 13.2382979,17 10.4893617,17 Z M6.25744681,13.7446809 C6.8,14.3957447 8.5,16.2765957 10.4893617,16.2765957 C12.4787234,16.2765957 14.2148936,14.3957447 14.7212766,13.7446809 C14.2148936,13.093617 12.4787234,11.212766 10.4893617,11.212766 C8.5,11.212766 6.76382979,13.093617 6.25744681,13.7446809 Z M10.4893617,15.9148936 C9.29574468,15.9148936 8.31914894,14.9382979 8.31914894,13.7446809 C8.31914894,12.5510638 9.29574468,11.5744681 10.4893617,11.5744681 C11.6829787,11.5744681 12.6595745,12.5510638 12.6595745,13.7446809 C12.6595745,14.9382979 11.6829787,15.9148936 10.4893617,15.9148936 Z M10.4893617,12.2978723 C9.69361702,12.2978723 9.04255319,12.9489362 9.04255319,13.7446809 C9.04255319,14.5404255 9.69361702,15.1914894 10.4893617,15.1914894 C11.2851064,15.1914894 11.9361702,14.5404255 11.9361702,13.7446809 C11.9361702,12.9489362 11.2851064,12.2978723 10.4893617,12.2978723 Z M9.76595745,13.7446809 C9.76595745,14.1425532 10.0914894,14.4680851 10.4893617,14.4680851 C10.887234,14.4680851 11.212766,14.1425532 11.212766,13.7446809 C11.212766,13.3468085 10.887234,13.0212766 10.4893617,13.0212766 C10.0914894,13.0212766 9.76595745,13.3468085 9.76595745,13.7446809 Z" id="preview"></path>
                </g>
            </g>
        </g>
    </g>
</svg>