<?xml version="1.0" encoding="UTF-8"?>
<svg width="46px" height="46px" viewBox="0 0 46 46" version="1.1" xmlns="http://www.w3.org/2000/svg" xmlns:xlink="http://www.w3.org/1999/xlink">
    <!-- Generator: Sketch 61.2 (89653) - https://sketch.com -->
    <title>reminder</title>
    <desc>Created with Sketch.</desc>
    <g id="Invoice-template-flow" stroke="none" stroke-width="1" fill="none" fill-rule="evenodd">
        <g id="New-Invoice-Email" transform="translate(-623.000000, -393.000000)">
            <g id="Group-19" transform="translate(577.000000, 337.000000)">
                <g id="reminder" transform="translate(45.825304, 56.000000)">
                    <rect id="Rectangle" fill="#F1F1F1" x="0.174696209" y="0" width="46" height="46" rx="23"></rect>
                    <path d="M25.506402,14 C23.800152,14 22.094527,14.6514583 20.7928604,15.953125 L19.137587,17.6067708 C18.2009201,18.5434375 17.0876129,19.27319 15.8726129,19.7698567 L26.403212,30.3004558 C26.8998787,29.0854558 27.6296312,27.9729817 28.5662979,27.0354817 L30.2215712,25.3802083 C32.4455029,23.1562767 32.7624545,19.7550125 31.1867404,17.186849 C31.7869725,16.9192232 32.1738957,16.3238588 32.1746962,15.6666667 C32.1746962,14.7461921 31.4285041,14 30.5080295,14 C29.8508373,14.0008005 29.2554729,14.3877236 28.987847,14.9879557 C27.9225379,14.3340164 26.7157787,14 25.506402,14 Z M13.8332249,19.825195 C13.4941222,19.825195 13.1888838,20.0308245 13.0612822,20.3450035 C12.9336805,20.6591824 13.0091606,21.0193492 13.2521702,21.2558592 L17.772027,25.7757158 C16.919635,26.0569074 16.3431622,26.8524269 16.3413629,27.75 C16.3413629,28.9005932 17.274103,29.8333333 18.4246962,29.8333333 C19.322436,29.8324671 20.1186619,29.2566134 20.4006079,28.4042967 L24.918837,32.9225258 C25.1278509,33.1402265 25.4382262,33.2279222 25.7302613,33.1517915 C26.0222963,33.0756608 26.250357,32.8476001 26.3264877,32.555565 C26.4026184,32.26353 26.3149227,31.9531546 26.097222,31.7441408 L14.4305555,20.0774742 C14.2736631,19.9161967 14.0582264,19.825195 13.8332249,19.825195 Z" id="Shape" fill="#00433F" fill-rule="nonzero"></path>
                </g>
            </g>
        </g>
    </g>
</svg>