<?xml version="1.0" encoding="UTF-8"?>
<svg width="65px" height="56px" viewBox="0 0 65 56" version="1.1" xmlns="http://www.w3.org/2000/svg" xmlns:xlink="http://www.w3.org/1999/xlink">
    <!-- Generator: Sketch 61.2 (89653) - https://sketch.com -->
    <title>upload-icon</title>
    <desc>Created with Sketch.</desc>
    <g id="Invoice-template-flow" stroke="none" stroke-width="1" fill="none" fill-rule="evenodd">
        <g id="Invoice-template-Creation" transform="translate(-235.000000, -449.000000)">
            <g id="Group-5" transform="translate(156.000000, 410.000000)">
                <g id="Group-4" transform="translate(19.000000, 0.000000)">
                    <g id="Group-10">
                        <g id="Group-2" transform="translate(60.000000, 39.000000)">
                            <g id="upload-icon" transform="translate(0.000000, 0.000000)">
                                <g id="icons8-file" fill-rule="nonzero">
                                    <path d="M39.3584906,54.4150943 L7.13207547,54.4150943 C4.22641509,54.4150943 1.8490566,52.0377358 1.8490566,49.1320755 L1.8490566,6.86792453 C1.8490566,3.96226415 4.22641509,1.58490566 7.13207547,1.58490566 L39.3584906,1.58490566 C42.2641509,1.58490566 44.6415094,3.96226415 44.6415094,6.86792453 L44.6415094,49.1320755 C44.6415094,52.0377358 42.2641509,54.4150943 39.3584906,54.4150943 Z" id="Path" fill="#FFFFFF"></path>
                                    <rect id="Rectangle" fill="#C7D7E2" x="7.13207547" y="6.86792453" width="32.2264151" height="7.9245283"></rect>
                                    <path d="M36.1886792,25.3584906 L9.24528302,25.3584906 C8.34716981,25.3584906 7.66037736,24.6716981 7.66037736,23.7735849 C7.66037736,22.8754717 8.34716981,22.1886792 9.24528302,22.1886792 L36.1886792,22.1886792 C37.0867925,22.1886792 37.7735849,22.8754717 37.7735849,23.7735849 C37.7735849,24.6716981 37.0867925,25.3584906 36.1886792,25.3584906 Z" id="Path" fill="#C7D7E2"></path>
                                    <path d="M36.1886792,33.2830189 L9.24528302,33.2830189 C8.34716981,33.2830189 7.66037736,32.5962264 7.66037736,31.6981132 C7.66037736,30.8 8.34716981,30.1132075 9.24528302,30.1132075 L36.1886792,30.1132075 C37.0867925,30.1132075 37.7735849,30.8 37.7735849,31.6981132 C37.7735849,32.5962264 37.0867925,33.2830189 36.1886792,33.2830189 Z" id="Path" fill="#C7D7E2"></path>
                                    <path d="M23.245283,41.2075472 L9.24528302,41.2075472 C8.34716981,41.2075472 7.66037736,40.5207547 7.66037736,39.6226415 C7.66037736,38.7245283 8.34716981,38.0377358 9.24528302,38.0377358 L23.245283,38.0377358 C24.1433962,38.0377358 24.8301887,38.7245283 24.8301887,39.6226415 C24.8301887,40.5207547 24.1433962,41.2075472 23.245283,41.2075472 Z" id="Path" fill="#C7D7E2"></path>
                                    <path d="M39.3584906,56 L7.13207547,56 C3.32830189,56 0.264150943,52.9358491 0.264150943,49.1320755 L0.264150943,6.86792453 C0.264150943,3.06415094 3.32830189,0 7.13207547,0 L39.3584906,0 C43.1622642,0 46.2264151,3.06415094 46.2264151,6.86792453 L46.2264151,49.1320755 C46.2264151,52.9358491 43.1622642,56 39.3584906,56 Z M7.13207547,3.16981132 C5.07169811,3.16981132 3.43396226,4.80754717 3.43396226,6.86792453 L3.43396226,49.1320755 C3.43396226,51.1924528 5.07169811,52.8301887 7.13207547,52.8301887 L39.3584906,52.8301887 C41.4188679,52.8301887 43.0566038,51.1924528 43.0566038,49.1320755 L43.0566038,6.86792453 C43.0566038,4.80754717 41.4188679,3.16981132 39.3584906,3.16981132 L7.13207547,3.16981132 Z" id="Shape" fill="#015250"></path>
                                </g>
                                <circle id="Oval" fill="#34CC67" cx="47.3846154" cy="38.7692308" r="17.2307692"></circle>
                                <path d="M47.3846154,30.1538462 L42.2153846,35.3230769 L45.6615385,35.3230769 L45.6615385,42.2153846 C45.6615385,42.6909538 46.0475077,43.0769231 46.5230769,43.0769231 L48.2461538,43.0769231 C48.7217231,43.0769231 49.1076923,42.6909538 49.1076923,42.2153846 L49.1076923,35.3230769 L52.5538462,35.3230769 L47.3846154,30.1538462 Z M38.7692308,45.6615385 L38.7692308,47.3846154 L56,47.3846154 L56,45.6615385 L38.7692308,45.6615385 Z" id="Shape" fill="#FFFFFF" fill-rule="nonzero"></path>
                            </g>
                        </g>
                    </g>
                </g>
            </g>
        </g>
    </g>
</svg>