<?xml version="1.0" encoding="UTF-8"?>
<svg width="19px" height="18px" viewBox="0 0 19 18" version="1.1" xmlns="http://www.w3.org/2000/svg" xmlns:xlink="http://www.w3.org/1999/xlink">
    <!-- Generator: Sketch 64 (93537) - https://sketch.com -->
    <title>icon-schedule-active</title>
    <desc>Created with Sketch.</desc>
    <g id="Reports" stroke="none" stroke-width="1" fill="none" fill-rule="evenodd">
        <g id="AP-LandingPage-Header-Total-Invoice-fixed-view" transform="translate(-1266.000000, -114.000000)" fill="#FA6400" fill-rule="nonzero">
            <g id="ap-nav" transform="translate(1161.000000, 103.000000)">
                <g id="Group-12">
                    <g id="Group-10" transform="translate(87.000000, 0.000000)">
                        <g id="Group-7">
                            <path d="M23.25,11 C22.5336915,11 21.8408205,11.1201174 21.1875,11.4072267 C21.0615236,11.4570312 20.9721679,11.572754 20.9560549,11.7089844 C20.9384767,11.8452148 20.9970705,11.9785156 21.1083986,12.0576174 C21.2182616,12.1381835 21.364746,12.1513674 21.4877929,12.0927736 C22.0341799,11.854004 22.6171875,11.75 23.25,11.75 C25.7490236,11.75 27.75,13.7509767 27.75,16.25 C27.75,18.7490236 25.7490236,20.75 23.25,20.75 C20.7509767,20.75 18.75,18.7490236 18.75,16.25 C18.75,15.1103517 19.1865236,14.0908205 19.875,13.2822267 L19.875,14.2622071 C19.8735352,14.3969727 19.9438477,14.5229491 20.0610352,14.5917969 C20.1782227,14.6591799 20.3217773,14.6591799 20.4389648,14.5917969 C20.5561523,14.5229491 20.6264648,14.3969727 20.625,14.2622071 L20.625,12.125 L18.4877929,12.125 C18.3530273,12.1235352 18.2270509,12.1938477 18.1582031,12.3110352 C18.0908205,12.4282227 18.0908205,12.5717773 18.1582031,12.6889648 C18.2270509,12.8061523 18.3530273,12.8764648 18.4877929,12.875 L19.2348634,12.875 C18.4819335,13.7934571 18,14.958008 18,16.25 C18,19.1518554 20.3481446,21.5 23.25,21.5 C26.1518554,21.5 28.5,19.1518554 28.5,16.25 C28.5,13.3481446 26.1518554,11 23.25,11 Z M32.25,11 C31.8398438,11 31.5,11.3398438 31.5,11.75 L31.5,12.5 L27.9257812,12.5 C28.1162111,12.7358398 28.286133,12.9877929 28.4384767,13.25 L31.5,13.25 L31.5,14 C31.5,14.4101562 31.8398438,14.75 32.25,14.75 L33,14.75 C33.4101562,14.75 33.75,14.4101562 33.75,14 L33.75,13.25 L35.625,13.25 L35.625,15.875 L29.2309571,15.875 C29.2382812,15.9995116 29.25,16.1225585 29.25,16.25 C29.25,16.3774415 29.2382812,16.5004884 29.2309571,16.625 L35.625,16.625 L35.625,28.25 L19.875,28.25 L19.875,21.2070312 C19.6069335,21.0239259 19.359375,20.817383 19.125,20.5961915 L19.125,28.25 C19.125,28.6850585 19.4399415,29 19.875,29 L35.625,29 C36.0600585,29 36.375,28.6850585 36.375,28.25 L36.375,13.25 C36.375,12.8149415 36.0600585,12.5 35.625,12.5 L33.75,12.5 L33.75,11.75 C33.75,11.3398438 33.4101562,11 33,11 L32.25,11 Z M32.25,11.75 L33,11.75 L33,14 L32.25,14 L32.25,11.75 Z M23.2441406,12.8691013 C23.0375977,12.8735352 22.8720705,13.0434571 22.875,13.25 L22.875,16.1899415 C22.8632812,16.270508 22.8764648,16.3525392 22.9160156,16.4243165 C22.9497071,16.4916991 23.0039062,16.5473634 23.0698241,16.5839844 L24.525879,17.6752929 C24.6914062,17.7998049 24.9257812,17.7661134 25.0502929,17.599121 C25.1748049,17.4335938 25.1411134,17.1992188 24.974121,17.0747071 L23.625,16.0625 L23.625,13.25 C23.6264648,13.1489259 23.5869142,13.0507812 23.5151366,12.979004 C23.4433594,12.9072267 23.3452148,12.8676759 23.2441406,12.8691013 Z M28.9453125,18.125 C28.8603517,18.3842772 28.754883,18.6333009 28.6362304,18.875 L30,18.875 L30,20.75 L27.375,20.75 L27.375,23.375 L25.5,23.375 L25.5,21.8090821 C25.2583009,21.9072267 25.0063477,21.9863281 24.75,22.052246 L24.75,23.375 L22.875,23.375 L22.875,22.2309571 C22.6201174,22.2148438 22.369629,22.1870116 22.125,22.1401366 L22.125,26.75 L33.375,26.75 L33.375,18.125 L28.9453125,18.125 Z M30.75,18.875 L32.625,18.875 L32.625,20.75 L30.75,20.75 L30.75,18.875 Z M28.125,21.5 L30,21.5 L30,23.375 L28.125,23.375 L28.125,21.5 Z M30.75,21.5 L32.625,21.5 L32.625,23.375 L30.75,23.375 L30.75,21.5 Z M22.875,24.125 L24.75,24.125 L24.75,26 L22.875,26 L22.875,24.125 Z M25.5,24.125 L27.375,24.125 L27.375,26 L25.5,26 L25.5,24.125 Z M28.125,24.125 L30,24.125 L30,26 L28.125,26 L28.125,24.125 Z M30.75,24.125 L32.625,24.125 L32.625,26 L30.75,26 L30.75,24.125 Z" id="icon-schedule-active"></path>
                        </g>
                    </g>
                </g>
            </g>
        </g>
    </g>
</svg>