<?xml version="1.0" encoding="UTF-8"?>
<svg width="24px" height="23px" viewBox="0 0 24 23" version="1.1" xmlns="http://www.w3.org/2000/svg" xmlns:xlink="http://www.w3.org/1999/xlink">
    <!-- Generator: Sketch 64 (93537) - https://sketch.com -->
    <title>icon-customise</title>
    <desc>Created with Sketch.</desc>
    <g id="Reports" stroke="none" stroke-width="1" fill="none" fill-rule="evenodd">
        <g id="AP-LandingPage-Header-Total-Invoice-fixed-view" transform="translate(-390.000000, -227.000000)" fill="#6D7278" fill-rule="nonzero">
            <g id="Group-3" transform="translate(156.000000, 216.000000)">
                <path d="M244.903289,11.0000003 C244.658522,11.0000003 244.449824,11.1774202 244.410125,11.418946 L243.923797,14.3964852 C243.339004,14.5665994 242.781371,14.7961372 242.255828,15.0820318 L239.798797,13.3271492 C239.600158,13.1853059 239.32814,13.2075957 239.155241,13.3798836 L237.209929,15.3232429 C237.03833,15.4949624 237.014855,15.7651246 237.154265,15.9638679 L238.88278,18.4365245 C238.592476,18.9651365 238.357854,19.5259131 238.183562,20.1162121 L235.218718,20.6093761 C234.977968,20.6499277 234.801725,20.8583992 234.801725,21.1025401 L234.801725,23.8525403 C234.801286,24.0951291 234.975027,24.3030421 235.213835,24.3457043 L238.180632,24.8710953 C238.35398,25.4603709 238.587111,26.0215339 238.877898,26.5507824 L237.127898,28.999025 C236.986055,29.1976636 237.008345,29.4696816 237.180632,29.6425796 L239.124968,31.5878922 C239.296295,31.759266 239.565842,31.7831342 239.764616,31.6445327 L242.242156,29.9101576 C242.769249,30.1977416 243.328247,30.4289656 243.915008,30.6005876 L244.410125,33.5820328 C244.450251,33.8231705 244.658835,34.0000003 244.903289,34.0000003 L247.653289,34.0000003 C247.896187,34.0003583 248.104211,33.8261125 248.146453,33.5869158 L248.676726,30.5937516 C249.261066,30.4195001 249.817436,30.1848501 250.341766,29.8955096 L252.835906,31.6455097 C253.034649,31.7849195 253.304812,31.7614451 253.476531,31.5898457 L255.420867,29.6435561 C255.59393,29.4701232 255.615842,29.1968413 255.472625,28.9980485 L253.694305,26.5292984 C253.978642,26.0074804 254.207708,25.4544389 254.377899,24.8740248 L257.386688,24.3466808 C257.625885,24.3044385 257.80013,24.0964146 257.799774,23.8535168 L257.799774,21.1035166 C257.799774,20.8587499 257.622354,20.650052 257.380828,20.6103526 L254.376922,20.1191416 C254.20559,19.5394146 253.975891,18.9873625 253.691375,18.4658215 L255.445281,15.9667979 C255.584691,15.7680547 255.561217,15.4978924 255.389617,15.3261729 L253.444305,13.3818367 C253.270872,13.2087743 252.99759,13.1868621 252.798797,13.3300789 L250.336883,15.1005868 C249.812343,14.8124059 249.255606,14.5789966 248.66989,14.4062508 L248.146453,11.4140632 C248.104632,11.1744782 247.896496,10.999727 247.653289,11.0000003 L244.903289,11.0000003 Z M245.32907,12.0000007 L247.233367,12.0000007 L247.731414,14.8427743 C247.765272,15.0375678 247.910726,15.1941213 248.102508,15.2421883 C248.833763,15.4244169 249.520553,15.7132754 250.14743,16.0927744 C250.318754,16.1965803 250.535493,16.1881259 250.698211,16.0712899 L253.038055,14.3896493 L254.384735,15.7363289 L252.718719,18.1103525 C252.605036,18.2721533 252.59738,18.48575 252.699188,18.6552745 C253.074933,19.2807365 253.359917,19.9631906 253.541961,20.6904306 C253.590413,20.8840156 253.749324,21.03026 253.946258,21.0625011 L256.799774,21.5292982 L256.799774,23.4335953 L253.940399,23.9355483 C253.745448,23.9700574 253.589214,24.1163354 253.541961,24.3085953 C253.362023,25.0349098 253.076867,25.7173449 252.701141,26.3427749 C252.598054,26.5140567 252.606887,26.7302772 252.723602,26.8925794 L254.413055,29.237306 L253.066375,30.5849626 L250.696258,28.9218765 C250.533624,28.8079591 250.318997,28.8010604 250.149383,28.9042985 C249.525625,29.283794 248.838127,29.5740156 248.109344,29.7587906 C247.918505,29.8068984 247.773633,29.9624735 247.739226,30.1562516 L247.234344,33.0000007 L245.327117,33.0000007 L244.856414,30.1689471 C244.823669,29.9721202 244.677046,29.8135987 244.483367,29.7656266 C243.751675,29.5852801 243.061797,29.2968565 242.430633,28.9179705 C242.261345,28.8165881 242.048267,28.8242389 241.886687,28.9375015 L239.535124,30.5849626 L238.187468,29.235353 L239.849578,26.9121109 C239.965682,26.749412 239.973747,26.5332022 239.870086,26.3623059 C239.487075,25.7294289 239.197409,25.0396078 239.014616,24.3046888 C238.966841,24.1134705 238.811199,23.9681532 238.617156,23.9335953 L235.801726,23.4335953 L235.801726,21.5263682 L238.615203,21.0585951 C238.811762,21.0259985 238.970214,20.8798236 239.018523,20.6865246 C239.202886,19.9490726 239.492412,19.2593655 239.873992,18.6279305 C239.976803,18.4585522 239.969908,18.2444452 239.856414,18.082032 L238.213835,15.7343759 L239.562468,14.3867196 L241.893523,16.0527354 C242.055588,16.1682953 242.270757,16.1767334 242.441375,16.0742199 C243.069204,15.6971474 243.760683,15.4110414 244.493133,15.2314463 C244.687765,15.1835284 244.834977,15.0240174 244.867156,14.8261727 L245.32907,12.0000007 Z M246.30075,18.500001 C244.097533,18.500001 242.30075,20.2967846 242.30075,22.500001 C242.30075,24.7032178 244.097533,26.500001 246.30075,26.500001 C248.503966,26.500001 250.30075,24.7032178 250.30075,22.500001 C250.30075,20.2967846 248.503966,18.500001 246.30075,18.500001 Z M246.30075,19.5000011 C247.963526,19.5000011 249.30075,20.8372246 249.30075,22.5000011 C249.30075,24.1627778 247.963526,25.5000011 246.30075,25.5000011 C244.637973,25.5000011 243.30075,24.1627778 243.30075,22.5000011 C243.30075,20.8372246 244.637973,19.5000011 246.30075,19.5000011 Z" id="icon-customise"></path>
            </g>
        </g>
    </g>
</svg>