<?xml version="1.0" encoding="UTF-8"?>
<svg width="36px" height="34px" viewBox="0 0 36 34" version="1.1" xmlns="http://www.w3.org/2000/svg" xmlns:xlink="http://www.w3.org/1999/xlink">
    <!-- Generator: Sketch 64 (93537) - https://sketch.com -->
    <title>icon-head-report</title>
    <desc>Created with Sketch.</desc>
    <g id="Reports" stroke="none" stroke-width="1" fill="none" fill-rule="evenodd">
        <g id="AP-LandingPage-Header-Total-Invoice-fixed-view" transform="translate(-120.000000, -108.000000)" fill="#15C872" fill-rule="nonzero">
            <g id="Group" transform="translate(120.000000, 100.000000)">
                <path d="M0.772727273,8 C0.345979459,8 0,8.34597946 0,8.77272727 L0,11.8636364 C0,12.2903842 0.345979459,12.636321 0.772727273,12.6363636 L1.54545455,12.6363636 L1.54545455,35.0454545 C1.54549721,35.4722024 1.891434,35.8181391 2.31818182,35.8181818 L17,35.8181818 L17,37.5085227 C16.1056995,37.8310274 15.4545455,38.682559 15.4545455,39.6818182 C15.4545455,40.9529623 16.5015832,42 17.7727273,42 C19.0438714,42 20.0909091,40.9529623 20.0909091,39.6818182 C20.0909091,38.682559 19.439755,37.8310274 18.5454545,37.5085227 L18.5454545,35.8181818 L33.2272727,35.8181818 C33.6540205,35.8181391 33.9999573,35.4722024 34,35.0454545 L34,12.6363636 L34.7727273,12.6363636 C35.1994751,12.636321 35.5454545,12.2903842 35.5454545,11.8636364 L35.5454545,8.77272727 C35.5454545,8.34597946 35.1994751,8 34.7727273,8 L0.772727273,8 Z M1.54545455,9.54545455 L34,9.54545455 L34,11.0909091 L33.2272727,11.0909091 L2.31818182,11.0909091 L1.54545455,11.0909091 L1.54545455,9.54545455 Z M3.09090909,12.6363636 L32.4545455,12.6363636 L32.4545455,34.2727273 L17.8919568,34.2727273 C17.8485694,34.2654751 17.8046421,34.2619407 17.7606534,34.2621625 C17.7232189,34.2629739 17.685893,34.2665048 17.6489704,34.2727273 L3.09090909,34.2727273 L3.09090909,12.6363636 Z M27.8181818,16.5 C26.9646508,16.5 26.2727273,17.1919236 26.2727273,18.0454545 C26.2734999,18.226834 26.3061958,18.4066614 26.3693182,18.5767045 L20.355025,25.7953659 L20.3535158,25.7953659 C20.2667846,25.7803551 20.1789296,25.7727814 20.0909091,25.7727273 C19.9864703,25.7727598 19.8823038,25.7833788 19.7800069,25.8044215 L15.3745558,20.8481 C15.4268666,20.6919069 15.4538706,20.5283551 15.4545455,20.3636364 C15.4545455,19.5101054 14.7626219,18.8181818 13.9090909,18.8181818 C13.0555599,18.8181818 12.3636364,19.5101054 12.3636364,20.3636364 C12.3643172,20.4982483 12.3825824,20.6321944 12.4179684,20.7620739 L8.12721936,25.0528229 C7.99678445,25.017816 7.86232361,25.0000571 7.72727273,25 C6.87374175,25 6.18181818,25.6919236 6.18181818,26.5454545 C6.18181818,27.3989855 6.87374175,28.0909091 7.72727273,28.0909091 C8.5808037,28.0909091 9.27272727,27.3989855 9.27272727,26.5454545 C9.27204644,26.4108426 9.25378119,26.2768965 9.21839527,26.147017 L13.5091443,21.856268 C13.6395792,21.8912749 13.77404,21.9090338 13.9090909,21.9090909 C14.014034,21.9091606 14.1187113,21.8985411 14.2215022,21.8773967 L18.6254442,26.832209 C18.5729745,26.9888826 18.5459684,27.1529565 18.5454545,27.3181818 C18.5454545,28.1717128 19.2373781,28.8636364 20.0909091,28.8636364 C20.9444401,28.8636364 21.6363636,28.1717128 21.6363636,27.3181818 C21.635591,27.1368024 21.6028951,26.9569749 21.5397727,26.7869318 L27.5555751,19.5682705 C27.6423063,19.5832812 27.7301613,19.590855 27.8181818,19.5909091 C28.6717128,19.5909091 29.3636364,18.8989855 29.3636364,18.0454545 C29.3636364,17.1919236 28.6717128,16.5 27.8181818,16.5 Z M17.7289592,38.9181465 C17.7586163,38.9198579 17.7883474,38.9198579 17.8180045,38.9181465 C18.2303047,38.9419419 18.5454545,39.262106 18.5454545,39.6818182 C18.5454545,40.117736 18.2086451,40.4545455 17.7727273,40.4545455 C17.3368094,40.4545455 17,40.117736 17,39.6818182 C17,39.2615859 17.3159002,38.9412163 17.7289592,38.9181465 Z" id="icon-head-report"></path>
            </g>
        </g>
    </g>
</svg>