<?xml version="1.0" encoding="UTF-8"?>
<svg width="23px" height="31px" viewBox="0 0 23 31" version="1.1" xmlns="http://www.w3.org/2000/svg" xmlns:xlink="http://www.w3.org/1999/xlink">
    <!-- Generator: Sketch 64 (93537) - https://sketch.com -->
    <title>forward</title>
    <desc>Created with Sketch.</desc>
    <g id="Page-1" stroke="none" stroke-width="1" fill="none" fill-rule="evenodd">
        <g id="AP-Approve-02" transform="translate(-1472.000000, -109.000000)" fill-rule="nonzero">
            <g id="Group-15" transform="translate(1438.000000, 97.000000)">
                <g id="Group-14" transform="translate(34.000000, 12.000000)">
                    <g id="forward" transform="translate(0.000000, 0.000000)">
                        <g id="icons8-business_conference_female_speaker">
                            <circle id="Oval" fill="#C1D2E5" cx="4.07894737" cy="3.85233918" r="2.26608187"></circle>
                            <path d="M5.89181287,7.47807018 L2.26608187,7.47807018 C1.01973684,7.47807018 0,8.49780702 0,9.74415205 L0,15.1827485 C0,15.9305556 0.611842105,16.5423977 1.35964912,16.5423977 L1.35964912,19.2616959 L2.26608187,19.2616959 L2.26608187,25.1535088 C2.26608187,25.5387427 2.56067251,25.8333333 2.94590643,25.8333333 C3.33114035,25.8333333 3.62573099,25.5387427 3.62573099,25.1535088 L3.62573099,19.2616959 L4.53216374,19.2616959 L4.53216374,25.1535088 C4.53216374,25.5387427 4.82675439,25.8333333 5.2119883,25.8333333 C5.59722222,25.8333333 5.89181287,25.5387427 5.89181287,25.1535088 L5.89181287,19.2616959 L6.79824561,19.2616959 L6.79824561,16.5423977 C7.54605263,16.5423977 8.15789474,15.9305556 8.15789474,15.1827485 L8.15789474,9.74415205 C8.15789474,8.49780702 7.13815789,7.47807018 5.89181287,7.47807018 Z" id="Path" fill="#C1D2E5"></path>
                            <circle id="Oval" fill="#C1D2E5" cx="14.9561404" cy="3.85233918" r="2.26608187"></circle>
                            <path d="M16.7690058,7.47807018 L13.1432749,7.47807018 C11.8969298,7.47807018 10.877193,8.49780702 10.877193,9.74415205 L10.877193,15.1827485 C10.877193,15.9305556 11.4890351,16.5423977 12.2368421,16.5423977 L12.2368421,19.2616959 L13.1432749,19.2616959 L13.1432749,25.1535088 C13.1432749,25.5387427 13.4378655,25.8333333 13.8230994,25.8333333 C14.2083333,25.8333333 14.502924,25.5387427 14.502924,25.1535088 L14.502924,19.2616959 L15.4093567,19.2616959 L15.4093567,25.1535088 C15.4093567,25.5387427 15.7039474,25.8333333 16.0891813,25.8333333 C16.4744152,25.8333333 16.7690058,25.5387427 16.7690058,25.1535088 L16.7690058,19.2616959 L17.6754386,19.2616959 L17.6754386,16.5423977 C18.4232456,16.5423977 19.0350877,15.9305556 19.0350877,15.1827485 L19.0350877,9.74415205 C19.0350877,8.49780702 18.0153509,7.47807018 16.7690058,7.47807018 Z" id="Path" fill="#C1D2E5"></path>
                            <path d="M17.6754386,25.8333333 L17.6754386,25.8333333 L1.35964912,25.8333333 C0.974415205,25.8333333 0.679824561,25.5387427 0.679824561,25.1535088 C0.679824561,24.7682749 0.974415205,24.4736842 1.35964912,24.4736842 L1.35964912,24.4736842 L17.6754386,24.4736842 C18.0606725,24.4736842 18.3552632,24.7682749 18.3552632,25.1535088 C18.3552632,25.5387427 18.0606725,25.8333333 17.6754386,25.8333333 Z" id="Path" fill="#444B54"></path>
                            <path d="M19.9415205,25.8333333 C19.8961988,25.8333333 19.8508772,25.8333333 19.8055556,25.8106725 C19.7602339,25.8106725 19.7149123,25.7880117 19.6695906,25.7653509 C19.624269,25.7426901 19.6016082,25.7200292 19.5562865,25.6973684 C19.5109649,25.6747076 19.4883041,25.6520468 19.4429825,25.6067251 C19.4203216,25.5840643 19.375,25.5387427 19.3523392,25.5160819 C19.3296784,25.4707602 19.3070175,25.4480994 19.2843567,25.4027778 C19.2616959,25.3574561 19.2616959,25.3121345 19.2390351,25.2668129 C19.2390351,25.2214912 19.2163743,25.1761696 19.2163743,25.130848 C19.2163743,25.0855263 19.2163743,25.0402047 19.2390351,24.994883 C19.2390351,24.9495614 19.2616959,24.9042398 19.2843567,24.8589181 C19.3070175,24.8135965 19.3296784,24.7909357 19.3523392,24.745614 C19.375,24.7002924 19.3976608,24.6776316 19.4429825,24.6549708 C19.4883041,24.6323099 19.5109649,24.5869883 19.5562865,24.5643275 C19.6016082,24.5416667 19.624269,24.5190058 19.6695906,24.496345 C19.7149123,24.4736842 19.7602339,24.4736842 19.8055556,24.4510234 C19.8961988,24.4283626 19.9868421,24.4283626 20.0774854,24.4510234 C20.122807,24.4510234 20.1681287,24.4736842 20.2134503,24.496345 C20.2587719,24.5190058 20.3040936,24.5416667 20.3267544,24.5643275 C20.372076,24.5869883 20.3947368,24.6096491 20.4400585,24.6549708 C20.4627193,24.6776316 20.5080409,24.7229532 20.5307018,24.745614 C20.5533626,24.7909357 20.5760234,24.8135965 20.5986842,24.8589181 C20.621345,24.9042398 20.621345,24.9495614 20.6440058,24.994883 C20.6440058,25.0402047 20.6666667,25.0855263 20.6666667,25.130848 C20.6666667,25.1761696 20.6666667,25.2214912 20.6440058,25.2668129 C20.6440058,25.3121345 20.621345,25.3574561 20.5986842,25.4027778 C20.5760234,25.4480994 20.5533626,25.4934211 20.5307018,25.5160819 C20.5080409,25.5614035 20.4853801,25.5840643 20.4400585,25.6067251 C20.4173977,25.629386 20.372076,25.6747076 20.3267544,25.6973684 C20.2814327,25.7200292 20.2587719,25.7426901 20.2134503,25.7653509 C20.1681287,25.7880117 20.122807,25.7880117 20.0774854,25.8106725 C20.0321637,25.8333333 19.9868421,25.8333333 19.9415205,25.8333333 Z" id="Path" fill="#444B54"></path>
                            <path d="M4.30555556,22.6608187 C3.92032164,22.6608187 3.62573099,22.3662281 3.62573099,21.9809942 L3.62573099,18.8084795 C3.62573099,18.4232456 3.92032164,18.128655 4.30555556,18.128655 C4.69078947,18.128655 4.98538012,18.4232456 4.98538012,18.8084795 L4.98538012,21.9809942 C4.98538012,22.3662281 4.69078947,22.6608187 4.30555556,22.6608187 Z" id="Path" fill="#444B54"></path>
                            <g id="Group" transform="translate(3.399123, 0.000000)">
                                <path d="M7.93128655,7.47807018 L4.66812865,7.47807018 C3.28581871,7.47807018 2.22076023,8.70175439 2.4247076,10.0840643 L3.39912281,14.2763158 L3.39912281,19.2616959 L8.8377193,19.2616959 L8.8377193,16.5423977 L10.1973684,16.5423977 L10.1973684,9.74415205 C10.1973684,8.49780702 9.17763158,7.47807018 7.93128655,7.47807018 Z" id="Path" fill="#FFFFFF"></path>
                                <path d="M0.906432749,17.2222222 C0.88377193,17.2222222 0.861111111,17.2222222 0.815789474,17.2222222 C0.453216374,17.1769006 0.18128655,16.8369883 0.226608187,16.4744152 L1.11038012,9.40423977 C1.29166667,7.90862573 2.56067251,6.79824561 4.03362573,6.79824561 C4.41885965,6.79824561 4.71345029,7.09283626 4.71345029,7.47807018 C4.71345029,7.86330409 4.41885965,8.15789474 4.03362573,8.15789474 C3.24049708,8.15789474 2.56067251,8.74707602 2.47002924,9.54020468 L1.58625731,16.6330409 C1.54093567,16.9729532 1.24634503,17.2222222 0.906432749,17.2222222 Z" id="Path" fill="#444B54"></path>
                                <path d="M8.8377193,19.9415205 C8.45248538,19.9415205 8.15789474,19.6469298 8.15789474,19.2616959 L8.15789474,16.5423977 C8.15789474,16.1571637 8.45248538,15.8625731 8.8377193,15.8625731 L9.51754386,15.8625731 L9.51754386,9.74415205 C9.51754386,8.86038012 8.81505848,8.15789474 7.93128655,8.15789474 C7.54605263,8.15789474 7.25146199,7.86330409 7.25146199,7.47807018 C7.25146199,7.09283626 7.54605263,6.79824561 7.93128655,6.79824561 C9.5628655,6.79824561 10.877193,8.1125731 10.877193,9.74415205 L10.877193,16.5423977 C10.877193,16.9276316 10.5826023,17.2222222 10.1973684,17.2222222 L9.51754386,17.2222222 L9.51754386,19.2616959 C9.51754386,19.6469298 9.22295322,19.9415205 8.8377193,19.9415205 Z" id="Path" fill="#444B54"></path>
                                <circle id="Oval" fill="#FFFFFF" cx="6.11842105" cy="2.94590643" r="2.26608187"></circle>
                                <path d="M6.11842105,5.89181287 C4.48684211,5.89181287 3.17251462,4.57748538 3.17251462,2.94590643 C3.17251462,1.31432749 4.48684211,0 6.11842105,0 C7.75,0 9.06432749,1.31432749 9.06432749,2.94590643 C9.06432749,4.57748538 7.75,5.89181287 6.11842105,5.89181287 Z M6.11842105,1.35964912 C5.23464912,1.35964912 4.53216374,2.0621345 4.53216374,2.94590643 C4.53216374,3.82967836 5.23464912,4.53216374 6.11842105,4.53216374 C7.00219298,4.53216374 7.70467836,3.82967836 7.70467836,2.94590643 C7.70467836,2.0621345 7.00219298,1.35964912 6.11842105,1.35964912 Z" id="Shape" fill="#444B54"></path>
                                <path d="M3.39912281,19.873538 C3.01388889,19.873538 2.71929825,19.5789474 2.71929825,19.1937135 L2.71929825,14.2763158 C2.71929825,13.8910819 3.01388889,13.5964912 3.39912281,13.5964912 C3.78435673,13.5964912 4.07894737,13.8910819 4.07894737,14.2763158 L4.07894737,19.1937135 C4.07894737,19.5789474 3.78435673,19.873538 3.39912281,19.873538 Z" id="Path" fill="#444B54"></path>
                            </g>
                            <path d="M12.2368421,19.9415205 L6.79824561,19.9415205 C6.4130117,19.9415205 6.11842105,19.6469298 6.11842105,19.2616959 C6.11842105,18.876462 6.4130117,18.5818713 6.79824561,18.5818713 L12.2368421,18.5818713 C12.622076,18.5818713 12.9166667,18.876462 12.9166667,19.2616959 C12.9166667,19.6469298 12.622076,19.9415205 12.2368421,19.9415205 Z" id="Path" fill="#444B54"></path>
                            <path d="M8.38450292,25.8333333 C7.99926901,25.8333333 7.70467836,25.5387427 7.70467836,25.1535088 L7.70467836,19.2616959 C7.70467836,18.876462 7.99926901,18.5818713 8.38450292,18.5818713 C8.76973684,18.5818713 9.06432749,18.876462 9.06432749,19.2616959 L9.06432749,25.1535088 C9.06432749,25.5387427 8.76973684,25.8333333 8.38450292,25.8333333 Z" id="Path" fill="#444B54"></path>
                            <path d="M10.6505848,25.8333333 C10.2653509,25.8333333 9.97076023,25.5387427 9.97076023,25.1535088 L9.97076023,19.2616959 C9.97076023,18.876462 10.2653509,18.5818713 10.6505848,18.5818713 C11.0358187,18.5818713 11.3304094,18.876462 11.3304094,19.2616959 L11.3304094,25.1535088 C11.3304094,25.5387427 11.0358187,25.8333333 10.6505848,25.8333333 Z" id="Path" fill="#444B54"></path>
                            <path d="M9.51754386,10.4239766 C9.35891813,10.4239766 9.22295322,10.378655 9.0869883,10.2653509 C8.79239766,10.0387427 8.74707602,9.60818713 8.97368421,9.31359649 L10.7865497,7.04751462 C11.0131579,6.75292398 11.4437135,6.70760234 11.7383041,6.93421053 C12.0328947,7.16081871 12.0782164,7.59137427 11.8516082,7.88596491 L10.0387427,10.1520468 C9.9254386,10.3333333 9.72149123,10.4239766 9.51754386,10.4239766 Z" id="Path" fill="#444B54"></path>
                        </g>
                        <path d="M22.3888889,24.1111111 C22.3888889,27.9158444 19.3040444,31 15.5,31 C11.6952667,31 8.61111111,27.9158444 8.61111111,24.1111111 C8.61111111,20.3063778 11.6952667,17.2222222 15.5,17.2222222 C19.3040444,17.2222222 22.3888889,20.3063778 22.3888889,24.1111111" id="Path" fill="#FEBC00"></path>
                        <g id="icons8-forward_message" transform="translate(11.194444, 18.083333)" fill="#FFFFFF">
                            <path d="M5.68333333,0.861111111 L5.68333333,3.73148148 L4.73611111,3.73148148 C3.98910799,3.73148148 2.94423189,3.95903488 2.02209779,4.54437898 C2.00732113,4.55408562 1.99059602,4.56245179 1.97584683,4.57241006 C0.896792111,5.27546901 0,6.48603623 0,8.5154321 L0,9.47222222 L1.89444444,9.47222222 L1.89444444,8.5154321 C1.89444444,8.34253821 1.90580922,8.18799747 1.92034529,8.03890565 C2.02566219,7.13779497 2.43587288,6.59198735 2.91011863,6.24118694 C3.0265796,6.16433373 3.14174951,6.08495843 3.26532696,6.02254509 C3.98662342,5.65825395 4.73611111,5.64506173 4.73611111,5.64506173 L5.68333333,5.64506173 L5.68333333,8.5154321 L9.47222222,4.6882716 L5.68333333,0.861111111 Z" id="Shape"></path>
                        </g>
                    </g>
                </g>
            </g>
        </g>
    </g>
</svg>