<?xml version="1.0" encoding="UTF-8"?>
<svg width="16px" height="16px" viewBox="0 0 16 16" version="1.1" xmlns="http://www.w3.org/2000/svg" xmlns:xlink="http://www.w3.org/1999/xlink">
    <!-- Generator: Sketch 64 (93537) - https://sketch.com -->
    <title>icon-submit-assessment</title>
    <desc>Created with Sketch.</desc>
    <g id="Page-1" stroke="none" stroke-width="1" fill="none" fill-rule="evenodd">
        <g id="AP-Custom-field-added-view" transform="translate(-1718.000000, -169.000000)" fill="#005350" fill-rule="nonzero">
            <g id="more-menu" transform="translate(1702.000000, 145.000000)">
                <g id="icon-submit-assessment" transform="translate(16.000000, 24.000000)">
                    <path d="M7.97341744,0 C7.66674475,0 7.36788752,0.020200313 7.07506173,0.0529891478 L7.1534462,0.744565217 C7.42597101,0.714049635 7.6979884,0.695652174 7.97341744,0.695652174 C12.0249337,0.695652174 15.3020363,3.96190122 15.3020363,8 C15.3020363,12.0380988 12.0249337,15.3043478 7.97341744,15.3043478 C7.69926637,15.3043478 7.42893805,15.2862435 7.15889904,15.2561141 L7.08119613,15.9476901 C7.37231994,15.9801708 7.6689566,16 7.97341744,16 C12.4021597,16 16,12.4140751 16,8 C16,3.58592487 12.4021597,0 7.97341744,0 Z" id="Path"></path>
                    <path d="M5.32401808,0.455163061 C4.75218793,0.654713391 4.21079564,0.915719096 3.7058873,1.23301631 L4.07804364,1.82133151 C4.5384191,1.53202003 5.03250516,1.29377565 5.5550821,1.11141304 L5.32401808,0.455163061 Z" id="Path"></path>
                    <path d="M2.29700946,2.34374998 C1.87089313,2.7684551 1.5012094,3.24306017 1.18190336,3.74864139 L1.77285506,4.11888591 C2.06775714,3.65194539 2.40557416,3.2192407 2.79049151,2.83559791 L2.29700946,2.34374998 Z" id="Path"></path>
                    <path d="M0.402828668,5.36209252 C0.208354205,5.91713565 0.0677164731,6.49954226 0,7.10733704 L0.693874087,7.1841033 C0.755280864,6.63294157 0.883004766,6.10172835 1.06194085,5.5910327 L0.402828668,5.36209252 Z" id="Path"></path>
                    <path d="M0.694555684,8.82065217 L0.000681596452,8.89741843 C0.068415414,9.50500383 0.210038216,10.0876275 0.404873492,10.642663 L1.06330408,10.4130435 C0.884030773,9.90233983 0.755945151,9.37132765 0.694555684,8.82065217 Z" id="Path"></path>
                    <path d="M1.77558148,11.884511 L1.18531141,12.2554348 C1.50505273,12.7611304 1.87477569,13.2351005 2.30109908,13.6596466 L2.79458122,13.167799 C2.40917282,12.7839972 2.07074617,12.3513367 1.77558148,11.884511 Z" id="Path"></path>
                    <path d="M4.08213336,14.1813857 L3.71065858,14.7703805 C4.21526575,15.0863972 4.75742685,15.3476136 5.32947092,15.5468751 L5.55917182,14.8899457 C5.03680881,14.7079899 4.54280999,14.4698908 4.08213336,14.1813857 Z" id="Path"></path>
                    <polygon id="Path" points="11.2905737 5 6.40235629 10.7682251 4.34488781 8.84910675 4 9.21919426 6.44534378 11.5 11.6769668 5.32709997"></polygon>
                </g>
            </g>
        </g>
    </g>
</svg>