<?xml version="1.0" encoding="UTF-8"?>
<svg width="10px" height="10px" viewBox="0 0 10 10" version="1.1" xmlns="http://www.w3.org/2000/svg" xmlns:xlink="http://www.w3.org/1999/xlink">
    <!-- Generator: Sketch 64 (93537) - https://sketch.com -->
    <title>icon-phone</title>
    <desc>Created with Sketch.</desc>
    <g id="Page-1" stroke="none" stroke-width="1" fill="none" fill-rule="evenodd">
        <g id="AP-Custom-field-added-view-highlights" transform="translate(-638.000000, -550.000000)" fill="#005350" fill-rule="nonzero">
            <g id="Group-8" transform="translate(145.000000, 358.000000)">
                <g id="Group-13" transform="translate(0.000000, 181.000000)">
                    <g id="Group-2" transform="translate(12.000000, 6.000000)">
                        <path d="M483.012909,5.0023253 C482.837704,4.9880954 482.642932,5.03878958 482.463279,5.1650798 C482.304972,5.2753615 481.963454,5.54661886 481.644171,5.85345119 C481.484974,6.00642258 481.332892,6.16561939 481.215495,6.32214826 C481.097209,6.47867713 480.994042,6.62186564 481.000268,6.82997777 C481.006494,7.01674528 481.02517,7.56904311 481.422718,8.41572199 C481.820266,9.26151156 482.591348,10.4221375 484.095271,11.9269491 C485.600082,13.4317607 486.760708,14.2028433 487.606498,14.6003909 C488.452287,14.9979387 489.005474,15.0166154 489.192242,15.0228411 C489.399465,15.0290667 489.542653,14.9258999 489.699182,14.807614 C489.855711,14.6893278 490.014908,14.5381352 490.167879,14.3789382 C490.473822,14.0596548 490.745079,13.7181373 490.855361,13.5598298 C491.107052,13.2014142 491.065252,12.7780748 490.785101,12.5815244 C490.609006,12.4579021 488.989466,11.3799874 488.745779,11.2305735 C488.498534,11.0793809 488.213936,11.1478622 487.959577,11.282157 C487.759469,11.3879916 487.217844,11.6983814 487.063093,11.7873183 C486.946586,11.7135007 486.50457,11.4191196 485.553835,10.4683847 C484.602211,9.51764971 484.308719,9.07563336 484.234901,8.95912624 C484.323838,8.804376 484.633339,8.26541876 484.740063,8.06175318 C484.873468,7.8082832 484.948175,7.52101709 484.788978,7.27199389 C484.722275,7.1661592 484.419001,6.70457686 484.113058,6.24121589 C483.806226,5.77785469 483.515402,5.33850673 483.439806,5.23356112 L483.439806,5.23267181 C483.341086,5.09659848 483.187225,5.01655519 483.012909,5.0023253 Z M482.971109,5.46746512 C483.033365,5.47546938 483.070718,5.5003717 483.070718,5.5003717 C483.107182,5.55106588 483.426465,6.02954605 483.732408,6.49201771 C484.038351,6.95537868 484.350519,7.43030161 484.404771,7.51657031 C484.413665,7.52991089 484.426116,7.68110344 484.337179,7.84919427 L484.337179,7.85008358 C484.23668,8.04129788 483.767983,8.86040628 483.767983,8.86040628 L483.703059,8.97513476 L483.769762,9.08897394 C483.769762,9.08897394 484.119284,9.67862536 485.230994,10.790336 C486.343594,11.9020468 486.933246,12.2524579 486.933246,12.2524579 L487.047085,12.3191606 L487.161813,12.2542367 C487.161813,12.2542367 487.979143,11.7864288 488.172136,11.6850409 C488.340227,11.5969933 488.491419,11.6085551 488.509207,11.6192275 C488.666625,11.7161688 490.416013,12.8785734 490.523627,12.9541699 C490.527184,12.9568378 490.622347,13.1009156 490.483605,13.2983553 L490.482716,13.2983553 C490.399115,13.4184202 490.125189,13.7661633 489.839702,14.0632123 C489.696514,14.2117369 489.549768,14.3504784 489.425256,14.4438621 C489.300745,14.5372459 489.189574,14.566595 489.207361,14.5674843 C489.013479,14.5612587 488.585692,14.5568119 487.80038,14.1877239 C487.015068,13.8195254 485.894463,13.0822389 484.417222,11.6041083 C482.94087,10.1277564 482.203584,9.00715203 481.834496,8.22095022 C481.466297,7.43563771 481.46185,7.00785148 481.455625,6.81485856 C481.456514,6.83264593 481.485863,6.72058538 481.579247,6.59607378 C481.672631,6.47156218 481.810483,6.32392711 481.959007,6.18073882 C482.256946,5.89525134 482.6038,5.62132582 482.723864,5.53772529 L482.723864,5.5386146 C482.822584,5.46924397 482.908853,5.46035017 482.971109,5.46746512 Z" id="icon-phone"></path>
                    </g>
                </g>
            </g>
        </g>
    </g>
</svg>