<?xml version="1.0" encoding="UTF-8"?>
<svg width="16px" height="16px" viewBox="0 0 16 16" version="1.1" xmlns="http://www.w3.org/2000/svg" xmlns:xlink="http://www.w3.org/1999/xlink">
    <!-- Generator: Sketch 64 (93537) - https://sketch.com -->
    <title>icon-save</title>
    <desc>Created with Sketch.</desc>
    <g id="Symbols" stroke="none" stroke-width="1" fill="none" fill-rule="evenodd">
        <g id="ap-nav" transform="translate(-118.000000, -12.000000)" fill="#FFFFFF" fill-rule="nonzero">
            <g id="Group-12">
                <g id="Group-3" transform="translate(94.000000, 0.000000)">
                    <path d="M25.0909091,12 C24.4894545,12 24,12.4894545 24,13.0909091 L24,24.7272727 C24,25.3287273 24.4894545,25.8181818 25.0909091,25.8181818 L25.4545455,25.8181818 L25.4545455,25.0909091 L25.0909091,25.0909091 C24.8905455,25.0909091 24.7272727,24.9276364 24.7272727,24.7272727 L24.7272727,13.0909091 C24.7272727,12.8905455 24.8905455,12.7272727 25.0909091,12.7272727 L34.3948865,12.7272727 L35.1221593,13.4545455 L36.150568,13.4545455 L34.8025567,12.1065341 C34.7345567,12.0381704 34.6418182,12 34.5454545,12 L25.0909091,12 Z M29.4488636,14.176842 C29.4312474,14.1772284 29.4136822,14.17889 29.3963069,14.1818182 L27.2727273,14.1818182 C26.6745564,14.1818182 26.1818182,14.6745564 26.1818182,15.2727273 L26.1818182,26.9090909 C26.1818182,27.5072618 26.6745564,28 27.2727273,28 L38.9090909,28 C39.5072618,28 40,27.5072618 40,26.9090909 L40,17.4545455 C40,17.3581095 39.9616608,17.2656293 39.8934658,17.1974433 L37.0163353,14.3203125 C36.9351103,14.213863 36.801961,14.1606578 36.6697444,14.1818182 L29.5106535,14.1818182 C29.4902359,14.1784054 29.4695642,14.176842 29.4488636,14.176842 Z M27.2727273,14.9090909 L29.0909091,14.9090909 L29.0909091,18.9090909 C29.0909091,19.5072618 29.5836473,20 30.1818182,20 L36,20 C36.5981709,20 37.0909091,19.5072618 37.0909091,18.9090909 L37.0909091,15.4232953 L39.2727273,17.6051135 L39.2727273,26.9090909 C39.2727273,27.1145564 39.1145564,27.2727273 38.9090909,27.2727273 L37.0909091,27.2727273 L37.0909091,22.9090909 C37.0909091,22.3107436 36.5983473,21.8181818 36,21.8181818 L30.1818182,21.8181818 C29.5834709,21.8181818 29.0909091,22.3107436 29.0909091,22.9090909 L29.0909091,27.2727273 L27.2727273,27.2727273 C27.0672618,27.2727273 26.9090909,27.1145564 26.9090909,26.9090909 L26.9090909,15.2727273 C26.9090909,15.0672618 27.0672618,14.9090909 27.2727273,14.9090909 Z M29.8181818,14.9090909 L36.3636364,14.9090909 L36.3636364,18.9090909 C36.3636364,19.1145564 36.2054655,19.2727273 36,19.2727273 L30.1818182,19.2727273 C29.9763527,19.2727273 29.8181818,19.1145564 29.8181818,18.9090909 L29.8181818,14.9090909 Z M34.1818182,15.6363636 L34.1818182,18.5454545 L35.2727273,18.5454545 L35.2727273,15.6363636 L34.1818182,15.6363636 Z M30.1818182,22.5454545 L36,22.5454545 C36.2016527,22.5454545 36.3636364,22.7074382 36.3636364,22.9090909 L36.3636364,27.2727273 L29.8181818,27.2727273 L29.8181818,22.9090909 C29.8181818,22.7074382 29.9801655,22.5454545 30.1818182,22.5454545 Z M27.6363636,25.8181818 L27.6363636,26.5454545 L28.3636364,26.5454545 L28.3636364,25.8181818 L27.6363636,25.8181818 Z M37.8181818,25.8181818 L37.8181818,26.5454545 L38.5454545,26.5454545 L38.5454545,25.8181818 L37.8181818,25.8181818 Z" id="icon-save"></path>
                </g>
            </g>
        </g>
    </g>
</svg>