<?xml version="1.0" encoding="UTF-8"?>
<svg width="46px" height="46px" viewBox="0 0 46 46" version="1.1" xmlns="http://www.w3.org/2000/svg" xmlns:xlink="http://www.w3.org/1999/xlink">
    <!-- Generator: Sketch 64 (93537) - https://sketch.com -->
    <title>popup-head-tag</title>
    <desc>Created with Sketch.</desc>
    <g id="Page-1" stroke="none" stroke-width="1" fill="none" fill-rule="evenodd">
        <g id="AP-LandingPage-New-Tag" transform="translate(-751.000000, -318.000000)">
            <g id="Group-19" transform="translate(710.000000, 262.000000)">
                <g id="popup-head-tag" transform="translate(41.000000, 56.000000)">
                    <rect id="Rectangle" fill="#F1F1F1" x="0" y="0" width="46" height="46" rx="23"></rect>
                    <g id="icons8-tag_window" transform="translate(11.000000, 16.000000)">
                        <path d="M1.16666667,13.7083333 C0.68425,13.7083333 0.291666667,13.31575 0.291666667,12.8333333 L0.291666667,1.16666667 C0.291666667,0.68425 0.68425,0.291666667 1.16666667,0.291666667 L16.7469167,0.291666667 C17.09225,0.29225 17.409,0.418833333 17.63825,0.648666667 L22.4408333,5.54983333 C22.82875,5.93775 23.0410833,6.44991667 23.0410833,6.99533333 C23.0410833,7.54075 22.82875,8.0535 22.4431667,8.43908333 L17.6388333,13.2970833 C17.3780833,13.5578333 17.0525833,13.70775 16.7463333,13.70775 L1.16666667,13.70775 L1.16666667,13.7083333 Z" id="Path" fill="#DBFCEC" fill-rule="nonzero"></path>
                        <path d="M18.6666667,5.54166667 C17.86225,5.54166667 17.2083333,6.19616667 17.2083333,7 C17.2083333,7.80383333 17.86225,8.45833333 18.6666667,8.45833333 C19.4710833,8.45833333 20.125,7.80383333 20.125,7 C20.125,6.19616667 19.4710833,5.54166667 18.6666667,5.54166667 Z" id="Path" fill="#DFF0FE" fill-rule="nonzero"></path>
                        <path d="M16.7463333,0.583333333 C17.0140833,0.583916667 17.2579167,0.680166667 17.42825,0.851083333 L22.23725,5.75866667 C22.91975,6.44116667 22.91975,7.55125 22.2349167,8.23608333 L17.4340833,13.0905833 C17.2299167,13.29475 16.9726667,13.4166667 16.7445833,13.4166667 L1.16666667,13.4166667 C0.84525,13.4166667 0.583333333,13.15475 0.583333333,12.8333333 L0.583333333,1.16666667 C0.583333333,0.84525 0.84525,0.583333333 1.16666667,0.583333333 L16.7463333,0.583333333 M18.6666667,8.75 C19.6315,8.75 20.4166667,7.96483333 20.4166667,7 C20.4166667,6.03516667 19.6315,5.25 18.6666667,5.25 C17.7018333,5.25 16.9166667,6.03516667 16.9166667,7 C16.9166667,7.96483333 17.7018333,8.75 18.6666667,8.75 M16.7469167,0 L1.16666667,0 C0.522083333,0 0,0.522083333 0,1.16666667 L0,12.8333333 C0,13.475 0.525,14 1.16666667,14 L16.7445833,14 C16.7451667,14 16.74575,14 16.7463333,14 C17.1593333,14 17.5548333,13.7946667 17.8465,13.5024167 L22.6496667,8.64558333 C23.5608333,7.73441667 23.5608333,6.25683333 22.6496667,5.34566667 L17.84475,0.442166667 C17.5536667,0.151083333 17.15875,0.000583333333 16.7469167,0 L16.7469167,0 Z M18.6666667,8.16666667 C18.0220833,8.16666667 17.5,7.644 17.5,7 C17.5,6.35541667 18.0220833,5.83333333 18.6666667,5.83333333 C19.31125,5.83333333 19.8333333,6.35541667 19.8333333,7 C19.8333333,7.644 19.31125,8.16666667 18.6666667,8.16666667 L18.6666667,8.16666667 Z" id="Shape" fill="#005350" fill-rule="nonzero"></path>
                        <polygon id="Path" fill="#005350" points="9.04166667 4.08333333 9.04166667 6.70833333 6.41666667 6.70833333 6.41666667 7.29166667 9.04166667 7.29166667 9.04166667 9.91666667 9.625 9.91666667 9.625 7.29166667 12.25 7.29166667 12.25 6.70833333 9.625 6.70833333 9.625 4.08333333"></polygon>
                    </g>
                </g>
            </g>
        </g>
    </g>
</svg>