<?xml version="1.0" encoding="UTF-8"?>
<svg width="36px" height="46px" viewBox="0 0 36 46" version="1.1" xmlns="http://www.w3.org/2000/svg" xmlns:xlink="http://www.w3.org/1999/xlink">
    <!-- Generator: Sketch 64 (93537) - https://sketch.com -->
    <title>icon-archive</title>
    <desc>Created with Sketch.</desc>
    <g id="Dashboard-backup" stroke="none" stroke-width="1" fill="none" fill-rule="evenodd">
        <g id="Dashboard01" transform="translate(-576.000000, -828.000000)" fill-rule="nonzero">
            <g id="Group-5" transform="translate(540.000000, 799.000000)">
                <g id="Group-15" transform="translate(36.000000, 24.000000)">
                    <g id="icon-archive" transform="translate(0.000000, 5.000000)">
                        <path d="M6.74137931,40.8448276 L10.7068966,44.8103448 L14.6724138,40.8448276 L18.637931,44.8103448 L22.6034483,40.8448276 L26.5689655,44.8103448 L30.5344828,40.8448276 L34.5,44.8103448 L34.5,11.1034483 L24.5862069,1.18965517 L5.15517241,1.18965517 C2.97413793,1.18965517 1.18965517,2.97413793 1.18965517,5.15517241 L1.18965517,44.8103448" id="Path" fill="#FFFFFF"></path>
                        <path d="M35.3327586,10.2706897 L25.4189655,0.356896552 C25.2206897,0.118965517 24.9034483,0 24.5862069,0 L5.15517241,0 C2.3,0 0,2.3 0,5.15517241 L0,44.8103448 C0,45.4844828 0.515517241,46 1.18965517,46 C1.8637931,46 2.37931034,45.4844828 2.37931034,44.8103448 L2.37931034,5.15517241 C2.37931034,3.60862069 3.60862069,2.37931034 5.15517241,2.37931034 L23.3965517,2.37931034 L23.3965517,7.13793103 C23.3965517,9.99310345 25.6965517,12.2931034 28.5517241,12.2931034 L33.3103448,12.2931034 L33.3103448,41.9551724 L31.3672414,40.012069 C30.8913793,39.5362069 30.137931,39.5362069 29.7017241,40.012069 L26.5689655,43.1448276 L23.4362069,40.012069 C22.9603448,39.5362069 22.2068966,39.5362069 21.7706897,40.012069 L18.637931,43.1448276 L15.5051724,40.012069 C15.0293103,39.5362069 14.2758621,39.5362069 13.8396552,40.012069 L10.7068966,43.1448276 L7.57413793,40.012069 C7.09827586,39.5362069 6.34482759,39.5362069 5.90862069,40.012069 C5.43275862,40.487931 5.43275862,41.2413793 5.90862069,41.6775862 L9.87413793,45.6431034 C10.35,46.1189655 11.1034483,46.1189655 11.5396552,45.6431034 L14.6724138,42.5103448 L17.8051724,45.6431034 C18.2810345,46.1189655 19.0344828,46.1189655 19.4706897,45.6431034 L22.6034483,42.5103448 L25.7362069,45.6431034 C26.212069,46.1189655 26.9655172,46.1189655 27.4017241,45.6431034 L30.5344828,42.5103448 L33.6672414,45.6431034 C33.9051724,45.8810345 34.1827586,46 34.5,46 C34.6586207,46 34.8172414,45.9603448 34.9362069,45.9206897 C35.3724138,45.7224138 35.6896552,45.2862069 35.6896552,44.8103448 L35.6896552,11.1034483 C35.6896552,10.7862069 35.5706897,10.4689655 35.3327586,10.2706897 Z M25.7758621,7.13793103 L25.7758621,4.04482759 L31.6448276,9.9137931 L28.5517241,9.9137931 C27.0051724,9.9137931 25.7758621,8.68448276 25.7758621,7.13793103 Z" id="Shape" fill="#005350"></path>
                        <path d="M26.5689655,36.0862069 L22.2068966,36.0862069 C21.5327586,36.0862069 21.0172414,35.5706897 21.0172414,34.8965517 C21.0172414,34.2224138 21.5327586,33.7068966 22.2068966,33.7068966 L26.5689655,33.7068966 C27.2431034,33.7068966 27.7586207,34.2224138 27.7586207,34.8965517 C27.7586207,35.5706897 27.2431034,36.0862069 26.5689655,36.0862069 Z" id="Path" fill="#15C872"></path>
                        <path d="M26.5689655,20.6206897 L17.0517241,20.6206897 C16.3775862,20.6206897 15.862069,20.1051724 15.862069,19.4310345 C15.862069,18.7568966 16.3775862,18.2413793 17.0517241,18.2413793 L26.5689655,18.2413793 C27.2431034,18.2413793 27.7586207,18.7568966 27.7586207,19.4310345 C27.7586207,20.1051724 27.2431034,20.6206897 26.5689655,20.6206897 Z M26.5689655,25.3793103 L17.0517241,25.3793103 C16.3775862,25.3793103 15.862069,24.8637931 15.862069,24.1896552 C15.862069,23.5155172 16.3775862,23 17.0517241,23 L26.5689655,23 C27.2431034,23 27.7586207,23.5155172 27.7586207,24.1896552 C27.7586207,24.8637931 27.2431034,25.3793103 26.5689655,25.3793103 Z M26.5689655,30.137931 L17.0517241,30.137931 C16.3775862,30.137931 15.862069,29.6224138 15.862069,28.9482759 C15.862069,28.2741379 16.3775862,27.7586207 17.0517241,27.7586207 L26.5689655,27.7586207 C27.2431034,27.7586207 27.7586207,28.2741379 27.7586207,28.9482759 C27.7586207,29.6224138 27.2431034,30.137931 26.5689655,30.137931 Z M12.2931034,20.6206897 L9.12068966,20.6206897 C8.44655172,20.6206897 7.93103448,20.1051724 7.93103448,19.4310345 C7.93103448,18.7568966 8.44655172,18.2413793 9.12068966,18.2413793 L12.2931034,18.2413793 C12.9672414,18.2413793 13.4827586,18.7568966 13.4827586,19.4310345 C13.4827586,20.1051724 12.9672414,20.6206897 12.2931034,20.6206897 Z M12.2931034,25.3793103 L9.12068966,25.3793103 C8.44655172,25.3793103 7.93103448,24.8637931 7.93103448,24.1896552 C7.93103448,23.5155172 8.44655172,23 9.12068966,23 L12.2931034,23 C12.9672414,23 13.4827586,23.5155172 13.4827586,24.1896552 C13.4827586,24.8637931 12.9672414,25.3793103 12.2931034,25.3793103 Z M12.2931034,30.137931 L9.12068966,30.137931 C8.44655172,30.137931 7.93103448,29.6224138 7.93103448,28.9482759 C7.93103448,28.2741379 8.44655172,27.7586207 9.12068966,27.7586207 L12.2931034,27.7586207 C12.9672414,27.7586207 13.4827586,28.2741379 13.4827586,28.9482759 C13.4827586,29.6224138 12.9672414,30.137931 12.2931034,30.137931 Z" id="Shape" fill="#9EB9D3"></path>
                    </g>
                </g>
            </g>
        </g>
    </g>
</svg>