<?xml version="1.0" encoding="UTF-8"?>
<svg width="26px" height="14px" viewBox="0 0 26 14" version="1.1" xmlns="http://www.w3.org/2000/svg" xmlns:xlink="http://www.w3.org/1999/xlink">
    <!-- Generator: Sketch 64 (93537) - https://sketch.com -->
    <title>icon-done</title>
    <desc>Created with Sketch.</desc>
    <g id="Reports" stroke="none" stroke-width="1" fill="none" fill-rule="evenodd">
        <g id="AP-LandingPage-Header-Total-Invoice-fixed-view" transform="translate(-1057.000000, -391.000000)" fill="#FFFFFF" fill-rule="nonzero">
            <g id="Group-19" transform="translate(656.000000, 162.000000)">
                <g id="Group-18" transform="translate(163.000000, 209.000000)">
                    <g id="Group-12">
                        <path d="M256.730742,20.0021913 C256.699675,20.0078402 256.668608,20.0163126 256.640365,20.0247857 C256.369232,20.0727985 256.151761,20.2704997 256.075505,20.5331592 C255.999249,20.7986436 256.078329,21.0810734 256.278855,21.2674766 L260.820325,25.8089473 L250.969175,25.8089473 C250.602017,22.5666536 247.845502,20.0247857 244.507182,20.0247857 C240.923148,20.0247857 238,22.9479339 238,26.5319675 C238,30.1160011 240.923148,33.0391494 244.507182,33.0391494 C247.845502,33.0391494 250.602017,30.4972815 250.969175,27.2549877 L260.820325,27.2549877 L256.278855,31.7964584 C255.990777,32.0845371 255.990777,32.547722 256.278855,32.8358 C256.566933,33.1238787 257.030118,33.1238787 257.318196,32.8358 L263.102358,27.0516383 L263.599434,26.5319675 L263.102358,26.0122967 L257.318196,20.2281351 C257.168509,20.0671503 256.951038,19.9852459 256.730742,20.0021913 Z M244.507182,21.4708261 C247.235454,21.4708261 249.449703,23.6088192 249.568323,26.3060237 C249.568323,26.3144968 249.568323,26.320145 249.568323,26.3286181 C249.534432,26.4557113 249.534432,26.5856294 249.568323,26.7127226 C249.568323,26.7211956 249.568323,26.7268439 249.568323,26.735317 C249.461,29.4438186 247.241102,31.593109 244.507182,31.593109 C241.702654,31.593109 239.44604,29.3364949 239.44604,26.5319675 C239.44604,23.7274401 241.702654,21.4708261 244.507182,21.4708261 Z" id="icon-done"></path>
                    </g>
                </g>
            </g>
        </g>
    </g>
</svg>