<?xml version="1.0" encoding="UTF-8"?>
<svg width="30px" height="30px" viewBox="0 0 30 30" version="1.1" xmlns="http://www.w3.org/2000/svg" xmlns:xlink="http://www.w3.org/1999/xlink">
    <!-- Generator: Sketch 64 (93537) - https://sketch.com -->
    <title>icon-Add-user</title>
    <desc>Created with Sketch.</desc>
    <defs>
        <circle id="path-1" cx="15" cy="15" r="15"></circle>
        <mask id="mask-2" maskContentUnits="userSpaceOnUse" maskUnits="objectBoundingBox" x="0" y="0" width="30" height="30" fill="white">
            <use xlink:href="#path-1"></use>
        </mask>
    </defs>
    <g id="Symbols" stroke="none" stroke-width="1" fill="none" fill-rule="evenodd">
        <g id="web-card-low" transform="translate(-13.000000, -171.000000)">
            <g id="Group-13">
                <g id="web-card">
                    <g id="Group-13">
                        <g id="Group-15" transform="translate(13.000000, 171.000000)">
                            <g id="icon-Add-user">
                                <use id="Oval-2" stroke="#9898AE" mask="url(#mask-2)" stroke-width="2" stroke-dasharray="2,2" xlink:href="#path-1"></use>
                                <path d="M13.4285714,6 C10.9500556,6 8.92857143,8.02148421 8.92857143,10.5 C8.92857143,12.049386 9.71958721,13.4255021 10.9174107,14.2366071 C8.62472114,15.2209821 7,17.4960941 7,20.1428571 L8.28571429,20.1428571 C8.28571429,17.2952012 10.5809155,15 13.4285714,15 C14.3125,15 15.1361607,15.2310268 15.859375,15.6227679 C15.1462054,16.5066964 14.7142857,17.6367191 14.7142857,18.8571429 C14.7142857,21.6897321 17.0245536,24 19.8571429,24 C22.6897321,24 25,21.6897321 25,18.8571429 C25,16.0245536 22.6897321,13.7142857 19.8571429,13.7142857 C18.7346539,13.7142857 17.690011,14.0834265 16.84375,14.6986607 C16.559989,14.5203681 16.2511161,14.3696985 15.9397321,14.2366071 C17.1375556,13.4255021 17.9285714,12.049386 17.9285714,10.5 C17.9285714,8.02148421 15.9070872,6 13.4285714,6 Z M13.4285714,7.28571429 C15.2114959,7.28571429 16.6428571,8.71707621 16.6428571,10.5 C16.6428571,12.2829244 15.2114959,13.7142857 13.4285714,13.7142857 C11.6456476,13.7142857 10.2142857,12.2829244 10.2142857,10.5 C10.2142857,8.71707621 11.6456476,7.28571429 13.4285714,7.28571429 Z M19.8571429,15 C21.9941408,15 23.7142857,16.7201449 23.7142857,18.8571429 C23.7142857,20.9941408 21.9941408,22.7142857 19.8571429,22.7142857 C17.7201449,22.7142857 16,20.9941408 16,18.8571429 C16,16.7201449 17.7201449,15 19.8571429,15 Z M19.2142857,16.2857143 L19.2142857,18.2142857 L17.2857143,18.2142857 L17.2857143,19.5 L19.2142857,19.5 L19.2142857,21.4285714 L20.5,21.4285714 L20.5,19.5 L22.4285714,19.5 L22.4285714,18.2142857 L20.5,18.2142857 L20.5,16.2857143 L19.2142857,16.2857143 Z" id="Shape" fill="#015250" fill-rule="nonzero"></path>
                            </g>
                        </g>
                    </g>
                </g>
            </g>
        </g>
    </g>
</svg>