<?xml version="1.0" encoding="UTF-8"?>
<svg width="18px" height="18px" viewBox="0 0 18 18" version="1.1" xmlns="http://www.w3.org/2000/svg" xmlns:xlink="http://www.w3.org/1999/xlink">
    <!-- Generator: Sketch 64 (93537) - https://sketch.com -->
    <title>icon-date</title>
    <desc>Created with Sketch.</desc>
    <g id="Page-1" stroke="none" stroke-width="1" fill="none" fill-rule="evenodd">
        <g id="AP-Custom-field-added-view-highlights" transform="translate(-302.000000, -807.000000)" fill="#005350" fill-rule="nonzero">
            <g id="Group-15" transform="translate(146.000000, 654.000000)">
                <g id="Group-9" transform="translate(0.000000, 102.000000)">
                    <path d="M159.75,51 C159.339844,51 159,51.3398438 159,51.75 L159,52.5 L156.75,52.5 C156.553711,52.5 156.354492,52.5717772 156.213867,52.7138674 C156.071777,52.8544924 156,53.0537111 156,53.25 L156,68.25 C156,68.4462893 156.071777,68.645508 156.213867,68.7875978 C156.354492,68.9282228 156.553711,69 156.75,69 L172.5,69 C172.696289,69 172.895508,68.9282228 173.037598,68.7875978 C173.178223,68.645508 173.25,68.4462893 173.25,68.25 L173.25,53.25 C173.25,53.0537111 173.178223,52.8544924 173.037598,52.7138674 C172.895508,52.5717772 172.696289,52.5 172.5,52.5 L170.25,52.5 L170.25,51.75 C170.25,51.3398438 169.910156,51 169.5,51 L168.75,51 C168.339844,51 168,51.3398438 168,51.75 L168,52.5 L161.25,52.5 L161.25,51.75 C161.25,51.3398438 160.910156,51 160.5,51 L159.75,51 Z M159.75,51.75 L160.5,51.75 L160.5,54 L159.75,54 L159.75,51.75 Z M168.75,51.75 L169.5,51.75 L169.5,54 L168.75,54 L168.75,51.75 Z M156.75,53.25 L159,53.25 L159,54 C159,54.4101562 159.339844,54.75 159.75,54.75 L160.5,54.75 C160.910156,54.75 161.25,54.4101562 161.25,54 L161.25,53.25 L168,53.25 L168,54 C168,54.4101562 168.339844,54.75 168.75,54.75 L169.5,54.75 C169.910156,54.75 170.25,54.4101562 170.25,54 L170.25,53.25 L172.5,53.25 L172.5,55.875 L156.75,55.875 L156.75,53.25 Z M156.75,56.625 L172.5,56.625 L172.5,68.25 L156.75,68.25 L156.75,56.625 Z M159,58.125 L159,66.75 L170.25,66.75 L170.25,58.125 L159,58.125 Z M159.75,58.875 L161.625,58.875 L161.625,60.75 L159.75,60.75 L159.75,58.875 Z M162.375,58.875 L164.25,58.875 L164.25,60.75 L162.375,60.75 L162.375,58.875 Z M165,58.875 L166.875,58.875 L166.875,60.75 L165,60.75 L165,58.875 Z M167.625,58.875 L169.5,58.875 L169.5,60.75 L167.625,60.75 L167.625,58.875 Z M159.75,61.5 L161.625,61.5 L161.625,63.375 L159.75,63.375 L159.75,61.5 Z M162.375,61.5 L164.25,61.5 L164.25,63.375 L162.375,63.375 L162.375,61.5 Z M165,61.5 L166.875,61.5 L166.875,63.375 L165,63.375 L165,61.5 Z M167.625,61.5 L169.5,61.5 L169.5,63.375 L167.625,63.375 L167.625,61.5 Z M159.75,64.125 L161.625,64.125 L161.625,66 L159.75,66 L159.75,64.125 Z M162.375,64.125 L164.25,64.125 L164.25,66 L162.375,66 L162.375,64.125 Z M165,64.125 L166.875,64.125 L166.875,66 L165,66 L165,64.125 Z M167.625,64.125 L169.5,64.125 L169.5,66 L167.625,66 L167.625,64.125 Z" id="icon-date"></path>
                </g>
            </g>
        </g>
    </g>
</svg>