<?xml version="1.0" encoding="UTF-8"?>
<svg width="23px" height="20px" viewBox="0 0 23 20" version="1.1" xmlns="http://www.w3.org/2000/svg" xmlns:xlink="http://www.w3.org/1999/xlink">
    <!-- Generator: Sketch 63.1 (92452) - https://sketch.com -->
    <title>cashflow</title>
    <desc>Created with Sketch.</desc>
    <g id="Configuration-Flow" stroke="none" stroke-width="1" fill="none" fill-rule="evenodd">
        <g id="Layout+Menu-(First-level)" transform="translate(-37.000000, -818.000000)" fill="#FFFFFF" fill-rule="nonzero">
            <g id="left-nav" transform="translate(0.000000, 90.000000)">
                <path d="M38.4921875,728 C37.673828,728 37,728.673828 37,729.492188 L37,746.507812 C37,747.326172 37.673828,748 38.4921875,748 L58.5078125,748 C59.326172,748 60,747.326172 60,746.507812 L60,729.492188 C60,728.673828 59.326172,728 58.5078125,728 L38.4921875,728 Z M38.4921875,729 L58.5078125,729 C58.7851565,729 59,729.214844 59,729.492188 L59,731 L38,731 L38,729.492188 C38,729.214844 38.214844,729 38.4921875,729 Z M39.5,729.5 C39.2246095,729.5 39,729.72461 39,730 C39,730.27539 39.2246095,730.5 39.5,730.5 C39.7753905,730.5 40,730.27539 40,730 C40,729.72461 39.7753905,729.5 39.5,729.5 Z M41,729.5 C40.7246095,729.5 40.5,729.72461 40.5,730 C40.5,730.27539 40.7246095,730.5 41,730.5 C41.2753905,730.5 41.5,730.27539 41.5,730 C41.5,729.72461 41.2753905,729.5 41,729.5 Z M38,732 L59,732 L59,739 L38,739 L38,732 Z M38,740 L48,740 L48,747 L38.4921875,747 C38.214844,747 38,746.785156 38,746.507812 L38,740 Z M49,740 L59,740 L59,746.507812 C59,746.785156 58.7851565,747 58.5078125,747 L49,747 L49,740 Z M39,741 L39,742 L47,742 L47,741 L39,741 Z M39,743 L39,744 L47,744 L47,743 L39,743 Z M39,745 L39,746 L43.5,746 L43.5,745 L39,745 Z" id="cashflow"></path>
            </g>
        </g>
    </g>
</svg>