<?xml version="1.0" encoding="UTF-8"?>
<svg width="26px" height="26px" viewBox="0 0 26 26" version="1.1" xmlns="http://www.w3.org/2000/svg" xmlns:xlink="http://www.w3.org/1999/xlink">
    <!-- Generator: Sketch 64 (93537) - https://sketch.com -->
    <title>flow-posting</title>
    <desc>Created with Sketch.</desc>
    <defs>
        <linearGradient x1="50%" y1="0%" x2="50%" y2="100%" id="linearGradient-1">
            <stop stop-color="#C2F4DB" stop-opacity="0" offset="0%"></stop>
            <stop stop-color="#8FE5B5" offset="100%"></stop>
        </linearGradient>
    </defs>
    <g id="Page-1" stroke="none" stroke-width="1" fill="none" fill-rule="evenodd">
        <g id="AP-AccountCoding2" transform="translate(-144.000000, -462.000000)">
            <g id="Group-13" transform="translate(144.000000, 265.000000)">
                <g id="flow-posting" transform="translate(0.000000, 197.000000)">
                    <circle id="Oval" stroke="#005350" fill="#FFFFFF" cx="13" cy="13" r="12.5"></circle>
                    <g id="icons8-post_stamp" transform="translate(5.000000, 8.000000)" fill-rule="nonzero">
                        <path d="M3.31067961,8.00970874 L3.31067961,8.00970874 C3.60970874,8.30873786 4.07961165,8.30873786 4.37864078,8.00970874 L4.37864078,8.00970874 C4.6776699,7.71067961 5.14757282,7.71067961 5.44660194,8.00970874 L5.44660194,8.00970874 C5.74563107,8.30873786 6.21553398,8.30873786 6.51456311,8.00970874 L6.51456311,8.00970874 C6.81359223,7.71067961 7.28349515,7.71067961 7.58252427,8.00970874 L7.58252427,8.00970874 C7.8815534,8.30873786 8.35145631,8.30873786 8.65048544,8.00970874 L8.65048544,8.00970874 C8.94951456,7.71067961 9.41941748,7.71067961 9.7184466,8.00970874 L9.7184466,8.00970874 C10.0174757,8.30873786 10.4873786,8.30873786 10.7864078,8.00970874 L10.7864078,8.00970874 C11.0854369,7.71067961 11.5553398,7.71067961 11.8543689,8.00970874 L11.8543689,8.00970874 C12.1533981,8.30873786 12.623301,8.30873786 12.9223301,8.00970874 L12.9223301,8.00970874 C13.2213592,7.71067961 13.2213592,7.2407767 12.9223301,6.94174757 L12.9223301,6.94174757 C12.623301,6.64271845 12.623301,6.17281553 12.9223301,5.87378641 L12.9223301,5.87378641 C13.2213592,5.57475728 13.2213592,5.10485437 12.9223301,4.80582524 L12.9223301,4.80582524 C12.623301,4.50679612 12.623301,4.0368932 12.9223301,3.73786408 L12.9223301,3.73786408 C13.2213592,3.43883495 13.2213592,2.96893204 12.9223301,2.66990291 L12.9223301,2.66990291 C12.623301,2.37087379 12.623301,1.90097087 12.9223301,1.60194175 L12.9223301,1.60194175 C13.2213592,1.30291262 13.2213592,0.833009709 12.9223301,0.533980583 L12.9223301,0.533980583 C12.623301,0.234951456 12.1533981,0.234951456 11.8543689,0.533980583 L11.8543689,0.533980583 C11.5553398,0.833009709 11.0854369,0.833009709 10.7864078,0.533980583 L10.7864078,0.533980583 C10.4873786,0.234951456 10.0174757,0.234951456 9.7184466,0.533980583 L9.7184466,0.533980583 C9.41941748,0.833009709 8.94951456,0.833009709 8.65048544,0.533980583 L8.65048544,0.533980583 C8.35145631,0.234951456 7.8815534,0.234951456 7.58252427,0.533980583 L7.58252427,0.533980583 C7.28349515,0.833009709 6.81359223,0.833009709 6.51456311,0.533980583 L6.51456311,0.533980583 C6.21553398,0.234951456 5.74563107,0.234951456 5.44660194,0.533980583 L5.44660194,0.533980583 C5.14757282,0.833009709 4.6776699,0.833009709 4.37864078,0.533980583 L4.37864078,0.533980583 C4.07961165,0.234951456 3.60970874,0.234951456 3.31067961,0.533980583 L3.31067961,0.533980583 C3.01165049,0.833009709 3.01165049,1.30291262 3.31067961,1.60194175 L3.31067961,1.60194175 C3.60970874,1.90097087 3.60970874,2.37087379 3.31067961,2.66990291 L3.31067961,2.66990291 C3.01165049,2.96893204 3.01165049,3.43883495 3.31067961,3.73786408 L3.31067961,3.73786408 C3.60970874,4.0368932 3.60970874,4.50679612 3.31067961,4.80582524 L3.31067961,4.80582524 C3.01165049,5.10485437 3.01165049,5.57475728 3.31067961,5.87378641 L3.31067961,5.87378641 C3.60970874,6.17281553 3.60970874,6.64271845 3.31067961,6.94174757 L3.31067961,6.94174757 C3.01165049,7.2407767 3.01165049,7.71067961 3.31067961,8.00970874 Z" id="Path" fill="#FFFFFF"></path>
                        <path d="M10.2524272,8.55436893 C9.96407767,8.55436893 9.69708738,8.44757282 9.49417476,8.24466019 C9.40873786,8.1592233 9.30194175,8.11650485 9.18446602,8.11650485 C9.06699029,8.11650485 8.96019417,8.1592233 8.87475728,8.24466019 C8.45825243,8.66116505 7.77475728,8.66116505 7.35825243,8.24466019 C7.27281553,8.1592233 7.16601942,8.11650485 7.04854369,8.11650485 C6.93106796,8.11650485 6.82427184,8.1592233 6.73883495,8.24466019 C6.53592233,8.44757282 6.26893204,8.55436893 5.98058252,8.55436893 C5.69223301,8.55436893 5.42524272,8.44757282 5.2223301,8.24466019 C5.05145631,8.07378641 4.77378641,8.07378641 4.60291262,8.24466019 C4.18640777,8.66116505 3.50291262,8.66116505 3.08640777,8.24466019 C2.95825243,8.11650485 2.95825243,7.91359223 3.08640777,7.7961165 C3.21456311,7.66796117 3.41747573,7.66796117 3.53495146,7.7961165 C3.70582524,7.96699029 3.98349515,7.96699029 4.15436893,7.7961165 C4.57087379,7.37961165 5.25436893,7.37961165 5.67087379,7.7961165 C5.84174757,7.96699029 6.11941748,7.96699029 6.29029126,7.7961165 C6.49320388,7.59320388 6.76019417,7.48640777 7.04854369,7.48640777 C7.3368932,7.48640777 7.6038835,7.59320388 7.80679612,7.7961165 C7.9776699,7.96699029 8.25533981,7.96699029 8.42621359,7.7961165 C8.62912621,7.59320388 8.8961165,7.48640777 9.18446602,7.48640777 C9.47281553,7.48640777 9.73980583,7.59320388 9.94271845,7.7961165 C10.1135922,7.96699029 10.3912621,7.96699029 10.5621359,7.7961165 C10.9786408,7.37961165 11.6621359,7.37961165 12.0786408,7.7961165 C12.2495146,7.96699029 12.5271845,7.96699029 12.6980583,7.7961165 C12.868932,7.62524272 12.868932,7.34757282 12.6980583,7.17669903 C12.4951456,6.97378641 12.3883495,6.70679612 12.3883495,6.4184466 C12.3883495,6.13009709 12.4951456,5.8631068 12.6980583,5.66019417 C12.868932,5.48932039 12.868932,5.21165049 12.6980583,5.0407767 C12.4951456,4.83786408 12.3883495,4.57087379 12.3883495,4.28252427 C12.3883495,3.99417476 12.4951456,3.72718447 12.6980583,3.52427184 C12.868932,3.35339806 12.868932,3.07572816 12.6980583,2.90485437 C12.4951456,2.70194175 12.3883495,2.43495146 12.3883495,2.14660194 C12.3883495,1.85825243 12.4951456,1.59126214 12.6980583,1.38834951 C12.868932,1.21747573 12.868932,0.939805825 12.6980583,0.768932039 C12.5271845,0.598058252 12.2495146,0.598058252 12.0786408,0.768932039 C11.6621359,1.18543689 10.9786408,1.18543689 10.5621359,0.768932039 C10.3912621,0.598058252 10.1135922,0.598058252 9.94271845,0.768932039 C9.73980583,0.97184466 9.47281553,1.07864078 9.18446602,1.07864078 C8.8961165,1.07864078 8.62912621,0.97184466 8.42621359,0.768932039 C8.25533981,0.598058252 7.9776699,0.598058252 7.80679612,0.768932039 C7.6038835,0.97184466 7.3368932,1.07864078 7.04854369,1.07864078 C6.76019417,1.07864078 6.49320388,0.97184466 6.29029126,0.768932039 C6.11941748,0.598058252 5.84174757,0.598058252 5.67087379,0.768932039 C5.25436893,1.18543689 4.57087379,1.18543689 4.15436893,0.768932039 C3.98349515,0.598058252 3.70582524,0.598058252 3.53495146,0.768932039 C3.36407767,0.939805825 3.36407767,1.21747573 3.53495146,1.38834951 C3.73786408,1.59126214 3.84466019,1.85825243 3.84466019,2.14660194 C3.84466019,2.43495146 3.73786408,2.70194175 3.53495146,2.90485437 C3.36407767,3.07572816 3.36407767,3.35339806 3.53495146,3.52427184 C3.73786408,3.72718447 3.84466019,3.99417476 3.84466019,4.28252427 C3.84466019,4.57087379 3.73786408,4.83786408 3.53495146,5.0407767 C3.40679612,5.16893204 3.2038835,5.16893204 3.08640777,5.0407767 C2.95825243,4.91262136 2.95825243,4.70970874 3.08640777,4.59223301 C3.25728155,4.42135922 3.25728155,4.14368932 3.08640777,3.97281553 C2.88349515,3.76990291 2.77669903,3.50291262 2.77669903,3.21456311 C2.77669903,2.92621359 2.88349515,2.6592233 3.08640777,2.45631068 C3.25728155,2.28543689 3.25728155,2.00776699 3.08640777,1.8368932 C2.66990291,1.42038835 2.66990291,0.736893204 3.08640777,0.32038835 C3.50291262,-0.0961165049 4.18640777,-0.0961165049 4.60291262,0.32038835 C4.77378641,0.491262136 5.05145631,0.491262136 5.2223301,0.32038835 C5.42524272,0.117475728 5.69223301,0.0106796117 5.98058252,0.0106796117 C6.26893204,0.0106796117 6.53592233,0.117475728 6.73883495,0.32038835 C6.82427184,0.405825243 6.93106796,0.448543689 7.04854369,0.448543689 C7.16601942,0.448543689 7.27281553,0.405825243 7.35825243,0.32038835 C7.77475728,-0.0961165049 8.45825243,-0.0961165049 8.87475728,0.32038835 C8.96019417,0.405825243 9.06699029,0.448543689 9.18446602,0.448543689 C9.30194175,0.448543689 9.40873786,0.405825243 9.49417476,0.32038835 C9.69708738,0.117475728 9.96407767,0.0106796117 10.2524272,0.0106796117 C10.5407767,0.0106796117 10.807767,0.117475728 11.0106796,0.32038835 C11.1815534,0.491262136 11.4592233,0.491262136 11.6300971,0.32038835 C12.0466019,-0.0961165049 12.7300971,-0.0961165049 13.1466019,0.32038835 C13.5631068,0.736893204 13.5631068,1.42038835 13.1466019,1.8368932 C12.9757282,2.00776699 12.9757282,2.28543689 13.1466019,2.45631068 C13.3495146,2.6592233 13.4563107,2.92621359 13.4563107,3.21456311 C13.4563107,3.50291262 13.3495146,3.76990291 13.1466019,3.97281553 C12.9757282,4.14368932 12.9757282,4.42135922 13.1466019,4.59223301 C13.3495146,4.79514563 13.4563107,5.06213592 13.4563107,5.35048544 C13.4563107,5.63883495 13.3495146,5.90582524 13.1466019,6.10873786 C12.9757282,6.27961165 12.9757282,6.55728155 13.1466019,6.72815534 C13.5631068,7.14466019 13.5631068,7.82815534 13.1466019,8.24466019 C12.7300971,8.66116505 12.0466019,8.66116505 11.6300971,8.24466019 C11.4592233,8.07378641 11.1815534,8.07378641 11.0106796,8.24466019 C10.807767,8.4368932 10.5407767,8.55436893 10.2524272,8.55436893 Z" id="Path" fill="#005350"></path>
                        <path d="M11.3203883,2.45631068 L11.3203883,6.08737864 C11.3203883,6.26893204 11.1815534,6.40776699 11,6.40776699 L5.23300971,6.40776699 C5.05145631,6.40776699 4.91262136,6.26893204 4.91262136,6.08737864 L4.91262136,2.45631068 C4.91262136,2.27475728 5.05145631,2.13592233 5.23300971,2.13592233 L11,2.13592233 C11.1815534,2.13592233 11.3203883,2.27475728 11.3203883,2.45631068 Z" id="Path" fill="url(#linearGradient-1)"></path>
                        <path d="M2.45631068,6.83495146 C1.63398058,6.83495146 0.811650485,6.57864078 0.12815534,6.06601942 C-0.0106796117,5.9592233 -0.0427184466,5.75631068 0.0640776699,5.61747573 C0.170873786,5.47864078 0.373786408,5.44660194 0.512621359,5.55339806 C1.65533981,6.40776699 3.25728155,6.40776699 4.4,5.55339806 C5.56407767,4.6776699 7.10194175,4.52815534 8.41553398,5.16893204 C8.57572816,5.24368932 8.63980583,5.43592233 8.56504854,5.5961165 C8.49029126,5.75631068 8.29805825,5.82038835 8.13786408,5.74563107 C7.03786408,5.21165049 5.75631068,5.33980583 4.78446602,6.06601942 C4.10097087,6.56796117 3.27864078,6.83495146 2.45631068,6.83495146 Z M2.45631068,11 C2.44563107,11 2.44563107,11 2.43495146,11 C2.25339806,11 2.11456311,10.8504854 2.11456311,10.6796117 C2.11456311,10.4980583 2.26407767,10.3592233 2.43495146,10.3592233 C2.44563107,10.3592233 2.44563107,10.3592233 2.45631068,10.3592233 C3.16116505,10.3592233 3.83398058,10.1349515 4.4,9.70776699 C5.07281553,9.19514563 5.88446602,8.92815534 6.72815534,8.92815534 C7.57184466,8.92815534 8.38349515,9.19514563 9.05631068,9.70776699 C9.19514563,9.81456311 9.22718447,10.0174757 9.12038835,10.1563107 C9.01359223,10.2951456 8.81067961,10.3271845 8.67184466,10.2203883 C8.10582524,9.79320388 7.43300971,9.56893204 6.72815534,9.56893204 C6.02330097,9.56893204 5.35048544,9.79320388 4.78446602,10.2203883 C4.11165049,10.7330097 3.3,11 2.45631068,11 Z M0.32038835,9.64368932 C0.14344275,9.64368932 0,9.78713207 0,9.96407767 C0,10.1410233 0.14344275,10.284466 0.32038835,10.284466 C0.497333949,10.284466 0.640776699,10.1410233 0.640776699,9.96407767 C0.640776699,9.78713207 0.497333949,9.64368932 0.32038835,9.64368932 Z" id="Shape" fill="#005350"></path>
                    </g>
                </g>
            </g>
        </g>
    </g>
</svg>