<?xml version="1.0" encoding="UTF-8"?>
<svg width="24px" height="19px" viewBox="0 0 24 19" version="1.1" xmlns="http://www.w3.org/2000/svg" xmlns:xlink="http://www.w3.org/1999/xlink">
    <!-- Generator: Sketch 64 (93537) - https://sketch.com -->
    <title>icon-save-next</title>
    <desc>Created with Sketch.</desc>
    <g id="Page-1" stroke="none" stroke-width="1" fill="none" fill-rule="evenodd">
        <g id="AP-AccountCoding2" transform="translate(-435.000000, -969.000000)" fill="#FFFFFF" fill-rule="nonzero">
            <g id="Group-3" transform="translate(134.000000, 252.000000)">
                <g id="Group-8" transform="translate(0.000000, 154.000000)">
                    <g id="ap-nav" transform="translate(27.000000, 554.000000)">
                        <g id="Group-12">
                            <g id="icon-save-next" transform="translate(274.000000, 9.000000)">
                                <path d="M20,0 C17.7929209,0 16,1.79292087 16,4 C16,6.20707913 17.7929209,8 20,8 C22.2070791,8 24,6.20707913 24,4 C24,1.79292087 22.2070791,0 20,0 Z M20,0.347826087 C22.0190998,0.347826087 23.6521739,1.98090017 23.6521739,4 C23.6521739,6.01909983 22.0190998,7.65217391 20,7.65217391 C17.9809002,7.65217391 16.3478261,6.01909983 16.3478261,4 C16.3478261,1.98090017 17.9809002,0.347826087 20,0.347826087 Z M19.826087,1.91304348 L19.826087,3.82608696 L17.9130435,3.82608696 L17.9130435,4.17391304 L19.826087,4.17391304 L19.826087,6.08695652 L20.173913,6.08695652 L20.173913,4.17391304 L22.0869565,4.17391304 L22.0869565,3.82608696 L20.173913,3.82608696 L20.173913,1.91304348 L19.826087,1.91304348 Z" id="Shape"></path>
                                <path d="M1.09090909,3 C0.489454545,3 0,3.48945455 0,4.09090909 L0,15.7272727 C0,16.3287273 0.489454545,16.8181818 1.09090909,16.8181818 L1.45454545,16.8181818 L1.45454545,16.0909091 L1.09090909,16.0909091 C0.890545455,16.0909091 0.727272727,15.9276364 0.727272727,15.7272727 L0.727272727,4.09090909 C0.727272727,3.89054545 0.890545455,3.72727273 1.09090909,3.72727273 L10.3948865,3.72727273 L11.1221593,4.45454545 L12.150568,4.45454545 L10.8025567,3.10653411 C10.7345567,3.03817044 10.6418182,3 10.5454545,3 L1.09090909,3 Z M5.44886364,5.17684196 C5.43124742,5.17722838 5.41368225,5.17888995 5.39630691,5.18181818 L3.27272727,5.18181818 C2.67455636,5.18181818 2.18181818,5.67455636 2.18181818,6.27272727 L2.18181818,17.9090909 C2.18181818,18.5072618 2.67455636,19 3.27272727,19 L14.9090909,19 C15.5072618,19 16,18.5072618 16,17.9090909 L16,8.45454545 C16,8.35810948 15.9616608,8.26562932 15.8934658,8.19744327 L13.0163353,5.32031251 C12.9351103,5.21386299 12.801961,5.16065781 12.6697444,5.18181818 L5.51065345,5.18181818 C5.49023588,5.17840542 5.4695642,5.17684196 5.44886364,5.17684196 Z M3.27272727,5.90909091 L5.09090909,5.90909091 L5.09090909,9.90909091 C5.09090909,10.5072618 5.58364727,11 6.18181818,11 L12,11 C12.5981709,11 13.0909091,10.5072618 13.0909091,9.90909091 L13.0909091,6.42329527 L15.2727273,8.60511345 L15.2727273,17.9090909 C15.2727273,18.1145564 15.1145564,18.2727273 14.9090909,18.2727273 L13.0909091,18.2727273 L13.0909091,13.9090909 C13.0909091,13.3107436 12.5983473,12.8181818 12,12.8181818 L6.18181818,12.8181818 C5.58347091,12.8181818 5.09090909,13.3107436 5.09090909,13.9090909 L5.09090909,18.2727273 L3.27272727,18.2727273 C3.06726182,18.2727273 2.90909091,18.1145564 2.90909091,17.9090909 L2.90909091,6.27272727 C2.90909091,6.06726182 3.06726182,5.90909091 3.27272727,5.90909091 Z M5.81818182,5.90909091 L12.3636364,5.90909091 L12.3636364,9.90909091 C12.3636364,10.1145564 12.2054655,10.2727273 12,10.2727273 L6.18181818,10.2727273 C5.97635273,10.2727273 5.81818182,10.1145564 5.81818182,9.90909091 L5.81818182,5.90909091 Z M10.1818182,6.63636364 L10.1818182,9.54545455 L11.2727273,9.54545455 L11.2727273,6.63636364 L10.1818182,6.63636364 Z M6.18181818,13.5454545 L12,13.5454545 C12.2016527,13.5454545 12.3636364,13.7074382 12.3636364,13.9090909 L12.3636364,18.2727273 L5.81818182,18.2727273 L5.81818182,13.9090909 C5.81818182,13.7074382 5.98016545,13.5454545 6.18181818,13.5454545 Z M3.63636364,16.8181818 L3.63636364,17.5454545 L4.36363636,17.5454545 L4.36363636,16.8181818 L3.63636364,16.8181818 Z M13.8181818,16.8181818 L13.8181818,17.5454545 L14.5454545,17.5454545 L14.5454545,16.8181818 L13.8181818,16.8181818 Z" id="icon-save"></path>
                            </g>
                        </g>
                    </g>
                </g>
            </g>
        </g>
    </g>
</svg>