<?xml version="1.0" encoding="UTF-8"?>
<svg width="16px" height="16px" viewBox="0 0 16 16" version="1.1" xmlns="http://www.w3.org/2000/svg" xmlns:xlink="http://www.w3.org/1999/xlink">
    <!-- Generator: Sketch 64 (93537) - https://sketch.com -->
    <title>icon-Cancel-process</title>
    <desc>Created with Sketch.</desc>
    <g id="Page-1" stroke="none" stroke-width="1" fill="none" fill-rule="evenodd">
        <g id="AP-Custom-field-added-view" transform="translate(-1718.000000, -275.000000)" fill="#EF5059" fill-rule="nonzero">
            <g id="more-menu" transform="translate(1702.000000, 145.000000)">
                <path d="M24,130 C19.5859249,130 16,133.585925 16,138 C16,142.414075 19.5859249,146 24,146 C28.4140751,146 32,142.414075 32,138 C32,133.585925 28.4140751,130 24,130 Z M24,130.695652 C28.0380988,130.695652 31.3043478,133.961901 31.3043478,138 C31.3043478,142.038099 28.0380988,145.304348 24,145.304348 C19.9619012,145.304348 16.6956522,142.038099 16.6956522,138 C16.6956522,133.961901 19.9619012,130.695652 24,130.695652 Z M26.7792118,134.86481 C26.6874654,134.866979 26.6002931,134.905315 26.5366849,134.971467 L24,137.508152 L21.4633151,134.971467 C21.3978296,134.904152 21.3079081,134.866174 21.2139944,134.866168 C21.072456,134.866206 20.9450522,134.951996 20.8917924,135.083132 C20.8385327,135.214268 20.8700374,135.364598 20.9714675,135.463315 L23.5081523,138 L20.9714675,140.536685 C20.8806011,140.623925 20.8439977,140.753473 20.875774,140.875366 C20.9075503,140.997259 21.0027408,141.09245 21.1246337,141.124226 C21.2465266,141.156002 21.3760746,141.119399 21.4633151,141.028533 L24,138.491848 L26.5366849,141.028533 C26.6239254,141.119399 26.7534734,141.156002 26.8753663,141.124226 C26.9972592,141.09245 27.0924497,140.997259 27.124226,140.875366 C27.1560023,140.753473 27.1193989,140.623925 27.0285325,140.536685 L24.4918477,138 L27.0285325,135.463315 C27.131921,135.363896 27.1636879,135.211212 27.1085316,135.078807 C27.0533754,134.946402 26.9226059,134.861426 26.7792118,134.86481 Z" id="icon-Cancel-process"></path>
            </g>
        </g>
    </g>
</svg>