<?xml version="1.0" encoding="UTF-8"?>
<svg width="16px" height="20px" viewBox="0 0 16 20" version="1.1" xmlns="http://www.w3.org/2000/svg" xmlns:xlink="http://www.w3.org/1999/xlink">
    <!-- Generator: Sketch 64 (93537) - https://sketch.com -->
    <title>icon-delete</title>
    <desc>Created with Sketch.</desc>
    <g id="Page-1" stroke="none" stroke-width="1" fill="none" fill-rule="evenodd">
        <g id="AP-LandingPage" transform="translate(-828.000000, -808.000000)" fill="#EF5059" fill-rule="nonzero">
            <g id="Group-19" transform="translate(710.000000, 189.000000)">
                <path d="M124,619 L123,620 L118,620 L118,622 L119,622 L119,637 C119,637.522222 119.191329,638.05461 119.568359,638.431641 C119.94539,638.808671 120.477778,639 121,639 L131,639 C131.522222,639 132.05461,638.808671 132.431641,638.431641 C132.808671,638.05461 133,637.522222 133,637 L133,622 L134,622 L134,620 L129,620 L128,619 L124,619 Z M121,622 L131,622 L131,637 L121,637 L121,622 Z M123,624 L123,635 L125,635 L125,624 L123,624 Z M127,624 L127,635 L129,635 L129,624 L127,624 Z" id="icon-delete"></path>
            </g>
        </g>
    </g>
</svg>