<?xml version="1.0" encoding="UTF-8"?>
<svg width="17px" height="12px" viewBox="0 0 17 12" version="1.1" xmlns="http://www.w3.org/2000/svg" xmlns:xlink="http://www.w3.org/1999/xlink">
    <!-- Generator: Sketch 64 (93537) - https://sketch.com -->
    <title>icon-ship-to-white</title>
    <desc>Created with Sketch.</desc>
    <g id="Page-1" stroke="none" stroke-width="1" fill="none" fill-rule="evenodd">
        <g id="AP-Custom-field-added-view-highlights" transform="translate(-154.000000, -406.000000)" fill="#005350" fill-rule="nonzero">
            <g id="Group-8" transform="translate(145.000000, 358.000000)">
                <g id="Group-13" transform="translate(0.000000, 38.000000)">
                    <path d="M9.91216216,10 C9.41427373,10 9,10.4142737 9,10.9121622 L9,19.4054054 C9,19.9387668 9.43961157,20.3783784 9.97297297,20.3783784 L11.3006757,20.3783784 C11.4552366,21.2981421 12.2546452,22 13.2162162,22 C14.1777872,22 14.9771961,21.2981421 15.1317568,20.3783784 L20.0574324,20.3783784 C20.2119934,21.2981421 21.0114019,22 21.972973,22 C22.934544,22 23.7339529,21.2981421 23.8885135,20.3783784 L24.2432432,20.3783784 C24.5130911,20.3783784 24.75,20.2567568 24.9222973,20.0844595 C25.0945946,19.9121622 25.2162162,19.6752533 25.2162162,19.4054054 L25.2162162,16.2939189 C25.2162162,15.9290541 25.0768583,15.5945946 24.9527027,15.3412162 C24.8285475,15.0878378 24.6993243,14.9054054 24.6993243,14.9054054 L24.6993243,14.8952703 L23.3716216,13.1114865 L23.3614865,13.1114865 L23.3614865,13.1013514 C23.0739019,12.7415541 22.6127533,12.2702703 21.972973,12.2702703 L19.3783784,12.2702703 C19.2618243,12.2702703 19.1554054,12.2918074 19.0540541,12.3310811 L19.0540541,10.9425676 C19.0540541,10.4231421 18.6309123,10 18.1114865,10 L9.91216216,10 Z M9.91216216,10.6486486 L18.1114865,10.6486486 C18.2407096,10.6486486 18.4054054,10.8133448 18.4054054,10.9425676 L18.4054054,19.7297297 L15.1317568,19.7297297 C14.9771961,18.8099664 14.1777872,18.1081081 13.2162162,18.1081081 C12.2546452,18.1081081 11.4552366,18.8099664 11.3006757,19.7297297 L9.97297297,19.7297297 C9.79307449,19.7297297 9.64864865,19.5853042 9.64864865,19.4054054 L9.64864865,10.9121622 C9.64864865,10.7614019 9.76140195,10.6486486 9.91216216,10.6486486 Z M16.4391892,12.1385135 L16.2162162,12.3716216 L13.5912162,15.25 L11.8885135,13.7601351 L11.4628378,14.2466216 L11.7060811,14.4594595 L13.3885135,15.9493243 L13.6317568,16.1621622 L13.8445946,15.9290541 L16.7027027,12.8175676 L16.9155405,12.5743243 L16.4391892,12.1385135 Z M19.3783784,12.9189189 L20.6756757,12.9189189 L20.6756757,15.8378378 C20.6756757,16.1076857 20.7972973,16.3445946 20.9695946,16.5168919 C21.1418919,16.6891892 21.3788008,16.8108108 21.6486486,16.8108108 L24.5675676,16.8108108 L24.5675676,19.4054054 C24.5675676,19.4598818 24.527027,19.5472973 24.4560811,19.6182432 C24.3851351,19.6891892 24.2977197,19.7297297 24.2432432,19.7297297 L23.8885135,19.7297297 C23.7339529,18.8099664 22.934544,18.1081081 21.972973,18.1081081 C21.0114019,18.1081081 20.2119934,18.8099664 20.0574324,19.7297297 L19.0540541,19.7297297 L19.0540541,13.2432432 C19.0540541,13.1887668 19.0945946,13.1013514 19.1655405,13.0304054 C19.2364865,12.9594595 19.3239019,12.9189189 19.3783784,12.9189189 Z M21.3243243,12.9189189 L21.972973,12.9189189 C22.2402872,12.9189189 22.6127533,13.2191722 22.8445946,13.5067568 L24.1722973,15.2804054 L24.1824324,15.2905405 C24.1887668,15.2994089 24.2761826,15.4235641 24.375,15.625 C24.4573479,15.7922297 24.5004224,15.9911317 24.527027,16.1621622 L21.6486486,16.1621622 C21.5941722,16.1621622 21.5067568,16.1216216 21.4358108,16.0506757 C21.3648649,15.9797297 21.3243243,15.8923143 21.3243243,15.8378378 L21.3243243,12.9189189 Z M13.2162162,18.7567568 C13.9370776,18.7567568 14.5135135,19.3331926 14.5135135,20.0540541 C14.5135135,20.7749155 13.9370776,21.3513514 13.2162162,21.3513514 C12.4953548,21.3513514 11.9189189,20.7749155 11.9189189,20.0540541 C11.9189189,19.3331926 12.4953548,18.7567568 13.2162162,18.7567568 Z M21.972973,18.7567568 C22.6938344,18.7567568 23.2702703,19.3331926 23.2702703,20.0540541 C23.2702703,20.7749155 22.6938344,21.3513514 21.972973,21.3513514 C21.2521116,21.3513514 20.6756757,20.7749155 20.6756757,20.0540541 C20.6756757,19.3331926 21.2521116,18.7567568 21.972973,18.7567568 Z" id="icon-ship-to-white"></path>
                </g>
            </g>
        </g>
    </g>
</svg>