<?xml version="1.0" encoding="UTF-8"?>
<svg width="13px" height="14px" viewBox="0 0 13 14" version="1.1" xmlns="http://www.w3.org/2000/svg" xmlns:xlink="http://www.w3.org/1999/xlink">
    <!-- Generator: Sketch 64 (93537) - https://sketch.com -->
    <title>icon-bill-to-whote</title>
    <desc>Created with Sketch.</desc>
    <g id="Page-1" stroke="none" stroke-width="1" fill="none" fill-rule="evenodd">
        <g id="AP-Custom-field-added-view-highlights" transform="translate(-155.000000, -367.000000)" fill="#005350" fill-rule="nonzero">
            <g id="Group-8" transform="translate(145.000000, 358.000000)">
                <g id="Group-13">
                    <g id="Group-2" transform="translate(10.000000, 6.000000)">
                        <g id="icons8-location" transform="translate(0.000000, 3.000000)">
                            <path d="M9.43478261,0 C8.53125,0 7.74065904,0.526664478 7.31980291,1.2982337 C7.02972139,1.25186813 6.73607352,1.22333552 6.45193622,1.21976917 L6.45193622,1.2173913 L6.39130435,1.2173913 C2.86039417,1.2173913 0,4.07778548 0,7.60869565 C0,11.1396061 2.86039417,14 6.39130435,14 C9.92221483,14 12.7826087,11.1396061 12.7826087,7.60869565 C12.7826087,6.24269709 12.318954,4.90523113 11.5164743,3.82336957 C11.728091,3.33831522 11.8695652,2.89130435 11.8695652,2.55723513 C11.8695652,1.15675943 10.7734377,0 9.43478261,0 Z M9.43478261,0.608695652 C10.4393681,0.608695652 11.2608696,1.49082896 11.2608696,2.55723513 C11.2608696,3.28719422 10.2871942,4.99082896 9.43478261,6.23913043 C8.582371,4.99082896 7.60869565,3.28719422 7.60869565,2.55723513 C7.60869565,1.49082896 8.43019709,0.608695652 9.43478261,0.608695652 Z M9.43478261,1.2173913 C8.76545509,1.2173913 8.2173913,1.76545509 8.2173913,2.43478261 C8.2173913,3.10411013 8.76545509,3.65217391 9.43478261,3.65217391 C10.1041101,3.65217391 10.6521739,3.10411013 10.6521739,2.43478261 C10.6521739,1.76545509 10.1041101,1.2173913 9.43478261,1.2173913 Z M9.43478261,1.82608696 C9.77479635,1.82608696 10.0434783,2.09476917 10.0434783,2.43478261 C10.0434783,2.77479635 9.77479635,3.04347826 9.43478261,3.04347826 C9.09476917,3.04347826 8.82608696,2.77479635 8.82608696,2.43478261 C8.82608696,2.09476917 9.09476917,1.82608696 9.43478261,1.82608696 Z M6.69565217,1.84035326 C6.8252377,1.84629748 6.95838987,1.85818622 7.09154204,1.8736413 C7.03447683,2.0923913 7,2.32065217 7,2.55723513 C7,2.9899797 7.23420509,3.61056378 7.55638587,4.26086957 L6.69565217,4.26086957 L6.69565217,1.84035326 Z M6.08695652,1.8665083 L6.08695652,4.26086957 L4.17527174,4.26086957 C4.61990504,2.96620252 5.30706522,2.0567257 6.08695652,1.8665083 Z M4.68648113,2.08169165 C4.207371,2.6107337 3.81029204,3.35852574 3.52615504,4.26086957 L1.68104635,4.26086957 C2.40981665,3.23845109 3.45838987,2.45974857 4.68648113,2.08169165 Z M11.2168819,4.4475203 C11.7887228,5.28804348 12.1085257,6.27955178 12.1620246,7.30434783 L9.73675287,7.30434783 C9.73556378,7.16525143 9.72961957,7.03091048 9.72129748,6.89300287 C10.0731997,6.38536013 10.700917,5.44497283 11.2168819,4.4475203 Z M1.2982337,4.86956522 L3.35733696,4.86956522 C3.1790083,5.61022426 3.07201087,6.43053661 3.05180035,7.30434783 L0.624150739,7.30434783 C0.669327522,6.42697026 0.903532609,5.60071339 1.2982337,4.86956522 Z M3.98980978,4.86956522 L6.08695652,4.86956522 L6.08695652,7.30434783 L3.660496,7.30434783 C3.68308439,6.43291448 3.79721483,5.60428004 3.98980978,4.86956522 Z M6.69565217,4.86956522 L7.8821333,4.86956522 C8.32082209,5.65777861 8.78804348,6.36990504 9.10071339,6.82404891 C9.11022426,6.98097826 9.11616848,7.14266304 9.12092391,7.30434783 L6.69565217,7.30434783 L6.69565217,4.86956522 Z M0.624150739,7.91304348 L3.05180035,7.91304348 C3.07201087,8.7868547 3.1790083,9.60716704 3.35733696,10.3478261 L1.2982337,10.3478261 C0.903532609,9.61667791 0.669327522,8.79042135 0.624150739,7.91304348 Z M3.660496,7.91304348 L6.08695652,7.91304348 L6.08695652,10.3478261 L3.98980978,10.3478261 C3.79721483,9.61311157 3.68308439,8.78447683 3.660496,7.91304348 Z M6.69565217,7.91304348 L9.1221127,7.91304348 C9.09952461,8.78447683 8.98539417,9.61311157 8.79279891,10.3478261 L6.69565217,10.3478261 L6.69565217,7.91304348 Z M9.73080835,7.91304348 L12.158458,7.91304348 C12.1132812,8.79042135 11.8790761,9.61667791 11.484375,10.3478261 L9.42527174,10.3478261 C9.6036007,9.60716704 9.71059783,8.7868547 9.73080835,7.91304348 Z M1.68104635,10.9565217 L3.52615504,10.9565217 C3.81029204,11.8588656 4.207371,12.6066576 4.68648113,13.1356997 C3.45838987,12.7576427 2.40981665,11.9789402 1.68104635,10.9565217 Z M4.17527174,10.9565217 L6.08695652,10.9565217 L6.08695652,13.3520721 C5.308254,13.1606659 4.61990504,12.2511888 4.17527174,10.9565217 Z M6.69565217,10.9565217 L8.60733696,10.9565217 C8.16270396,12.2511888 7.4743547,13.1606659 6.69565217,13.3520721 L6.69565217,10.9565217 Z M9.25645396,10.9565217 L11.1015627,10.9565217 C10.372792,11.9789402 9.32421883,12.7576427 8.09612787,13.1356997 C8.5752377,12.6066576 8.97231665,11.8588656 9.25645396,10.9565217 Z" id="icon-bill-to-whote"></path>
                        </g>
                    </g>
                </g>
            </g>
        </g>
    </g>
</svg>