<svg id="Capa_1" enable-background="new 0 0 444 444" height="512" viewBox="0 0 444 444" width="512" xmlns="http://www.w3.org/2000/svg"><g>
<path fill="#4cd796" d="m67 50c0 5.523-4.477 10-10 10s-10-4.477-10-10 4.477-10 10-10 10 4.477 10 10zm35-10c-5.523 0-10 4.477-10 10s4.477 10 10 10 10-4.477 10-10-4.477-10-10-10zm240.032 184h-240.032c-5.523 0-10 4.478-10 10s4.477 10 10 10h240.032c5.523 0 10-4.478 10-10s-4.477-10-10-10zm0-48h-240.032c-5.523 0-10 4.478-10 10s4.477 10 10 10h240.032c5.523 0 10-4.478 10-10s-4.477-10-10-10zm0-48h-240.032c-5.523 0-10 4.478-10 10s4.477 10 10 10h240.032c5.523 0 10-4.478 10-10s-4.477-10-10-10zm-195.032-88c-5.523 0-10 4.477-10 10s4.477 10 10 10 10-4.477 10-10-4.477-10-10-10zm280 170.5c-5.51 0-10 4.479-10 10 0 5.51 4.49 10 10 10s10-4.49 10-10c0-5.521-4.49-10-10-10zm10-180.5v145.5c0 5.51-4.49 10-10 10s-10-4.49-10-10v-75.5h-390v248h39.66c20.429-25.91 71.845-76 155.34-76s134.912 50.09 155.34 76h39.66v-82.5c0-.01 0-.01 0-.021.01-5.5 4.49-9.979 10-9.979s10 4.479 10 10v92.5c0 5.523-4.477 10-10 10h-49.657c-20.399 25.91-71.542 76-155.343 76s-134.944-50.09-155.343-76h-49.657c-5.523 0-10-4.478-10-10v-328c0-16.542 13.458-30 30-30h370c16.542 0 30 13.458 30 30zm-281 328c0 36.393 29.607 66 66 66s66-29.607 66-66-29.607-66-66-66-66 29.607-66 66zm134.383-52.121c23.406 30.668 23.406 73.575-.001 104.242 26.794-11.282 50.784-29.09 69.383-52.122-18.599-23.031-42.588-40.837-69.382-52.12zm-206.148 52.121c18.596 23.029 42.584 40.828 69.374 52.111-23.395-30.663-23.396-73.556-.002-104.22-26.788 11.283-50.776 29.081-69.372 52.109zm332.765-328c0-5.514-4.486-10-10-10h-370c-5.514 0-10 4.486-10 10v50h390zm-241 328c0-25.364 20.636-46 46-46s46 20.636 46 46-20.636 46-46 46-46-20.636-46-46zm20 0c0 14.337 11.664 26 26 26s26-11.663 26-26-11.664-26-26-26-26 11.663-26 26z"/></g></svg>