<?xml version="1.0" encoding="UTF-8"?>
<svg width="26px" height="26px" viewBox="0 0 26 26" version="1.1" xmlns="http://www.w3.org/2000/svg" xmlns:xlink="http://www.w3.org/1999/xlink">
    <!-- Generator: Sketch 64 (93537) - https://sketch.com -->
    <title>flow-processing</title>
    <desc>Created with Sketch.</desc>
    <g id="Page-1" stroke="none" stroke-width="1" fill="none" fill-rule="evenodd">
        <g id="AP-AccountCoding2" transform="translate(-144.000000, -586.000000)">
            <g id="Group-13" transform="translate(144.000000, 265.000000)">
                <g id="flow-processing" transform="translate(0.000000, 321.000000)">
                    <circle id="Oval" stroke="#005350" fill="#FFFFFF" cx="13" cy="13" r="12.5"></circle>
                    <path d="M12.9853088,7 C10.5125233,7 8.38545179,8.50359557 7.4702852,10.6491684 C7.46183453,10.6647339 7.45418186,10.6807195 7.44735689,10.6970632 C7.44596999,10.700412 7.44517067,10.7039036 7.44379026,10.7072537 C7.41479879,10.7772987 7.39017958,10.8493855 7.36379593,10.9207417 C7.34201327,10.9797418 7.31743742,11.0382854 7.29755856,11.0975444 C7.29458038,11.1068077 7.29186189,11.1161525 7.28940627,11.1255679 C7.2830789,11.1448253 7.27516254,11.1632909 7.26902555,11.1826339 C7.20833359,11.3615273 7.24907116,11.5592537 7.37553351,11.6995877 C7.50199586,11.8399217 7.69443141,11.9009451 7.87865432,11.8591328 C8.06287723,11.8173204 8.21011457,11.6792029 8.26360485,11.4980258 C8.28273456,11.4377312 8.30645931,11.3794771 8.32780415,11.3202039 C8.35476821,11.2456778 8.38117425,11.1711795 8.41187462,11.0970349 C8.41193603,11.0968867 8.41181319,11.0966738 8.41187462,11.0965254 C9.15678191,9.30508627 10.9194146,8.04349304 12.9853088,8.04349304 C15.6386802,8.04349304 17.794571,10.118781 17.9306916,12.7376832 C17.9456058,13.0255545 18.1910619,13.2468299 18.4789332,13.2319157 C18.7668044,13.2170015 18.9880799,12.9715454 18.9731656,12.6836741 C18.8087599,9.52058167 16.1848904,7 12.9853088,7 Z M7.42035241,12.8069777 L7.06878495,13.05817 L7,13.3491049 L7.00815229,13.4907508 L7.00917134,13.5050174 L7.0106999,13.5187743 L7.04330906,13.8107283 L7.04483759,13.8244852 L7.0473852,13.8382423 L7.09527989,14.1266293 L7.09782747,14.1403865 L7.10088459,14.1541434 L7.11260352,14.2066238 L7.37194822,14.5515676 L7.8030005,14.5826481 L8.1097304,14.2784659 L8.13113015,13.9798881 L8.12195884,13.9381077 L8.07814027,13.6741775 L8.04960726,13.4183994 L8.04145497,13.2884723 L7.84019532,12.9063336 L7.42035241,12.8069777 Z M8.47913101,15.4911188 L8.06642137,15.6184983 L7.89063761,16.0128654 L7.97878424,16.298705 L8.0868021,16.4607318 L8.09495439,16.4724507 L8.10310668,16.4836602 L8.27889041,16.7180384 L8.2870427,16.7292479 L8.29621401,16.7399478 L8.48473572,16.9651548 L8.87400753,17.1521479 L9.27092205,16.9819688 L9.40339688,16.5707877 L9.28518869,16.2961576 L9.10532884,16.0811409 L8.94686863,15.8696908 L8.84598403,15.7188735 L8.47913101,15.4911188 Z M16.8097518,16.3878707 C16.6743541,16.3907014 16.5453608,16.4460625 16.4500318,16.5422547 C16.4228953,16.5689392 16.3943876,16.5962808 16.364433,16.6242871 C16.2226576,16.7501628 16.1603138,16.9430344 16.2015873,17.1280789 C16.2428608,17.3131234 16.3812566,17.4612208 16.563085,17.5149178 C16.7449135,17.5686149 16.9415608,17.5194614 17.0767391,17.3865261 C17.1109592,17.3545319 17.1462272,17.3215421 17.1816999,17.2866607 C17.337254,17.1379032 17.3855091,16.9088976 17.3032072,16.7100201 C17.2209053,16.5111425 17.0249357,16.3832049 16.8097518,16.3878707 Z M10.5115988,17.3697121 C10.2705082,17.3745641 10.0641445,17.5439851 10.0124367,17.7795154 C9.96072901,18.0150457 10.0771472,18.2553294 10.2940344,18.3607247 C10.4095292,18.4188632 10.5279099,18.4719806 10.64764,18.5227515 C10.6478097,18.5229215 10.6479795,18.5230913 10.6481495,18.523261 C10.6590145,18.5285686 10.6700607,18.533497 10.6812681,18.5380371 C10.6821801,18.5384172 10.6829035,18.5391858 10.6838158,18.5395656 C10.6882083,18.5413239 10.6926245,18.5430225 10.6970632,18.5446607 C10.7376585,18.5615674 10.7778917,18.5774942 10.8167999,18.5925555 C10.9906417,18.6599078 11.1872101,18.6294004 11.3324599,18.5125252 C11.4777096,18.39565 11.5495737,18.210163 11.5209816,18.0259354 C11.4923896,17.8417078 11.3676852,17.6867282 11.1938434,17.6193759 C11.157048,17.6051322 11.1214844,17.5909822 11.0873541,17.5765765 C11.0846452,17.5755348 11.0819277,17.5745157 11.0792018,17.5735193 C10.9705961,17.5281563 10.8652876,17.4801548 10.7633005,17.4288163 C10.6856867,17.3883116 10.5991291,17.3679863 10.5115988,17.3697121 L10.5115988,17.3697121 Z M15.2429835,17.5195104 L14.9454249,17.5500814 L14.8267073,17.5995046 L14.8231406,17.6010333 L14.7492605,17.6275282 L14.439983,17.9286534 L14.4639304,18.3602152 L14.8047981,18.6256741 L15.1033756,18.6088601 L15.2006936,18.5737035 L15.2124126,18.5696271 L15.223622,18.5645319 L15.3464158,18.5140898 L15.6404077,18.1976789 L15.5960796,17.7681553 L15.2429835,17.5195104 Z M12.8538532,17.9515818 L12.4579577,18.1248178 L12.3285401,18.5370179 L12.5537472,18.9053996 L12.8390774,18.9950748 L13.074984,18.998132 L13.4708798,18.8248957 L13.6002972,18.4132051 L13.3750903,18.0443141 L13.0897601,17.954639 L12.8538532,17.9515818 Z" id="Shape" fill="#005350" fill-rule="nonzero"></path>
                </g>
            </g>
        </g>
    </g>
</svg>