<?xml version="1.0" encoding="UTF-8"?>
<svg width="26px" height="26px" viewBox="0 0 26 26" version="1.1" xmlns="http://www.w3.org/2000/svg" xmlns:xlink="http://www.w3.org/1999/xlink">
    <!-- Generator: Sketch 64 (93537) - https://sketch.com -->
    <title>flow-submission</title>
    <desc>Created with Sketch.</desc>
    <defs>
        <linearGradient x1="50%" y1="0%" x2="50%" y2="100%" id="linearGradient-1">
            <stop stop-color="#15C872" stop-opacity="0" offset="0%"></stop>
            <stop stop-color="#15C872" stop-opacity="0.452824519" offset="100%"></stop>
        </linearGradient>
    </defs>
    <g id="Page-1" stroke="none" stroke-width="1" fill="none" fill-rule="evenodd">
        <g id="AP-AccountCoding2" transform="translate(-144.000000, -648.000000)">
            <g id="Group-13" transform="translate(144.000000, 265.000000)">
                <g id="flow-submission" transform="translate(0.000000, 383.000000)">
                    <circle id="Oval" stroke="#005350" fill="#FFFFFF" cx="13" cy="13" r="12.5"></circle>
                    <g id="Group-3" transform="translate(8.000000, 6.306854)">
                        <rect id="Rectangle" fill="url(#linearGradient-1)" x="1" y="2.69314633" width="8" height="10"></rect>
                        <path d="M6.83958333,1.59872116e-14 C6.82451168,0.000330604712 6.8094837,0.00175217579 6.79461813,0.00425743749 L-4.84057239e-13,0.00425743749 L-4.84057239e-13,13.6931463 L10.5777778,13.6931463 L10.5777778,11.6350735 L9.95555556,12.1278685 L9.95555556,13.0709241 L8.76397573,13.0709241 L8.71111111,13.1128513 L8.71111111,13.0709241 L0.622222222,13.0709241 L0.622222222,0.62647966 L6.53333333,0.62647966 L6.53333333,4.04870188 L9.95555556,4.04870188 L9.95555556,5.61397966 L10.5777778,6.10677468 L10.5777778,3.60877148 L7.09053831,0.121531735 C7.07376922,0.09958432 7.05415239,0.0799674932 7.03220498,0.0631984019 L6.97326373,0.00425743749 L6.89244796,0.00425743749 C6.87497959,0.00133762591 6.85729382,1.59872116e-14 6.83958333,1.59872116e-14 Z M7.15555556,1.06641022 L9.51562516,3.42647966 L7.15555556,3.42647966 L7.15555556,1.06641022 Z M2.48888889,5.60425744 L2.48888889,6.22647966 L8.08888889,6.22647966 L8.08888889,5.60425744 L2.48888889,5.60425744 Z M9.33333333,5.91536855 L9.33333333,7.78203522 L7.15555556,7.78203522 L7.15555556,9.95981299 L9.33333333,9.95981299 L9.33333333,11.8264797 L13.0666667,8.8709241 L9.33333333,5.91536855 Z M9.95555556,7.20174019 L12.0640626,8.8709241 L9.95555556,10.540108 L9.95555556,9.95981299 L9.95555556,9.33759077 L9.33333333,9.33759077 L7.77777778,9.33759077 L7.77777778,8.40425744 L9.33333333,8.40425744 L9.95555556,8.40425744 L9.95555556,7.78203522 L9.95555556,7.20174019 Z M2.48888889,7.4709241 L2.48888889,8.09314633 L6.53333333,8.09314633 L6.53333333,7.4709241 L2.48888889,7.4709241 Z M2.48888889,9.33759077 L2.48888889,9.95981299 L6.53333333,9.95981299 L6.53333333,9.33759077 L2.48888889,9.33759077 Z" id="Shape" fill="#005350" fill-rule="nonzero"></path>
                    </g>
                </g>
            </g>
        </g>
    </g>
</svg>