<?xml version="1.0" encoding="UTF-8"?>
<svg width="26px" height="26px" viewBox="0 0 26 26" version="1.1" xmlns="http://www.w3.org/2000/svg" xmlns:xlink="http://www.w3.org/1999/xlink">
    <!-- Generator: Sketch 64 (93537) - https://sketch.com -->
    <title>flow-payment</title>
    <desc>Created with Sketch.</desc>
    <g id="Page-1" stroke="none" stroke-width="1" fill="none" fill-rule="evenodd">
        <g id="AP-AccountCoding2" transform="translate(-144.000000, -265.000000)">
            <g id="Group-13" transform="translate(144.000000, 265.000000)">
                <g id="flow-payment">
                    <circle id="Oval" stroke="#005350" fill="#FFFFFF" cx="13" cy="13" r="12.5"></circle>
                    <g id="Group-8" transform="translate(6.000000, 7.000000)" fill-rule="nonzero">
                        <polygon id="Path" fill="#FFFFFF" points="2.37735849 11.2075472 2.83018868 11.6603774 3.96226415 10.5283019 5.09433962 11.6603774 6.22641509 10.5283019 7.35849057 11.6603774 8.49056604 10.5283019 9.62264151 11.6603774 10.754717 10.5283019 11.8867925 11.6603774 11.8867925 1.69811321 2.37735849 1.69811321"></polygon>
                        <path d="M11.8867925,12 C11.7962264,12 11.7169811,11.9660377 11.6490566,11.8981132 L10.754717,11.0037736 L9.86037736,11.8981132 C9.7245283,12.0339623 9.50943396,12.0339623 9.38490566,11.8981132 L8.49056604,11.0037736 L7.59622642,11.8981132 C7.46037736,12.0339623 7.24528302,12.0339623 7.12075472,11.8981132 L6.22641509,11.0037736 L5.33207547,11.8981132 C5.19622642,12.0339623 4.98113208,12.0339623 4.85660377,11.8981132 L3.96226415,11.0037736 L3.06792453,11.8981132 C2.93207547,12.0339623 2.71698113,12.0339623 2.59245283,11.8981132 L2.13962264,11.445283 C2.00377358,11.309434 2.00377358,11.0943396 2.13962264,10.9698113 C2.2754717,10.8339623 2.49056604,10.8339623 2.61509434,10.9698113 L2.83018868,11.1849057 L3.7245283,10.290566 C3.86037736,10.154717 4.0754717,10.154717 4.2,10.290566 L5.09433962,11.1849057 L5.98867925,10.290566 C6.1245283,10.154717 6.33962264,10.154717 6.46415094,10.290566 L7.35849057,11.1849057 L8.25283019,10.290566 C8.38867925,10.154717 8.60377358,10.154717 8.72830189,10.290566 L9.62264151,11.1849057 L10.5169811,10.290566 C10.6528302,10.154717 10.8679245,10.154717 10.9924528,10.290566 L11.5471698,10.845283 L11.5471698,2.03773585 L2.71698113,2.03773585 L2.71698113,9.50943396 C2.71698113,9.70188679 2.56981132,9.8490566 2.37735849,9.8490566 C2.18490566,9.8490566 2.03773585,9.70188679 2.03773585,9.50943396 L2.03773585,1.69811321 C2.03773585,1.50566038 2.18490566,1.35849057 2.37735849,1.35849057 L11.8867925,1.35849057 C12.0792453,1.35849057 12.2264151,1.50566038 12.2264151,1.69811321 L12.2264151,11.6603774 C12.2264151,11.7962264 12.1471698,11.9207547 12.0113208,11.9773585 C11.9773585,11.9886792 11.9320755,12 11.8867925,12 Z" id="Path" fill="#005350"></path>
                        <path d="M9.62264151,6.56603774 L4.64150943,6.56603774 C4.4490566,6.56603774 4.30188679,6.41886792 4.30188679,6.22641509 C4.30188679,6.03396226 4.4490566,5.88679245 4.64150943,5.88679245 L9.62264151,5.88679245 C9.81509434,5.88679245 9.96226415,6.03396226 9.96226415,6.22641509 C9.96226415,6.41886792 9.81509434,6.56603774 9.62264151,6.56603774 Z" id="Path" fill="#005350"></path>
                        <path d="M9.62264151,4.86792453 L4.64150943,4.86792453 C4.4490566,4.86792453 4.30188679,4.72075472 4.30188679,4.52830189 C4.30188679,4.33584906 4.4490566,4.18867925 4.64150943,4.18867925 L9.62264151,4.18867925 C9.81509434,4.18867925 9.96226415,4.33584906 9.96226415,4.52830189 C9.96226415,4.72075472 9.81509434,4.86792453 9.62264151,4.86792453 Z" id="Path" fill="#005350"></path>
                        <path d="M9.62264151,8.26415094 L9.16981132,8.26415094 C8.97735849,8.26415094 8.83018868,8.11698113 8.83018868,7.9245283 C8.83018868,7.73207547 8.97735849,7.58490566 9.16981132,7.58490566 L9.62264151,7.58490566 C9.81509434,7.58490566 9.96226415,7.73207547 9.96226415,7.9245283 C9.96226415,8.11698113 9.81509434,8.26415094 9.62264151,8.26415094 Z" id="Path" fill="#005350"></path>
                        <path d="M13.245283,2.03773585 C13.0528302,2.03773585 12.9056604,1.89056604 12.9056604,1.69811321 C12.9056604,1.50566038 13.0528302,1.35849057 13.245283,1.35849057 C13.4377358,1.35849057 13.5849057,1.21132075 13.5849057,1.01886792 C13.5849057,0.826415094 13.4377358,0.679245283 13.245283,0.679245283 L1.01886792,0.679245283 C0.826415094,0.679245283 0.679245283,0.826415094 0.679245283,1.01886792 C0.679245283,1.21132075 0.826415094,1.35849057 1.01886792,1.35849057 C1.21132075,1.35849057 1.35849057,1.50566038 1.35849057,1.69811321 C1.35849057,1.89056604 1.21132075,2.03773585 1.01886792,2.03773585 C0.452830189,2.03773585 -6.83897383e-14,1.58490566 -6.83897383e-14,1.01886792 C-6.83897383e-14,0.452830189 0.452830189,6.21724894e-15 1.01886792,6.21724894e-15 L13.245283,6.21724894e-15 C13.8113208,6.21724894e-15 14.2641509,0.452830189 14.2641509,1.01886792 C14.2641509,1.58490566 13.8113208,2.03773585 13.245283,2.03773585 Z" id="Path" fill="#005350"></path>
                    </g>
                </g>
            </g>
        </g>
    </g>
</svg>