<?xml version="1.0" encoding="UTF-8"?>
<svg width="18px" height="18px" viewBox="0 0 18 18" version="1.1" xmlns="http://www.w3.org/2000/svg" xmlns:xlink="http://www.w3.org/1999/xlink">
    <!-- Generator: Sketch 64 (93537) - https://sketch.com -->
    <title>icon-save-send</title>
    <desc>Created with Sketch.</desc>
    <g id="Symbols" stroke="none" stroke-width="1" fill="none" fill-rule="evenodd">
        <g id="ap-nav" transform="translate(-236.000000, -11.000000)" fill="#FFFFFF" fill-rule="nonzero">
            <g id="Group-12">
                <g id="Group-10" transform="translate(214.000000, 0.000000)">
                    <path d="M39.5222233,11.0030712 C39.4803607,11.0097692 39.4401725,11.0231653 39.4016587,11.0432594 L22.2546918,18.4110968 C22.1023114,18.4780771 22.0035157,18.6287831 22.0000811,18.7945591 C21.9968177,18.9620099 22.0922646,19.1143903 22.2412957,19.1880687 L28.6312201,22.3763329 L31.8194843,28.7662573 C31.8931626,28.9152884 32.045543,29.0107357 32.2129939,29.0074719 C32.3787703,29.0040377 32.5294759,28.9052416 32.5964562,28.7528612 L39.9642935,11.6058943 C40.0279251,11.4652356 40.0111798,11.2994591 39.9190817,11.1755457 C39.8286585,11.0499574 39.6762781,10.9846515 39.5222233,11.0030712 Z M37.7003581,12.7043718 L28.8589532,21.5457767 L23.4469418,18.8397709 L37.7003581,12.7043718 Z M38.3031811,13.3071949 L32.167782,27.5606111 L29.4617763,22.1485997 L38.3031811,13.3071949 Z" id="icon-save-send"></path>
                </g>
            </g>
        </g>
    </g>
</svg>