<?xml version="1.0" encoding="UTF-8"?>
<svg width="16px" height="16px" viewBox="0 0 16 16" version="1.1" xmlns="http://www.w3.org/2000/svg" xmlns:xlink="http://www.w3.org/1999/xlink">
    <!-- Generator: Sketch 64 (93537) - https://sketch.com -->
    <title>icon-resolve</title>
    <desc>Created with Sketch.</desc>
    <g id="Page-1" stroke="none" stroke-width="1" fill="none" fill-rule="evenodd">
        <g id="AP-LandingPage" transform="translate(-984.000000, -811.000000)" fill="#FFFFFF" fill-rule="nonzero">
            <g id="Group-19" transform="translate(710.000000, 189.000000)">
                <g id="Group-18" transform="translate(246.000000, 605.000000)">
                    <path d="M36,17 C31.5885217,17 28,20.5885217 28,25 C28,29.4114783 31.5885217,33 36,33 C40.4114783,33 44,29.4114783 44,25 C44,23.413913 43.5340108,21.9354184 42.7350543,20.6908967 L42.2588317,21.2533969 C42.9179621,22.3504403 43.3043478,23.6295652 43.3043478,25 C43.3043478,29.0274783 40.0274783,32.3043478 36,32.3043478 C31.9725217,32.3043478 28.6956522,29.0274783 28.6956522,25 C28.6956522,20.9725217 31.9725217,17.6956522 36,17.6956522 C37.8932174,17.6956522 39.6152717,18.4260054 40.9144021,19.6120924 L41.3695652,19.0747283 C39.9486957,17.7860326 38.0643478,17 36,17 Z M42.3430706,19.0013587 L35.6222824,26.9320654 L32.7934783,24.2934783 L32.3192936,24.8023099 L35.6813857,27.9381795 L42.8743207,19.451087 L42.3430706,19.0013587 Z" id="icon-resolve"></path>
                </g>
            </g>
        </g>
    </g>
</svg>