<?xml version="1.0" encoding="UTF-8"?>
<svg width="11px" height="13px" viewBox="0 0 11 13" version="1.1" xmlns="http://www.w3.org/2000/svg" xmlns:xlink="http://www.w3.org/1999/xlink">
    <!-- Generator: Sketch 64 (93537) - https://sketch.com -->
    <title>icon-csv</title>
    <desc>Created with Sketch.</desc>
    <g id="Page-1" stroke="none" stroke-width="1" fill="none" fill-rule="evenodd">
        <g id="AP-AccountCoding2" transform="translate(-1003.000000, -361.000000)" fill="#105CF8" fill-rule="nonzero">
            <g id="Group-3" transform="translate(134.000000, 252.000000)">
                <g id="Group-8" transform="translate(854.000000, 100.000000)">
                    <path d="M15,9 L15,22 L25.173913,22 L25.173913,12.7898267 L21.2692766,9 L15,9 Z M15.5652174,9.56521739 L20.9347826,9.56521739 L20.9347826,13.2391304 L24.6086957,13.2391304 L24.6086957,21.4347826 L15.5652174,21.4347826 L15.5652174,9.56521739 Z M21.5,10.0112092 L24.2432914,12.673913 L21.5,12.673913 L21.5,10.0112092 Z M18.7401495,15.1356999 C18.1837636,15.1356999 17.586532,15.5551972 17.586532,16.6315387 C17.586532,17.4418309 17.9342732,18.0434783 18.6639777,18.0434783 C18.8582711,18.0434783 19.0150305,18.0136718 19.0956183,17.976138 L19.0404212,17.5091712 C18.9730809,17.5301461 18.8659988,17.5522249 18.7732678,17.5522249 C18.4343581,17.5522249 18.1749321,17.2850713 18.1749321,16.6028363 C18.1749321,15.8941066 18.4597488,15.6236413 18.7732678,15.6236413 C18.895805,15.6236413 18.9686652,15.649032 19.0315897,15.6777343 L19.1254245,15.2118717 C19.0702277,15.1732337 18.9344429,15.1356999 18.7401495,15.1356999 Z M20.1929348,15.1356999 C19.5957032,15.1356999 19.2910157,15.5165592 19.2910157,15.9746944 C19.2910157,16.2330163 19.4389435,16.5343919 19.8286347,16.7717391 C20.0703973,16.9284988 20.1973505,17.0300613 20.1973505,17.2387059 C20.1973505,17.4241679 20.0703973,17.5599526 19.8076597,17.5599526 C19.6464843,17.5599526 19.451087,17.513587 19.337381,17.4506624 L19.2567935,17.9286685 C19.3506283,17.9838656 19.5747283,18.0434783 19.803244,18.0434783 C20.3629417,18.0434783 20.7493207,17.7001528 20.7493207,17.1779891 C20.7493207,16.8777174 20.6091202,16.5895891 20.2326766,16.3610734 C19.9224695,16.1745075 19.8374662,16.0850885 19.8374662,15.9150815 C19.8374662,15.7627379 19.9511718,15.6192255 20.188519,15.6192255 C20.3496944,15.6192255 20.4733357,15.6655912 20.5539233,15.7163723 L20.6433424,15.2372624 C20.5583391,15.186481 20.3795006,15.1356999 20.1929348,15.1356999 Z M20.8299082,15.1610903 L21.4690897,18.0169837 L22.091712,18.0169837 L22.7452446,15.1610903 L22.1347657,15.1610903 L21.9404722,16.3820483 C21.888587,16.703295 21.8422216,17.0477243 21.8046875,17.3866338 L21.795856,17.3866338 C21.7583222,17.0521401 21.6987092,16.6988792 21.6479281,16.3941917 L21.443699,15.1610903 L20.8299082,15.1610903 Z" id="icon-csv"></path>
                </g>
            </g>
        </g>
    </g>
</svg>