<?xml version="1.0" encoding="UTF-8"?>
<svg width="12px" height="10px" viewBox="0 0 12 10" version="1.1" xmlns="http://www.w3.org/2000/svg" xmlns:xlink="http://www.w3.org/1999/xlink">
    <!-- Generator: Sketch 64 (93537) - https://sketch.com -->
    <title>icon-clearance</title>
    <desc>Created with Sketch.</desc>
    <g id="Page-1" stroke="none" stroke-width="1" fill="none" fill-rule="evenodd">
        <g id="AP-AccountCoding2" transform="translate(-475.000000, -315.000000)" fill-rule="nonzero">
            <g id="Group-13" transform="translate(144.000000, 265.000000)">
                <g id="icon-clearance" transform="translate(331.000000, 50.000000)">
                    <path d="M10.625,10 L0.625,10 C0.4009375,10 0.1946875,9.8803125 0.083125,9.68625 C-0.028125,9.4921875 -0.0275,9.2534375 0.0853125,9.06 L5.0853125,0.31 C5.1971875,0.118125 5.4028125,0 5.625,0 C5.8471875,0 6.0528125,0.118125 6.165,0.31 L11.165,9.06 C11.2778125,9.2534375 11.2784375,9.4921875 11.1671875,9.68625 C11.0559375,9.8803125 10.84875,10 10.625,10 Z" id="Path" fill="#FFC107"></path>
                    <path d="M5,8.169375 C5,8.0853125 5.0146875,8.0084375 5.0446875,7.93625 C5.0740625,7.865 5.11625,7.803125 5.170625,7.75125 C5.2240625,7.69875 5.29,7.6578125 5.365625,7.6284375 C5.441875,7.5996875 5.5275,7.584375 5.623125,7.584375 C5.71875,7.584375 5.805,7.5996875 5.881875,7.6284375 C5.96,7.6578125 6.0259375,7.69875 6.079375,7.75125 C6.1340625,7.803125 6.17625,7.865 6.2053125,7.93625 C6.2353125,8.0084375 6.25,8.0853125 6.25,8.169375 C6.25,8.25375 6.2353125,8.330625 6.2053125,8.400625 C6.1759375,8.4709375 6.13375,8.5315625 6.079375,8.584375 C6.0259375,8.63625 5.96,8.676875 5.881875,8.706875 C5.805,8.735625 5.71875,8.75 5.623125,8.75 C5.5271875,8.75 5.441875,8.735625 5.365625,8.7065625 C5.29,8.6765625 5.2240625,8.6359375 5.170625,8.5840625 C5.1159375,8.53125 5.07375,8.470625 5.0446875,8.4003125 C5.0146875,8.3303125 5,8.2534375 5,8.169375 M6.0875,6.875 L5.1584375,6.875 L5.026875,3.125 L6.21875,3.125 L6.0875,6.875 Z" id="Shape" fill="#5D4037"></path>
                </g>
            </g>
        </g>
    </g>
</svg>