<?xml version="1.0" encoding="UTF-8"?>
<svg width="16px" height="16px" viewBox="0 0 16 16" version="1.1" xmlns="http://www.w3.org/2000/svg" xmlns:xlink="http://www.w3.org/1999/xlink">
    <!-- Generator: Sketch 64 (93537) - https://sketch.com -->
    <title>icon-save</title>
    <desc>Created with Sketch.</desc>
    <g id="Page-1" stroke="none" stroke-width="1" fill="none" fill-rule="evenodd">
        <g id="AP-AccountCoding2" transform="translate(-283.000000, -972.000000)" fill="#FFFFFF" fill-rule="nonzero">
            <g id="Group-3" transform="translate(134.000000, 252.000000)">
                <g id="Group-8" transform="translate(0.000000, 154.000000)">
                    <g id="ap-nav" transform="translate(27.000000, 554.000000)">
                        <g id="Group-12">
                            <g id="Group-3" transform="translate(102.000000, 0.000000)">
                                <path d="M21.0909091,12 C20.4894545,12 20,12.4894545 20,13.0909091 L20,24.7272727 C20,25.3287273 20.4894545,25.8181818 21.0909091,25.8181818 L21.4545455,25.8181818 L21.4545455,25.0909091 L21.0909091,25.0909091 C20.8905455,25.0909091 20.7272727,24.9276364 20.7272727,24.7272727 L20.7272727,13.0909091 C20.7272727,12.8905455 20.8905455,12.7272727 21.0909091,12.7272727 L30.3948865,12.7272727 L31.1221593,13.4545455 L32.150568,13.4545455 L30.8025567,12.1065341 C30.7345567,12.0381704 30.6418182,12 30.5454545,12 L21.0909091,12 Z M25.4488636,14.176842 C25.4312474,14.1772284 25.4136822,14.17889 25.3963069,14.1818182 L23.2727273,14.1818182 C22.6745564,14.1818182 22.1818182,14.6745564 22.1818182,15.2727273 L22.1818182,26.9090909 C22.1818182,27.5072618 22.6745564,28 23.2727273,28 L34.9090909,28 C35.5072618,28 36,27.5072618 36,26.9090909 L36,17.4545455 C36,17.3581095 35.9616608,17.2656293 35.8934658,17.1974433 L33.0163353,14.3203125 C32.9351103,14.213863 32.801961,14.1606578 32.6697444,14.1818182 L25.5106535,14.1818182 C25.4902359,14.1784054 25.4695642,14.176842 25.4488636,14.176842 Z M23.2727273,14.9090909 L25.0909091,14.9090909 L25.0909091,18.9090909 C25.0909091,19.5072618 25.5836473,20 26.1818182,20 L32,20 C32.5981709,20 33.0909091,19.5072618 33.0909091,18.9090909 L33.0909091,15.4232953 L35.2727273,17.6051135 L35.2727273,26.9090909 C35.2727273,27.1145564 35.1145564,27.2727273 34.9090909,27.2727273 L33.0909091,27.2727273 L33.0909091,22.9090909 C33.0909091,22.3107436 32.5983473,21.8181818 32,21.8181818 L26.1818182,21.8181818 C25.5834709,21.8181818 25.0909091,22.3107436 25.0909091,22.9090909 L25.0909091,27.2727273 L23.2727273,27.2727273 C23.0672618,27.2727273 22.9090909,27.1145564 22.9090909,26.9090909 L22.9090909,15.2727273 C22.9090909,15.0672618 23.0672618,14.9090909 23.2727273,14.9090909 Z M25.8181818,14.9090909 L32.3636364,14.9090909 L32.3636364,18.9090909 C32.3636364,19.1145564 32.2054655,19.2727273 32,19.2727273 L26.1818182,19.2727273 C25.9763527,19.2727273 25.8181818,19.1145564 25.8181818,18.9090909 L25.8181818,14.9090909 Z M30.1818182,15.6363636 L30.1818182,18.5454545 L31.2727273,18.5454545 L31.2727273,15.6363636 L30.1818182,15.6363636 Z M26.1818182,22.5454545 L32,22.5454545 C32.2016527,22.5454545 32.3636364,22.7074382 32.3636364,22.9090909 L32.3636364,27.2727273 L25.8181818,27.2727273 L25.8181818,22.9090909 C25.8181818,22.7074382 25.9801655,22.5454545 26.1818182,22.5454545 Z M23.6363636,25.8181818 L23.6363636,26.5454545 L24.3636364,26.5454545 L24.3636364,25.8181818 L23.6363636,25.8181818 Z M33.8181818,25.8181818 L33.8181818,26.5454545 L34.5454545,26.5454545 L34.5454545,25.8181818 L33.8181818,25.8181818 Z" id="icon-save"></path>
                            </g>
                        </g>
                    </g>
                </g>
            </g>
        </g>
    </g>
</svg>