<?xml version="1.0" encoding="UTF-8"?>
<svg width="40px" height="24px" viewBox="0 0 40 24" version="1.1" xmlns="http://www.w3.org/2000/svg" xmlns:xlink="http://www.w3.org/1999/xlink">
    <!-- Generator: Sketch 64 (93537) - https://sketch.com -->
    <title>icon-tag</title>
    <desc>Created with Sketch.</desc>
    <g id="Page-1" stroke="none" stroke-width="1" fill="none" fill-rule="evenodd">
        <g id="AP-Custom-field-added-view-highlights" transform="translate(-662.000000, -204.000000)">
            <g id="icon-tag" transform="translate(662.000000, 204.000000)">
                <path d="M2,23.5 C1.173,23.5 0.5,22.827 0.5,22 L0.5,2 C0.5,1.173 1.173,0.5 2,0.5 L28.709,0.5 C29.301,0.501 29.844,0.718 30.237,1.112 L38.47,9.514 C39.135,10.179 39.499,11.057 39.499,11.992 C39.499,12.927 39.135,13.806 38.474,14.467 L30.238,22.795 C29.791,23.242 29.233,23.499 28.708,23.499 L2,23.499 L2,23.5 Z" id="Path" fill="#DBFCEC" fill-rule="nonzero"></path>
                <path d="M32,9.5 C30.621,9.5 29.5,10.622 29.5,12 C29.5,13.378 30.621,14.5 32,14.5 C33.379,14.5 34.5,13.378 34.5,12 C34.5,10.622 33.379,9.5 32,9.5 Z" id="Path" fill="#DFF0FE" fill-rule="nonzero"></path>
                <path d="M28.708,1 C29.167,1.001 29.585,1.166 29.877,1.459 L38.121,9.872 C39.291,11.042 39.291,12.945 38.117,14.119 L29.887,22.441 C29.537,22.791 29.096,23 28.705,23 L2,23 C1.449,23 1,22.551 1,22 L1,2 C1,1.449 1.449,1 2,1 L28.708,1 M32,15 C33.654,15 35,13.654 35,12 C35,10.346 33.654,9 32,9 C30.346,9 29,10.346 29,12 C29,13.654 30.346,15 32,15 M28.709,0 L2,0 C0.895,0 0,0.895 0,2 L0,22 C0,23.1 0.9,24 2,24 L28.705,24 C28.706,24 28.707,24 28.708,24 C29.416,24 30.094,23.648 30.594,23.147 L38.828,14.821 C40.39,13.259 40.39,10.726 38.828,9.164 L30.591,0.758 C30.092,0.259 29.415,0.001 28.709,0 L28.709,0 Z M32,14 C30.895,14 30,13.104 30,12 C30,10.895 30.895,10 32,10 C33.105,10 34,10.895 34,12 C34,13.104 33.105,14 32,14 L32,14 Z" id="Shape" fill="#005350" fill-rule="nonzero"></path>
                <polygon id="Path" fill="#005350" points="15.5 7 15.5 11.5 11 11.5 11 12.5 15.5 12.5 15.5 17 16.5 17 16.5 12.5 21 12.5 21 11.5 16.5 11.5 16.5 7"></polygon>
            </g>
        </g>
    </g>
</svg>