<?xml version="1.0" encoding="UTF-8"?>
<svg width="27px" height="29px" viewBox="0 0 27 29" version="1.1" xmlns="http://www.w3.org/2000/svg" xmlns:xlink="http://www.w3.org/1999/xlink">
    <!-- Generator: Sketch 64 (93537) - https://sketch.com -->
    <title>Reject</title>
    <desc>Created with Sketch.</desc>
    <g id="Page-1" stroke="none" stroke-width="1" fill="none" fill-rule="evenodd">
        <g id="AP-Approve-02" transform="translate(-1630.000000, -108.000000)" fill-rule="nonzero">
            <g id="Group-15" transform="translate(1438.000000, 97.000000)">
                <g id="Reject" transform="translate(192.000000, 11.000000)">
                    <g id="icons8-buy_for_coins">
                        <g id="Group" transform="translate(8.253968, 0.000000)">
                            <path d="M0.619047619,0.619047619 L0.619047619,22.2857143 L10.9365079,21.2539683 C12.0714286,21.2539683 13,20.3253968 13,19.1904762 L13,0.619047619 L10.9365079,2.68253968 L8.87301587,0.619047619 L6.80952381,2.68253968 L4.74603175,0.619047619 L2.68253968,2.68253968 L0.619047619,0.619047619 Z" id="Path" fill="#CADBEA"></path>
                            <path d="M10.9365079,3.3015873 C10.7714286,3.3015873 10.6269841,3.23968254 10.5031746,3.11587302 L8.87301587,1.48571429 L7.24285714,3.11587302 C6.9952381,3.36349206 6.6031746,3.36349206 6.37619048,3.11587302 L4.31269841,1.05238095 C4.06507937,0.804761905 4.06507937,0.412698413 4.31269841,0.185714286 C4.56031746,-0.0619047619 4.95238095,-0.0619047619 5.17936508,0.185714286 L6.80952381,1.81587302 L8.43968254,0.185714286 C8.68730159,-0.0619047619 9.07936508,-0.0619047619 9.30634921,0.185714286 L10.9365079,1.81587302 L12.5666667,0.185714286 C12.8142857,-0.0619047619 13.2063492,-0.0619047619 13.4333333,0.185714286 C13.6809524,0.433333333 13.6809524,0.825396825 13.4333333,1.05238095 L11.3698413,3.11587302 C11.2460317,3.23968254 11.1015873,3.3015873 10.9365079,3.3015873 Z" id="Path" fill="#444B54"></path>
                            <path d="M6.80952381,4.74603175 L0.619047619,4.74603175 L0.619047619,21.2539683 L10.9365079,21.2539683 L10.9365079,8.87301587 C10.9365079,6.6031746 9.07936508,4.74603175 6.80952381,4.74603175 Z" id="Path" fill="#9EB9D3"></path>
                            <path d="M0.619047619,7.22222222 C0.268253968,7.22222222 0,6.95396825 0,6.6031746 L0,0.619047619 C0,0.268253968 0.268253968,0 0.619047619,0 C0.96984127,0 1.23809524,0.268253968 1.23809524,0.619047619 L1.23809524,6.6031746 C1.23809524,6.95396825 0.96984127,7.22222222 0.619047619,7.22222222 Z" id="Path" fill="#444B54"></path>
                        </g>
                        <path d="M13,21.2539683 L13,8.87301587 C13,7.73809524 13.9285714,6.80952381 15.0634921,6.80952381 L15.0634921,6.80952381 C16.1984127,6.80952381 17.1269841,7.73809524 17.1269841,8.87301587 L17.1269841,19.1904762 C17.1269841,20.3253968 18.0555556,21.2539683 19.1904762,21.2539683 L19.1904762,21.2539683 C19.768254,21.2539683 13,21.2539683 13,21.2539683 Z" id="Path" fill="#CADBEA"></path>
                        <path d="M19.1904762,21.8730159 C18.8396825,21.8730159 18.5714286,21.6047619 18.5714286,21.2539683 C18.5714286,20.9031746 18.8396825,20.6349206 19.1904762,20.6349206 C19.9952381,20.6349206 20.6349206,19.9952381 20.6349206,19.1904762 L20.6349206,0.619047619 C20.6349206,0.268253968 20.9031746,0 21.2539683,0 C21.6047619,0 21.8730159,0.268253968 21.8730159,0.619047619 L21.8730159,19.1904762 C21.8730159,20.6761905 20.6761905,21.8730159 19.1904762,21.8730159 Z" id="Path" fill="#444B54"></path>
                        <path d="M17.1269841,10.915873 C16.7761905,10.915873 16.5079365,10.647619 16.5079365,10.2968254 L16.5079365,8.87301587 C16.5079365,8.06825397 15.868254,7.42857143 15.0634921,7.42857143 C14.7126984,7.42857143 14.4444444,7.16031746 14.4444444,6.80952381 C14.4444444,6.45873016 14.7126984,6.19047619 15.0634921,6.19047619 C16.5492063,6.19047619 17.7460317,7.38730159 17.7460317,8.87301587 L17.7460317,10.2968254 C17.7460317,10.6269841 17.4777778,10.915873 17.1269841,10.915873 Z" id="Path" fill="#444B54"></path>
                        <g id="Group" transform="translate(13.619048, 11.349206)">
                            <circle id="Oval" fill="#FFFFFF" cx="6.19047619" cy="6.37619048" r="5.57142857"></circle>
                            <path d="M6.19047619,12.5666667 C2.78571429,12.5666667 0,9.78095238 0,6.37619048 C0,2.97142857 2.78571429,0.185714286 6.19047619,0.185714286 C9.5952381,0.185714286 12.3809524,2.97142857 12.3809524,6.37619048 C12.3809524,9.78095238 9.5952381,12.5666667 6.19047619,12.5666667 Z M6.19047619,1.42380952 C3.46666667,1.42380952 1.23809524,3.65238095 1.23809524,6.37619048 C1.23809524,9.1 3.46666667,11.3285714 6.19047619,11.3285714 C8.91428571,11.3285714 11.1428571,9.1 11.1428571,6.37619048 C11.1428571,3.65238095 8.91428571,1.42380952 6.19047619,1.42380952 Z" id="Shape" fill="#444B54"></path>
                            <path d="M6.93333333,6.41746032 C6.80952381,6.33492063 6.66507937,6.27301587 6.52063492,6.23174603 C6.3968254,6.19047619 6.27301587,6.14920635 6.12857143,6.12857143 C6.0047619,6.08730159 5.9015873,6.06666667 5.77777778,6.0047619 C5.6952381,5.96349206 5.61269841,5.92222222 5.55079365,5.86031746 C5.48888889,5.81904762 5.44761905,5.73650794 5.40634921,5.67460317 C5.38571429,5.61269841 5.34444444,5.53015873 5.34444444,5.34444444 C5.34444444,5.26190476 5.36507937,5.15873016 5.38571429,5.07619048 C5.40634921,4.99365079 5.46825397,4.91111111 5.53015873,4.84920635 C5.59206349,4.78730159 5.67460317,4.72539683 5.77777778,4.68412698 C5.88095238,4.64285714 6.0047619,4.62222222 6.14920635,4.62222222 C6.29365079,4.62222222 6.41746032,4.64285714 6.52063492,4.68412698 C6.62380952,4.72539683 6.68571429,4.78730159 6.74761905,4.84920635 C6.80952381,4.93174603 6.85079365,5.01428571 6.89206349,5.0968254 C6.93333333,5.2 7.03650794,5.26190476 7.16031746,5.24126984 C7.26349206,5.2 7.32539683,5.0968254 7.3047619,4.97301587 C7.26349206,4.82857143 7.18095238,4.68412698 7.07777778,4.58095238 C6.97460317,4.45714286 6.85079365,4.37460317 6.70634921,4.29206349 C6.6031746,4.25079365 6.5,4.20952381 6.37619048,4.20952381 L6.37619048,4.06507937 C6.37619048,3.94126984 6.27301587,3.85873016 6.16984127,3.85873016 C6.06666667,3.85873016 5.96349206,3.96190476 5.96349206,4.06507937 L5.96349206,4.20952381 C5.83968254,4.23015873 5.73650794,4.25079365 5.63333333,4.29206349 C5.48888889,4.35396825 5.34444444,4.43650794 5.24126984,4.56031746 C5.13809524,4.66349206 5.05555556,4.78730159 5.01428571,4.93174603 C4.97301587,5.05555556 4.93174603,5.2 4.93174603,5.34444444 C4.93174603,5.55079365 4.95238095,5.71587302 5.01428571,5.83968254 C5.07619048,5.98412698 5.15873016,6.08730159 5.26190476,6.16984127 C5.36507937,6.25238095 5.48888889,6.33492063 5.61269841,6.37619048 C5.73650794,6.41746032 5.86031746,6.47936508 6.0047619,6.5 C6.12857143,6.54126984 6.25238095,6.56190476 6.37619048,6.6031746 C6.5,6.64444444 6.58253968,6.68571429 6.68571429,6.74761905 C6.76825397,6.80952381 6.85079365,6.87142857 6.89206349,6.97460317 C6.95396825,7.05714286 6.97460317,7.18095238 6.97460317,7.34603175 C6.97460317,7.44920635 6.95396825,7.55238095 6.93333333,7.65555556 C6.91269841,7.75873016 6.85079365,7.84126984 6.78888889,7.9031746 C6.72698413,7.96507937 6.64444444,8.02698413 6.56190476,8.06825397 C6.45873016,8.10952381 6.35555556,8.13015873 6.21111111,8.13015873 C6.08730159,8.13015873 5.98412698,8.10952381 5.88095238,8.08888889 C5.77777778,8.04761905 5.6952381,8.00634921 5.61269841,7.94444444 C5.53015873,7.88253968 5.46825397,7.77936508 5.40634921,7.65555556 C5.36507937,7.55238095 5.24126984,7.51111111 5.13809524,7.55238095 C5.03492063,7.59365079 4.99365079,7.71746032 5.03492063,7.82063492 C5.11746032,7.98571429 5.2,8.13015873 5.32380952,8.25396825 C5.44761905,8.35714286 5.59206349,8.43968254 5.73650794,8.5015873 C5.7984127,8.52222222 5.86031746,8.54285714 5.92222222,8.54285714 L5.92222222,8.70793651 C5.92222222,8.83174603 6.02539683,8.91428571 6.12857143,8.91428571 C6.23174603,8.91428571 6.33492063,8.81111111 6.33492063,8.70793651 L6.33492063,8.56349206 C6.45873016,8.54285714 6.58253968,8.52222222 6.68571429,8.48095238 C6.85079365,8.41904762 6.97460317,8.33650794 7.07777778,8.21269841 C7.18095238,8.08888889 7.26349206,7.96507937 7.3047619,7.82063492 C7.34603175,7.67619048 7.36666667,7.53174603 7.36666667,7.38730159 C7.36666667,7.16031746 7.32539683,6.95396825 7.22222222,6.80952381 C7.2015873,6.62380952 7.07777778,6.5 6.93333333,6.41746032 Z" id="Path" fill="#444B54"></path>
                        </g>
                        <g id="Group" transform="translate(9.492063, 11.349206)">
                            <circle id="Oval" fill="#FFFFFF" cx="6.19047619" cy="6.37619048" r="5.57142857"></circle>
                            <path d="M6.19047619,12.5666667 C2.78571429,12.5666667 0,9.78095238 0,6.37619048 C0,2.97142857 2.78571429,0.185714286 6.19047619,0.185714286 C9.5952381,0.185714286 12.3809524,2.97142857 12.3809524,6.37619048 C12.3809524,9.78095238 9.5952381,12.5666667 6.19047619,12.5666667 Z M6.19047619,1.42380952 C3.46666667,1.42380952 1.23809524,3.65238095 1.23809524,6.37619048 C1.23809524,9.1 3.46666667,11.3285714 6.19047619,11.3285714 C8.91428571,11.3285714 11.1428571,9.1 11.1428571,6.37619048 C11.1428571,3.65238095 8.91428571,1.42380952 6.19047619,1.42380952 Z" id="Shape" fill="#444B54"></path>
                            <path d="M6.16984127,9.2031746 C5.9015873,9.2031746 5.6952381,9.01746032 5.65396825,8.76984127 C5.46825397,8.70793651 5.28253968,8.6047619 5.13809524,8.46031746 C4.99365079,8.31587302 4.84920635,8.13015873 4.76666667,7.92380952 C4.64285714,7.65555556 4.76666667,7.36666667 5.03492063,7.24285714 C5.28253968,7.13968254 5.61269841,7.26349206 5.71587302,7.51111111 C5.75714286,7.59365079 5.7984127,7.65555556 5.83968254,7.6968254 C5.88095238,7.73809524 5.94285714,7.75873016 5.98412698,7.77936508 C6.12857143,7.82063492 6.33492063,7.82063492 6.45873016,7.77936508 C6.52063492,7.75873016 6.56190476,7.73809524 6.58253968,7.6968254 C6.62380952,7.65555556 6.64444444,7.61428571 6.66507937,7.55238095 C6.68571429,7.49047619 6.70634921,7.40793651 6.70634921,7.34603175 C6.70634921,7.22222222 6.68571429,7.16031746 6.66507937,7.13968254 C6.64444444,7.0984127 6.6031746,7.05714286 6.54126984,7.01587302 C6.47936508,6.97460317 6.3968254,6.93333333 6.31428571,6.91269841 C6.19047619,6.87142857 6.06666667,6.85079365 5.94285714,6.80952381 C5.7984127,6.76825397 5.65396825,6.72698413 5.53015873,6.66507937 C5.36507937,6.6031746 5.22063492,6.52063492 5.0968254,6.3968254 C4.95238095,6.27301587 4.84920635,6.12857143 4.76666667,5.96349206 C4.68412698,5.7984127 4.64285714,5.57142857 4.64285714,5.32380952 C4.64285714,5.13809524 4.68412698,4.97301587 4.74603175,4.80793651 C4.80793651,4.64285714 4.91111111,4.47777778 5.03492063,4.33333333 C5.15873016,4.18888889 5.32380952,4.08571429 5.53015873,4.0031746 C5.57142857,3.98253968 5.63333333,3.96190476 5.67460317,3.96190476 C5.71587302,3.73492063 5.92222222,3.54920635 6.19047619,3.54920635 C6.43809524,3.54920635 6.64444444,3.73492063 6.70634921,3.96190476 C6.76825397,3.98253968 6.80952381,4.0031746 6.87142857,4.02380952 C7.05714286,4.10634921 7.22222222,4.23015873 7.36666667,4.3952381 C7.49047619,4.53968254 7.59365079,4.7047619 7.63492063,4.91111111 C7.67619048,5.03492063 7.65555556,5.17936508 7.59365079,5.3031746 C7.53174603,5.42698413 7.42857143,5.50952381 7.28412698,5.55079365 C7.22222222,5.57142857 7.16031746,5.57142857 7.11904762,5.57142857 C6.89206349,5.57142857 6.68571429,5.42698413 6.62380952,5.22063492 C6.6031746,5.15873016 6.58253968,5.11746032 6.54126984,5.07619048 C6.52063492,5.03492063 6.47936508,5.01428571 6.41746032,4.99365079 C6.29365079,4.93174603 6.04603175,4.93174603 5.92222222,4.99365079 C5.86031746,5.01428571 5.81904762,5.05555556 5.77777778,5.07619048 C5.73650794,5.11746032 5.71587302,5.15873016 5.6952381,5.2 C5.67460317,5.26190476 5.67460317,5.3031746 5.67460317,5.36507937 C5.67460317,5.50952381 5.6952381,5.55079365 5.6952381,5.57142857 C5.71587302,5.61269841 5.73650794,5.63333333 5.75714286,5.65396825 C5.7984127,5.6952381 5.83968254,5.71587302 5.9015873,5.73650794 C6.0047619,5.77777778 6.10793651,5.81904762 6.21111111,5.83968254 C6.35555556,5.88095238 6.47936508,5.92222222 6.6031746,5.96349206 C6.78888889,6.02539683 6.95396825,6.08730159 7.0984127,6.19047619 C7.28412698,6.31428571 7.42857143,6.45873016 7.53174603,6.64444444 C7.65555556,6.85079365 7.71746032,7.0984127 7.71746032,7.38730159 C7.71746032,7.57301587 7.6968254,7.75873016 7.63492063,7.92380952 C7.57301587,8.10952381 7.46984127,8.2952381 7.34603175,8.43968254 C7.2015873,8.58412698 7.03650794,8.70793651 6.85079365,8.79047619 C6.78888889,8.81111111 6.72698413,8.83174603 6.66507937,8.85238095 C6.62380952,9.03809524 6.41746032,9.2031746 6.16984127,9.2031746 Z" id="Path" fill="#9EB9D3"></path>
                        </g>
                        <g id="Group" transform="translate(0.619048, 6.809524)">
                            <path d="M0,16.5079365 L0,2.06349206 C0,0.928571429 0.928571429,0 2.06349206,0 L14.4444444,0 L14.4444444,0 C13.3095238,0 12.3809524,0.928571429 12.3809524,2.06349206 L12.3809524,16.5079365 L10.3174603,18.5714286 L8.25396825,16.5079365 L6.19047619,18.5714286 L4.12698413,16.5079365 L2.06349206,18.5714286 L0,16.5079365 Z" id="Path" fill="#CADBEA"></path>
                            <path d="M6.97460317,8.00634921 L5.6952381,7.6968254 C5.3031746,7.59365079 5.05555556,7.26349206 5.05555556,6.87142857 C5.05555556,6.3968254 5.44761905,6.0047619 5.92222222,6.0047619 L6.54126984,6.0047619 C6.97460317,6.0047619 7.32539683,6.35555556 7.32539683,6.78888889 C7.32539683,7.13968254 7.59365079,7.40793651 7.94444444,7.40793651 C8.2952381,7.40793651 8.56349206,7.13968254 8.56349206,6.78888889 C8.56349206,5.75714286 7.8,4.91111111 6.80952381,4.78730159 L6.80952381,4.51904762 C6.80952381,4.16825397 6.54126984,3.9 6.19047619,3.9 C5.83968254,3.9 5.57142857,4.16825397 5.57142857,4.51904762 L5.57142857,4.80793651 C4.58095238,4.97301587 3.81746032,5.83968254 3.81746032,6.87142857 C3.81746032,7.84126984 4.47777778,8.66666667 5.40634921,8.91428571 L6.68571429,9.22380952 C7.07777778,9.32698413 7.32539683,9.65714286 7.32539683,10.0492063 C7.32539683,10.5238095 6.93333333,10.915873 6.45873016,10.915873 L5.83968254,10.915873 C5.40634921,10.915873 5.05555556,10.5650794 5.05555556,10.131746 C5.05555556,9.78095238 4.78730159,9.51269841 4.43650794,9.51269841 C4.08571429,9.51269841 3.81746032,9.78095238 3.81746032,10.131746 C3.81746032,11.1634921 4.58095238,12.0095238 5.57142857,12.1333333 L5.57142857,12.4015873 C5.57142857,12.752381 5.83968254,13.0206349 6.19047619,13.0206349 C6.54126984,13.0206349 6.80952381,12.752381 6.80952381,12.4015873 L6.80952381,12.1126984 C7.8,11.947619 8.56349206,11.0809524 8.56349206,10.0492063 C8.56349206,9.07936508 7.9031746,8.25396825 6.97460317,8.00634921 Z" id="Path" fill="#FFFFFF"></path>
                        </g>
                        <path d="M10.9365079,26 C10.7714286,26 10.6269841,25.9380952 10.5031746,25.8142857 L8.87301587,24.184127 L7.24285714,25.8142857 C6.9952381,26.0619048 6.6031746,26.0619048 6.37619048,25.8142857 L4.74603175,24.184127 L3.11587302,25.8142857 C2.86825397,26.0619048 2.47619048,26.0619048 2.24920635,25.8142857 C2.0015873,25.5666667 2.0015873,25.1746032 2.24920635,24.947619 L4.31269841,22.884127 C4.56031746,22.6365079 4.95238095,22.6365079 5.17936508,22.884127 L6.80952381,24.5142857 L8.43968254,22.884127 C8.68730159,22.6365079 9.07936508,22.6365079 9.30634921,22.884127 L10.9365079,24.5142857 L12.3809524,23.0698413 L12.3809524,8.87301587 C12.3809524,8.33650794 12.5460317,7.84126984 12.7936508,7.42857143 L2.68253968,7.42857143 C1.87777778,7.42857143 1.23809524,8.06825397 1.23809524,8.87301587 L1.23809524,23.3174603 C1.23809524,23.668254 0.96984127,23.9365079 0.619047619,23.9365079 C0.268253968,23.9365079 0,23.668254 0,23.3174603 L0,8.87301587 C0,7.38730159 1.1968254,6.19047619 2.68253968,6.19047619 L15.0634921,6.19047619 C15.4142857,6.19047619 15.6825397,6.45873016 15.6825397,6.80952381 C15.6825397,7.16031746 15.4142857,7.42857143 15.0634921,7.42857143 C14.2587302,7.42857143 13.6190476,8.06825397 13.6190476,8.87301587 L13.6190476,23.3174603 C13.6190476,23.4825397 13.5571429,23.647619 13.4333333,23.7507937 L11.3698413,25.8142857 C11.2460317,25.9380952 11.1015873,26 10.9365079,26 Z" id="Path" fill="#444B54"></path>
                    </g>
                    <g id="icons8-remove_user_female" transform="translate(13.000000, 15.000000)">
                        <path d="M14,7 C14,10.8661 10.8654,14 7,14 C3.1339,14 0,10.8661 0,7 C0,3.1339 3.1339,0 7,0 C10.8654,0 14,3.1339 14,7" id="Path" fill="#F44336"></path>
                        <polygon id="Rectangle" fill="#FFFFFF" points="11 9.4002133 9.4002133 11 3 4.5997867 4.5997867 3"></polygon>
                        <polygon id="Rectangle" fill="#FFFFFF" points="4.6 11 3 9.4 9.4 3 11 4.6"></polygon>
                    </g>
                </g>
            </g>
        </g>
    </g>
</svg>