<?xml version="1.0" encoding="UTF-8"?>
<svg width="32px" height="32px" viewBox="0 0 32 32" version="1.1" xmlns="http://www.w3.org/2000/svg" xmlns:xlink="http://www.w3.org/1999/xlink">
    <!-- Generator: Sketch 62 (91390) - https://sketch.com -->
    <title>wire</title>
    <desc>Created with Sketch.</desc>
    <g id="Admin-Master-Flow" stroke="none" stroke-width="1" fill="none" fill-rule="evenodd">
        <g id="Indexing-Fields-Vendor-setup" transform="translate(-1263.000000, -722.000000)" fill-rule="nonzero">
            <g id="wire" transform="translate(1263.000000, 722.000000)">
                <g id="Group" transform="translate(0.615385, 0.615385)">
                    <path d="M29.5384615,30.7692308 L1.23076923,30.7692308 C0.550769231,30.7692308 0,30.2184615 0,29.5384615 L0,1.23076923 C0,0.550769231 0.550769231,0 1.23076923,0 L29.5384615,0 C30.2184615,0 30.7692308,0.550769231 30.7692308,1.23076923 L30.7692308,29.5384615 C30.7692308,30.2184615 30.2184615,30.7692308 29.5384615,30.7692308 Z" id="Path" fill="#F9E3AE"></path>
                    <path d="M28.9230769,30.7692308 L1.84615385,30.7692308 C0.826461538,30.7692308 0,29.9427692 0,28.9230769 L0,17.8461538 C0,16.4867692 1.10215385,15.3846154 2.46153846,15.3846154 L28.3076923,15.3846154 C29.6670769,15.3846154 30.7692308,16.4867692 30.7692308,17.8461538 L30.7692308,28.9230769 C30.7692308,29.9427692 29.9427692,30.7692308 28.9230769,30.7692308 Z" id="Path" fill="#F6D397"></path>
                    <path d="M25.8461538,27.0769231 L4.92307692,27.0769231 C4.24307692,27.0769231 3.69230769,26.5261538 3.69230769,25.8461538 L3.69230769,4.92307692 C3.69230769,4.24307692 4.24307692,3.69230769 4.92307692,3.69230769 L25.8461538,3.69230769 C26.5261538,3.69230769 27.0769231,4.24307692 27.0769231,4.92307692 L27.0769231,25.8461538 C27.0769231,26.5261538 26.5261538,27.0769231 25.8461538,27.0769231 Z" id="Path" fill="#FEBC00"></path>
                </g>
                <g id="Group">
                    <path d="M27.0769231,3.69230769 L4.92307692,3.69230769 C4.24430769,3.69230769 3.69230769,4.24430769 3.69230769,4.92307692 L3.69230769,27.0769231 C3.69230769,27.7556923 4.24430769,28.3076923 4.92307692,28.3076923 L6.76923077,28.3076923 C7.10892308,28.3076923 7.38461538,28.032 7.38461538,27.6923077 C7.38461538,27.3526154 7.10892308,27.0769231 6.76923077,27.0769231 L4.92307692,27.0769231 L4.92307692,4.92307692 L27.0769231,4.92307692 L27.0769231,27.0769231 L25.2307692,27.0769231 C24.8910769,27.0769231 24.6153846,27.3526154 24.6153846,27.6923077 C24.6153846,28.032 24.8910769,28.3076923 25.2307692,28.3076923 L27.0769231,28.3076923 C27.7556923,28.3076923 28.3076923,27.7556923 28.3076923,27.0769231 L28.3076923,4.92307692 C28.3076923,4.24430769 27.7556923,3.69230769 27.0769231,3.69230769 Z" id="Path" fill="#015250"></path>
                    <path d="M30.1538462,0 L1.84615385,0 C0.828307692,0 0,0.828307692 0,1.84615385 L0,30.1538462 C0,31.1716923 0.828307692,32 1.84615385,32 L30.1538462,32 C31.1716923,32 32,31.1716923 32,30.1538462 L32,1.84615385 C32,0.828307692 31.1716923,0 30.1538462,0 Z M30.7692308,30.1538462 C30.7692308,30.4929231 30.4929231,30.7692308 30.1538462,30.7692308 L1.84615385,30.7692308 C1.50707692,30.7692308 1.23076923,30.4929231 1.23076923,30.1538462 L1.23076923,1.84615385 C1.23076923,1.50707692 1.50707692,1.23076923 1.84615385,1.23076923 L30.1538462,1.23076923 C30.4929231,1.23076923 30.7692308,1.50707692 30.7692308,1.84615385 L30.7692308,30.1538462 Z" id="Shape" fill="#015250"></path>
                    <path d="M12.9230769,26.4615385 C12.5833846,26.4615385 12.3076923,26.7372308 12.3076923,27.0769231 L12.3076923,28.3076923 C12.3076923,28.6473846 12.5833846,28.9230769 12.9230769,28.9230769 C13.2627692,28.9230769 13.5384615,28.6473846 13.5384615,28.3076923 L13.5384615,27.0769231 C13.5384615,26.7372308 13.2627692,26.4615385 12.9230769,26.4615385 Z" id="Path" fill="#8D6C9F"></path>
                    <path d="M16,26.4615385 C15.6603077,26.4615385 15.3846154,26.7372308 15.3846154,27.0769231 L15.3846154,28.3076923 C15.3846154,28.6473846 15.6603077,28.9230769 16,28.9230769 C16.3396923,28.9230769 16.6153846,28.6473846 16.6153846,28.3076923 L16.6153846,27.0769231 C16.6153846,26.7372308 16.3396923,26.4615385 16,26.4615385 Z" id="Path" fill="#8D6C9F"></path>
                    <path d="M19.0769231,26.4615385 C18.7372308,26.4615385 18.4615385,26.7372308 18.4615385,27.0769231 L18.4615385,28.3076923 C18.4615385,28.6473846 18.7372308,28.9230769 19.0769231,28.9230769 C19.4166154,28.9230769 19.6923077,28.6473846 19.6923077,28.3076923 L19.6923077,27.0769231 C19.6923077,26.7372308 19.4166154,26.4615385 19.0769231,26.4615385 Z" id="Path" fill="#8D6C9F"></path>
                    <path d="M22.1538462,26.4615385 C21.8141538,26.4615385 21.5384615,26.7372308 21.5384615,27.0769231 L21.5384615,28.3076923 C21.5384615,28.6473846 21.8141538,28.9230769 22.1538462,28.9230769 C22.4935385,28.9230769 22.7692308,28.6473846 22.7692308,28.3076923 L22.7692308,27.0769231 C22.7692308,26.7372308 22.4935385,26.4615385 22.1538462,26.4615385 Z" id="Path" fill="#8D6C9F"></path>
                    <path d="M9.84615385,26.4615385 C9.50646154,26.4615385 9.23076923,26.7372308 9.23076923,27.0769231 L9.23076923,28.3076923 C9.23076923,28.6473846 9.50646154,28.9230769 9.84615385,28.9230769 C10.1858462,28.9230769 10.4615385,28.6473846 10.4615385,28.3076923 L10.4615385,27.0769231 C10.4615385,26.7372308 10.1858462,26.4615385 9.84615385,26.4615385 Z" id="Path" fill="#8D6C9F"></path>
                    <path d="M16.6376202,21.6826923 L16.6376202,20.4200721 C17.4441106,20.3363381 18.0710136,20.067508 18.5183293,19.6135817 C18.965645,19.1596554 19.1893029,18.5602965 19.1893029,17.8155048 C19.1893029,17.3483574 19.1000601,16.9407051 18.9215745,16.5925481 C18.7430889,16.244391 18.4654447,15.9392027 18.0886418,15.6769832 C17.7118389,15.4147636 17.1873998,15.1745793 16.5153245,14.9564303 C15.8432492,14.7382812 15.3606771,14.4958934 15.0676082,14.2292668 C14.7745393,13.9626402 14.6280048,13.6045673 14.6280048,13.1550481 C14.6280048,12.6702724 14.7668269,12.2923678 15.0444712,12.0213341 C15.3221154,11.7503005 15.7231571,11.6147837 16.2475962,11.6147837 C16.75,11.6147837 17.1488381,11.7976763 17.4441106,12.1634615 C17.739383,12.5292468 17.8870192,13.0228365 17.8870192,13.6442308 L17.8870192,13.6442308 L19.1033654,13.6442308 C19.1033654,12.7407853 18.8973357,12.0290465 18.4852764,11.5090144 C18.0732171,10.9889824 17.4969952,10.6782853 16.7566106,10.5769231 L16.7566106,10.5769231 L16.7566106,9.12259615 L15.7716346,9.12259615 L15.7716346,10.5703125 C15.0356571,10.6584535 14.4572316,10.9338942 14.0363582,11.3966346 C13.6154848,11.859375 13.4050481,12.4521234 13.4050481,13.1748798 C13.4050481,13.8844151 13.6198918,14.4694511 14.0495793,14.929988 C14.4792668,15.3905248 15.1634615,15.7640224 16.1021635,16.0504808 C16.7764423,16.2752404 17.2557091,16.5264423 17.5399639,16.8040865 C17.8242188,17.0817308 17.9663462,17.4232772 17.9663462,17.828726 C17.9663462,18.3090946 17.8010817,18.688101 17.4705529,18.9657452 C17.140024,19.2433894 16.6860978,19.3822115 16.108774,19.3822115 C15.5182292,19.3822115 15.0620994,19.2169471 14.7403846,18.8864183 C14.4186699,18.5558894 14.2578125,18.0843349 14.2578125,17.4717548 L14.2578125,17.4717548 L13.0348558,17.4717548 C13.0348558,18.344351 13.2673277,19.0351562 13.7322716,19.5441707 C14.1972155,20.0531851 14.8395433,20.3451522 15.6592548,20.4200721 L15.6592548,20.4200721 L15.6592548,21.6826923 L16.6376202,21.6826923 Z" id="$" fill="#FFFFFF"></path>
                </g>
            </g>
        </g>
    </g>
</svg>