<?xml version="1.0" encoding="UTF-8"?>
<svg width="86px" height="78px" viewBox="0 0 86 78" version="1.1" xmlns="http://www.w3.org/2000/svg" xmlns:xlink="http://www.w3.org/1999/xlink">
    <!-- Generator: Sketch 64 (93537) - https://sketch.com -->
    <title>icon-upload-doc</title>
    <desc>Created with Sketch.</desc>
    <g id="Dashboard-backup" stroke="none" stroke-width="1" fill="none" fill-rule="evenodd">
        <g id="Dashboard01" transform="translate(-1285.000000, -245.000000)">
            <g id="Group-2" transform="translate(1285.000000, 245.000000)">
                <g id="icon-upload-doc">
                    <g id="icons8-file" fill-rule="nonzero">
                        <path d="M52.3842767,75.7924528 L9.49245283,75.7924528 C5.62515723,75.7924528 2.46100629,72.4811321 2.46100629,68.4339623 L2.46100629,9.56603774 C2.46100629,5.51886792 5.62515723,2.20754717 9.49245283,2.20754717 L52.3842767,2.20754717 C56.2515723,2.20754717 59.4157233,5.51886792 59.4157233,9.56603774 L59.4157233,68.4339623 C59.4157233,72.4811321 56.2515723,75.7924528 52.3842767,75.7924528 Z" id="Path" fill="#FFFFFF"></path>
                        <rect id="Rectangle" fill="#C7D7E2" x="9.49245283" y="9.56603774" width="42.8918239" height="11.0377358"></rect>
                        <path d="M48.1654088,35.3207547 L12.3050314,35.3207547 C11.1096855,35.3207547 10.1955975,34.3641509 10.1955975,33.1132075 C10.1955975,31.8622642 11.1096855,30.9056604 12.3050314,30.9056604 L48.1654088,30.9056604 C49.3607547,30.9056604 50.2748428,31.8622642 50.2748428,33.1132075 C50.2748428,34.3641509 49.3607547,35.3207547 48.1654088,35.3207547 Z" id="Path" fill="#C7D7E2"></path>
                        <path d="M48.1654088,46.3584906 L12.3050314,46.3584906 C11.1096855,46.3584906 10.1955975,45.4018868 10.1955975,44.1509434 C10.1955975,42.9 11.1096855,41.9433962 12.3050314,41.9433962 L48.1654088,41.9433962 C49.3607547,41.9433962 50.2748428,42.9 50.2748428,44.1509434 C50.2748428,45.4018868 49.3607547,46.3584906 48.1654088,46.3584906 Z" id="Path" fill="#C7D7E2"></path>
                        <path d="M30.9383648,57.3962264 L12.3050314,57.3962264 C11.1096855,57.3962264 10.1955975,56.4396226 10.1955975,55.1886792 C10.1955975,53.9377358 11.1096855,52.9811321 12.3050314,52.9811321 L30.9383648,52.9811321 C32.1337107,52.9811321 33.0477987,53.9377358 33.0477987,55.1886792 C33.0477987,56.4396226 32.1337107,57.3962264 30.9383648,57.3962264 Z" id="Path" fill="#C7D7E2"></path>
                        <path d="M52.3842767,78 L9.49245283,78 C4.42981132,78 0.351572327,73.7320755 0.351572327,68.4339623 L0.351572327,9.56603774 C0.351572327,4.26792453 4.42981132,0 9.49245283,0 L52.3842767,0 C57.4469182,0 61.5251572,4.26792453 61.5251572,9.56603774 L61.5251572,68.4339623 C61.5251572,73.7320755 57.4469182,78 52.3842767,78 Z M9.49245283,4.41509434 C6.75018868,4.41509434 4.57044025,6.69622642 4.57044025,9.56603774 L4.57044025,68.4339623 C4.57044025,71.3037736 6.75018868,73.5849057 9.49245283,73.5849057 L52.3842767,73.5849057 C55.1265409,73.5849057 57.3062893,71.3037736 57.3062893,68.4339623 L57.3062893,9.56603774 C57.3062893,6.69622642 55.1265409,4.41509434 52.3842767,4.41509434 L9.49245283,4.41509434 Z" id="Shape" fill="#015250"></path>
                    </g>
                    <ellipse id="Oval" fill="#34CC67" cx="63.0666667" cy="54" rx="22.9333333" ry="24"></ellipse>
                    <path d="M63.0666667,42 L56.1866667,49.2 L60.7733333,49.2 L60.7733333,58.8 C60.7733333,59.4624 61.28704,60 61.92,60 L64.2133333,60 C64.8462933,60 65.36,59.4624 65.36,58.8 L65.36,49.2 L69.9466667,49.2 L63.0666667,42 Z M51.6,63.6 L51.6,66 L74.5333333,66 L74.5333333,63.6 L51.6,63.6 Z" id="Shape" fill="#FFFFFF" fill-rule="nonzero"></path>
                </g>
            </g>
        </g>
    </g>
</svg>