<?xml version="1.0" encoding="UTF-8"?>
<svg width="31px" height="18px" viewBox="0 0 31 18" version="1.1" xmlns="http://www.w3.org/2000/svg" xmlns:xlink="http://www.w3.org/1999/xlink">
    <!-- Generator: Sketch 63.1 (92452) - https://sketch.com -->
    <title>account-payable</title>
    <desc>Created with Sketch.</desc>
    <g id="Configuration-Flow" stroke="none" stroke-width="1" fill="none" fill-rule="evenodd">
        <g id="Layout+Menu-(First-level)" transform="translate(-33.000000, -228.000000)" fill="#FFFFFF" fill-rule="nonzero">
            <g id="left-nav" transform="translate(0.000000, 90.000000)">
                <g id="Group-6" transform="translate(33.000000, 120.000000)">
                    <path d="M22.75,18 C22.325,18 22,18.325 22,18.75 C22,19.175 22.325,19.5 22.75,19.5 L30.25,19.5 C30.675,19.5 31,19.175 31,18.75 C31,18.325 30.675,18 30.25,18 L22.75,18 Z M13.178711,18.192871 C12.0629883,18.2053222 10.9594727,18.609375 10.1000977,19.375 L4.27490225,24.4501953 C3.94990225,24.7251952 3.775,25.1249023 3.75,25.5249023 L3.75,25.75 L3.75,34.5 L1.5,34.5 L0.75,34.5 C0.325,34.5 -3.55271368e-15,34.825 -3.55271368e-15,35.25 C-3.55271368e-15,35.675 0.325,36 0.75,36 L4.5,36 L10.4750977,36 C10.8750978,36 11.25,35.6749025 11.25,35.2749025 C11.25,34.8499025 10.925,34.5 10.5,34.5 L5.25,34.5 L5.25,25.6000977 L11.0751953,20.5 C12.0251952,19.675 13.3749023,19.4750977 14.5249023,19.9750977 L20.6499023,22.7001953 C20.9499023,22.8251953 21.2001953,23.075 21.3251953,23.375 C21.4501953,23.675 21.4501953,24.0251952 21.3251953,24.3251953 C21.0501953,24.9501953 20.3248048,25.2500977 19.6748047,24.9750977 L15.0498048,23 C14.8498048,22.925 14.6248047,22.925 14.4248047,23 C14.2248048,23.1 14.0749022,23.2500978 14.0249023,23.4750977 L14,23.6499023 C13.325,25.9249022 11.45,27.6 9.125,28 C8.725,28.075 8.44990225,28.45 8.52490225,28.875 C8.59990225,29.25 8.89990225,29.5 9.27490225,29.5 L9.39990225,29.5 C12.0749022,29.025 14.2500978,27.2250978 15.2250978,24.7250977 L19.1000978,26.375 C20.5000978,26.975 22.1251953,26.3248047 22.7001953,24.9248047 C23.0001953,24.2498047 23.0000978,23.4998047 22.7250978,22.7998047 C22.4500978,22.1248047 21.925,21.5748047 21.25,21.2998047 L15.1499023,18.6000977 C14.5217772,18.3188477 13.8481445,18.1854005 13.178711,18.192871 Z M27,23 C24.790861,23 23,24.790861 23,27 C23,29.209139 24.790861,31 27,31 C29.209139,31 31,29.209139 31,27 C31,24.790861 29.209139,23 27,23 Z M17.75,29.5 C16.9215729,29.5 16.25,30.1715729 16.25,31 C16.25,31.8284271 16.9215729,32.5 17.75,32.5 C18.5784271,32.5 19.25,31.8284271 19.25,31 C19.25,30.1715729 18.5784271,29.5 17.75,29.5 Z M13.25,30.25 C12.825,30.25 12.5,30.575 12.5,31 L12.5,32.75 C12.5,34.55 13.95,36 15.75,36 L30.25,36 C30.675,36 31,35.675 31,35.25 C31,34.825 30.675,34.5 30.25,34.5 L15.75,34.5 C14.775,34.5 14,33.725 14,32.75 L14,31 C14,30.575 13.675,30.25 13.25,30.25 Z" id="account-payable"></path>
                </g>
            </g>
        </g>
    </g>
</svg>