<?xml version="1.0" encoding="UTF-8"?>
<svg width="24px" height="20px" viewBox="0 0 24 20" version="1.1" xmlns="http://www.w3.org/2000/svg" xmlns:xlink="http://www.w3.org/1999/xlink">
    <!-- Generator: Sketch 63.1 (92452) - https://sketch.com -->
    <title>ar2</title>
    <desc>Created with Sketch.</desc>
    <g id="Configuration-Flow" stroke="none" stroke-width="1" fill="none" fill-rule="evenodd">
        <g id="Layout+Menu-(First-level)" transform="translate(-36.000000, -765.000000)" fill-rule="nonzero">
            <g id="left-nav" transform="translate(0.000000, 90.000000)">
                <g id="ar2" transform="translate(36.000000, 675.000000)">
                    <polygon id="Path" fill="#004A47" points="3.96226415 18.6792453 4.71698113 19.4339623 6.60377358 17.5471698 8.49056604 19.4339623 10.3773585 17.5471698 12.2641509 19.4339623 14.1509434 17.5471698 16.0377358 19.4339623 17.9245283 17.5471698 19.8113208 19.4339623 19.8113208 2.83018868 3.96226415 2.83018868"></polygon>
                    <path d="M19.8113208,20 C19.6603774,20 19.5283019,19.9433962 19.4150943,19.8301887 L17.9245283,18.3396226 L16.4339623,19.8301887 C16.2075472,20.0566038 15.8490566,20.0566038 15.6415094,19.8301887 L14.1509434,18.3396226 L12.6603774,19.8301887 C12.4339623,20.0566038 12.0754717,20.0566038 11.8679245,19.8301887 L10.3773585,18.3396226 L8.88679245,19.8301887 C8.66037736,20.0566038 8.30188679,20.0566038 8.09433962,19.8301887 L6.60377358,18.3396226 L5.11320755,19.8301887 C4.88679245,20.0566038 4.52830189,20.0566038 4.32075472,19.8301887 L3.56603774,19.0754717 C3.33962264,18.8490566 3.33962264,18.490566 3.56603774,18.2830189 C3.79245283,18.0566038 4.1509434,18.0566038 4.35849057,18.2830189 L4.71698113,18.6415094 L6.20754717,17.1509434 C6.43396226,16.9245283 6.79245283,16.9245283 7,17.1509434 L8.49056604,18.6415094 L9.98113208,17.1509434 C10.2075472,16.9245283 10.5660377,16.9245283 10.7735849,17.1509434 L12.2641509,18.6415094 L13.754717,17.1509434 C13.9811321,16.9245283 14.3396226,16.9245283 14.5471698,17.1509434 L16.0377358,18.6415094 L17.5283019,17.1509434 C17.754717,16.9245283 18.1132075,16.9245283 18.3207547,17.1509434 L19.245283,18.0754717 L19.245283,3.39622642 L4.52830189,3.39622642 L4.52830189,15.8490566 C4.52830189,16.1698113 4.28301887,16.4150943 3.96226415,16.4150943 C3.64150943,16.4150943 3.39622642,16.1698113 3.39622642,15.8490566 L3.39622642,2.83018868 C3.39622642,2.50943396 3.64150943,2.26415094 3.96226415,2.26415094 L19.8113208,2.26415094 C20.1320755,2.26415094 20.3773585,2.50943396 20.3773585,2.83018868 L20.3773585,19.4339623 C20.3773585,19.6603774 20.245283,19.8679245 20.0188679,19.9622642 C19.9622642,19.9811321 19.8867925,20 19.8113208,20 Z" id="Path" fill="#FFFFFF"></path>
                    <path d="M16.0377358,10.9433962 L7.73584906,10.9433962 C7.41509434,10.9433962 7.16981132,10.6981132 7.16981132,10.3773585 C7.16981132,10.0566038 7.41509434,9.81132075 7.73584906,9.81132075 L16.0377358,9.81132075 C16.3584906,9.81132075 16.6037736,10.0566038 16.6037736,10.3773585 C16.6037736,10.6981132 16.3584906,10.9433962 16.0377358,10.9433962 Z" id="Path" fill="#FFFFFF"></path>
                    <path d="M16.0377358,8.11320755 L7.73584906,8.11320755 C7.41509434,8.11320755 7.16981132,7.86792453 7.16981132,7.54716981 C7.16981132,7.22641509 7.41509434,6.98113208 7.73584906,6.98113208 L16.0377358,6.98113208 C16.3584906,6.98113208 16.6037736,7.22641509 16.6037736,7.54716981 C16.6037736,7.86792453 16.3584906,8.11320755 16.0377358,8.11320755 Z" id="Path" fill="#FFFFFF"></path>
                    <path d="M16.0377358,13.7735849 L15.2830189,13.7735849 C14.9622642,13.7735849 14.7169811,13.5283019 14.7169811,13.2075472 C14.7169811,12.8867925 14.9622642,12.6415094 15.2830189,12.6415094 L16.0377358,12.6415094 C16.3584906,12.6415094 16.6037736,12.8867925 16.6037736,13.2075472 C16.6037736,13.5283019 16.3584906,13.7735849 16.0377358,13.7735849 Z" id="Path" fill="#FFFFFF"></path>
                    <path d="M22.0754717,3.39622642 C21.754717,3.39622642 21.509434,3.1509434 21.509434,2.83018868 C21.509434,2.50943396 21.754717,2.26415094 22.0754717,2.26415094 C22.3962264,2.26415094 22.6415094,2.01886792 22.6415094,1.69811321 C22.6415094,1.37735849 22.3962264,1.13207547 22.0754717,1.13207547 L1.69811321,1.13207547 C1.37735849,1.13207547 1.13207547,1.37735849 1.13207547,1.69811321 C1.13207547,2.01886792 1.37735849,2.26415094 1.69811321,2.26415094 C2.01886792,2.26415094 2.26415094,2.50943396 2.26415094,2.83018868 C2.26415094,3.1509434 2.01886792,3.39622642 1.69811321,3.39622642 C0.754716981,3.39622642 0,2.64150943 0,1.69811321 C0,0.754716981 0.754716981,0 1.69811321,0 L22.0754717,0 C23.0188679,0 23.7735849,0.754716981 23.7735849,1.69811321 C23.7735849,2.64150943 23.0188679,3.39622642 22.0754717,3.39622642 Z" id="Path" fill="#FFFFFF"></path>
                </g>
            </g>
        </g>
    </g>
</svg>