<?xml version="1.0" encoding="UTF-8"?>
<svg width="24px" height="18px" viewBox="0 0 24 18" version="1.1" xmlns="http://www.w3.org/2000/svg" xmlns:xlink="http://www.w3.org/1999/xlink">
    <!-- Generator: Sketch 63.1 (92452) - https://sketch.com -->
    <title>collaboration</title>
    <desc>Created with Sketch.</desc>
    <g id="Configuration-Flow" stroke="none" stroke-width="1" fill="none" fill-rule="evenodd">
        <g id="Layout+Menu-(First-level)" transform="translate(-38.000000, -604.000000)" fill="#FFFFFF" fill-rule="nonzero">
            <g id="left-nav" transform="translate(0.000000, 90.000000)">
                <path d="M61.3638753,519.181733 L50.4188525,514.095459 C50.1447465,513.96818 49.8308506,513.96818 49.5567446,514.095459 L38.6117218,519.181733 C38.2477206,519.349609 38.0097293,519.718195 38,520.129131 C38.0103508,520.547608 38.2479716,520.92458 38.6147205,521.104348 L39.5607902,521.568001 L39.5607902,525.335956 C39.5607902,525.707255 39.8527916,526.008253 40.2129936,526.008253 C40.5731956,526.008253 40.865197,525.707255 40.865197,525.335956 L40.865197,522.244935 L42.4304852,523.10733 L42.4304852,527.680495 C42.430974,527.861961 42.4831045,528.039292 42.5804171,528.190513 C44.271924,530.589762 46.9778561,532.006257 49.8551089,531.998651 C52.7535859,532.050299 55.4880339,530.616055 57.1537898,528.170422 C57.2467517,528.025118 57.2986644,527.85602 57.3037216,527.682041 L57.3037216,523.261881 L61.4373419,521.098166 C61.7919,520.91248 62.0108371,520.532732 61.9995862,520.122949 C61.9822178,519.708841 61.73461,519.34224 61.3638753,519.181733 Z M55.4595603,527.397667 C54.1008047,529.153659 52.0325038,530.165785 49.8536096,530.140948 C47.6766417,530.145994 45.6149072,529.133102 44.2476589,527.386848 L44.2476589,524.071728 L49.5147637,526.825828 C49.6609149,526.903071 49.8228072,526.943334 49.9870489,526.943287 C50.1551201,526.943308 50.3209003,526.903099 50.4713287,526.825828 L55.4610596,524.223188 L55.4595603,527.397667 Z M49.9840502,524.677568 L41.4379366,520.209498 L49.9840502,516.237536 L58.5301639,520.209498 L49.9840502,524.677568 Z M40.8487045,526.906194 C41.0440049,527.105851 41.1538599,527.377642 41.1538599,527.661176 C41.1538599,527.94471 41.0440049,528.216501 40.8487045,528.416158 C40.4398815,528.832556 39.7821985,528.832556 39.3733755,528.416158 C39.1784464,528.216297 39.0688484,527.944582 39.0688484,527.661176 C39.0688484,527.37777 39.1784464,527.106055 39.3733755,526.906194 C39.7821985,526.489796 40.4398815,526.489796 40.8487045,526.906194 L40.8487045,526.906194 Z" id="collaboration"></path>
            </g>
        </g>
    </g>
</svg>