<?xml version="1.0" encoding="UTF-8"?>
<svg width="30px" height="30px" viewBox="0 0 30 30" version="1.1" xmlns="http://www.w3.org/2000/svg" xmlns:xlink="http://www.w3.org/1999/xlink">
    <!-- Generator: Sketch 63.1 (92452) - https://sketch.com -->
    <title>expand</title>
    <desc>Created with Sketch.</desc>
    <g id="Configuration-Flow" stroke="none" stroke-width="1" fill="none" fill-rule="evenodd">
        <g id="Layout+Menu-(First-level)" transform="translate(-303.000000, -964.000000)" fill="#075C49" fill-rule="nonzero">
            <g id="left-nav" transform="translate(0.000000, 90.000000)">
                <g id="Group-4">
                    <path d="M317.741722,874 C310.649007,874 304.698676,878.790039 303,885.25 L305.622517,885.25 C307.246689,880.181641 312.059603,876.5 317.741722,876.5 C324.754967,876.5 330.456954,882.105469 330.456954,889 C330.456954,895.894531 324.754967,901.5 317.741722,901.5 C312.059603,901.5 307.246689,897.81836 305.622517,892.75 L303,892.75 C304.698676,899.209961 310.649007,904 317.741722,904 C326.15563,904 333,897.271485 333,889 C333,880.728516 326.15563,874 317.741722,874 Z M317.473684,883.545455 L315.639553,885.41481 L318.550239,888.381397 L303,888.381397 L303,890.98224 L318.550239,890.98224 L315.639553,893.948826 L317.473684,895.818182 L322.577352,890.616496 L323.454545,889.681818 L322.577352,888.74714 L317.473684,883.545455 Z" id="expand"></path>
                </g>
            </g>
        </g>
    </g>
</svg>