<?xml version="1.0" encoding="UTF-8"?>
<svg width="25px" height="23px" viewBox="0 0 25 23" version="1.1" xmlns="http://www.w3.org/2000/svg" xmlns:xlink="http://www.w3.org/1999/xlink">
    <!-- Generator: Sketch 63.1 (92452) - https://sketch.com -->
    <title>integrations</title>
    <desc>Created with Sketch.</desc>
    <g id="Configuration-Flow" stroke="none" stroke-width="1" fill="none" fill-rule="evenodd">
        <g id="Layout+Menu-(First-level)" transform="translate(-36.000000, -653.000000)" fill="#FFFFFF" fill-rule="nonzero">
            <g id="left-nav" transform="translate(0.000000, 90.000000)">
                <path d="M48.65,563 C45.4807616,563 42.9,565.580762 42.9,568.75 C42.9,570.641211 43.8388675,572.301074 45.2539062,573.35 L42.396875,578.057812 C41.8128906,577.884863 41.1637697,577.929785 40.6,578.255469 C39.5061522,578.886621 39.1243165,580.306152 39.7554687,581.4 C40.386621,582.493848 41.8061522,582.875683 42.9,582.244531 C43.9938478,581.613379 44.3756834,580.193848 43.7445313,579.1 C43.6457031,578.929297 43.5176759,578.785547 43.3851563,578.650781 L46.5117188,573.511719 L46.8171875,573.008594 L46.3140625,572.721094 C44.9596678,571.921484 44.05,570.441308 44.05,568.75 C44.05,566.20293 46.10293,564.15 48.65,564.15 C51.1970706,564.15 53.25,566.20293 53.25,568.75 C53.25,569.223926 53.1848634,569.668652 53.0523437,570.097656 L54.1484375,570.439062 C54.3146487,569.902246 54.4,569.338477 54.4,568.75 C54.4,565.580762 51.8192384,563 48.65,563 Z M48.65,566.45 C47.3854491,566.45 46.35,567.485449 46.35,568.75 C46.35,570.014551 47.3854491,571.05 48.65,571.05 C48.8409178,571.05 49.0295897,571.023047 49.2070312,570.978125 L51.9742188,575.991406 L52.24375,576.494531 L52.7648437,576.225 C53.4229491,575.861133 54.1686522,575.65 54.975,575.65 C57.5220706,575.65 59.575,577.70293 59.575,580.25 C59.575,582.797071 57.5220706,584.85 54.975,584.85 C53.7329103,584.85 52.605371,584.353613 51.7765625,583.55625 L50.9859375,584.382812 C52.0191406,585.377832 53.4296875,586 54.975,586 C58.1442384,586 60.725,583.419238 60.725,580.25 C60.725,577.080762 58.1442384,574.5 54.975,574.5 C54.1776366,574.5 53.4386719,574.708887 52.746875,575.003125 L50.2132813,570.403125 C50.6580081,569.983105 50.95,569.403613 50.95,568.75 C50.95,567.485449 49.9145509,566.45 48.65,566.45 Z M48.65,567.6 C49.2923831,567.6 49.8,568.107617 49.8,568.75 C49.8,569.392383 49.2923831,569.9 48.65,569.9 C48.0076175,569.9 47.5,569.392383 47.5,568.75 C47.5,568.107617 48.0076175,567.6 48.65,567.6 Z M40.3484375,574.661719 C37.8440428,575.286133 36,577.561426 36,580.25 C36,583.419238 38.5807616,586 41.75,586 C44.7148438,586 47.0889647,583.71123 47.3921875,580.825 L52.7648437,580.825 C53.0208987,581.813281 53.9103518,582.55 54.975,582.55 C56.2395509,582.55 57.275,581.514551 57.275,580.25 C57.275,578.985449 56.2395509,577.95 54.975,577.95 C53.9103518,577.95 53.0208987,578.686719 52.7648437,579.675 L46.35,579.675 L46.35,580.25 C46.35,582.797071 44.2970706,584.85 41.75,584.85 C39.20293,584.85 37.15,582.797071 37.15,580.25 C37.15,578.089258 38.6369143,576.292383 40.6359375,575.79375 L40.3484375,574.661719 Z M41.60625,579.1 C42.0509768,579.043848 42.4979491,579.257227 42.7382812,579.675 C43.0594728,580.232031 42.8820312,580.91709 42.325,581.238281 C41.7679688,581.559473 41.0829103,581.382031 40.7617188,580.825 C40.4405272,580.267969 40.6179688,579.58291 41.175,579.261719 C41.3142581,579.180859 41.4580081,579.117969 41.60625,579.1 Z M54.975,579.1 C55.6173831,579.1 56.125,579.607617 56.125,580.25 C56.125,580.892383 55.6173831,581.4 54.975,581.4 C54.3326175,581.4 53.825,580.892383 53.825,580.25 C53.825,579.607617 54.3326175,579.1 54.975,579.1 Z" id="integrations"></path>
            </g>
        </g>
    </g>
</svg>