<?xml version="1.0" encoding="UTF-8"?>
<svg width="26px" height="26px" viewBox="0 0 26 26" version="1.1" xmlns="http://www.w3.org/2000/svg" xmlns:xlink="http://www.w3.org/1999/xlink">
    <!-- Generator: Sketch 63.1 (92452) - https://sketch.com -->
    <title>search</title>
    <desc>Created with Sketch.</desc>
    <g id="Configuration-Flow" stroke="none" stroke-width="1" fill="none" fill-rule="evenodd">
        <g id="Layout+Menu-(First-level)" transform="translate(-1462.000000, -34.000000)" fill="#000" fill-rule="nonzero">
            <g id="Group-2" transform="translate(1462.000000, 24.000000)">
                <path d="M10.0454545,10 C4.50337373,10 4.26325641e-14,14.5033737 4.26325641e-14,20.0454545 C4.26325641e-14,25.5875354 4.50337373,30.0909091 10.0454545,30.0909091 C12.2382815,30.0909091 14.2649148,29.3845884 15.9176136,28.1889205 L23.6917614,35.9446023 L25.3536932,34.2826705 L17.671875,26.5823864 C19.1814634,24.8235088 20.0909091,22.5406604 20.0909091,20.0454545 C20.0909091,14.5033737 15.5875354,10 10.0454545,10 Z M10.0454545,11.1818182 C14.9481534,11.1818182 18.9090909,15.1427557 18.9090909,20.0454545 C18.9090909,24.9481534 14.9481534,28.9090909 10.0454545,28.9090909 C5.14275568,28.9090909 1.18181818,24.9481534 1.18181818,20.0454545 C1.18181818,15.1427557 5.14275568,11.1818182 10.0454545,11.1818182 Z" id="search"></path>
            </g>
        </g>
    </g>
</svg>