<?xml version="1.0" encoding="UTF-8"?>
<svg width="42px" height="36px" viewBox="0 0 42 36" version="1.1" xmlns="http://www.w3.org/2000/svg" xmlns:xlink="http://www.w3.org/1999/xlink">
    <!-- Generator: Sketch 64 (93537) - https://sketch.com -->
    <title>icon-resolve</title>
    <desc>Created with Sketch.</desc>
    <g id="Dashboard-backup" stroke="none" stroke-width="1" fill="none" fill-rule="evenodd">
        <g id="Dashboard01" transform="translate(-568.000000, -492.000000)" fill-rule="nonzero">
            <g id="Group-5" transform="translate(540.000000, 459.000000)">
                <g id="Group-15" transform="translate(28.000000, 24.000000)">
                    <g id="icon-resolve" transform="translate(0.000000, 9.000000)">
                        <path d="M3,0 C1.3550302,0 0,1.3550302 0,3 L0,33 C0,34.64497 1.3550302,36 3,36 L39,36 C40.64497,36 42,34.64497 42,33 L42,3 C42,1.3550302 40.64497,0 39,0 L3,0 Z" id="Path" fill="#015250"></path>
                        <path d="M3,2 L39,2 C39.56503,2 40,2.4349698 40,3 L40,6 L2,6 L2,3 C2,2.4349698 2.4349698,2 3,2 Z" id="Path" fill="#FFFFFF"></path>
                        <path d="M4,3 C3.44771525,3 3,3.44771525 3,4 C3,4.55228475 3.44771525,5 4,5 C4.55228475,5 5,4.55228475 5,4 C5,3.44771525 4.55228475,3 4,3 Z" id="Path" fill="#015250"></path>
                        <path d="M7,3 C6.44771525,3 6,3.44771525 6,4 C6,4.55228475 6.44771525,5 7,5 C7.55228475,5 8,4.55228475 8,4 C8,3.44771525 7.55228475,3 7,3 Z" id="Path" fill="#015250"></path>
                        <path d="M10,3 C9.44771525,3 9,3.44771525 9,4 C9,4.55228475 9.44771525,5 10,5 C10.5522847,5 11,4.55228475 11,4 C11,3.44771525 10.5522847,3 10,3 Z" id="Path" fill="#015250"></path>
                        <path d="M2,8 L40,8 L40,33 C40,33.56503 39.56503,34 39,34 L3,34 C2.4349698,34 2,33.56503 2,33 L2,8 Z" id="Path" fill="#FFFFFF"></path>
                        <path d="M32.980469,11.988281 C32.6508532,11.9973653 32.346898,12.1683399 32.167969,12.445312 L28.84375,17.429688 L26.707031,15.292969 C26.51876,15.099436 26.2602359,14.9902498 25.990234,14.990234 C25.5833109,14.990341 25.2170251,15.2369897 25.0639032,15.6140044 C24.9107814,15.9910191 25.0013576,16.4232191 25.292969,16.707031 L28.175781,19.589844 C28.3415626,19.8237199 28.5997361,19.9752097 28.884766,20.005859 C28.8925626,20.0072541 28.9003755,20.0085565 28.908203,20.009766 C28.9413204,20.012723 28.9745647,20.0140266 29.007812,20.0137289 C29.0110673,20.0137289 29.0143227,20.0137289 29.017578,20.0137289 C29.0208333,20.0137289 29.0240887,20.0137289 29.027344,20.0137289 C29.4329559,20.0090076 29.7955758,19.7598025 29.945312,19.382812 L33.832031,13.554688 C34.0452896,13.2445742 34.0663881,12.8409917 33.886628,12.5103317 C33.7068678,12.1796716 33.3566905,11.9779296 32.980469,11.988281 L32.980469,11.988281 Z" id="Path" fill="#34CC67"></path>
                        <path d="M9,15 C8.63936408,14.9948997 8.30391864,15.1843753 8.12211228,15.4958728 C7.94030592,15.8073704 7.94030592,16.1926296 8.12211228,16.5041272 C8.30391864,16.8156247 8.63936408,17.0051003 9,17 L20,17 C20.3606359,17.0051003 20.6960814,16.8156247 20.8778877,16.5041272 C21.0596941,16.1926296 21.0596941,15.8073704 20.8778877,15.4958728 C20.6960814,15.1843753 20.3606359,14.9948997 20,15 L9,15 Z" id="Path" fill="#015250"></path>
                        <path d="M32.980469,21.988281 C32.6508532,21.9973653 32.346898,22.1683399 32.167969,22.445312 L28.84375,27.429688 L26.707031,25.292969 C26.51876,25.099436 26.2602359,24.9902498 25.990234,24.990234 C25.5833109,24.990341 25.2170251,25.2369897 25.0639032,25.6140044 C24.9107814,25.9910191 25.0013576,26.4232191 25.292969,26.707031 L28.175781,29.589844 C28.3415626,29.8237199 28.5997361,29.9752097 28.884766,30.005859 C28.8925626,30.0072541 28.9003755,30.0085565 28.908203,30.009766 C28.9413204,30.012723 28.9745647,30.0140266 29.007812,30.0137289 C29.0110673,30.0137289 29.0143227,30.0137289 29.017578,30.0137289 C29.0208333,30.0137289 29.0240887,30.0137289 29.027344,30.0137289 C29.4329559,30.0090076 29.7955758,29.7598025 29.945312,29.382812 L33.832031,23.554688 C34.0452896,23.2445742 34.0663881,22.8409917 33.886628,22.5103317 C33.7068678,22.1796716 33.3566905,21.9779296 32.980469,21.988281 L32.980469,21.988281 Z" id="Path" fill="#34CC67"></path>
                        <path d="M9,25 C8.63936408,24.9948997 8.30391864,25.1843753 8.12211228,25.4958728 C7.94030592,25.8073704 7.94030592,26.1926296 8.12211228,26.5041272 C8.30391864,26.8156247 8.63936408,27.0051003 9,27 L20,27 C20.3606359,27.0051003 20.6960814,26.8156247 20.8778877,26.5041272 C21.0596941,26.1926296 21.0596941,25.8073704 20.8778877,25.4958728 C20.6960814,25.1843753 20.3606359,24.9948997 20,25 L9,25 Z" id="Path" fill="#015250"></path>
                    </g>
                </g>
            </g>
        </g>
    </g>
</svg>