<?xml version="1.0" encoding="UTF-8"?>
<svg width="3px" height="14px" viewBox="0 0 3 14" version="1.1" xmlns="http://www.w3.org/2000/svg" xmlns:xlink="http://www.w3.org/1999/xlink">
    <!-- Generator: Sketch 64 (93537) - https://sketch.com -->
    <title>icon-more</title>
    <desc>Created with Sketch.</desc>
    <g id="Dashboard-backup" stroke="none" stroke-width="1" fill="none" fill-rule="evenodd">
        <g id="Dashboard01" transform="translate(-1844.000000, -571.000000)" fill="#4D4D4D">
            <g id="Group-13" transform="translate(1018.000000, 418.000000)">
                <g id="Group-36" transform="translate(0.000000, 126.000000)">
                    <g id="Group-35" transform="translate(20.000000, 15.000000)">
                        <g id="Group-32" transform="translate(806.000000, 12.000000)">
                            <g id="Group-33">
                                <path d="M1.27828152,11.3159376 C1.96863745,11.3159376 2.52828152,11.8755816 2.52828152,12.5659376 C2.52828152,13.2562935 1.96863745,13.8159376 1.27828152,13.8159376 C0.587925579,13.8159376 0.0282815159,13.2562935 0.0282815159,12.5659376 C0.0282815159,11.8755816 0.587925579,11.3159376 1.27828152,11.3159376 Z M1.2660833,5.92814991 C1.95643924,5.92814991 2.5160833,6.48779397 2.5160833,7.17814991 C2.5160833,7.86850585 1.95643924,8.42814991 1.2660833,8.42814991 C0.575727362,8.42814991 0.0160832989,7.86850585 0.0160832989,7.17814991 C0.0160832989,6.48779397 0.575727362,5.92814991 1.2660833,5.92814991 Z M1.26323526,0.106088847 C1.95359119,0.106088847 2.51323526,0.66573291 2.51323526,1.35608885 C2.51323526,2.04644478 1.95359119,2.60608885 1.26323526,2.60608885 C0.572879319,2.60608885 0.0132352558,2.04644478 0.0132352558,1.35608885 C0.0132352558,0.66573291 0.572879319,0.106088847 1.26323526,0.106088847 Z" id="icon-more"></path>
                            </g>
                        </g>
                    </g>
                </g>
            </g>
        </g>
    </g>
</svg>