<?xml version="1.0" encoding="UTF-8"?>
<svg width="39px" height="45px" viewBox="0 0 39 45" version="1.1" xmlns="http://www.w3.org/2000/svg" xmlns:xlink="http://www.w3.org/1999/xlink">
    <!-- Generator: Sketch 64 (93537) - https://sketch.com -->
    <title>icon-approve</title>
    <desc>Created with Sketch.</desc>
    <g id="Dashboard-backup" stroke="none" stroke-width="1" fill="none" fill-rule="evenodd">
        <g id="Dashboard01" transform="translate(-156.000000, -491.000000)" fill-rule="nonzero">
            <g id="Group-5" transform="translate(132.000000, 459.000000)">
                <g id="icon-approve" transform="translate(24.000000, 32.000000)">
                    <polygon id="Path" fill="#FFFFFF" points="37.08 1.08 33.48 4.68 29.88 1.08 26.28 4.68 22.68 1.08 19.08 4.68 15.48 1.08 11.88 4.68 8.28 1.08 8.28 43.92 11.88 40.32 15.48 43.92 19.08 40.32 22.68 43.92 26.28 40.32 29.88 43.92 33.48 40.32 37.08 43.92"></polygon>
                    <path d="M13.68,15.84 C11.7,15.84 9.864,16.38 8.28,17.28 L8.28,36 C9.864,36.936 11.7,37.44 13.68,37.44 C19.656,37.44 24.48,32.616 24.48,26.64 C24.48,20.664 19.656,15.84 13.68,15.84 Z" id="Path" fill="#9EB9D3"></path>
                    <g id="Group" transform="translate(6.840000, 0.000000)" fill="#015250">
                        <path d="M1.44,10.332 C0.828,10.332 0.36,9.864 0.36,9.252 L0.36,1.08 C0.36,0.468 0.828,0 1.44,0 C2.052,0 2.52,0.468 2.52,1.08 L2.52,9.252 C2.52,9.864 2.052,10.332 1.44,10.332 Z" id="Path"></path>
                        <path d="M30.24,45 C29.952,45 29.7,44.892 29.484,44.676 L26.64,41.832 L23.796,44.676 C23.364,45.108 22.68,45.108 22.284,44.676 L19.44,41.832 L16.596,44.676 C16.164,45.108 15.48,45.108 15.084,44.676 L12.24,41.832 L9.396,44.676 C8.964,45.108 8.28,45.108 7.884,44.676 L5.04,41.832 L2.196,44.676 C1.872,45 1.44,45.072 1.008,44.928 C0.612,44.748 0.324,44.352 0.324,43.92 L0.324,33.228 C0.324,32.616 0.792,32.148 1.404,32.148 C2.016,32.148 2.484,32.616 2.484,33.228 L2.484,41.328 L4.248,39.564 C4.68,39.132 5.364,39.132 5.76,39.564 L8.604,42.408 L11.448,39.564 C11.88,39.132 12.564,39.132 12.96,39.564 L15.804,42.408 L18.648,39.564 C19.08,39.132 19.764,39.132 20.16,39.564 L23.004,42.408 L25.848,39.564 C26.28,39.132 26.964,39.132 27.36,39.564 L29.124,41.328 L29.124,3.672 L27.36,5.436 C26.928,5.868 26.244,5.868 25.848,5.436 L23.04,2.592 L20.196,5.436 C19.764,5.868 19.08,5.868 18.684,5.436 L15.84,2.592 L12.996,5.436 C12.564,5.868 11.88,5.868 11.484,5.436 L7.884,1.836 C7.452,1.404 7.452,0.72 7.884,0.324 C8.316,-0.108 9,-0.108 9.396,0.324 L12.24,3.168 L15.084,0.324 C15.516,-0.108 16.2,-0.108 16.596,0.324 L19.44,3.168 L22.284,0.324 C22.716,-0.108 23.4,-0.108 23.796,0.324 L26.64,3.168 L29.484,0.324 C29.808,4.4408921e-16 30.24,-0.072 30.672,0.072 C31.068,0.252 31.356,0.648 31.356,1.08 L31.356,43.92 C31.356,44.352 31.104,44.748 30.672,44.928 C30.528,44.964 30.384,45 30.24,45 Z" id="Path"></path>
                    </g>
                    <circle id="Oval" fill="#FFFFFF" cx="11.88" cy="23.04" r="10.8"></circle>
                    <path d="M11.88,34.92 C5.328,34.92 0,29.592 0,23.04 C0,16.488 5.328,11.16 11.88,11.16 C18.432,11.16 23.76,16.488 23.76,23.04 C23.76,29.592 18.432,34.92 11.88,34.92 Z M11.88,13.32 C6.516,13.32 2.16,17.676 2.16,23.04 C2.16,28.404 6.516,32.76 11.88,32.76 C17.244,32.76 21.6,28.404 21.6,23.04 C21.6,17.676 17.244,13.32 11.88,13.32 Z" id="Shape" fill="#015250"></path>
                    <path d="M31.68,13.32 L22.68,13.32 C22.068,13.32 21.6,12.852 21.6,12.24 C21.6,11.628 22.068,11.16 22.68,11.16 L31.68,11.16 C32.292,11.16 32.76,11.628 32.76,12.24 C32.76,12.852 32.292,13.32 31.68,13.32 Z" id="Path" fill="#9EB9D3"></path>
                    <path d="M31.68,18.72 L26.28,18.72 C25.668,18.72 25.2,18.252 25.2,17.64 C25.2,17.028 25.668,16.56 26.28,16.56 L31.68,16.56 C32.292,16.56 32.76,17.028 32.76,17.64 C32.76,18.252 32.292,18.72 31.68,18.72 Z" id="Path" fill="#9EB9D3"></path>
                    <path d="M31.68,24.12 L27.36,24.12 C26.748,24.12 26.28,23.652 26.28,23.04 C26.28,22.428 26.748,21.96 27.36,21.96 L31.68,21.96 C32.292,21.96 32.76,22.428 32.76,23.04 C32.76,23.652 32.292,24.12 31.68,24.12 Z" id="Path" fill="#9EB9D3"></path>
                    <path d="M31.68,29.52 L24.12,29.52 C23.508,29.52 23.04,29.052 23.04,28.44 C23.04,27.828 23.508,27.36 24.12,27.36 L31.68,27.36 C32.292,27.36 32.76,27.828 32.76,28.44 C32.76,29.052 32.292,29.52 31.68,29.52 Z" id="Path" fill="#9EB9D3"></path>
                    <path d="M28.08,34.92 L20.52,34.92 C19.908,34.92 19.44,34.452 19.44,33.84 C19.44,33.228 19.908,32.76 20.52,32.76 L28.08,32.76 C28.692,32.76 29.16,33.228 29.16,33.84 C29.16,34.452 28.692,34.92 28.08,34.92 Z" id="Path" fill="#9EB9D3"></path>
                    <path d="M31.68,34.92 C31.392,34.92 31.104,34.812 30.924,34.596 C30.708,34.416 30.6,34.128 30.6,33.84 C30.6,33.552 30.708,33.264 30.924,33.084 C31.32,32.688 32.04,32.688 32.436,33.084 C32.472,33.12 32.544,33.192 32.58,33.264 C32.616,33.336 32.652,33.372 32.688,33.444 C32.724,33.516 32.724,33.588 32.76,33.66 C32.76,33.732 32.796,33.804 32.796,33.876 C32.796,34.164 32.688,34.452 32.472,34.632 C32.436,34.668 32.364,34.74 32.292,34.776 C32.22,34.812 32.184,34.848 32.112,34.884 C32.04,34.92 31.968,34.92 31.896,34.956 C31.824,34.92 31.752,34.92 31.68,34.92 Z" id="Path" fill="#9EB9D3"></path>
                    <path d="M11.16,27 C11.16,27 11.16,27 11.16,27 C10.8,27 10.512,26.82 10.296,26.568 L7.956,23.508 C7.596,23.04 7.704,22.356 8.172,21.996 C8.64,21.636 9.324,21.744 9.684,22.212 L11.16,24.192 L14.652,19.836 C15.012,19.368 15.696,19.296 16.164,19.656 C16.632,20.016 16.704,20.7 16.344,21.168 L11.988,26.604 C11.808,26.856 11.484,27 11.16,27 Z" id="Path" fill="#34CC67"></path>
                </g>
            </g>
        </g>
    </g>
</svg>