<?xml version="1.0" encoding="UTF-8"?>
<svg width="26px" height="26px" viewBox="0 0 26 26" version="1.1" xmlns="http://www.w3.org/2000/svg" xmlns:xlink="http://www.w3.org/1999/xlink">
    <!-- Generator: Sketch 64 (93537) - https://sketch.com -->
    <title>flow-approval</title>
    <desc>Created with Sketch.</desc>
    <g id="Page-1" stroke="none" stroke-width="1" fill="none" fill-rule="evenodd">
        <g id="AP-AccountCoding2" transform="translate(-144.000000, -524.000000)">
            <g id="Group-13" transform="translate(144.000000, 265.000000)">
                <g id="flow-approval" transform="translate(0.000000, 259.000000)">
                    <circle id="Oval" stroke="#005350" fill="#FFFFFF" cx="13" cy="13" r="12.5"></circle>
                    <g id="Group-4" transform="translate(6.000000, 6.000000)" fill-rule="nonzero">
                        <g id="icons8-buy_for_coins">
                            <g id="Group" transform="translate(3.984674, 0.000000)">
                                <path d="M0.298850575,0.298850575 L0.298850575,10.7586207 L5.27969349,10.2605364 C5.82758621,10.2605364 6.27586207,9.81226054 6.27586207,9.26436782 L6.27586207,0.298850575 L5.27969349,1.29501916 L4.2835249,0.298850575 L3.28735632,1.29501916 L2.29118774,0.298850575 L1.29501916,1.29501916 L0.298850575,0.298850575 Z" id="Path" fill="#CADBEA"></path>
                                <path d="M5.27969349,1.59386973 C5.2,1.59386973 5.1302682,1.56398467 5.07049808,1.50421456 L4.2835249,0.717241379 L3.49655172,1.50421456 C3.37701149,1.62375479 3.18773946,1.62375479 3.07816092,1.50421456 L2.08199234,0.508045977 C1.96245211,0.388505747 1.96245211,0.199233716 2.08199234,0.0896551724 C2.20153257,-0.0298850575 2.3908046,-0.0298850575 2.50038314,0.0896551724 L3.28735632,0.876628352 L4.0743295,0.0896551724 C4.19386973,-0.0298850575 4.38314176,-0.0298850575 4.49272031,0.0896551724 L5.27969349,0.876628352 L6.06666667,0.0896551724 C6.1862069,-0.0298850575 6.37547893,-0.0298850575 6.48505747,0.0896551724 C6.6045977,0.209195402 6.6045977,0.398467433 6.48505747,0.508045977 L5.48888889,1.50421456 C5.42911877,1.56398467 5.35938697,1.59386973 5.27969349,1.59386973 Z" id="Path" fill="#444B54"></path>
                                <path d="M3.28735632,2.29118774 L0.298850575,2.29118774 L0.298850575,10.2605364 L5.27969349,10.2605364 L5.27969349,4.2835249 C5.27969349,3.18773946 4.38314176,2.29118774 3.28735632,2.29118774 Z" id="Path" fill="#9EB9D3"></path>
                                <path d="M0.298850575,3.48659004 C0.129501916,3.48659004 0,3.35708812 0,3.18773946 L0,0.298850575 C0,0.129501916 0.129501916,0 0.298850575,0 C0.468199234,0 0.597701149,0.129501916 0.597701149,0.298850575 L0.597701149,3.18773946 C0.597701149,3.35708812 0.468199234,3.48659004 0.298850575,3.48659004 Z" id="Path" fill="#444B54"></path>
                            </g>
                            <path d="M6.27586207,10.2605364 L6.27586207,4.2835249 C6.27586207,3.73563218 6.72413793,3.28735632 7.27203065,3.28735632 L7.27203065,3.28735632 C7.81992337,3.28735632 8.26819923,3.73563218 8.26819923,4.2835249 L8.26819923,9.26436782 C8.26819923,9.81226054 8.7164751,10.2605364 9.26436782,10.2605364 L9.26436782,10.2605364 C9.54329502,10.2605364 6.27586207,10.2605364 6.27586207,10.2605364 Z" id="Path" fill="#CADBEA"></path>
                            <path d="M9.26436782,10.559387 C9.09501916,10.559387 8.96551724,10.4298851 8.96551724,10.2605364 C8.96551724,10.0911877 9.09501916,9.96168582 9.26436782,9.96168582 C9.65287356,9.96168582 9.96168582,9.65287356 9.96168582,9.26436782 L9.96168582,0.298850575 C9.96168582,0.129501916 10.0911877,0 10.2605364,0 C10.4298851,0 10.559387,0.129501916 10.559387,0.298850575 L10.559387,9.26436782 C10.559387,9.9816092 9.9816092,10.559387 9.26436782,10.559387 Z" id="Path" fill="#444B54"></path>
                            <path d="M8.26819923,5.2697318 C8.09885057,5.2697318 7.96934866,5.14022989 7.96934866,4.97088123 L7.96934866,4.2835249 C7.96934866,3.89501916 7.6605364,3.5862069 7.27203065,3.5862069 C7.10268199,3.5862069 6.97318008,3.45670498 6.97318008,3.28735632 C6.97318008,3.11800766 7.10268199,2.98850575 7.27203065,2.98850575 C7.98927203,2.98850575 8.56704981,3.56628352 8.56704981,4.2835249 L8.56704981,4.97088123 C8.56704981,5.1302682 8.43754789,5.2697318 8.26819923,5.2697318 Z" id="Path" fill="#444B54"></path>
                            <g id="Group" transform="translate(6.574713, 5.478927)">
                                <circle id="Oval" fill="#FFFFFF" cx="2.98850575" cy="3.07816092" r="2.68965517"></circle>
                                <path d="M2.98850575,6.06666667 C1.34482759,6.06666667 0,4.72183908 0,3.07816092 C0,1.43448276 1.34482759,0.0896551724 2.98850575,0.0896551724 C4.63218391,0.0896551724 5.97701149,1.43448276 5.97701149,3.07816092 C5.97701149,4.72183908 4.63218391,6.06666667 2.98850575,6.06666667 Z M2.98850575,0.687356322 C1.67356322,0.687356322 0.597701149,1.76321839 0.597701149,3.07816092 C0.597701149,4.39310345 1.67356322,5.46896552 2.98850575,5.46896552 C4.30344828,5.46896552 5.37931034,4.39310345 5.37931034,3.07816092 C5.37931034,1.76321839 4.30344828,0.687356322 2.98850575,0.687356322 Z" id="Shape" fill="#444B54"></path>
                                <path d="M3.34712644,3.09808429 C3.28735632,3.05823755 3.21762452,3.02835249 3.14789272,3.00842912 C3.08812261,2.98850575 3.02835249,2.96858238 2.95862069,2.95862069 C2.89885057,2.93869732 2.84904215,2.92873563 2.78927203,2.89885057 C2.74942529,2.8789272 2.70957854,2.85900383 2.67969349,2.82911877 C2.64980843,2.8091954 2.62988506,2.76934866 2.60996169,2.7394636 C2.6,2.70957854 2.58007663,2.6697318 2.58007663,2.58007663 C2.58007663,2.54022989 2.59003831,2.49042146 2.6,2.45057471 C2.60996169,2.41072797 2.63984674,2.37088123 2.6697318,2.34099617 C2.69961686,2.31111111 2.7394636,2.28122605 2.78927203,2.26130268 C2.83908046,2.24137931 2.89885057,2.23141762 2.96858238,2.23141762 C3.03831418,2.23141762 3.09808429,2.24137931 3.14789272,2.26130268 C3.19770115,2.28122605 3.22758621,2.31111111 3.25747126,2.34099617 C3.28735632,2.38084291 3.30727969,2.42068966 3.32720307,2.4605364 C3.34712644,2.51034483 3.39693487,2.54022989 3.45670498,2.5302682 C3.50651341,2.51034483 3.53639847,2.4605364 3.52643678,2.40076628 C3.50651341,2.33103448 3.46666667,2.26130268 3.41685824,2.21149425 C3.36704981,2.15172414 3.30727969,2.11187739 3.23754789,2.07203065 C3.18773946,2.05210728 3.13793103,2.03218391 3.07816092,2.03218391 L3.07816092,1.96245211 C3.07816092,1.90268199 3.02835249,1.86283525 2.97854406,1.86283525 C2.92873563,1.86283525 2.8789272,1.91264368 2.8789272,1.96245211 L2.8789272,2.03218391 C2.81915709,2.04214559 2.76934866,2.05210728 2.71954023,2.07203065 C2.64980843,2.10191571 2.58007663,2.14176245 2.5302682,2.20153257 C2.48045977,2.251341 2.44061303,2.31111111 2.42068966,2.38084291 C2.40076628,2.44061303 2.38084291,2.51034483 2.38084291,2.58007663 C2.38084291,2.67969349 2.3908046,2.75938697 2.42068966,2.81915709 C2.45057471,2.88888889 2.49042146,2.93869732 2.54022989,2.97854406 C2.59003831,3.0183908 2.64980843,3.05823755 2.70957854,3.07816092 C2.76934866,3.09808429 2.82911877,3.12796935 2.89885057,3.13793103 C2.95862069,3.15785441 3.0183908,3.16781609 3.07816092,3.18773946 C3.13793103,3.20766284 3.17777778,3.22758621 3.22758621,3.25747126 C3.26743295,3.28735632 3.30727969,3.31724138 3.32720307,3.36704981 C3.35708812,3.40689655 3.36704981,3.46666667 3.36704981,3.54636015 C3.36704981,3.59616858 3.35708812,3.64597701 3.34712644,3.69578544 C3.33716475,3.74559387 3.30727969,3.78544061 3.27739464,3.81532567 C3.24750958,3.84521073 3.20766284,3.87509579 3.16781609,3.89501916 C3.11800766,3.91494253 3.06819923,3.92490421 2.99846743,3.92490421 C2.93869732,3.92490421 2.88888889,3.91494253 2.83908046,3.90498084 C2.78927203,3.88505747 2.74942529,3.8651341 2.70957854,3.83524904 C2.6697318,3.80536398 2.63984674,3.75555556 2.60996169,3.69578544 C2.59003831,3.64597701 2.5302682,3.62605364 2.48045977,3.64597701 C2.43065134,3.66590038 2.41072797,3.7256705 2.43065134,3.77547893 C2.47049808,3.85517241 2.51034483,3.92490421 2.57011494,3.98467433 C2.62988506,4.03448276 2.69961686,4.0743295 2.76934866,4.10421456 C2.79923372,4.11417625 2.82911877,4.12413793 2.85900383,4.12413793 L2.85900383,4.20383142 C2.85900383,4.26360153 2.90881226,4.30344828 2.95862069,4.30344828 C3.00842912,4.30344828 3.05823755,4.25363985 3.05823755,4.20383142 L3.05823755,4.13409962 C3.11800766,4.12413793 3.17777778,4.11417625 3.22758621,4.09425287 C3.30727969,4.06436782 3.36704981,4.02452107 3.41685824,3.96475096 C3.46666667,3.90498084 3.50651341,3.84521073 3.52643678,3.77547893 C3.54636015,3.70574713 3.55632184,3.63601533 3.55632184,3.56628352 C3.55632184,3.45670498 3.53639847,3.35708812 3.48659004,3.28735632 C3.47662835,3.19770115 3.41685824,3.13793103 3.34712644,3.09808429 Z" id="Path" fill="#444B54"></path>
                            </g>
                            <g id="Group" transform="translate(4.582375, 5.478927)">
                                <circle id="Oval" fill="#FFFFFF" cx="2.98850575" cy="3.07816092" r="2.68965517"></circle>
                                <path d="M2.98850575,6.06666667 C1.34482759,6.06666667 0,4.72183908 0,3.07816092 C0,1.43448276 1.34482759,0.0896551724 2.98850575,0.0896551724 C4.63218391,0.0896551724 5.97701149,1.43448276 5.97701149,3.07816092 C5.97701149,4.72183908 4.63218391,6.06666667 2.98850575,6.06666667 Z M2.98850575,0.687356322 C1.67356322,0.687356322 0.597701149,1.76321839 0.597701149,3.07816092 C0.597701149,4.39310345 1.67356322,5.46896552 2.98850575,5.46896552 C4.30344828,5.46896552 5.37931034,4.39310345 5.37931034,3.07816092 C5.37931034,1.76321839 4.30344828,0.687356322 2.98850575,0.687356322 Z" id="Shape" fill="#444B54"></path>
                                <path d="M2.97854406,4.44291188 C2.84904215,4.44291188 2.74942529,4.3532567 2.72950192,4.23371648 C2.63984674,4.20383142 2.55019157,4.15402299 2.48045977,4.08429119 C2.41072797,4.01455939 2.34099617,3.92490421 2.30114943,3.82528736 C2.24137931,3.69578544 2.30114943,3.55632184 2.43065134,3.49655172 C2.55019157,3.4467433 2.70957854,3.50651341 2.75938697,3.62605364 C2.77931034,3.66590038 2.79923372,3.69578544 2.81915709,3.71570881 C2.83908046,3.73563218 2.86896552,3.74559387 2.88888889,3.75555556 C2.95862069,3.77547893 3.05823755,3.77547893 3.11800766,3.75555556 C3.14789272,3.74559387 3.16781609,3.73563218 3.17777778,3.71570881 C3.19770115,3.69578544 3.20766284,3.67586207 3.21762452,3.64597701 C3.22758621,3.61609195 3.23754789,3.57624521 3.23754789,3.54636015 C3.23754789,3.48659004 3.22758621,3.45670498 3.21762452,3.4467433 C3.20766284,3.42681992 3.18773946,3.40689655 3.15785441,3.38697318 C3.12796935,3.36704981 3.08812261,3.34712644 3.04827586,3.33716475 C2.98850575,3.31724138 2.92873563,3.30727969 2.86896552,3.28735632 C2.79923372,3.26743295 2.72950192,3.24750958 2.6697318,3.21762452 C2.59003831,3.18773946 2.52030651,3.14789272 2.4605364,3.08812261 C2.3908046,3.02835249 2.34099617,2.95862069 2.30114943,2.8789272 C2.26130268,2.79923372 2.24137931,2.68965517 2.24137931,2.57011494 C2.24137931,2.48045977 2.26130268,2.40076628 2.29118774,2.3210728 C2.3210728,2.24137931 2.37088123,2.16168582 2.43065134,2.09195402 C2.49042146,2.02222222 2.57011494,1.97241379 2.6697318,1.93256705 C2.68965517,1.92260536 2.71954023,1.91264368 2.7394636,1.91264368 C2.75938697,1.80306513 2.85900383,1.71340996 2.98850575,1.71340996 C3.10804598,1.71340996 3.20766284,1.80306513 3.23754789,1.91264368 C3.26743295,1.92260536 3.28735632,1.93256705 3.31724138,1.94252874 C3.40689655,1.98237548 3.48659004,2.04214559 3.55632184,2.12183908 C3.61609195,2.19157088 3.66590038,2.27126437 3.68582375,2.37088123 C3.70574713,2.43065134 3.69578544,2.50038314 3.66590038,2.56015326 C3.63601533,2.61992337 3.5862069,2.65977011 3.5164751,2.67969349 C3.48659004,2.68965517 3.45670498,2.68965517 3.43678161,2.68965517 C3.32720307,2.68965517 3.22758621,2.61992337 3.19770115,2.52030651 C3.18773946,2.49042146 3.17777778,2.47049808 3.15785441,2.45057471 C3.14789272,2.43065134 3.12796935,2.42068966 3.09808429,2.41072797 C3.03831418,2.38084291 2.91877395,2.38084291 2.85900383,2.41072797 C2.82911877,2.42068966 2.8091954,2.44061303 2.78927203,2.45057471 C2.76934866,2.47049808 2.75938697,2.49042146 2.74942529,2.51034483 C2.7394636,2.54022989 2.7394636,2.56015326 2.7394636,2.59003831 C2.7394636,2.65977011 2.74942529,2.67969349 2.74942529,2.68965517 C2.75938697,2.70957854 2.76934866,2.71954023 2.77931034,2.72950192 C2.79923372,2.74942529 2.81915709,2.75938697 2.84904215,2.76934866 C2.89885057,2.78927203 2.948659,2.8091954 2.99846743,2.81915709 C3.06819923,2.83908046 3.12796935,2.85900383 3.18773946,2.8789272 C3.27739464,2.90881226 3.35708812,2.93869732 3.42681992,2.98850575 C3.5164751,3.04827586 3.5862069,3.11800766 3.63601533,3.20766284 C3.69578544,3.30727969 3.7256705,3.42681992 3.7256705,3.56628352 C3.7256705,3.6559387 3.71570881,3.74559387 3.68582375,3.82528736 C3.6559387,3.91494253 3.60613027,4.0045977 3.54636015,4.0743295 C3.47662835,4.1440613 3.39693487,4.20383142 3.30727969,4.24367816 C3.27739464,4.25363985 3.24750958,4.26360153 3.21762452,4.27356322 C3.19770115,4.36321839 3.09808429,4.44291188 2.97854406,4.44291188 Z" id="Path" fill="#9EB9D3"></path>
                            </g>
                            <g id="Group" transform="translate(0.298851, 3.287356)">
                                <path d="M0,7.96934866 L0,0.996168582 C0,0.448275862 0.448275862,0 0.996168582,0 L6.97318008,0 L6.97318008,0 C6.42528736,0 5.97701149,0.448275862 5.97701149,0.996168582 L5.97701149,7.96934866 L4.98084291,8.96551724 L3.98467433,7.96934866 L2.98850575,8.96551724 L1.99233716,7.96934866 L0.996168582,8.96551724 L0,7.96934866 Z" id="Path" fill="#CADBEA"></path>
                                <path d="M3.36704981,3.8651341 L2.74942529,3.71570881 C2.56015326,3.66590038 2.44061303,3.50651341 2.44061303,3.31724138 C2.44061303,3.08812261 2.62988506,2.89885057 2.85900383,2.89885057 L3.15785441,2.89885057 C3.36704981,2.89885057 3.53639847,3.06819923 3.53639847,3.27739464 C3.53639847,3.4467433 3.66590038,3.57624521 3.83524904,3.57624521 C4.0045977,3.57624521 4.13409962,3.4467433 4.13409962,3.27739464 C4.13409962,2.77931034 3.76551724,2.37088123 3.28735632,2.31111111 L3.28735632,2.1816092 C3.28735632,2.01226054 3.15785441,1.88275862 2.98850575,1.88275862 C2.81915709,1.88275862 2.68965517,2.01226054 2.68965517,2.1816092 L2.68965517,2.3210728 C2.21149425,2.40076628 1.84291188,2.81915709 1.84291188,3.31724138 C1.84291188,3.78544061 2.16168582,4.18390805 2.60996169,4.30344828 L3.22758621,4.45287356 C3.41685824,4.50268199 3.53639847,4.66206897 3.53639847,4.851341 C3.53639847,5.08045977 3.34712644,5.2697318 3.11800766,5.2697318 L2.81915709,5.2697318 C2.60996169,5.2697318 2.44061303,5.10038314 2.44061303,4.89118774 C2.44061303,4.72183908 2.31111111,4.59233716 2.14176245,4.59233716 C1.97241379,4.59233716 1.84291188,4.72183908 1.84291188,4.89118774 C1.84291188,5.38927203 2.21149425,5.79770115 2.68965517,5.85747126 L2.68965517,5.98697318 C2.68965517,6.15632184 2.81915709,6.28582375 2.98850575,6.28582375 C3.15785441,6.28582375 3.28735632,6.15632184 3.28735632,5.98697318 L3.28735632,5.84750958 C3.76551724,5.76781609 4.13409962,5.34942529 4.13409962,4.851341 C4.13409962,4.38314176 3.81532567,3.98467433 3.36704981,3.8651341 Z" id="Path" fill="#FFFFFF"></path>
                            </g>
                            <path d="M5.27969349,12.5517241 C5.2,12.5517241 5.1302682,12.5218391 5.07049808,12.462069 L4.2835249,11.6750958 L3.49655172,12.462069 C3.37701149,12.5816092 3.18773946,12.5816092 3.07816092,12.462069 L2.29118774,11.6750958 L1.50421456,12.462069 C1.38467433,12.5816092 1.1954023,12.5816092 1.08582375,12.462069 C0.966283525,12.3425287 0.966283525,12.1532567 1.08582375,12.0436782 L2.08199234,11.0475096 C2.20153257,10.9279693 2.3908046,10.9279693 2.50038314,11.0475096 L3.28735632,11.8344828 L4.0743295,11.0475096 C4.19386973,10.9279693 4.38314176,10.9279693 4.49272031,11.0475096 L5.27969349,11.8344828 L5.97701149,11.1371648 L5.97701149,4.2835249 C5.97701149,4.02452107 6.05670498,3.78544061 6.17624521,3.5862069 L1.29501916,3.5862069 C0.90651341,3.5862069 0.597701149,3.89501916 0.597701149,4.2835249 L0.597701149,11.256705 C0.597701149,11.4260536 0.468199234,11.5555556 0.298850575,11.5555556 C0.129501916,11.5555556 0,11.4260536 0,11.256705 L0,4.2835249 C0,3.56628352 0.577777778,2.98850575 1.29501916,2.98850575 L7.27203065,2.98850575 C7.44137931,2.98850575 7.57088123,3.11800766 7.57088123,3.28735632 C7.57088123,3.45670498 7.44137931,3.5862069 7.27203065,3.5862069 C6.8835249,3.5862069 6.57471264,3.89501916 6.57471264,4.2835249 L6.57471264,11.256705 C6.57471264,11.3363985 6.54482759,11.416092 6.48505747,11.4659004 L5.48888889,12.462069 C5.42911877,12.5218391 5.35938697,12.5517241 5.27969349,12.5517241 Z" id="Path" fill="#444B54"></path>
                        </g>
                        <g id="icons8-remove_user_female" transform="translate(6.275862, 7.241379)">
                            <path d="M6.75862069,3.37931034 C6.75862069,5.24570345 5.24536552,6.75862069 3.37931034,6.75862069 C1.51291724,6.75862069 0,5.24570345 0,3.37931034 C0,1.51291724 1.51291724,0 3.37931034,0 C5.24536552,0 6.75862069,1.51291724 6.75862069,3.37931034" id="Path" fill="#13C872"></path>
                            <path d="M3.37931034,0.482758621 C1.77524033,0.482758621 0.482758621,1.77524033 0.482758621,3.37931034 C0.482758621,4.98338036 1.77524033,6.27586207 3.37931034,6.27586207 C4.98338036,6.27586207 6.27586207,4.98338036 6.27586207,3.37931034 C6.27586207,3.06772226 6.23408488,2.75700425 6.12267905,2.46717507 L5.76061008,2.82228117 C5.8049984,3.00070452 5.83023873,3.1791281 5.83023873,3.37931034 C5.83023873,4.73880979 4.73880979,5.83023873 3.37931034,5.83023873 C2.01981112,5.83023873 0.928381963,4.73880979 0.928381963,3.37931034 C0.928381963,2.01981112 2.01981112,0.928381963 3.37931034,0.928381963 C4.04774536,0.928381963 4.64829255,1.19471165 5.07128647,1.61770557 L5.38461538,1.30437666 C4.87197453,0.791735798 4.15915119,0.482758621 3.37931034,0.482758621 Z M5.97475161,1.44827586 L3.61168907,3.76167226 L2.71490357,2.88373512 L2.4137931,3.17851694 L3.46113384,4.20384498 L3.61168907,4.34482759 L3.7622443,4.20384498 L6.27586207,1.74305767 L5.97475161,1.44827586 Z" id="Shape" fill="#FFFFFF"></path>
                        </g>
                    </g>
                </g>
            </g>
        </g>
    </g>
</svg>