<?xml version="1.0" encoding="UTF-8"?>
<svg width="18px" height="18px" viewBox="0 0 18 18" version="1.1" xmlns="http://www.w3.org/2000/svg" xmlns:xlink="http://www.w3.org/1999/xlink">
    <!-- Generator: Sketch 64 (93537) - https://sketch.com -->
    <title>icon-hold-process</title>
    <desc>Created with Sketch.</desc>
    <g id="Page-1" stroke="none" stroke-width="1" fill="none" fill-rule="evenodd">
        <g id="AP-Custom-field-added-view" transform="translate(-1717.000000, -204.000000)">
            <g id="more-menu" transform="translate(1702.000000, 145.000000)">
                <g id="icon-hold-process" transform="translate(15.000000, 59.000000)">
                    <circle id="Oval" stroke="#FA6400" stroke-width="0.6" fill="#FFFFFF" cx="9" cy="9" r="8.7"></circle>
                    <path d="M9.00164936,4 C8.68238838,4 8.40620339,4.18811699 8.24225857,4.49504472 L5.12734054,10.4653615 C4.96339571,10.7821901 4.95480077,11.1682089 5.1187456,11.4850376 C5.27406175,11.8018663 5.55887541,12 5.87813639,12 L12.1165674,12 C12.4358284,12 12.729237,11.8117672 12.8845531,11.4850376 C13.0398693,11.1682089 13.0399029,10.7821901 12.8759581,10.4653615 L9.76104015,4.49504472 C9.59709533,4.18811699 9.32091034,4 9.00164936,4 Z M9.00164936,4.59405366 C9.13107948,4.59405366 9.24321852,4.66332131 9.31224792,4.80193383 L12.4359293,10.7722505 C12.5049587,10.9009621 12.5049251,11.0594537 12.4445243,11.1980663 C12.3754949,11.3267779 12.2632212,11.4059464 12.1251624,11.4059464 L5.87813639,11.4059464 C5.74870627,11.4059464 5.62780369,11.3267779 5.55877429,11.1980663 C5.48974489,11.0693546 5.49833991,10.9009621 5.56736931,10.7722505 L8.6910508,4.80193383 C8.7600802,4.67322221 8.87221923,4.59405366 9.00164936,4.59405366 Z M9.14278911,6.5446459 C8.91612244,6.5446459 8.74278911,6.67335753 8.74278911,6.84167273 L8.74278911,8.92086055 C8.74278911,9.08917576 8.91612244,9.21788739 9.14278911,9.21788739 C9.36945578,9.21788739 9.54278911,9.08917576 9.54278911,8.92086055 L9.54278911,6.84167273 C9.54278911,6.67335753 9.36945578,6.5446459 9.14278911,6.5446459 Z M9.14278911,9.63364763 C8.92187521,9.63364763 8.74278911,9.81273373 8.74278911,10.0336476 C8.74278911,10.2545615 8.92187521,10.4336476 9.14278911,10.4336476 C9.36370301,10.4336476 9.54278911,10.2545615 9.54278911,10.0336476 C9.54278911,9.81273373 9.36370301,9.63364763 9.14278911,9.63364763 Z" id="Shape" fill="#FA6400" fill-rule="nonzero"></path>
                </g>
            </g>
        </g>
    </g>
</svg>