<?xml version="1.0" encoding="UTF-8"?>
<svg width="14px" height="14px" viewBox="0 0 14 14" version="1.1" xmlns="http://www.w3.org/2000/svg" xmlns:xlink="http://www.w3.org/1999/xlink">
    <!-- Generator: Sketch 64 (93537) - https://sketch.com -->
    <title>icon-edit</title>
    <desc>Created with Sketch.</desc>
    <g id="Symbols" stroke="none" stroke-width="1" fill="none" fill-rule="evenodd">
        <g id="web-card" transform="translate(-97.000000, -179.000000)" fill="#015250" fill-rule="nonzero">
            <g id="Group-13">
                <g id="web-card">
                    <g id="Group-13">
                        <g id="Group-15" transform="translate(13.000000, 171.000000)">
                            <path d="M96.3232753,8 C95.9975647,8 95.6718538,8.12063361 95.4257613,8.36672617 L95.1651927,8.61764407 C95.1024632,8.58507292 95.0312893,8.57542223 94.9625282,8.588692 C94.9034178,8.60196178 94.8503391,8.6321201 94.8081172,8.6755482 L85.1091754,18.3744902 C85.0790171,18.4046485 85.0560967,18.4408388 85.0416206,18.4806478 L84.0186477,21.202142 C83.9776324,21.3143311 84.0053779,21.4409967 84.0910278,21.52544 C84.1754715,21.61109 84.3021367,21.6388358 84.4143259,21.5978202 L87.13582,20.5748472 C87.175629,20.5603712 87.2118192,20.5374507 87.2419776,20.5072924 L96.9409193,10.8083504 C97.0446644,10.7009865 97.0579339,10.534512 96.9698714,10.4126721 L97.2207893,10.1617542 C97.7129744,9.66956912 97.7129744,8.85891128 97.2207893,8.36672617 C96.9746967,8.12063361 96.6489862,8 96.3232753,8 Z M96.3232753,8.61764407 C96.4921623,8.61764407 96.6622556,8.67675446 96.7865083,8.80100715 C97.03622,9.0507188 97.03622,9.47776161 96.7865083,9.72747326 L96.5452411,9.97839116 L95.618775,9.05192505 L95.8600422,8.80100715 C95.9842949,8.67675446 96.1543882,8.61764407 96.3232753,8.61764407 Z M95.0204324,9.32214433 L96.2943232,10.5960352 L95.4450626,11.4356451 L94.1808225,10.1714049 L95.0204324,9.32214433 Z M93.7368908,10.6056859 L95.0107817,11.8795768 L87.010361,19.8703469 L86.7787445,19.6290797 L86.7787445,19.1465453 C86.7787445,18.976452 86.6400158,18.8377233 86.4699225,18.8377233 L85.9873881,18.8377233 L85.7461209,18.6061067 L93.7368908,10.6056859 Z M85.4372988,19.1754974 L85.6303126,19.3685111 C85.689423,19.4264153 85.7702476,19.4577802 85.8522784,19.4553673 L86.1611005,19.4553673 L86.1611005,19.7641894 C86.158688,19.8462202 86.1900525,19.9270448 86.2479567,19.9861552 L86.4409704,20.179169 L85.2635865,20.6231007 L84.9933672,20.3528814 L85.4372988,19.1754974 Z" id="icon-edit"></path>
                        </g>
                    </g>
                </g>
            </g>
        </g>
    </g>
</svg>