<?xml version="1.0" encoding="UTF-8"?>
<svg width="20px" height="20px" viewBox="0 0 20 20" version="1.1" xmlns="http://www.w3.org/2000/svg" xmlns:xlink="http://www.w3.org/1999/xlink">
    <!-- Generator: Sketch 63.1 (92452) - https://sketch.com -->
    <title>ap2</title>
    <desc>Created with Sketch.</desc>
    <g id="Configuration-Flow" stroke="none" stroke-width="1" fill="none" fill-rule="evenodd">
        <g id="Layout+Menu-(First-level)" transform="translate(-40.000000, -710.000000)" fill="#FFFFFF" fill-rule="nonzero">
            <g id="left-nav" transform="translate(0.000000, 90.000000)">
                <path d="M46.875,620 C43.0847169,620 40,623.084717 40,626.875 C40,630.462647 42.7661134,633.419189 46.2780762,633.721924 C46.5808106,637.233887 49.5373534,640 53.125,640 C56.9152831,640 60,636.915283 60,633.125 C60,629.537353 57.2338869,626.580811 53.7219238,626.278076 C53.4191894,622.766113 50.4626466,620 46.875,620 Z M46.875,620.625 C50.1098634,620.625 52.7783203,623.093262 53.0944825,626.25 C52.7746581,626.25 52.4621581,626.275635 52.1569825,626.318359 C52.0593262,625.332031 51.6845703,624.403076 51.0656738,623.609619 C50.9594728,623.47168 50.7629394,623.446045 50.625,623.553467 C50.4907228,623.659668 50.4650878,623.856201 50.5712891,623.994141 C51.1279297,624.705811 51.4587403,625.543213 51.5405275,626.434326 C50.0122072,626.795654 48.6816406,627.670898 47.7368166,628.864746 C47.6794434,628.796387 47.5964356,628.75 47.5,628.75 L46.5625,628.75 C46.1560059,628.75 45.8117675,628.487549 45.6823731,628.125 L46.5625,628.125 C46.73584,628.125 46.875,627.98584 46.875,627.8125 C46.875,627.63916 46.73584,627.5 46.5625,627.5 L45.625,627.5 L45.625,626.875 L46.875,626.875 C47.04834,626.875 47.1875,626.73584 47.1875,626.5625 C47.1875,626.38916 47.04834,626.25 46.875,626.25 L45.625,626.25 L45.625,625.9375 C45.625,625.421142 46.0461425,625 46.5625,625 L47.5,625 C47.67334,625 47.8125,624.86084 47.8125,624.6875 C47.8125,624.51416 47.67334,624.375 47.5,624.375 L46.5625,624.375 C45.7006837,624.375 45,625.075684 45,625.9375 L45,626.25 L44.6875,626.25 C44.5141603,626.25 44.375,626.38916 44.375,626.5625 C44.375,626.73584 44.5141603,626.875 44.6875,626.875 L45,626.875 L45,627.5 L44.375,627.5 C44.2016603,627.5 44.0625,627.63916 44.0625,627.8125 C44.0625,627.98584 44.2016603,628.125 44.375,628.125 L45.0317384,628.125 C45.1770019,628.83667 45.8081056,629.375 46.5625,629.375 L47.3657228,629.375 C46.9384766,630.029297 46.6198731,630.758057 46.4355469,631.540528 C44.0563966,631.318359 42.1875,629.309082 42.1875,626.875 C42.1875,624.290772 44.2907716,622.1875 46.875,622.1875 C47.2875978,622.1875 47.6940919,622.23999 48.0871581,622.346192 C48.2531738,622.390137 48.4252931,622.29126 48.4680175,622.125244 C48.5119628,621.956787 48.4155275,621.787109 48.2470703,621.740723 C47.8027344,621.622314 47.3400878,621.5625 46.875,621.5625 C43.9465331,621.5625 41.5625,623.946533 41.5625,626.875 C41.5625,629.615478 43.6499025,631.878662 46.3183594,632.156983 C46.2756347,632.462158 46.25,632.774658 46.25,633.094483 C43.0932619,632.77832 40.625,630.109863 40.625,626.875 C40.625,623.427734 43.4277344,620.625 46.875,620.625 Z M49.2895509,622.167969 C49.1687013,622.155762 49.0466309,622.216797 48.984375,622.329102 C48.9025878,622.481689 48.9587403,622.672119 49.1101075,622.753906 C49.3322753,622.874756 49.5458984,623.013916 49.7460938,623.168945 C49.8022463,623.212891 49.8693847,623.233642 49.9365234,623.233642 C50.0305175,623.233642 50.1220703,623.193359 50.1843262,623.112793 C50.2893066,622.977295 50.2648925,622.780762 50.1281738,622.675781 C49.9011231,622.5 49.6594238,622.341309 49.4091797,622.20459 C49.3701172,622.183838 49.3298341,622.171631 49.2895509,622.167969 Z M53.125,626.875 C53.3374025,626.875 53.5437012,626.884766 53.75,626.905517 C56.9067384,627.22168 59.375,629.890137 59.375,633.125 C59.375,636.572266 56.5722656,639.375 53.125,639.375 C49.8901369,639.375 47.2216797,636.906738 46.9055175,633.75 C46.8847656,633.543701 46.875,633.337403 46.875,633.125 C46.875,632.806397 46.9006347,632.490234 46.9470216,632.183838 C46.9787597,631.971436 47.022705,631.762695 47.0715331,631.556397 C47.6403809,629.368897 49.3688966,627.640381 51.5563966,627.071533 C51.7626953,627.022705 51.9714356,626.97876 52.1838378,626.947022 C52.4902344,626.900635 52.8063966,626.875 53.125,626.875 Z M53.125,627.8125 C50.1953125,627.8125 47.8125,630.195312 47.8125,633.125 C47.8125,635.5896 49.4836425,637.713623 51.8762206,638.289795 C51.9006347,638.295898 51.9250488,638.29834 51.9494628,638.29834 C52.0898438,638.29834 52.2180175,638.201904 52.2534181,638.057861 C52.2937012,637.890625 52.1899416,637.722168 52.022705,637.681885 C49.9121094,637.172852 48.4375,635.300293 48.4375,633.125 C48.4375,630.540772 50.5407716,628.4375 53.125,628.4375 C55.2661134,628.4375 57.1325684,629.884033 57.664795,631.954346 C57.7087403,632.121582 57.8808594,632.22168 58.0456544,632.178955 C58.2128906,632.136231 58.3142091,631.965332 58.2714844,631.798096 C57.6672363,629.451904 55.5517578,627.8125 53.125,627.8125 Z M53.125,630 C52.9516603,630 52.8125,630.13916 52.8125,630.3125 L52.8125,630.625 C52.2961425,630.625 51.875,631.046142 51.875,631.5625 L51.875,632.5 C51.875,633.016358 52.2961425,633.4375 52.8125,633.4375 L53.4375,633.4375 C53.6096191,633.4375 53.75,633.577881 53.75,633.75 L53.75,634.6875 C53.75,634.859619 53.6096191,635 53.4375,635 L52.8125,635 C52.6403809,635 52.5,634.859619 52.5,634.6875 C52.5,634.51416 52.36084,634.375 52.1875,634.375 C52.0141603,634.375 51.875,634.51416 51.875,634.6875 C51.875,635.203858 52.2961425,635.625 52.8125,635.625 L52.8125,635.9375 C52.8125,636.11084 52.9516603,636.25 53.125,636.25 C53.29834,636.25 53.4375,636.11084 53.4375,635.9375 L53.4375,635.625 C53.9538575,635.625 54.375,635.203858 54.375,634.6875 L54.375,633.75 C54.375,633.233642 53.9538575,632.8125 53.4375,632.8125 L52.8125,632.8125 C52.6403809,632.8125 52.5,632.672119 52.5,632.5 L52.5,631.5625 C52.5,631.390381 52.6403809,631.25 52.8125,631.25 L53.4375,631.25 C53.6096191,631.25 53.75,631.390381 53.75,631.5625 C53.75,631.73584 53.8891603,631.875 54.0625,631.875 C54.23584,631.875 54.375,631.73584 54.375,631.5625 C54.375,631.046142 53.9538575,630.625 53.4375,630.625 L53.4375,630.3125 C53.4375,630.13916 53.29834,630 53.125,630 Z M57.5,633.4375 C57.3266603,633.4375 57.1875,633.57666 57.1875,633.75 C57.1875,633.92334 57.3266603,634.0625 57.5,634.0625 L58.125,634.0625 C58.29834,634.0625 58.4375,633.92334 58.4375,633.75 C58.4375,633.57666 58.29834,633.4375 58.125,633.4375 L57.5,633.4375 Z M57.2021484,634.902344 C57.0812988,634.902344 56.9641113,634.974365 56.9140625,635.092773 C56.8457031,635.252686 56.9201659,635.435791 57.0800781,635.50293 L57.6550294,635.74707 C57.6940919,635.76416 57.7355956,635.771484 57.7770997,635.771484 C57.89917,635.771484 58.0139159,635.700684 58.0651856,635.581055 C58.1323244,635.422363 58.0578613,635.239258 57.89917,635.172119 L57.3242188,634.927978 C57.2839356,634.910889 57.2436525,634.903564 57.2021484,634.902344 Z M56.4013672,636.088867 C56.3220216,636.088867 56.241455,636.119385 56.18042,636.18042 C56.0583497,636.30249 56.0583497,636.500244 56.18042,636.622314 L56.6223144,637.064209 C56.6833497,637.125244 56.7626953,637.155762 56.8432619,637.155762 C56.9238281,637.155762 57.0031738,637.125244 57.0642091,637.064209 C57.1862794,636.942139 57.1862794,636.744385 57.0642091,636.622314 L56.6223144,636.18042 C56.5612794,636.119385 56.4807128,636.088867 56.4013672,636.088867 Z M55.1599122,636.914062 C55.1184081,636.912842 55.078125,636.921387 55.0378419,636.937256 C54.8779297,637.001953 54.8010253,637.183838 54.8645019,637.34375 L55.0988769,637.923584 C55.147705,638.044434 55.2648925,638.118897 55.3894044,638.118897 C55.4284669,638.118897 55.4675294,638.111572 55.5053713,638.095703 C55.6652831,638.031006 55.7434081,637.849121 55.6787109,637.689209 L55.4443359,637.109375 C55.3955078,636.989746 55.2807619,636.916504 55.1599122,636.914062 Z M53.75,637.1875 C53.5766603,637.1875 53.4375,637.32666 53.4375,637.5 L53.4375,638.125 C53.4375,638.29834 53.5766603,638.4375 53.75,638.4375 C53.92334,638.4375 54.0625,638.29834 54.0625,638.125 L54.0625,637.5 C54.0625,637.32666 53.92334,637.1875 53.75,637.1875 Z" id="ap2"></path>
            </g>
        </g>
    </g>
</svg>