<?xml version="1.0" encoding="UTF-8"?>
<svg width="23px" height="24px" viewBox="0 0 23 24" version="1.1" xmlns="http://www.w3.org/2000/svg" xmlns:xlink="http://www.w3.org/1999/xlink">
    <!-- Generator: Sketch 63.1 (92452) - https://sketch.com -->
    <title>banking</title>
    <desc>Created with Sketch.</desc>
    <g id="Configuration-Flow" stroke="none" stroke-width="1" fill="none" fill-rule="evenodd">
        <g id="Layout+Menu-(First-level)" transform="translate(-36.000000, -437.000000)" fill="#FFFFFF" fill-rule="nonzero">
            <path d="M40.3636364,437 C40.3603396,437 40.3573396,437.001042 40.3540484,437.001065 L36.0010653,437.001065 L36.0010653,441.88885 C36.0010375,441.893662 36,441.897871 36,441.902699 L36.0010653,441.902699 L36.0010653,456.097301 L36,456.097301 C36,456.102129 36.0010375,456.106338 36.0010653,456.11115 L36.0010653,460.998935 L40.3540484,460.998935 C40.3573396,460.998958 40.3603396,461 40.3636364,461 L40.3636364,460.998935 L45.8181818,460.998935 L45.8181818,461 C45.8214785,461 45.8244785,460.998958 45.8277698,460.998935 L49.6363636,460.998935 L49.6363636,461 L57.019176,461 C58.0562427,461 58.9090909,460.147481 58.9090909,459.110085 L58.9090909,449.253551 C58.9090909,448.216485 58.0562427,447.363636 57.019176,447.363636 L50.1807529,447.363636 L50.1807529,441.902699 L50.1818182,441.902699 C50.1818182,441.897871 50.1807813,441.893661 50.1807529,441.88885 L50.1807529,437.001065 L45.8277698,437.001065 C45.8244785,437.001042 45.8214785,437 45.8181818,437 L45.8181818,437.001065 L40.3636364,437.001065 L40.3636364,437 Z M37.0898438,438.089844 L38.8838779,438.089844 C38.8585638,438.14112 38.8268494,438.19257 38.8039773,438.243253 C38.6803527,438.517197 38.5875311,438.784368 38.5035512,438.992188 C38.4195709,439.200007 38.3254639,439.343925 38.3277699,439.341619 C38.3307662,439.338623 38.1833934,439.433742 37.9676847,439.526989 C37.7519759,439.620236 37.4723452,439.731052 37.1857244,439.897727 C37.1537683,439.91631 37.1219309,439.939956 37.0898438,439.960582 L37.0898438,438.089844 Z M40.3636364,438.089844 L45.8181818,438.089844 L45.8181818,438.090909 C45.9437558,438.090909 45.9912185,438.116373 46.0845169,438.209162 C46.1778153,438.301951 46.2857318,438.476666 46.3828124,438.691761 C46.4798935,438.906856 46.567758,439.156706 46.6661935,439.400213 C46.7646273,439.64372 46.8546709,439.885132 47.0827413,440.112926 C47.3117902,440.341975 47.5484018,440.426481 47.7816049,440.527344 C48.014808,440.628206 48.2485293,440.724825 48.4474429,440.840554 C48.8452713,441.072011 49.0909091,441.273167 49.0909091,441.902699 L49.0919744,441.902699 L49.0919744,456.097301 L49.0909091,456.097301 C49.0909091,456.726833 48.8451813,456.928154 48.4474429,457.159446 C48.2485745,457.275092 48.0147229,457.370925 47.7816049,457.471591 C47.5484875,457.572257 47.3119151,457.657387 47.0827413,457.886009 L47.0827413,457.887074 C46.9689251,458.001028 46.889376,458.118333 46.8259942,458.237571 C46.7626129,458.356809 46.7153989,458.477979 46.6661935,458.599787 C46.5677809,458.843402 46.4798918,459.093086 46.3828124,459.308239 C46.2857335,459.52339 46.1778109,459.698044 46.0845169,459.790838 C45.9912235,459.883607 45.9437558,459.909091 45.8181818,459.909091 L45.8181818,459.910156 L40.3636364,459.910156 L40.3636364,459.909091 C40.2380624,459.909091 40.1905947,459.883635 40.0973013,459.790838 C40.0040073,459.698044 39.8960847,459.52339 39.7990058,459.308239 C39.7019264,459.093086 39.6140378,458.843402 39.5156247,458.599787 C39.4172138,458.356171 39.3267098,458.114982 39.0990767,457.887074 L39.0990767,457.886009 C38.8699267,457.657161 38.6333878,457.572309 38.4002131,457.471591 C38.1670383,457.370873 37.9332543,457.274005 37.734375,457.158381 C37.3366164,456.927132 37.0909091,456.726833 37.0909091,456.097301 L37.0898438,456.097301 L37.0898438,441.902699 L37.0909091,441.902699 C37.0909091,441.273167 37.3365712,441.07295 37.734375,440.841619 C37.9332769,440.725954 38.1669957,440.629225 38.4002131,440.528409 C38.6334304,440.427593 38.8699894,440.342013 39.0990767,440.112926 C39.326928,439.885075 39.4172024,439.643774 39.5156247,439.400213 C39.6140493,439.156652 39.7019258,438.906885 39.7990058,438.691761 C39.8960858,438.476638 40.0040051,438.301954 40.0973013,438.209162 C40.1905975,438.11637 40.2380624,438.090909 40.3636364,438.090909 L40.3636364,438.089844 Z M47.2979405,438.089844 L49.0919744,438.089844 L49.0919744,439.965909 C49.0597707,439.94519 49.0281676,439.916388 48.9960938,439.897727 C48.7094853,439.730978 48.4298564,439.619226 48.2141335,439.525923 C47.9984105,439.432621 47.8510909,439.337596 47.8540484,439.340554 C47.8565733,439.343076 47.7622358,439.198842 47.6782669,438.991122 C47.5942985,438.783402 47.5014649,438.517158 47.3778409,438.243253 C47.3549689,438.192577 47.3232545,438.141118 47.2979405,438.089844 Z M43.0909091,439.727273 C42.1936309,439.727273 41.4545455,440.466358 41.4545455,441.363636 C41.4545455,442.260915 42.1936309,443 43.0909091,443 C43.9881873,443 44.7272727,442.260915 44.7272727,441.363636 C44.7272727,440.466358 43.9881873,439.727273 43.0909091,439.727273 Z M43.0909091,440.818182 C43.3986158,440.818182 43.6363636,441.05593 43.6363636,441.363636 C43.6363636,441.671343 43.3986158,441.909091 43.0909091,441.909091 C42.7832024,441.909091 42.5454545,441.671343 42.5454545,441.363636 C42.5454545,441.05593 42.7832024,440.818182 43.0909091,440.818182 Z M43.0909091,444.636364 C40.423002,444.636364 38.1818182,446.554379 38.1818182,449 C38.1818182,451.445621 40.423002,453.363636 43.0909091,453.363636 C45.7588162,453.363636 48,451.445621 48,449 C48,446.554379 45.7588162,444.636364 43.0909091,444.636364 Z M43.0909091,445.727273 C45.2429416,445.727273 46.9090909,447.228174 46.9090909,449 C46.9090909,450.771826 45.2429416,452.272727 43.0909091,452.272727 C40.9388765,452.272727 39.2727273,450.771826 39.2727273,449 C39.2727273,447.228174 40.9388765,445.727273 43.0909091,445.727273 Z M50.1807529,448.454545 L57.019176,448.454545 C57.4668365,448.454545 57.8181818,448.805891 57.8181818,449.253551 L57.8181818,450.636364 L50.1807529,450.636364 L50.1807529,448.454545 Z M50.1807529,452.818182 L57.8181818,452.818182 L57.8181818,459.110085 C57.8181818,459.558508 57.4668365,459.909091 57.019176,459.909091 L50.1807529,459.909091 L50.1807529,456.11115 C50.1807529,456.106338 50.1818182,456.102129 50.1818182,456.097301 L50.1807529,456.097301 L50.1807529,452.818182 Z M43.0909091,455 C42.1936309,455 41.4545455,455.739085 41.4545455,456.636364 C41.4545455,457.533642 42.1936309,458.272727 43.0909091,458.272727 C43.9881873,458.272727 44.7272727,457.533642 44.7272727,456.636364 C44.7272727,455.739085 43.9881873,455 43.0909091,455 Z M43.0909091,456.090909 C43.3986158,456.090909 43.6363636,456.328657 43.6363636,456.636364 C43.6363636,456.94407 43.3986158,457.181818 43.0909091,457.181818 C42.7832024,457.181818 42.5454545,456.94407 42.5454545,456.636364 C42.5454545,456.328657 42.7832024,456.090909 43.0909091,456.090909 Z M37.0898438,458.039418 C37.1219329,458.060041 37.1537657,458.083693 37.1857244,458.102273 C37.4723679,458.268921 37.7519332,458.37982 37.9676847,458.473012 C38.1834361,458.566203 38.330829,458.661436 38.3277699,458.658381 C38.3261553,458.657017 38.4197635,458.800398 38.5035512,459.007812 C38.5875428,459.215731 38.680352,459.482763 38.8039773,459.756747 C38.8268495,459.807438 38.8585639,459.858878 38.8838779,459.910156 L37.0898438,459.910156 L37.0898438,458.039418 Z M49.0919744,458.039418 L49.0919744,459.910156 L47.2979405,459.910156 C47.3232545,459.858878 47.3549689,459.807438 47.3778409,459.756747 C47.501466,459.482763 47.5942751,459.215731 47.6782669,459.007812 C47.7622587,458.799894 47.8561358,458.655225 47.8540484,458.657315 C47.8520302,458.659715 47.9990875,458.565873 48.2141335,458.473012 C48.429942,458.37982 48.70944,458.268967 48.9960938,458.102273 C49.0280536,458.083687 49.0598842,458.060046 49.0919744,458.039418 Z" id="banking"></path>
        </g>
    </g>
</svg>