<?xml version="1.0" encoding="UTF-8"?>
<svg width="24px" height="26px" viewBox="0 0 24 26" version="1.1" xmlns="http://www.w3.org/2000/svg" xmlns:xlink="http://www.w3.org/1999/xlink">
    <!-- Generator: Sketch 63.1 (92452) - https://sketch.com -->
    <title>business-profile</title>
    <desc>Created with Sketch.</desc>
    <g id="Configuration-Flow" stroke="none" stroke-width="1" fill="none" fill-rule="evenodd">
        <g id="Layout+Menu-(First-level)" transform="translate(-36.000000, -541.000000)" fill-rule="nonzero">
            <g id="business-profile" transform="translate(36.000000, 541.000000)">
                <polygon id="Path" fill="#004A47" points="23.1111111 0.619047619 8.66666667 0.619047619 8.66666667 7.22222222 5.98412698 7.22222222 0.619047619 9.28571429 0.619047619 26 10.1111111 26 10.1111111 25.3809524 23.1111111 25.3809524"></polygon>
                <path d="M23.1111111,26 C22.7603175,26 22.4920635,25.731746 22.4920635,25.3809524 L22.4920635,1.23809524 L9.28571429,1.23809524 L9.28571429,25.3809524 C9.28571429,25.731746 9.01746032,26 8.66666667,26 C8.31587302,26 8.04761905,25.731746 8.04761905,25.3809524 L8.04761905,0.619047619 C8.04761905,0.268253968 8.31587302,0 8.66666667,0 L23.1111111,0 C23.4619048,0 23.7301587,0.268253968 23.7301587,0.619047619 L23.7301587,25.3809524 C23.7301587,25.731746 23.4619048,26 23.1111111,26 Z" id="Path" fill="#FFFFFF"></path>
                <path d="M16.5079365,26 L15.2698413,26 C14.9190476,26 14.6507937,25.731746 14.6507937,25.3809524 L14.6507937,21.6666667 C14.6507937,21.315873 14.9190476,21.047619 15.2698413,21.047619 L16.5079365,21.047619 C16.8587302,21.047619 17.1269841,21.315873 17.1269841,21.6666667 L17.1269841,25.3809524 C17.1269841,25.731746 16.8587302,26 16.5079365,26 Z M5.36507937,26 L4.12698413,26 C3.77619048,26 3.50793651,25.731746 3.50793651,25.3809524 L3.50793651,21.6666667 C3.50793651,21.315873 3.77619048,21.047619 4.12698413,21.047619 L5.36507937,21.047619 C5.71587302,21.047619 5.98412698,21.315873 5.98412698,21.6666667 L5.98412698,25.3809524 C5.98412698,25.731746 5.71587302,26 5.36507937,26 Z M0.619047619,26 C0.268253968,26 0,25.731746 0,25.3809524 L0,9.28571429 C0,9.03809524 0.165079365,8.79047619 0.392063492,8.70793651 L5.75714286,6.64444444 C6.06666667,6.52063492 6.43809524,6.68571429 6.56190476,6.9952381 C6.68571429,7.3047619 6.52063492,7.67619048 6.21111111,7.8 L1.23809524,9.71904762 L1.23809524,25.3809524 C1.23809524,25.731746 0.96984127,26 0.619047619,26 Z" id="Shape" fill="#FFFFFF"></path>
                <path d="M19.3968254,9.9047619 C19.3555556,9.9047619 19.3142857,9.9047619 19.2730159,9.88412698 C19.231746,9.88412698 19.1904762,9.86349206 19.1492063,9.84285714 C19.1079365,9.82222222 19.0873016,9.8015873 19.0460317,9.78095238 C19.0047619,9.76031746 18.984127,9.73968254 18.9428571,9.6984127 C18.8190476,9.57460317 18.7571429,9.43015873 18.7571429,9.26507937 C18.7571429,9.22380952 18.7571429,9.18253968 18.7777778,9.14126984 C18.7777778,9.1 18.7984127,9.05873016 18.8190476,9.01746032 C18.8396825,8.97619048 18.8603175,8.95555556 18.8809524,8.91428571 C18.9015873,8.87301587 18.9222222,8.85238095 18.9634921,8.81111111 C19.0047619,8.76984127 19.0253968,8.74920635 19.0666667,8.72857143 C19.1079365,8.70793651 19.1285714,8.68730159 19.1698413,8.66666667 C19.2111111,8.64603175 19.252381,8.64603175 19.2936508,8.62539683 C19.5,8.58412698 19.7063492,8.64603175 19.8507937,8.79047619 C19.8714286,8.81111111 19.9126984,8.85238095 19.9333333,8.89365079 C19.9539683,8.93492063 19.9746032,8.95555556 19.9952381,8.9968254 C20.015873,9.03809524 20.015873,9.07936508 20.0365079,9.12063492 C20.0365079,9.16190476 20.0571429,9.2031746 20.0571429,9.24444444 C20.0571429,9.40952381 19.9952381,9.57460317 19.8714286,9.67777778 C19.8507937,9.6984127 19.8095238,9.73968254 19.7888889,9.76031746 C19.747619,9.78095238 19.7269841,9.8015873 19.6857143,9.82222222 C19.6444444,9.84285714 19.6031746,9.84285714 19.5619048,9.86349206 C19.4793651,9.9047619 19.4380952,9.9047619 19.3968254,9.9047619 Z M15.2698413,9.28571429 C15.2698413,8.93492063 15.5380952,8.66666667 15.8888889,8.66666667 L15.8888889,8.66666667 C16.2396825,8.66666667 16.5079365,8.93492063 16.5079365,9.28571429 L16.5079365,9.28571429 C16.5079365,9.63650794 16.2396825,9.9047619 15.8888889,9.9047619 L15.8888889,9.9047619 C15.5380952,9.9047619 15.2698413,9.63650794 15.2698413,9.28571429 Z M12.3809524,9.9047619 C12.215873,9.9047619 12.0507937,9.84285714 11.947619,9.71904762 C11.8238095,9.61587302 11.7619048,9.45079365 11.7619048,9.28571429 C11.7619048,9.24444444 11.7619048,9.2031746 11.7825397,9.16190476 C11.7825397,9.12063492 11.8031746,9.07936508 11.8238095,9.03809524 C11.8444444,8.9968254 11.8650794,8.97619048 11.8857143,8.93492063 C11.9063492,8.89365079 11.9269841,8.87301587 11.968254,8.83174603 C12.1126984,8.68730159 12.3190476,8.62539683 12.5253968,8.66666667 C12.5666667,8.66666667 12.6079365,8.68730159 12.6492063,8.70793651 C12.6904762,8.72857143 12.731746,8.74920635 12.752381,8.76984127 C12.7936508,8.79047619 12.8142857,8.81111111 12.8349206,8.85238095 C12.8555556,8.87301587 12.8968254,8.91428571 12.9174603,8.95555556 C12.9380952,8.9968254 12.9587302,9.01746032 12.9793651,9.05873016 C13,9.1 13,9.14126984 13.0206349,9.18253968 C13.0206349,9.22380952 13.0412698,9.26507937 13.0412698,9.30634921 C13.0412698,9.47142857 12.9793651,9.63650794 12.8555556,9.73968254 C12.8349206,9.76031746 12.7936508,9.8015873 12.7730159,9.82222222 C12.731746,9.84285714 12.7111111,9.86349206 12.6698413,9.88412698 C12.6285714,9.9047619 12.5873016,9.9047619 12.5460317,9.92539683 C12.4634921,9.9047619 12.4222222,9.9047619 12.3809524,9.9047619 Z M19.3968254,6.80952381 C19.3555556,6.80952381 19.3142857,6.80952381 19.2730159,6.78888889 C19.231746,6.78888889 19.1904762,6.76825397 19.1492063,6.74761905 C19.1079365,6.72698413 19.0873016,6.70634921 19.0460317,6.68571429 C19.0047619,6.66507937 18.984127,6.64444444 18.9428571,6.6031746 C18.9222222,6.58253968 18.8809524,6.54126984 18.8603175,6.5 C18.8396825,6.45873016 18.8190476,6.43809524 18.7984127,6.3968254 C18.7777778,6.35555556 18.7777778,6.31428571 18.7571429,6.27301587 C18.7571429,6.23174603 18.7365079,6.19047619 18.7365079,6.14920635 C18.7365079,6.10793651 18.7365079,6.06666667 18.7571429,6.02539683 C18.7571429,5.98412698 18.7777778,5.94285714 18.7984127,5.9015873 C18.8190476,5.86031746 18.8396825,5.83968254 18.8603175,5.7984127 C18.8809524,5.75714286 18.9015873,5.73650794 18.9428571,5.6952381 C18.984127,5.65396825 19.0047619,5.63333333 19.0460317,5.61269841 C19.0873016,5.59206349 19.1079365,5.57142857 19.1492063,5.55079365 C19.1904762,5.53015873 19.231746,5.53015873 19.2730159,5.50952381 C19.4793651,5.46825397 19.6857143,5.53015873 19.8301587,5.67460317 C19.9539683,5.7984127 20.015873,5.94285714 20.015873,6.10793651 C20.015873,6.14920635 20.015873,6.19047619 19.9952381,6.23174603 C19.9952381,6.27301587 19.9746032,6.31428571 19.9539683,6.35555556 C19.9333333,6.3968254 19.9126984,6.43809524 19.8920635,6.45873016 C19.8714286,6.5 19.8507937,6.52063492 19.8095238,6.56190476 C19.7888889,6.58253968 19.747619,6.62380952 19.7269841,6.64444444 C19.6857143,6.66507937 19.6650794,6.68571429 19.6238095,6.70634921 C19.5825397,6.72698413 19.5412698,6.72698413 19.5,6.74761905 C19.4793651,6.80952381 19.4380952,6.80952381 19.3968254,6.80952381 Z M15.2698413,6.19047619 C15.2698413,5.83968254 15.5380952,5.57142857 15.8888889,5.57142857 L15.8888889,5.57142857 C16.2396825,5.57142857 16.5079365,5.83968254 16.5079365,6.19047619 L16.5079365,6.19047619 C16.5079365,6.54126984 16.2396825,6.80952381 15.8888889,6.80952381 L15.8888889,6.80952381 C15.5380952,6.80952381 15.2698413,6.54126984 15.2698413,6.19047619 Z M12.3809524,6.80952381 C12.215873,6.80952381 12.0507937,6.74761905 11.947619,6.62380952 C11.8238095,6.52063492 11.7619048,6.35555556 11.7619048,6.19047619 C11.7619048,6.02539683 11.8238095,5.86031746 11.947619,5.75714286 C12.0920635,5.61269841 12.2984127,5.55079365 12.5047619,5.59206349 C12.5460317,5.59206349 12.5873016,5.61269841 12.6285714,5.63333333 C12.6698413,5.65396825 12.7111111,5.67460317 12.731746,5.6952381 C12.7730159,5.71587302 12.7936508,5.73650794 12.8142857,5.77777778 C12.9380952,5.9015873 13,6.04603175 13,6.21111111 C13,6.37619048 12.9380952,6.54126984 12.8142857,6.64444444 C12.7936508,6.66507937 12.752381,6.70634921 12.731746,6.72698413 C12.6904762,6.74761905 12.6698413,6.76825397 12.6285714,6.78888889 C12.5873016,6.80952381 12.5460317,6.80952381 12.5047619,6.83015873 C12.4634921,6.80952381 12.4222222,6.80952381 12.3809524,6.80952381 Z M19.3968254,13 C19.3555556,13 19.3142857,13 19.2730159,12.9793651 C19.231746,12.9793651 19.1904762,12.9587302 19.1492063,12.9380952 C19.1079365,12.9174603 19.0873016,12.8968254 19.0460317,12.8761905 C19.0047619,12.8555556 18.984127,12.8349206 18.9428571,12.7936508 C18.9222222,12.7730159 18.8809524,12.731746 18.8603175,12.7111111 C18.8396825,12.6698413 18.8190476,12.6492063 18.7984127,12.6079365 C18.7777778,12.5666667 18.7777778,12.5253968 18.7571429,12.484127 C18.7571429,12.4428571 18.7365079,12.4015873 18.7365079,12.3603175 C18.7365079,12.3190476 18.7365079,12.2777778 18.7571429,12.2365079 C18.7571429,12.1952381 18.7777778,12.1539683 18.7984127,12.1126984 C18.8190476,12.0714286 18.8396825,12.0507937 18.8603175,12.0095238 C18.8809524,11.968254 18.9015873,11.947619 18.9428571,11.9063492 C18.984127,11.8650794 19.0047619,11.8444444 19.0460317,11.8238095 C19.0873016,11.8031746 19.1079365,11.7825397 19.1492063,11.7619048 C19.1904762,11.7412698 19.231746,11.7412698 19.2730159,11.7206349 C19.3555556,11.7 19.4380952,11.7 19.5206349,11.7206349 C19.5619048,11.7206349 19.6031746,11.7412698 19.6444444,11.7619048 C19.6857143,11.7825397 19.7269841,11.8031746 19.747619,11.8238095 C19.7888889,11.8444444 19.8095238,11.8650794 19.8301587,11.9063492 C19.8507937,11.9269841 19.8920635,11.968254 19.9126984,12.0095238 C19.9333333,12.0507937 19.9539683,12.0714286 19.9746032,12.1126984 C19.9952381,12.1539683 19.9952381,12.1952381 20.015873,12.2365079 C20.015873,12.2777778 20.0365079,12.3190476 20.0365079,12.3603175 C20.0365079,12.5253968 19.9746032,12.6904762 19.8507937,12.7936508 C19.7269841,12.9380952 19.5619048,13 19.3968254,13 Z M15.2698413,12.3809524 C15.2698413,12.0301587 15.5380952,11.7619048 15.8888889,11.7619048 L15.8888889,11.7619048 C16.2396825,11.7619048 16.5079365,12.0301587 16.5079365,12.3809524 L16.5079365,12.3809524 C16.5079365,12.731746 16.2396825,13 15.8888889,13 L15.8888889,13 C15.5380952,13 15.2698413,12.731746 15.2698413,12.3809524 Z M12.3809524,13 C12.215873,13 12.0507937,12.9380952 11.947619,12.8142857 C11.9269841,12.7936508 11.8857143,12.752381 11.8650794,12.731746 C11.8444444,12.6904762 11.8238095,12.6698413 11.8031746,12.6285714 C11.7825397,12.5873016 11.7825397,12.5460317 11.7619048,12.5047619 C11.7619048,12.4634921 11.7412698,12.4222222 11.7412698,12.3809524 C11.7412698,12.215873 11.8031746,12.0507937 11.9269841,11.947619 C12.0714286,11.8031746 12.2777778,11.7412698 12.484127,11.7825397 C12.5253968,11.7825397 12.5666667,11.8031746 12.6079365,11.8238095 C12.6492063,11.8444444 12.6904762,11.8650794 12.7111111,11.8857143 C12.752381,11.9063492 12.7730159,11.9269841 12.7936508,11.968254 C12.9174603,12.0920635 12.9793651,12.2365079 12.9793651,12.4015873 C12.9793651,12.4428571 12.9793651,12.484127 12.9587302,12.5253968 C12.9587302,12.5666667 12.9380952,12.6079365 12.9174603,12.6492063 C12.8968254,12.6904762 12.8761905,12.731746 12.8555556,12.752381 C12.8349206,12.7936508 12.8142857,12.8142857 12.7730159,12.8349206 C12.752381,12.8555556 12.7111111,12.8968254 12.6904762,12.9174603 C12.6492063,12.9380952 12.6285714,12.9587302 12.5873016,12.9793651 C12.5460317,13 12.5047619,13 12.4634921,13.0206349 C12.4634921,13 12.4222222,13 12.3809524,13 Z" id="Shape" fill="#FFFFFF"></path>
                <path d="M19.3968254,16.0952381 C19.231746,16.0952381 19.0666667,16.0333333 18.9634921,15.9095238 C18.9428571,15.8888889 18.9015873,15.847619 18.8809524,15.8269841 C18.8603175,15.7857143 18.8396825,15.7650794 18.8190476,15.7238095 C18.7984127,15.6825397 18.7984127,15.6412698 18.7777778,15.6 C18.7777778,15.5587302 18.7571429,15.5174603 18.7571429,15.4761905 C18.7571429,15.4349206 18.7571429,15.3936508 18.7777778,15.352381 C18.7777778,15.3111111 18.7984127,15.2698413 18.8190476,15.2285714 C18.8396825,15.1873016 18.8603175,15.1666667 18.8809524,15.1253968 C18.9015873,15.084127 18.9222222,15.0634921 18.9634921,15.0222222 C19.1904762,14.7952381 19.6031746,14.7952381 19.8301587,15.0222222 C19.8507937,15.0428571 19.8920635,15.084127 19.9126984,15.1253968 C19.9333333,15.1666667 19.9539683,15.1873016 19.9746032,15.2285714 C19.9952381,15.2698413 19.9952381,15.3111111 20.015873,15.352381 C20.015873,15.3936508 20.0365079,15.4349206 20.0365079,15.4761905 C20.0365079,15.5174603 20.0365079,15.5587302 20.015873,15.6 C20.015873,15.6412698 19.9952381,15.6825397 19.9746032,15.7238095 C19.9539683,15.7650794 19.9333333,15.8063492 19.9126984,15.8269841 C19.8920635,15.868254 19.8714286,15.8888889 19.8301587,15.9095238 C19.7269841,16.0333333 19.5619048,16.0952381 19.3968254,16.0952381 Z M15.2698413,15.4761905 C15.2698413,15.1253968 15.5380952,14.8571429 15.8888889,14.8571429 L15.8888889,14.8571429 C16.2396825,14.8571429 16.5079365,15.1253968 16.5079365,15.4761905 L16.5079365,15.4761905 C16.5079365,15.8269841 16.2396825,16.0952381 15.8888889,16.0952381 L15.8888889,16.0952381 C15.5380952,16.0952381 15.2698413,15.8269841 15.2698413,15.4761905 Z M12.3809524,16.0952381 C12.215873,16.0952381 12.0507937,16.0333333 11.947619,15.9095238 C11.8238095,15.8063492 11.7619048,15.6412698 11.7619048,15.4761905 C11.7619048,15.3111111 11.8238095,15.1460317 11.947619,15.0428571 C12.0920635,14.8984127 12.2984127,14.8365079 12.5047619,14.8777778 C12.5460317,14.8777778 12.5873016,14.8984127 12.6285714,14.9190476 C12.6698413,14.9396825 12.7111111,14.9603175 12.731746,14.9809524 C12.7730159,15.0015873 12.7936508,15.0222222 12.8142857,15.0634921 C12.9380952,15.1873016 13,15.331746 13,15.4968254 C13,15.6619048 12.9380952,15.8269841 12.8142857,15.9301587 C12.7936508,15.9507937 12.752381,15.9920635 12.731746,16.0126984 C12.6904762,16.0333333 12.6698413,16.0539683 12.6285714,16.0746032 C12.5873016,16.0952381 12.5460317,16.0952381 12.5047619,16.115873 C12.4634921,16.0952381 12.4222222,16.0952381 12.3809524,16.0952381 Z" id="Shape" fill="#FFFFFF"></path>
                <path d="M19.3968254,19.1904762 C19.231746,19.1904762 19.0666667,19.1285714 18.9634921,19.0047619 C18.9428571,18.984127 18.9015873,18.9428571 18.8809524,18.9222222 C18.8603175,18.8809524 18.8396825,18.8603175 18.8190476,18.8190476 C18.7984127,18.7777778 18.7984127,18.7365079 18.7777778,18.6952381 C18.7777778,18.6539683 18.7571429,18.6126984 18.7571429,18.5714286 C18.7571429,18.5301587 18.7571429,18.4888889 18.7777778,18.447619 C18.7777778,18.4063492 18.7984127,18.3650794 18.8190476,18.3238095 C18.8396825,18.2825397 18.8603175,18.2619048 18.8809524,18.2206349 C18.9015873,18.1793651 18.9222222,18.1587302 18.9634921,18.1174603 C19.1904762,17.8904762 19.6031746,17.8904762 19.8301587,18.1174603 C19.9539683,18.2412698 20.015873,18.3857143 20.015873,18.5507937 C20.015873,18.5920635 20.015873,18.6333333 19.9952381,18.6746032 C19.9952381,18.715873 19.9746032,18.7571429 19.9539683,18.7984127 C19.9333333,18.8396825 19.9126984,18.8809524 19.8920635,18.9015873 C19.8714286,18.9428571 19.8507937,18.9634921 19.8095238,18.984127 C19.7269841,19.1285714 19.5619048,19.1904762 19.3968254,19.1904762 Z M15.2698413,18.5714286 C15.2698413,18.2206349 15.5380952,17.952381 15.8888889,17.952381 L15.8888889,17.952381 C16.2396825,17.952381 16.5079365,18.2206349 16.5079365,18.5714286 L16.5079365,18.5714286 C16.5079365,18.9222222 16.2396825,19.1904762 15.8888889,19.1904762 L15.8888889,19.1904762 C15.5380952,19.1904762 15.2698413,18.9222222 15.2698413,18.5714286 Z M12.3809524,19.1904762 C12.215873,19.1904762 12.0507937,19.1285714 11.947619,19.0047619 C11.8238095,18.9015873 11.7619048,18.7365079 11.7619048,18.5714286 C11.7619048,18.5301587 11.7619048,18.4888889 11.7825397,18.447619 C11.7825397,18.4063492 11.8031746,18.3650794 11.8238095,18.3238095 C11.8444444,18.2825397 11.8650794,18.2619048 11.8857143,18.2206349 C11.9063492,18.1793651 11.9269841,18.1587302 11.968254,18.1174603 C12.1126984,17.9730159 12.3190476,17.9111111 12.5253968,17.952381 C12.5666667,17.952381 12.6079365,17.9730159 12.6492063,17.9936508 C12.6904762,18.0142857 12.731746,18.0349206 12.752381,18.0555556 C12.7936508,18.0761905 12.8142857,18.0968254 12.8349206,18.1380952 C12.8555556,18.1587302 12.8968254,18.2 12.9174603,18.2412698 C12.9380952,18.2825397 12.9587302,18.3031746 12.9793651,18.3444444 C13,18.3857143 13,18.4269841 13.0206349,18.468254 C13.0206349,18.5095238 13.0412698,18.5507937 13.0412698,18.5920635 C13.0412698,18.7571429 12.9793651,18.9222222 12.8555556,19.0253968 C12.7111111,19.1285714 12.5460317,19.1904762 12.3809524,19.1904762 Z" id="Shape" fill="#FFFFFF"></path>
                <path d="M19.3968254,22.2857143 C19.231746,22.2857143 19.0666667,22.2238095 18.9634921,22.1 C18.9428571,22.0793651 18.9015873,22.0380952 18.8809524,22.0174603 C18.8603175,21.9761905 18.8396825,21.9555556 18.8190476,21.9142857 C18.7984127,21.8730159 18.7984127,21.831746 18.7777778,21.7904762 C18.7777778,21.7492063 18.7571429,21.7079365 18.7571429,21.6666667 C18.7571429,21.6253968 18.7571429,21.584127 18.7777778,21.5428571 C18.7777778,21.5015873 18.7984127,21.4603175 18.8190476,21.4190476 C18.8396825,21.3777778 18.8603175,21.3571429 18.8809524,21.315873 C18.9015873,21.2746032 18.9222222,21.2539683 18.9634921,21.2333333 C19.0047619,21.2126984 19.0253968,21.1714286 19.0666667,21.1507937 C19.1079365,21.1301587 19.1285714,21.1095238 19.1698413,21.0888889 C19.2111111,21.068254 19.252381,21.068254 19.2936508,21.047619 C19.5,21.0063492 19.7063492,21.068254 19.8507937,21.2126984 C19.8714286,21.2333333 19.9126984,21.2746032 19.9333333,21.2952381 C19.9539683,21.3365079 19.9746032,21.3571429 19.9952381,21.3984127 C20.015873,21.4396825 20.015873,21.4809524 20.0365079,21.5222222 C20.0365079,21.5634921 20.0571429,21.6047619 20.0571429,21.6460317 C20.0571429,21.6873016 20.0571429,21.7285714 20.0365079,21.7698413 C20.0365079,21.8111111 20.015873,21.852381 19.9952381,21.8936508 C19.9746032,21.9349206 19.9539683,21.9761905 19.9333333,21.9968254 C19.9126984,22.0380952 19.8920635,22.0587302 19.8507937,22.0793651 C19.7269841,22.2238095 19.5619048,22.2857143 19.3968254,22.2857143 Z M12.3809524,22.2857143 C12.215873,22.2857143 12.0507937,22.2238095 11.947619,22.1 C11.8238095,21.9761905 11.7619048,21.831746 11.7619048,21.6666667 C11.7619048,21.5015873 11.8238095,21.3365079 11.947619,21.2333333 C12.0920635,21.0888889 12.2984127,21.0269841 12.5047619,21.068254 C12.5460317,21.068254 12.5873016,21.0888889 12.6285714,21.1095238 C12.6698413,21.1301587 12.7111111,21.1507937 12.731746,21.1714286 C12.7730159,21.1920635 12.7936508,21.2126984 12.8142857,21.2539683 C12.9380952,21.3777778 13,21.5222222 13,21.6873016 C13,21.852381 12.9380952,22.0174603 12.8142857,22.1206349 C12.7936508,22.1412698 12.752381,22.1825397 12.731746,22.2031746 C12.6904762,22.2238095 12.6698413,22.2444444 12.6285714,22.2650794 C12.5873016,22.2857143 12.5460317,22.2857143 12.5047619,22.3063492 C12.4634921,22.2857143 12.4222222,22.2857143 12.3809524,22.2857143 Z" id="Shape" fill="#FFFFFF"></path>
                <path d="M4.74603175,13 C4.58095238,13 4.41587302,12.9380952 4.31269841,12.8142857 C4.18888889,12.7111111 4.12698413,12.5460317 4.12698413,12.3809524 C4.12698413,12.3396825 4.12698413,12.2984127 4.14761905,12.2571429 C4.14761905,12.215873 4.16825397,12.1746032 4.18888889,12.1333333 C4.20952381,12.0920635 4.23015873,12.0714286 4.25079365,12.0301587 C4.27142857,11.9888889 4.29206349,11.968254 4.33333333,11.9269841 C4.47777778,11.7825397 4.68412698,11.7206349 4.89047619,11.7619048 C4.93174603,11.7619048 4.97301587,11.7825397 5.01428571,11.8031746 C5.05555556,11.8238095 5.0968254,11.8444444 5.11746032,11.8650794 C5.15873016,11.8857143 5.17936508,11.9063492 5.22063492,11.947619 C5.24126984,11.968254 5.28253968,12.0095238 5.3031746,12.0507937 C5.32380952,12.0920635 5.34444444,12.1126984 5.36507937,12.1539683 C5.38571429,12.1952381 5.38571429,12.2365079 5.40634921,12.2777778 C5.40634921,12.3190476 5.42698413,12.3603175 5.42698413,12.4015873 C5.42698413,12.5666667 5.36507937,12.731746 5.24126984,12.8349206 C5.22063492,12.8555556 5.17936508,12.8968254 5.13809524,12.9174603 C5.0968254,12.9380952 5.07619048,12.9587302 5.03492063,12.9793651 C4.99365079,13 4.95238095,13 4.91111111,13.0206349 C4.82857143,13 4.78730159,13 4.74603175,13 Z" id="Path" fill="#FFFFFF"></path>
                <path d="M4.74603175,16.0952381 C4.58095238,16.0952381 4.41587302,16.0333333 4.31269841,15.9095238 C4.18888889,15.8063492 4.12698413,15.6412698 4.12698413,15.4761905 C4.12698413,15.4349206 4.12698413,15.3936508 4.14761905,15.352381 C4.14761905,15.3111111 4.16825397,15.2698413 4.18888889,15.2285714 C4.20952381,15.1873016 4.23015873,15.1666667 4.25079365,15.1253968 C4.27142857,15.084127 4.29206349,15.0634921 4.33333333,15.0222222 C4.47777778,14.8777778 4.68412698,14.815873 4.89047619,14.8571429 C4.93174603,14.8571429 4.97301587,14.8777778 5.01428571,14.8984127 C5.05555556,14.9190476 5.0968254,14.9396825 5.11746032,14.9603175 C5.15873016,14.9809524 5.17936508,15.0015873 5.22063492,15.0428571 C5.24126984,15.0634921 5.28253968,15.1047619 5.3031746,15.1460317 C5.32380952,15.1873016 5.34444444,15.2079365 5.36507937,15.2492063 C5.38571429,15.2904762 5.38571429,15.331746 5.40634921,15.3730159 C5.40634921,15.4142857 5.42698413,15.4555556 5.42698413,15.4968254 C5.42698413,15.5380952 5.42698413,15.5793651 5.40634921,15.6206349 C5.40634921,15.6619048 5.38571429,15.7031746 5.36507937,15.7444444 C5.34444444,15.7857143 5.32380952,15.8269841 5.3031746,15.847619 C5.28253968,15.8888889 5.26190476,15.9095238 5.22063492,15.9301587 C5.2,15.9507937 5.15873016,15.9920635 5.11746032,16.0126984 C5.07619048,16.0333333 5.05555556,16.0539683 5.01428571,16.0746032 C4.97301587,16.0952381 4.93174603,16.0952381 4.89047619,16.115873 C4.82857143,16.0952381 4.78730159,16.0952381 4.74603175,16.0952381 Z" id="Path" fill="#FFFFFF"></path>
                <path d="M4.74603175,19.1904762 C4.58095238,19.1904762 4.41587302,19.1285714 4.31269841,19.0047619 C4.29206349,18.984127 4.25079365,18.9428571 4.23015873,18.9222222 C4.20952381,18.8809524 4.18888889,18.8603175 4.16825397,18.8190476 C4.14761905,18.7777778 4.14761905,18.7365079 4.12698413,18.6952381 C4.12698413,18.6539683 4.10634921,18.6126984 4.10634921,18.5714286 C4.10634921,18.5301587 4.10634921,18.4888889 4.12698413,18.447619 C4.12698413,18.4063492 4.14761905,18.3650794 4.16825397,18.3238095 C4.18888889,18.2825397 4.20952381,18.2619048 4.23015873,18.2206349 C4.25079365,18.1793651 4.27142857,18.1587302 4.31269841,18.1174603 C4.45714286,17.9730159 4.66349206,17.9111111 4.86984127,17.952381 C4.91111111,17.952381 4.95238095,17.9730159 4.99365079,17.9936508 C5.03492063,18.0142857 5.07619048,18.0349206 5.0968254,18.0555556 C5.13809524,18.0761905 5.15873016,18.0968254 5.2,18.1380952 C5.22063492,18.1587302 5.26190476,18.2 5.28253968,18.2412698 C5.3031746,18.2825397 5.32380952,18.3031746 5.34444444,18.3444444 C5.36507937,18.3857143 5.36507937,18.4269841 5.38571429,18.468254 C5.38571429,18.5095238 5.40634921,18.5507937 5.40634921,18.5920635 C5.40634921,18.6333333 5.40634921,18.6746032 5.38571429,18.715873 C5.38571429,18.7571429 5.36507937,18.7984127 5.34444444,18.8396825 C5.32380952,18.8809524 5.3031746,18.9222222 5.28253968,18.9428571 C5.26190476,18.984127 5.24126984,19.0047619 5.2,19.0253968 C5.17936508,19.0460317 5.13809524,19.0873016 5.0968254,19.1079365 C5.05555556,19.1285714 5.03492063,19.1492063 4.99365079,19.1698413 C4.95238095,19.1904762 4.91111111,19.1904762 4.86984127,19.2111111 C4.82857143,19.1904762 4.78730159,19.1904762 4.74603175,19.1904762 Z" id="Path" fill="#FFFFFF"></path>
            </g>
        </g>
    </g>
</svg>