<?xml version="1.0" encoding="UTF-8"?>
<svg width="28px" height="28px" viewBox="0 0 28 28" version="1.1" xmlns="http://www.w3.org/2000/svg" xmlns:xlink="http://www.w3.org/1999/xlink">
    <!-- Generator: Sketch 63.1 (92452) - https://sketch.com -->
    <title>help</title>
    <desc>Created with Sketch.</desc>
    <g id="Configuration-Flow" stroke="none" stroke-width="1" fill="none" fill-rule="evenodd">
        <g id="Layout+Menu-(First-level)" transform="translate(-1532.000000, -32.000000)" fill="#ADB4C5" fill-rule="nonzero">
            <g id="Group-2" transform="translate(1462.000000, 24.000000)">
                <path d="M84,8 C76.275223,8 70,14.275223 70,22 C70,29.724777 76.275223,36 84,36 C91.724777,36 98,29.724777 98,22 C98,14.275223 91.724777,8 84,8 Z M84,9.2173913 C91.0668494,9.2173913 96.7826087,14.9331506 96.7826087,22 C96.7826087,29.0668494 91.0668494,34.7826087 84,34.7826087 C76.9331506,34.7826087 71.2173913,29.0668494 71.2173913,22 C71.2173913,14.9331506 76.9331506,9.2173913 84,9.2173913 Z M84.1759508,14.3960595 C81.905516,14.3960595 80.4000978,15.7717883 80.0720109,17.8675275 C80.0507065,17.9990051 80.1152946,18.0857637 80.2467729,18.1076768 L81.6222826,18.3490149 C81.7537609,18.3709279 81.8405189,18.3051224 81.8624319,18.1742529 C82.124171,16.8424268 82.9097025,16.0996945 84.1319634,16.0996945 C85.376746,16.0996945 86.2493203,16.886091 86.2493203,18.1302649 C86.249321,18.8728736 85.987829,19.3748192 85.2245246,20.4223844 L83.7610395,22.4303667 C83.3026917,23.0640189 83.107167,23.5226522 83.107167,24.3967391 L83.107167,25.2907609 C83.107167,25.4216304 83.1938587,25.5095681 83.3247283,25.5071826 L84.7656247,25.5071826 C84.8964949,25.5071826 84.9831859,25.4204417 84.9831859,25.2895721 L84.9831859,24.5917117 C84.9831859,23.8497117 85.1150257,23.5438707 85.5514605,22.9546533 L87.0137569,20.9454823 C87.7563656,19.9192214 88.1265286,19.1558507 88.1265286,18.1076768 C88.1265286,15.9461985 86.5328203,14.3960595 84.1759508,14.3960595 Z M83.2165423,27.1691579 C83.0850641,27.1691579 82.9977923,27.2570377 82.9977923,27.3879073 L82.9977923,29.2651156 C82.9977923,29.3959851 83.0844554,29.4826768 83.2165423,29.4826768 L84.8761888,29.4826768 C85.0064497,29.4826768 85.09375,29.3965938 85.09375,29.2651156 L85.09375,27.3879073 C85.09375,27.257647 85.0070583,27.1691579 84.8761888,27.1691579 L83.2165423,27.1691579 Z" id="help"></path>
            </g>
        </g>
    </g>
</svg>