<?xml version="1.0" encoding="UTF-8"?>
<svg width="25px" height="24px" viewBox="0 0 25 24" version="1.1" xmlns="http://www.w3.org/2000/svg" xmlns:xlink="http://www.w3.org/1999/xlink">
    <!-- Generator: Sketch 63.1 (92452) - https://sketch.com -->
    <title>home</title>
    <desc>Created with Sketch.</desc>
    <g id="Configuration-Flow" stroke="none" stroke-width="1" fill="none" fill-rule="evenodd">
        <g id="Layout+Menu-(First-level)" transform="translate(-37.000000, -128.000000)" fill="#FFFFFF" fill-rule="nonzero">
            <g id="left-nav" transform="translate(0.000000, 90.000000)">
                <path d="M49.7470082,38.0279255 C49.6398406,38.0316217 49.5365555,38.0689579 49.4517954,38.134641 L37.7071143,47.2992024 C37.4845849,47.4727094 37.4448443,47.7937604 37.6183513,48.0162899 C37.7918583,48.2388194 38.1129094,48.27856 38.3354388,48.1050529 L39.0425532,47.5535237 L39.0425532,60.9787234 C39.0425814,61.2607295 39.2711854,61.4893335 39.5531915,61.4893617 L46.6163563,61.4893617 C46.6715008,61.4984761 46.7277676,61.4984761 46.7829122,61.4893617 L52.7440158,61.4893617 C52.7991604,61.4984761 52.8554272,61.4984761 52.9105717,61.4893617 L59.9787234,61.4893617 C60.2607295,61.4893335 60.4893335,61.2607295 60.4893617,60.9787234 L60.4893617,47.5535237 L61.1964763,48.1050529 C61.3404264,48.2173083 61.5333311,48.2442355 61.7025188,48.1756904 C61.8717065,48.1071453 61.991471,47.9535427 62.0166942,47.772748 C62.0419174,47.5919534 61.968767,47.4114366 61.8248003,47.2992024 L57.9361702,44.2652924 L57.9361702,40.5531915 L54.8723404,40.5531915 L54.8723404,41.8736702 L50.0801195,38.134641 C49.9851062,38.0609662 49.8671454,38.0231763 49.7470082,38.0279255 Z M49.7659574,39.1858378 L59.4680851,46.7566492 L59.4680851,60.4680851 L53.3404255,60.4680851 L53.3404255,50.7659574 L46.1914894,50.7659574 L46.1914894,60.4680851 L40.0638298,60.4680851 L40.0638298,46.7566492 L49.7659574,39.1858378 Z M55.893617,41.5744681 L56.9148936,41.5744681 L56.9148936,43.4684174 L55.893617,42.670545 L55.893617,41.5744681 Z M47.212766,51.787234 L52.3191489,51.787234 L52.3191489,60.4680851 L47.212766,60.4680851 L47.212766,51.787234 Z" id="home"></path>
            </g>
        </g>
    </g>
</svg>