<?xml version="1.0" encoding="UTF-8"?>
<svg width="25px" height="20px" viewBox="0 0 25 20" version="1.1" xmlns="http://www.w3.org/2000/svg" xmlns:xlink="http://www.w3.org/1999/xlink">
    <!-- Generator: Sketch 63.1 (92452) - https://sketch.com -->
    <title>tasks</title>
    <desc>Created with Sketch.</desc>
    <g id="Configuration-Flow" stroke="none" stroke-width="1" fill="none" fill-rule="evenodd">
        <g id="Layout+Menu-(First-level)" transform="translate(-36.000000, -388.000000)" fill="#FFFFFF" fill-rule="nonzero">
            <g id="left-nav" transform="translate(0.000000, 90.000000)">
                <g id="Group-5" transform="translate(35.000000, 298.000000)">
                    <path d="M5.06779661,8.13559322 C2.83050847,8.13559322 1,6.30508475 1,4.06779661 C1,1.83050847 2.83050847,-1.24344979e-14 5.06779661,-1.24344979e-14 C7.30508475,-1.24344979e-14 9.13559322,1.83050847 9.13559322,4.06779661 C9.13559322,6.30508475 7.30508475,8.13559322 5.06779661,8.13559322 Z M5.06779661,1.52542373 C3.66949153,1.52542373 2.52542373,2.66949153 2.52542373,4.06779661 C2.52542373,5.46610169 3.66949153,6.61016949 5.06779661,6.61016949 C6.46610169,6.61016949 7.61016949,5.46610169 7.61016949,4.06779661 C7.61016949,2.66949153 6.46610169,1.52542373 5.06779661,1.52542373 Z M24.6440678,3.30508475 L11.9322034,3.30508475 C11.5,3.30508475 11.1694915,2.97457627 11.1694915,2.54237288 C11.1694915,2.11016949 11.5,1.77966102 11.9322034,1.77966102 L24.6440678,1.77966102 C25.0762712,1.77966102 25.4067797,2.11016949 25.4067797,2.54237288 C25.4067797,2.97457627 25.0762712,3.30508475 24.6440678,3.30508475 Z M17.0169492,6.3559322 L11.9322034,6.3559322 C11.5,6.3559322 11.1694915,6.02542373 11.1694915,5.59322034 C11.1694915,5.16101695 11.5,4.83050847 11.9322034,4.83050847 L17.0169492,4.83050847 C17.4491525,4.83050847 17.779661,5.16101695 17.779661,5.59322034 C17.779661,6.02542373 17.4491525,6.3559322 17.0169492,6.3559322 Z M11.9322034,14.2372881 L24.6440678,14.2372881 C25.0762712,14.2372881 25.4067797,13.9067797 25.4067797,13.4745763 C25.4067797,13.0423729 25.0762712,12.7118644 24.6440678,12.7118644 L11.9322034,12.7118644 C11.5,12.7118644 11.1694915,13.0423729 11.1694915,13.4745763 C11.1694915,13.9067797 11.5,14.2372881 11.9322034,14.2372881 Z M11.9322034,17.2881356 L17.0169492,17.2881356 C17.4491525,17.2881356 17.779661,16.9576271 17.779661,16.5254237 C17.779661,16.0932203 17.4491525,15.7627119 17.0169492,15.7627119 L11.9322034,15.7627119 C11.5,15.7627119 11.1694915,16.0932203 11.1694915,16.5254237 C11.1694915,16.9576271 11.5,17.2881356 11.9322034,17.2881356 Z M5.06779661,10.9322034 C2.83050847,10.9322034 1,12.7627119 1,15 C1,17.2372881 2.83050847,19.0677966 5.06779661,19.0677966 C7.30508475,19.0677966 9.13559322,17.2372881 9.13559322,15 C9.13559322,12.7627119 7.30508475,10.9322034 5.06779661,10.9322034 Z" id="tasks"></path>
                </g>
            </g>
        </g>
    </g>
</svg>