<?xml version="1.0" encoding="UTF-8"?>
<svg width="34px" height="28px" viewBox="0 0 34 28" version="1.1" xmlns="http://www.w3.org/2000/svg" xmlns:xlink="http://www.w3.org/1999/xlink">
    <!-- Generator: Sketch 63.1 (92452) - https://sketch.com -->
    <title>AR</title>
    <desc>Created with Sketch.</desc>
    <g id="Configuration-Flow" stroke="none" stroke-width="1" fill="none" fill-rule="evenodd">
        <g id="Layout+Menu-(First-level)" transform="translate(-33.000000, -277.000000)" fill="#FFFFFF" fill-rule="nonzero">
            <g id="left-nav" transform="translate(0.000000, 90.000000)">
                <g id="Group-6" transform="translate(33.000000, 120.000000)">
                    <path d="M21.4140026,67 C19.2128409,67 17.4128374,68.8000036 17.4128374,71.0011653 C14.8417759,71.0011653 12.7448112,73.09813 12.7448112,75.6691914 C12.7448112,78.2402528 14.8417759,80.3372175 17.4128374,80.3372175 C19.9838988,80.3372175 22.0808635,78.2402528 22.0808635,75.6691914 C22.0808635,75.4295383 22.0548146,75.1924899 22.0183453,74.9606517 C23.9407805,74.6715048 25.4151679,73.0017479 25.4151679,71.0011653 C25.4151679,68.8000036 23.6151643,67 21.4140026,67 Z M21.4140026,68.3337218 C22.8936002,68.3337218 24.0814461,69.5215677 24.0814461,71.0011653 C24.0814461,72.4182446 22.9925877,73.5513873 21.6015572,73.6477694 C21.0388934,72.4885778 20.0151579,71.5924835 18.7673985,71.2095593 C18.762189,71.1392261 18.7465591,71.0714984 18.7465591,71.0011653 C18.7465591,69.5215677 19.9344051,68.3337218 21.4140026,68.3337218 Z M21.122251,69.5007283 L20.1219597,70.5010196 L20.913857,70.5010196 L20.913857,72.5016022 L21.9141483,72.5016022 L21.9141483,69.5007283 L21.122251,69.5007283 Z M17.4128374,72.334887 C19.2623347,72.334887 20.7471417,73.8196948 20.7471417,75.6691914 C20.7471417,77.5186887 19.2623347,79.0034958 17.4128374,79.0034958 C15.5633407,79.0034958 14.078533,77.5186887 14.078533,75.6691914 C14.078533,73.8196948 15.5633407,72.334887 17.4128374,72.334887 Z M17.0794069,73.8561634 L15.8707216,75.0648487 L16.8084947,75.0648487 L16.8084947,77.4822194 L18.01718,77.4822194 L18.01718,73.8561634 L17.0794069,73.8561634 Z M9.05623699,80.3372175 C7.16506155,80.3372175 6.29241141,80.7956844 5.34682336,81.1707936 C3.54161029,81.8871483 0.449563789,83.3797703 0.449563789,83.3797703 C0.204701144,83.4631279 0.0327757405,83.6819416 0.00412139547,83.9372247 C-0.0245329496,84.1951118 0.0978989064,84.4451846 0.319317857,84.5806407 C0.538131583,84.7134921 0.81685809,84.7082825 1.03306706,84.5676162 C1.03306706,84.5676162 4.14855772,83.0723895 5.84696902,82.4003184 C6.88633438,81.9887405 7.35782569,81.6709393 9.05623699,81.6709393 C12.8021199,81.6709393 12.690108,83.3563261 14.2244088,84.2758646 C14.776653,84.6066903 15.6440929,84.8619726 16.6209401,85.1094407 C16.7042977,85.1563297 16.7954702,85.1849834 16.8918523,85.1927983 C16.8996672,85.1954031 16.9048768,85.1901936 16.9126917,85.1927983 C18.0145753,85.4611058 19.1841866,85.6721046 20.0802809,85.6721046 C20.47102,85.6721046 20.8070552,85.7163881 21.0805722,85.7763016 C21.0935966,85.7763016 21.1092265,85.7763016 21.122251,85.7763016 C21.3723238,85.836215 21.5676934,85.9195726 21.7057543,86.005535 C21.9975059,86.1904849 22.0808635,86.3415702 22.0808635,86.6723959 C22.0808635,87.0605296 21.9975059,87.185566 21.7057543,87.3600962 C21.4140026,87.5346263 20.848734,87.6726872 20.0802809,87.6726872 L16.204152,87.6726872 C14.5708637,87.6726872 12.265505,87.0266657 12.265505,87.0266657 C11.9086304,86.9224687 11.5361259,87.128258 11.4319289,87.4851326 C11.3277319,87.8420072 11.5335211,88.2145117 11.8903957,88.3187087 C11.8903957,88.3187087 14.2426434,89.006409 16.204152,89.006409 L20.0802809,89.006409 C20.9815854,89.006409 21.7474331,88.876163 22.3726151,88.5062633 C22.5523548,88.3994615 22.7112558,88.2666102 22.8519214,88.1103147 C22.9118348,88.0894752 22.9665381,88.0634263 23.0186366,88.026957 L29.0203845,83.984113 C30.0597499,83.3667458 30.781314,83.2052401 31.2085218,83.2130551 C31.6357295,83.22087 31.7816053,83.3485112 31.9170614,83.5256461 C32.1150358,83.7835339 32.1280602,83.9294097 32.0004191,84.2341858 C31.8727779,84.5389619 31.518508,84.9661696 30.8750913,85.4220317 C30.0753791,85.9899058 21.2629173,91.8457779 20.2261567,92.4449104 C19.460309,92.887748 18.8481514,93.369659 18.1422164,93.5702381 C17.4362815,93.7708172 16.5922857,93.7551879 15.2247001,93.0909318 C14.3129766,92.6480949 10.452477,90.6318823 9.20211281,89.9858609 C8.51180777,89.6289863 7.94393372,89.4310119 7.34740599,89.4648758 C6.75087826,89.4987397 6.2298932,89.7722573 5.7010932,90.1108973 L3.90890459,91.2779038 C3.59891831,91.4784829 3.51035119,91.8952709 3.71093027,92.2052572 C3.91150935,92.5152435 4.3282974,92.6038106 4.63828368,92.4032316 L6.43047228,91.236225 C6.89675408,90.9392639 7.15985137,90.811622 7.4099242,90.7985976 C7.65999703,90.7855731 8.00124241,90.866326 8.59777014,91.1737068 C9.83771458,91.8145188 13.6383008,93.812496 14.6411968,94.2996172 C16.2171765,95.0654655 17.4805658,95.1305885 18.4964863,94.8414416 C19.5124075,94.5522948 20.2391811,93.9713969 20.8930176,93.5910775 C22.2814426,92.7861557 30.6432531,87.2168251 31.6461492,86.5056807 C32.4119976,85.9638562 32.9512166,85.3959828 33.2299438,84.7343315 C33.508671,84.0726808 33.4227086,83.2912032 32.979871,82.7129094 C32.6308113,82.2570473 32.0186537,81.8949632 31.2293612,81.8793333 C30.6745122,81.8689136 30.0024412,82.0720981 29.2704573,82.4003184 C29.241803,82.2648623 29.3095314,82.1137769 29.2496179,81.9835303 C29.0229893,81.4911996 28.5046096,81.1577692 27.9367356,81.0457572 C27.194332,80.8998814 26.352941,81.1239053 25.5193649,81.5042241 C25.4594515,81.3218796 25.4125631,81.1265101 25.2901315,80.983239 C24.9332569,80.5560313 24.4148766,80.4153656 23.9355703,80.3788964 C22.9795626,80.3059584 21.9870862,80.6159447 21.2681268,81.0457572 C20.2704402,81.6396802 17.2878009,83.5204366 16.8501735,83.7965584 C15.9592894,83.5569052 15.1491574,83.2729685 14.9121091,83.1296975 C14.3025569,82.7624032 13.2605868,80.3372175 9.05623699,80.3372175 Z M23.8313733,81.7126181 C24.097076,81.7334575 24.2325321,81.8142104 24.2690008,81.8584939 C24.2976551,81.8923578 24.3471488,81.9444563 24.331519,82.1294062 C24.331519,82.1346163 24.331519,82.145036 24.331519,82.1502456 L21.0388934,84.400901 C20.736722,84.3540127 20.424131,84.3383828 20.0802809,84.3383828 C19.7286158,84.3383828 19.2493095,84.2758646 18.7257197,84.192507 C19.8849113,83.4631279 21.3202253,82.5696384 21.9558271,82.1919244 C22.4038742,81.9262223 23.2973638,81.6709393 23.8313733,81.7126181 Z M27.2490353,82.3378002 C27.4261702,82.322171 27.572046,82.314356 27.6866628,82.3378002 C27.9627852,82.3925034 27.996649,82.4498121 28.0409326,82.5461942 C28.0721917,82.6165274 28.0878216,82.796267 28.061772,83.0255005 L23.352067,86.1930896 C23.2374503,85.7111786 22.9587232,85.2839709 22.5601698,84.9844043 L25.3109709,83.0880187 C25.3474402,83.0645745 25.3839088,83.0359202 25.4151679,83.0046611 C25.4516372,82.9812169 25.4881058,82.9525626 25.5193649,82.9213034 C26.1158926,82.5592187 26.7749392,82.3820837 27.2490353,82.3378002 Z" id="AR"></path>
                </g>
            </g>
        </g>
    </g>
</svg>