<?xml version="1.0" encoding="UTF-8"?>
<svg width="28px" height="28px" viewBox="0 0 28 28" version="1.1" xmlns="http://www.w3.org/2000/svg" xmlns:xlink="http://www.w3.org/1999/xlink">
    <!-- Generator: Sketch 60.1 (88133) - https://sketch.com -->
    <title>add-blue</title>
    <desc>Created with Sketch.</desc>
    <g id="Admin-Master-Flow" stroke="none" stroke-width="1" fill="none" fill-rule="evenodd">
        <g id="Company-setup" transform="translate(-1817.000000, -313.000000)" fill="#105CF8">
            <g id="Group-5" transform="translate(124.000000, 211.000000)">
                <g id="add-blue" transform="translate(1693.000000, 102.000000)">
                    <path d="M13.5714285,27.142857 C6.10714282,27.142857 -8.8817842e-14,21.0357142 -8.8817842e-14,13.5714285 C-8.8817842e-14,6.10714282 6.10714282,-3.55271368e-15 13.5714285,-3.55271368e-15 C21.0357142,-3.55271368e-15 27.142857,6.10714282 27.142857,13.5714285 C27.142857,21.0357142 21.0357142,27.142857 13.5714285,27.142857 Z M13.5714285,2.7142857 C7.59999996,2.7142857 2.7142857,7.59999996 2.7142857,13.5714285 C2.7142857,19.542857 7.59999996,24.4285713 13.5714285,24.4285713 C19.542857,24.4285713 24.4285713,19.542857 24.4285713,13.5714285 C24.4285713,7.59999996 19.542857,2.7142857 13.5714285,2.7142857 Z" id="Shape" fill-rule="nonzero"></path>
                    <polygon id="Path" stroke="#105CF8" points="13.5 9 13.5 13.5 9 13.5 9 14.5 13.5 14.5 13.5 19 14.5 19 14.5 14.5 19 14.5 19 13.5 14.5 13.5 14.5 9"></polygon>
                </g>
            </g>
        </g>
    </g>
</svg>