<?xml version="1.0" encoding="UTF-8"?>
<svg width="24px" height="24px" viewBox="0 0 24 24" version="1.1" xmlns="http://www.w3.org/2000/svg" xmlns:xlink="http://www.w3.org/1999/xlink">
    <!-- Generator: Sketch 61.2 (89653) - https://sketch.com -->
    <title>close</title>
    <desc>Created with Sketch.</desc>
    <g id="Invoice-template-flow" stroke="none" stroke-width="1" fill="none" fill-rule="evenodd">
        <g id="New-Invoice-Email" transform="translate(-1260.000000, -402.000000)" fill="#C7C7C7" fill-rule="nonzero">
            <g id="Group-19" transform="translate(577.000000, 337.000000)">
                <g id="close" transform="translate(683.000000, 65.000000)">
                    <path d="M22.6977273,19.4840909 C23.5863636,20.3727273 23.5863636,21.8090909 22.6977273,22.6977273 C22.2545455,23.1409091 21.6727273,23.3636364 21.0909091,23.3636364 C20.5090909,23.3636364 19.9272727,23.1409091 19.4840909,22.6977273 L12,15.2136364 L4.51590909,22.6977273 C4.07272727,23.1409091 3.49090909,23.3636364 2.90909091,23.3636364 C2.32727273,23.3636364 1.74545455,23.1409091 1.30227273,22.6977273 C0.413636364,21.8090909 0.413636364,20.3727273 1.30227273,19.4840909 L8.78636364,12 L1.30227273,4.51590909 C0.413636364,3.62727273 0.413636364,2.19090909 1.30227273,1.30227273 C2.19090909,0.413636364 3.62727273,0.413636364 4.51590909,1.30227273 L12,8.78636364 L19.4840909,1.30227273 C20.3727273,0.413636364 21.8090909,0.413636364 22.6977273,1.30227273 C23.5863636,2.19090909 23.5863636,3.62727273 22.6977273,4.51590909 L15.2136364,12 L22.6977273,19.4840909 Z" id="Shape"></path>
                </g>
            </g>
        </g>
    </g>
</svg>