<?xml version="1.0" encoding="UTF-8"?>
<svg width="36px" height="36px" viewBox="0 0 36 36" version="1.1" xmlns="http://www.w3.org/2000/svg" xmlns:xlink="http://www.w3.org/1999/xlink">
    <!-- Generator: Sketch 61.2 (89653) - https://sketch.com -->
    <title>customer-invoices</title>
    <desc>Created with Sketch.</desc>
    <g id="Invoice-template-flow" stroke="none" stroke-width="1" fill="none" fill-rule="evenodd">
        <g id="Invoice-template-landing-page" transform="translate(-124.000000, -125.000000)" fill-rule="nonzero">
            <g id="customer-invoices" transform="translate(124.000000, 125.000000)">
                <polygon id="Path" fill="#FFFFFF" points="23.7142857 0.857142857 20.8571429 3.71428571 18 0.857142857 15.1428571 3.71428571 12.2857143 0.857142857 9.42857143 3.71428571 6.57142857 0.857142857 3.71428571 3.71428571 0.857142857 0.857142857 0.857142857 34.8571429 23.7142857 34.8571429"></polygon>
                <path d="M11.1428571,30.2571429 C11.1428571,31.8285714 11.4857143,33.3428571 12.1142857,34.6857143 L12.2857143,34.8571429 L22.8571429,34.8571429 L22.8571429,19.7142857 C22.5142857,19.6857143 22.0857143,19.6857143 21.7142857,19.6857143 C15.8857143,19.6857143 11.1428571,24.4285714 11.1428571,30.2571429 Z" id="Path" fill="#33CC66"></path>
                <path d="M0.857142857,0 C0.371428571,0 0,0.371428571 0,0.857142857 L0,34.8571429 C0,35.3428571 0.371428571,35.7142857 0.857142857,35.7142857 C1.34285714,35.7142857 1.71428571,35.3428571 1.71428571,34.8571429 L1.71428571,0.857142857 C1.71428571,0.371428571 1.34285714,0 0.857142857,0 Z" id="Path" fill="#015250"></path>
                <path d="M23.7142857,35.7142857 C23.2285714,35.7142857 22.8571429,35.3428571 22.8571429,34.8571429 L22.8571429,2.91428571 L21.4571429,4.31428571 C21.1142857,4.65714286 20.5714286,4.65714286 20.2571429,4.31428571 L18,2.05714286 L15.7428571,4.31428571 C15.4,4.65714286 14.8571429,4.65714286 14.5428571,4.31428571 L12.2857143,2.05714286 L10.0285714,4.31428571 C9.68571429,4.65714286 9.14285714,4.65714286 8.82857143,4.31428571 L5.97142857,1.45714286 C5.62857143,1.11428571 5.62857143,0.571428571 5.97142857,0.257142857 C6.31428571,-0.0857142857 6.85714286,-0.0857142857 7.17142857,0.257142857 L9.42857143,2.51428571 L11.6857143,0.257142857 C12.0285714,-0.0857142857 12.5714286,-0.0857142857 12.8857143,0.257142857 L15.1428571,2.51428571 L17.4,0.257142857 C17.7428571,-0.0857142857 18.2857143,-0.0857142857 18.6,0.257142857 L20.8571429,2.51428571 L23.1142857,0.257142857 C23.3428571,0 23.7142857,-0.0571428571 24.0285714,0.0571428571 C24.3714286,0.2 24.5714286,0.514285714 24.5714286,0.857142857 L24.5714286,34.8571429 C24.5714286,35.3428571 24.2,35.7142857 23.7142857,35.7142857 Z" id="Path" fill="#015250"></path>
                <path d="M19.4285714,10.5714286 L5.14285714,10.5714286 C4.65714286,10.5714286 4.28571429,10.2 4.28571429,9.71428571 C4.28571429,9.22857143 4.65714286,8.85714286 5.14285714,8.85714286 L19.4285714,8.85714286 C19.9142857,8.85714286 20.2857143,9.22857143 20.2857143,9.71428571 C20.2857143,10.2 19.9142857,10.5714286 19.4285714,10.5714286 Z" id="Path" fill="#33CC66"></path>
                <path d="M14.5714286,19.1428571 L5.14285714,19.1428571 C4.65714286,19.1428571 4.28571429,18.7714286 4.28571429,18.2857143 C4.28571429,17.8 4.65714286,17.4285714 5.14285714,17.4285714 L14.5714286,17.4285714 C15.0571429,17.4285714 15.4285714,17.8 15.4285714,18.2857143 C15.4285714,18.7714286 15.0571429,19.1428571 14.5714286,19.1428571 Z" id="Path" fill="#33CC66"></path>
                <path d="M9.71428571,23.4285714 L5.14285714,23.4285714 C4.65714286,23.4285714 4.28571429,23.0571429 4.28571429,22.5714286 C4.28571429,22.0857143 4.65714286,21.7142857 5.14285714,21.7142857 L9.71428571,21.7142857 C10.2,21.7142857 10.5714286,22.0857143 10.5714286,22.5714286 C10.5714286,23.0571429 10.2,23.4285714 9.71428571,23.4285714 Z" id="Path" fill="#33CC66"></path>
                <path d="M8,27.7142857 L5.14285714,27.7142857 C4.65714286,27.7142857 4.28571429,27.3428571 4.28571429,26.8571429 C4.28571429,26.3714286 4.65714286,26 5.14285714,26 L8,26 C8.48571429,26 8.85714286,26.3714286 8.85714286,26.8571429 C8.85714286,27.3428571 8.48571429,27.7142857 8,27.7142857 Z" id="Path" fill="#33CC66"></path>
                <path d="M8,32 L5.14285714,32 C4.65714286,32 4.28571429,31.6285714 4.28571429,31.1428571 C4.28571429,30.6571429 4.65714286,30.2857143 5.14285714,30.2857143 L8,30.2857143 C8.48571429,30.2857143 8.85714286,30.6571429 8.85714286,31.1428571 C8.85714286,31.6285714 8.48571429,32 8,32 Z" id="Path" fill="#33CC66"></path>
                <path d="M19.4285714,14.8571429 L10.8571429,14.8571429 C10.3714286,14.8571429 10,14.4857143 10,14 C10,13.5142857 10.3714286,13.1428571 10.8571429,13.1428571 L19.4285714,13.1428571 C19.9142857,13.1428571 20.2857143,13.5142857 20.2857143,14 C20.2857143,14.4857143 19.9142857,14.8571429 19.4285714,14.8571429 Z" id="Path" fill="#33CC66"></path>
                <path d="M5.14285714,14.8571429 C4.91428571,14.8571429 4.68571429,14.7714286 4.54285714,14.6 C4.51428571,14.5714286 4.45714286,14.5142857 4.42857143,14.4857143 C4.4,14.4285714 4.37142857,14.4 4.34285714,14.3428571 C4.31428571,14.2857143 4.31428571,14.2285714 4.28571429,14.1714286 C4.28571429,14.1142857 4.25714286,14.0571429 4.25714286,14 C4.25714286,13.9428571 4.25714286,13.8857143 4.28571429,13.8285714 C4.28571429,13.7714286 4.31428571,13.7142857 4.34285714,13.6571429 C4.37142857,13.6 4.4,13.5714286 4.42857143,13.5142857 C4.45714286,13.4571429 4.48571429,13.4285714 4.54285714,13.3714286 C4.85714286,13.0571429 5.42857143,13.0571429 5.74285714,13.3714286 C5.77142857,13.4 5.82857143,13.4571429 5.85714286,13.5142857 C5.88571429,13.5714286 5.91428571,13.6 5.94285714,13.6571429 C5.97142857,13.7142857 5.97142857,13.7714286 6,13.8285714 C6,13.8857143 6.02857143,13.9428571 6.02857143,14 C6.02857143,14.0571429 6.02857143,14.1142857 6,14.1714286 C6,14.2285714 5.97142857,14.2857143 5.94285714,14.3428571 C5.91428571,14.4 5.88571429,14.4571429 5.85714286,14.4857143 C5.82857143,14.5428571 5.8,14.5714286 5.74285714,14.6 C5.6,14.7714286 5.37142857,14.8571429 5.14285714,14.8571429 Z" id="Path" fill="#33CC66"></path>
                <circle id="Oval" fill="#FEBC00" cx="21.7714286" cy="27.1428571" r="7.71428571"></circle>
                <path d="M29.4,28 C29.1428571,24.4857143 26.5428571,21.6 23.1428571,20.9714286 C19.5714286,21.6285714 16.8571429,24.7714286 16.8571429,28.5428571 C16.8571429,31.2571429 18.2571429,33.6285714 20.3428571,35 C20.7714286,35.0857143 21.2285714,35.1142857 21.7142857,35.1142857 C25.7714286,35.1142857 29.1142857,31.9714286 29.4,28 Z" id="Path" fill-opacity="0.362297858" fill="#FFFFFF"></path>
                <path d="M21.7714286,35.7142857 C17.0571429,35.7142857 13.2,31.8571429 13.2,27.1428571 C13.2,22.4285714 17.0571429,18.5714286 21.7714286,18.5714286 C26.4857143,18.5714286 30.3428571,22.4285714 30.3428571,27.1428571 C30.3428571,31.8571429 26.4857143,35.7142857 21.7714286,35.7142857 Z M21.7714286,20.2857143 C18,20.2857143 14.9142857,23.3714286 14.9142857,27.1428571 C14.9142857,30.9142857 18,34 21.7714286,34 C25.5428571,34 28.6285714,30.9142857 28.6285714,27.1428571 C28.6285714,23.3714286 25.5428571,20.2857143 21.7714286,20.2857143 Z" id="Shape" fill="#015250"></path>
                <circle id="Oval" fill="#FEBC00" cx="27.4285714" cy="27.2857143" r="7.71428571"></circle>
                <path d="M27.4285714,35.8571429 C22.7142857,35.8571429 18.8571429,32 18.8571429,27.2857143 C18.8571429,22.5714286 22.7142857,18.7142857 27.4285714,18.7142857 C32.1428571,18.7142857 36,22.5714286 36,27.2857143 C36,32 32.1428571,35.8571429 27.4285714,35.8571429 Z M27.4285714,20.4285714 C23.6571429,20.4285714 20.5714286,23.5142857 20.5714286,27.2857143 C20.5714286,31.0571429 23.6571429,34.1428571 27.4285714,34.1428571 C31.2,34.1428571 34.2857143,31.0571429 34.2857143,27.2857143 C34.2857143,23.5142857 31.2,20.4285714 27.4285714,20.4285714 Z" id="Shape" fill="#015250"></path>
                <path d="M27.4,31.3142857 C27.0285714,31.3142857 26.7428571,31.0571429 26.6857143,30.7142857 C26.4285714,30.6285714 26.1714286,30.4857143 25.9714286,30.2857143 C25.7714286,30.0857143 25.5714286,29.8285714 25.4571429,29.5428571 C25.2857143,29.1714286 25.4571429,28.7714286 25.8285714,28.6 C26.1714286,28.4571429 26.6285714,28.6285714 26.7714286,28.9714286 C26.8285714,29.0857143 26.8857143,29.1714286 26.9428571,29.2285714 C27,29.2857143 27.0857143,29.3142857 27.1428571,29.3428571 C27.3428571,29.4 27.6285714,29.4 27.8,29.3428571 C27.8857143,29.3142857 27.9428571,29.2857143 27.9714286,29.2285714 C28.0285714,29.1714286 28.0571429,29.1142857 28.0857143,29.0285714 C28.1142857,28.9428571 28.1428571,28.8285714 28.1428571,28.7428571 C28.1428571,28.5714286 28.1142857,28.4857143 28.0857143,28.4571429 C28.0571429,28.4 28,28.3428571 27.9142857,28.2857143 C27.8285714,28.2285714 27.7142857,28.1714286 27.6,28.1428571 C27.4285714,28.0857143 27.2571429,28.0571429 27.0857143,28 C26.8857143,27.9428571 26.6857143,27.8857143 26.5142857,27.8 C26.2857143,27.7142857 26.0857143,27.6 25.9142857,27.4285714 C25.7142857,27.2571429 25.5714286,27.0571429 25.4571429,26.8285714 C25.3428571,26.6 25.2857143,26.2857143 25.2857143,25.9428571 C25.2857143,25.6857143 25.3428571,25.4571429 25.4285714,25.2285714 C25.5142857,25 25.6571429,24.7714286 25.8285714,24.5714286 C26,24.3714286 26.2285714,24.2285714 26.5142857,24.1142857 C26.5714286,24.0857143 26.6571429,24.0571429 26.7142857,24.0571429 C26.7714286,23.7428571 27.0571429,23.4857143 27.4285714,23.4857143 C27.7714286,23.4857143 28.0571429,23.7428571 28.1428571,24.0571429 C28.2285714,24.0857143 28.2857143,24.1142857 28.3714286,24.1428571 C28.6285714,24.2571429 28.8571429,24.4285714 29.0571429,24.6571429 C29.2285714,24.8571429 29.3714286,25.0857143 29.4285714,25.3714286 C29.4857143,25.5428571 29.4571429,25.7428571 29.3714286,25.9142857 C29.2857143,26.0857143 29.1428571,26.2 28.9428571,26.2571429 C28.8857143,26.2857143 28.8,26.2857143 28.7142857,26.2857143 C28.4,26.2857143 28.1142857,26.0857143 28.0285714,25.8 C28,25.7142857 27.9714286,25.6571429 27.9142857,25.6 C27.8857143,25.5428571 27.8285714,25.5142857 27.7428571,25.4857143 C27.5714286,25.4 27.2285714,25.4 27.0571429,25.4857143 C26.9714286,25.5142857 26.9142857,25.5714286 26.8571429,25.6 C26.8,25.6571429 26.7714286,25.7142857 26.7428571,25.7714286 C26.7142857,25.8571429 26.7142857,25.9142857 26.7142857,26 C26.7142857,26.2 26.7428571,26.2571429 26.7428571,26.2857143 C26.7714286,26.3428571 26.8,26.3714286 26.8285714,26.4 C26.8857143,26.4571429 26.9428571,26.4857143 27.0285714,26.5142857 C27.1714286,26.5714286 27.3142857,26.6285714 27.4571429,26.6571429 C27.6571429,26.7142857 27.8285714,26.7714286 28,26.8285714 C28.2571429,26.9142857 28.4857143,27 28.6857143,27.1428571 C28.9428571,27.3142857 29.1428571,27.5142857 29.2857143,27.7714286 C29.4571429,28.0571429 29.5428571,28.4 29.5428571,28.8 C29.5428571,29.0571429 29.5142857,29.3142857 29.4285714,29.5428571 C29.3428571,29.8 29.2,30.0571429 29.0285714,30.2571429 C28.8285714,30.4571429 28.6,30.6285714 28.3428571,30.7428571 C28.2571429,30.7714286 28.1714286,30.8 28.0857143,30.8285714 C28.0285714,31.0857143 27.7428571,31.3142857 27.4,31.3142857 Z" id="Path" fill="#FFFFFF"></path>
                <path d="M32.0857143,36 L12.0857143,36 C11.6,36 11.2285714,35.6285714 11.2285714,35.1428571 C11.2285714,34.6571429 11.6,34.2857143 12.0857143,34.2857143 L32.0857143,34.2857143 C32.5714286,34.2857143 32.9428571,34.6571429 32.9428571,35.1428571 C32.9428571,35.6285714 32.5714286,36 32.0857143,36 Z" id="Path" fill="#444B54"></path>
                <circle id="Oval" fill="#444B54" cx="35.1428571" cy="35.1428571" r="1"></circle>
            </g>
        </g>
    </g>
</svg>