<?xml version="1.0" encoding="UTF-8"?>
<svg width="22px" height="22px" viewBox="0 0 22 22" version="1.1" xmlns="http://www.w3.org/2000/svg" xmlns:xlink="http://www.w3.org/1999/xlink">
    <!-- Generator: Sketch 61.2 (89653) - https://sketch.com -->
    <title>invoice-template</title>
    <desc>Created with Sketch.</desc>
    <g id="Invoice-template-flow" stroke="none" stroke-width="1" fill="none" fill-rule="evenodd">
        <g id="Invoice-template-landing-page" transform="translate(-1465.000000, -130.000000)" fill="#00433F" fill-rule="nonzero">
            <g id="button" transform="translate(1322.000000, 121.000000)">
                <g id="Group-2" transform="translate(121.000000, 0.000000)">
                    <g id="icons8-template" transform="translate(22.000000, 9.000000)">
                        <path d="M0.523809524,-8.8817842e-16 C0.234529493,-8.8817842e-16 -8.8817842e-16,0.234529493 -8.8817842e-16,0.523809524 L-8.8817842e-16,21.4761905 C-8.8817842e-16,21.7654705 0.234529493,22 0.523809524,22 L21.4761905,22 C21.7654705,22 22,21.7654705 22,21.4761905 L22,0.523809524 C22,0.234529493 21.7654705,-8.8817842e-16 21.4761905,-8.8817842e-16 L0.523809524,-8.8817842e-16 Z M1.04761905,1.04761905 L20.952381,1.04761905 L20.952381,3.14285714 L1.04761905,3.14285714 L1.04761905,1.04761905 Z M1.04761905,4.19047619 L20.952381,4.19047619 L20.952381,20.952381 L1.04761905,20.952381 L1.04761905,4.19047619 Z M3.14285714,5.76190476 C2.85357711,5.76190476 2.61904762,5.99643426 2.61904762,6.28571429 L2.61904762,8.38095238 C2.61904762,8.67023241 2.85357711,8.9047619 3.14285714,8.9047619 L18.8571429,8.9047619 C19.1464229,8.9047619 19.3809524,8.67023241 19.3809524,8.38095238 L19.3809524,6.28571429 C19.3809524,5.99643426 19.1464229,5.76190476 18.8571429,5.76190476 L3.14285714,5.76190476 Z M3.66666667,6.80952381 L18.3333333,6.80952381 L18.3333333,7.85714286 L3.66666667,7.85714286 L3.66666667,6.80952381 Z M3.66666667,9.95238095 C3.09410996,9.95238095 2.61904762,10.4274432 2.61904762,11 L2.61904762,18.3333333 C2.61904762,18.9058901 3.09410996,19.3809524 3.66666667,19.3809524 L9.42857143,19.3809524 C10.0011282,19.3809524 10.4761905,18.9058901 10.4761905,18.3333333 L10.4761905,11 C10.4761905,10.4274432 10.0011282,9.95238095 9.42857143,9.95238095 L3.66666667,9.95238095 Z M12.5714286,9.95238095 C11.9988718,9.95238095 11.5238095,10.4274432 11.5238095,11 L11.5238095,18.3333333 C11.5238095,18.9058901 11.9988718,19.3809524 12.5714286,19.3809524 L18.3333333,19.3809524 C18.9058901,19.3809524 19.3809524,18.9058901 19.3809524,18.3333333 L19.3809524,11 C19.3809524,10.4274432 18.9058901,9.95238095 18.3333333,9.95238095 L12.5714286,9.95238095 Z M3.66666667,11 L9.42857143,11 L9.42857143,18.3333333 L3.66666667,18.3333333 L3.66666667,11 Z M12.5714286,11 L18.3333333,11 L18.3333333,18.3333333 L12.5714286,18.3333333 L12.5714286,11 Z" id="invoice-template"></path>
                    </g>
                </g>
            </g>
        </g>
    </g>
</svg>