<?xml version="1.0" encoding="UTF-8"?>
<svg width="46px" height="46px" viewBox="0 0 46 46" version="1.1" xmlns="http://www.w3.org/2000/svg" xmlns:xlink="http://www.w3.org/1999/xlink">
    <!-- Generator: Sketch 62 (91390) - https://sketch.com -->
    <title>popup-cash</title>
    <desc>Created with Sketch.</desc>
    <g id="Invoice-template-flow" stroke="none" stroke-width="1" fill="none" fill-rule="evenodd">
        <g id="Invoice-view-Add-multiple-items-Copy" transform="translate(-624.000000, -393.000000)">
            <g id="Group-19" transform="translate(578.000000, 337.000000)">
                <g id="popup-cash" transform="translate(46.000000, 56.000000)">
                    <rect id="Rectangle" fill="#F1F1F1" x="0" y="0" width="46" height="46" rx="23"></rect>
                    <g id="Group-21" transform="translate(10.000000, 9.000000)" fill-rule="nonzero">
                        <path d="M13,0 C11.895,0 11,0.895 11,2 L11,4 C11,2.895 10.105,2 9,2 C7.895,2 7,2.895 7,4 L7,4.2773438 C6.7049394,4.1058114 6.3660536,4 6,4 C4.895,4 4,4.895 4,6 L4,7 L2,7 C1.87013122,7.00043421 1.74061347,7.0135168 1.6132812,7.0390625 C1.602689,7.0411905 1.5925658,7.0445769 1.5820312,7.046875 C0.660365324,7.24383703 0.00127863068,8.05752433 4.76063633e-13,9 L4.76063633e-13,20 C4.76063633e-13,21.093063 0.9069372,22 2,22 L4,22 C4,25.314 6.686,28 10,28 L13.685547,28 C15.807547,28 17.84375,27.15625 19.34375,25.65625 L22.5,22.5 L26.998047,20.486328 C26.990047,18.576328 25.496,18 24,18 C22.711,18 21.552,18.201 19,19.5 L18,20 L6,20 L2,20 L2,11 C3.1045695,11 4,10.1045695 4,9 L22,9 C22,10.1045695 22.8954305,11 24,11 L24,16 L26,16 L26,9 C25.999566,8.87013123 25.9864835,8.74061349 25.960938,8.6132812 C25.95881,8.602689 25.955423,8.5925658 25.953125,8.5820312 C25.756163,7.66036532 24.9424757,7.00127863 24,7 L19,7 L19,3 C19,1.895 18.105,1 17,1 C15.895,1 15,1.895 15,3 L15,2 C15,0.895 14.105,0 13,0 Z" id="Path" fill="#015250"></path>
                        <path d="M13,11 C10.791,11 9,13.015 9,15.5 C9,16.436 9.277797,17.284 9.716797,18 L16.283203,18 C16.722203,17.284 17,16.436 17,15.5 C17,13.015 15.209,11 13,11 Z" id="Path" fill="#13C872"></path>
                        <path d="M5,14 C4.44771525,14 4,14.4477153 4,15 C4,15.5522847 4.44771525,16 5,16 C5.55228475,16 6,15.5522847 6,15 C6,14.4477153 5.55228475,14 5,14 Z" id="Path" fill="#13C872"></path>
                        <path d="M21,14 C20.4477153,14 20,14.4477153 20,15 C20,15.5522847 20.4477153,16 21,16 C21.5522847,16 22,15.5522847 22,15 C22,14.4477153 21.5522847,14 21,14 Z" id="Path" fill="#13C872"></path>
                    </g>
                </g>
            </g>
        </g>
    </g>
</svg>