<?xml version="1.0" encoding="UTF-8"?>
<svg width="30px" height="21px" viewBox="0 0 30 21" version="1.1" xmlns="http://www.w3.org/2000/svg" xmlns:xlink="http://www.w3.org/1999/xlink">
    <!-- Generator: Sketch 62 (91390) - https://sketch.com -->
    <title>Shape</title>
    <desc>Created with Sketch.</desc>
    <g id="Invoice-template-flow" stroke="none" stroke-width="1" fill="none" fill-rule="evenodd">
        <g id="Invoice-view" transform="translate(-1700.000000, -1762.000000)" fill="#FFFFFF" fill-rule="nonzero">
            <g id="Group-5" transform="translate(153.000000, 261.000000)">
                <g id="Group-15" transform="translate(0.000000, 1439.000000)">
                    <path d="M1559,62 C1557.895,62 1557,62.8950832 1557,64.000186 L1557,65.000279 L1556.7207,65.000279 C1554.9397,65.000279 1552.70055,65.1694354 1551.18555,66.4945586 C1550.01155,67.5196539 1547,70.0730168 1547,70.0730168 L1547,72.6396615 C1547,72.6396615 1551.30295,69.0477024 1552.50195,67.9986048 C1553.59995,67.0395156 1555.6197,67.000465 1556.7207,67.000465 L1557,67.000465 L1557,74.655474 L1562.83594,71.3778251 L1562.83789,71.3797783 C1563.29289,71.0527479 1563.88553,70.903234 1564.51953,71.0672493 C1565.25053,71.2562668 1565.8328,71.8868255 1565.9668,72.6298946 C1566.1178,73.4709728 1565.74128,74.2392943 1565.11328,74.6613335 L1562.07617,77.0013951 L1558.50391,79.7536041 C1557.45491,80.5616792 1556.16775,80.999814 1554.84375,80.999814 L1551,80.999814 L1551,81.0017672 L1547,81.0017672 L1547,83 L1549,83 L1554.84375,83 C1556.59975,83 1558.33361,82.4098351 1559.72461,81.3377364 L1564.05664,78.0014881 L1577,78.0014881 L1577,62 L1559,62 Z M1559,64.000186 L1562,64.000186 C1561.694,65.5073262 1560.507,66.6944366 1559,67.000465 L1559,64.000186 Z M1571,65.000279 C1573.209,65.000279 1575,67.2394873 1575,70.0007441 C1575,72.7620009 1573.209,75.0012091 1571,75.0012091 C1568.791,75.0012091 1567,72.7620009 1567,70.0007441 C1567,67.2394873 1568.791,65.000279 1571,65.000279 Z" id="Shape"></path>
                </g>
            </g>
        </g>
    </g>
</svg>