<?xml version="1.0" encoding="UTF-8"?>
<svg width="16px" height="16px" viewBox="0 0 16 16" version="1.1" xmlns="http://www.w3.org/2000/svg" xmlns:xlink="http://www.w3.org/1999/xlink">
    <!-- Generator: Sketch 61.2 (89653) - https://sketch.com -->
    <title>submit-white</title>
    <desc>Created with Sketch.</desc>
    <g id="Invoice-template-flow" stroke="none" stroke-width="1" fill="none" fill-rule="evenodd">
        <g id="New-Invoice" transform="translate(-1683.000000, -133.000000)" fill="#FFFFFF" fill-rule="nonzero">
            <g id="Group" transform="translate(1127.000000, 118.000000)">
                <path d="M564,15 C559.569711,15 556,18.5697114 556,23 C556,27.4302886 559.569711,31 564,31 C568.430289,31 572,27.4302886 572,23 C572,22.1394234 571.884615,21.2812498 571.576923,20.4807692 L570.576923,21.4615385 C570.699519,21.9543268 570.769231,22.4471157 570.769231,23 C570.769231,26.754808 567.754808,29.7692308 564,29.7692308 C560.245193,29.7692308 557.230769,26.754808 557.230769,23 C557.230769,19.2451926 560.245193,16.2307692 564,16.2307692 C565.846154,16.2307692 567.504808,16.9663465 568.673077,18.1346154 L569.538462,17.2692308 C568.122596,15.8533655 566.153846,15 564,15 Z M570.942308,17.6346154 L564,24.5769231 L561.365385,21.9423077 L560.480769,22.8269231 L563.557692,25.9038462 L564,26.3269231 L564.442308,25.9038462 L571.826923,18.5192308 L570.942308,17.6346154 Z" id="submit-white"></path>
            </g>
        </g>
    </g>
</svg>