<?xml version="1.0" encoding="UTF-8"?>
<svg width="17px" height="17px" viewBox="0 0 17 17" version="1.1" xmlns="http://www.w3.org/2000/svg" xmlns:xlink="http://www.w3.org/1999/xlink">
    <!-- Generator: Sketch 61.2 (89653) - https://sketch.com -->
    <title>wire</title>
    <desc>Created with Sketch.</desc>
    <g id="Invoice-template-flow" stroke="none" stroke-width="1" fill="none" fill-rule="evenodd">
        <g id="New-Invoice" transform="translate(-1010.000000, -1624.000000)" fill="#00433F" fill-rule="nonzero">
            <g id="Group-6" transform="translate(98.000000, 322.000000)">
                <path d="M920.173913,1302.17391 C915.759838,1302.17391 912.173913,1305.75984 912.173913,1310.17391 C912.173913,1314.58799 915.759838,1318.17391 920.173913,1318.17391 C922.820965,1318.17391 925.170993,1316.88513 926.626359,1314.90149 C926.70439,1314.80162 926.721926,1314.66721 926.672132,1314.55066 C926.622337,1314.43411 926.513093,1314.35386 926.386984,1314.34121 C926.260875,1314.32855 926.137862,1314.38548 926.065897,1314.48981 C924.736567,1316.30166 922.595383,1317.47826 920.173913,1317.47826 C916.135814,1317.47826 912.869565,1314.21201 912.869565,1310.17391 C912.869565,1306.13581 916.135814,1302.86957 920.173913,1302.86957 C922.595383,1302.86957 924.736567,1304.04617 926.065897,1305.85802 C926.137862,1305.96235 926.260875,1306.01928 926.386984,1306.00662 C926.513093,1305.99396 926.622337,1305.91372 926.672132,1305.79717 C926.721926,1305.68062 926.70439,1305.54621 926.626359,1305.44633 C925.170993,1303.4627 922.820965,1302.17391 920.173913,1302.17391 Z M925.040081,1307.04008 C924.898543,1307.04008 924.771139,1307.12591 924.717879,1307.25705 C924.66462,1307.38818 924.696124,1307.53851 924.797554,1307.63723 L926.986413,1309.82609 L919.478261,1309.82609 C919.352822,1309.82431 919.236146,1309.89022 919.172909,1309.99856 C919.109672,1310.10691 919.109672,1310.24091 919.172909,1310.34926 C919.236146,1310.45761 919.352822,1310.52351 919.478261,1310.52174 L926.986413,1310.52174 L924.797554,1312.7106 C924.706688,1312.79784 924.670085,1312.92739 924.701861,1313.04928 C924.733637,1313.17117 924.828828,1313.26636 924.950721,1313.29814 C925.072614,1313.32992 925.202162,1313.29331 925.289402,1313.20245 L928.04144,1310.45041 C928.12782,1310.38451 928.178453,1310.28205 928.17832,1310.17341 C928.178187,1310.06476 928.127302,1309.96242 928.040761,1309.89674 L925.289402,1307.14538 C925.223917,1307.07806 925.133995,1307.04008 925.040081,1307.04008 L925.040081,1307.04008 Z" id="wire" transform="translate(920.176117, 1310.173913) rotate(-90.000000) translate(-920.176117, -1310.173913) "></path>
            </g>
        </g>
    </g>
</svg>