<?xml version="1.0" encoding="UTF-8"?>
<svg width="29px" height="28px" viewBox="0 0 29 28" version="1.1" xmlns="http://www.w3.org/2000/svg" xmlns:xlink="http://www.w3.org/1999/xlink">
    <!-- Generator: Sketch 64 (93537) - https://sketch.com -->
    <title>icon-shedule</title>
    <desc>Created with Sketch.</desc>
    <g id="Reports" stroke="none" stroke-width="1" fill="none" fill-rule="evenodd">
        <g id="AP-LandingPage-Header-Total-Invoice-fixed-view" transform="translate(-1417.000000, -208.000000)" fill="#005350" fill-rule="nonzero">
            <g id="Group-9" transform="translate(1417.000000, 205.000000)">
                <g id="Group-7">
                    <path d="M8.16666667,3 C7.052409,3 5.97460967,3.18684925 4.95833333,3.63346383 C4.76237008,3.7109375 4.62337225,3.89095067 4.59830758,4.10286458 C4.57096383,4.3147785 4.66210967,4.52213542 4.83528675,4.64518258 C5.00618475,4.77050767 5.23404933,4.79101592 5.42545558,4.69987008 C6.27539092,4.32845067 7.18229167,4.16666667 8.16666667,4.16666667 C12.0540368,4.16666667 15.1666667,7.27929717 15.1666667,11.1666667 C15.1666667,15.0540367 12.0540368,18.1666667 8.16666667,18.1666667 C4.27929717,18.1666667 1.16666667,15.0540367 1.16666667,11.1666667 C1.16666667,9.3938805 1.84570342,7.807943 2.91666667,6.5501305 L2.91666667,8.07454442 C2.91438817,8.28417983 3.02376317,8.48014308 3.20605483,8.58723958 C3.3883465,8.69205758 3.6116535,8.69205758 3.79394517,8.58723958 C3.97623683,8.48014308 4.08561183,8.28417983 4.08333333,8.07454442 L4.08333333,4.75 L0.758788917,4.75 C0.5491535,4.7477215 0.35319025,4.8570965 0.24609375,5.03938817 C0.141276333,5.22167983 0.141276333,5.44498683 0.24609375,5.6272785 C0.35319025,5.80957017 0.5491535,5.91894517 0.758788917,5.91666667 L1.92089858,5.91666667 C0.749674333,7.34537775 7.63833441e-14,9.15690133 7.63833441e-14,11.1666667 C7.63833441e-14,15.6806639 3.65266942,19.3333333 8.16666667,19.3333333 C12.6806639,19.3333333 16.3333333,15.6806639 16.3333333,11.1666667 C16.3333333,6.65266942 12.6806639,3 8.16666667,3 Z M22.1666667,3 C21.5286458,3 21,3.52864583 21,4.16666667 L21,5.33333333 L15.4401042,5.33333333 C15.7363284,5.70019517 16.0006513,6.09212225 16.2376305,6.5 L21,6.5 L21,7.66666667 C21,8.3046875 21.5286458,8.83333333 22.1666667,8.83333333 L23.3333333,8.83333333 C23.9713542,8.83333333 24.5,8.3046875 24.5,7.66666667 L24.5,6.5 L27.4166667,6.5 L27.4166667,10.5833333 L17.4703778,10.5833333 C17.4817708,10.7770181 17.5,10.9684243 17.5,11.1666667 C17.5,11.364909 17.4817708,11.5563153 17.4703778,11.75 L27.4166667,11.75 L27.4166667,29.8333333 L2.91666667,29.8333333 L2.91666667,18.8776042 C2.49967433,18.5927736 2.11458333,18.2714847 1.75,17.927409 L1.75,29.8333333 C1.75,30.510091 2.239909,31 2.91666667,31 L27.4166667,31 C28.0934243,31 28.5833333,30.510091 28.5833333,29.8333333 L28.5833333,6.5 C28.5833333,5.82324233 28.0934243,5.33333333 27.4166667,5.33333333 L24.5,5.33333333 L24.5,4.16666667 C24.5,3.52864583 23.9713542,3 23.3333333,3 L22.1666667,3 Z M22.1666667,4.16666667 L23.3333333,4.16666667 L23.3333333,7.66666667 L22.1666667,7.66666667 L22.1666667,4.16666667 Z M8.15755208,5.90749098 C7.83626317,5.91438817 7.57877633,6.17871108 7.58333333,6.5 L7.58333333,11.0732423 C7.56510417,11.198568 7.58561183,11.3261722 7.64713542,11.4378257 C7.69954442,11.5426431 7.78385417,11.6292319 7.88639308,11.6861979 L10.1513673,13.3837889 C10.4088542,13.5774742 10.7734375,13.5250652 10.9671223,13.2652993 C11.1608076,13.0078125 11.1083986,12.6432292 10.8486327,12.4495444 L8.75,10.875 L8.75,6.5 C8.7522785,6.34277358 8.6907555,6.19010417 8.57910142,6.07845067 C8.46744792,5.96679717 8.3147785,5.90527358 8.15755208,5.90749098 Z M17.0260417,14.0833333 C16.8938805,14.4866535 16.729818,14.8740236 16.5452473,15.25 L18.6666667,15.25 L18.6666667,18.1666667 L14.5833333,18.1666667 L14.5833333,22.25 L11.6666667,22.25 L11.6666667,19.8141277 C11.2906903,19.9667972 10.8987632,20.0898437 10.5,20.1923827 L10.5,22.25 L7.58333333,22.25 L7.58333333,20.4703777 C7.18684925,20.4453125 6.79720067,20.4020181 6.41666667,20.3291014 L6.41666667,27.5 L23.9166667,27.5 L23.9166667,14.0833333 L17.0260417,14.0833333 Z M19.8333333,15.25 L22.75,15.25 L22.75,18.1666667 L19.8333333,18.1666667 L19.8333333,15.25 Z M15.75,19.3333333 L18.6666667,19.3333333 L18.6666667,22.25 L15.75,22.25 L15.75,19.3333333 Z M19.8333333,19.3333333 L22.75,19.3333333 L22.75,22.25 L19.8333333,22.25 L19.8333333,19.3333333 Z M7.58333333,23.4166667 L10.5,23.4166667 L10.5,26.3333333 L7.58333333,26.3333333 L7.58333333,23.4166667 Z M11.6666667,23.4166667 L14.5833333,23.4166667 L14.5833333,26.3333333 L11.6666667,26.3333333 L11.6666667,23.4166667 Z M15.75,23.4166667 L18.6666667,23.4166667 L18.6666667,26.3333333 L15.75,26.3333333 L15.75,23.4166667 Z M19.8333333,23.4166667 L22.75,23.4166667 L22.75,26.3333333 L19.8333333,26.3333333 L19.8333333,23.4166667 Z" id="icon-shedule"></path>
                </g>
            </g>
        </g>
    </g>
</svg>