<?xml version="1.0" encoding="UTF-8"?>
<svg width="33px" height="36px" viewBox="0 0 33 36" version="1.1" xmlns="http://www.w3.org/2000/svg" xmlns:xlink="http://www.w3.org/1999/xlink">
    <!-- Generator: Sketch 64 (93537) - https://sketch.com -->
    <title>icon-report</title>
    <desc>Created with Sketch.</desc>
    <g id="Reports" stroke="none" stroke-width="1" fill="none" fill-rule="evenodd">
        <g id="AP-LandingPage-Header-Total-Invoice-fixed-view" transform="translate(-117.000000, -105.000000)" fill-rule="nonzero">
            <g id="Group" transform="translate(117.000000, 100.000000)">
                <g id="icon-report" transform="translate(-0.000000, 5.000000)">
                    <path d="M28.5517241,4.03448276 L31.6551724,4.03448276 L31.5931034,4.3137931 C29.5758621,15.4862069 28.5517241,23.7103448 28.5517241,35.0689655 L28.5517241,35.0689655 M0.931034483,0.931034483 L25.7586207,0.931034483 L25.7586207,35.0689655 L0.931034483,35.0689655 L0.931034483,0.931034483 Z" id="Shape" fill="#FFFFFF"></path>
                    <path d="M25.7586207,35.0689655 L0.931034483,35.0689655 L2.17241379,22.562069 C3.22758621,12.0413793 12.0724138,4.03448276 22.6551724,4.03448276 L22.6551724,4.03448276 L25.7586207,35.0689655 Z" id="Path" fill="#D5DFEA"></path>
                    <path d="M14.6172414,18.9310345 L12.6931034,18.4655172 C12.1034483,18.3103448 11.7310345,17.8137931 11.7310345,17.2241379 C11.7310345,16.5103448 12.3206897,15.9206897 13.0344828,15.9206897 L13.9655172,15.9206897 C14.6172414,15.9206897 15.1448276,16.4482759 15.1448276,17.1 C15.1448276,17.6275862 15.5482759,18.0310345 16.0758621,18.0310345 C16.6034483,18.0310345 17.0068966,17.6275862 17.0068966,17.1 C17.0068966,15.5482759 15.8586207,14.2758621 14.3689655,14.0896552 L14.3689655,13.6551724 C14.3689655,13.1275862 13.9655172,12.7241379 13.437931,12.7241379 C12.9103448,12.7241379 12.5068966,13.1275862 12.5068966,13.6551724 L12.5068966,14.0896552 C11.0172414,14.337931 9.86896552,15.6413793 9.86896552,17.1931034 C9.86896552,18.6517241 10.862069,19.8931034 12.2586207,20.2655172 L14.1827586,20.7310345 C14.7724138,20.8862069 15.1448276,21.3827586 15.1448276,21.9724138 C15.1448276,22.6862069 14.5551724,23.2758621 13.8413793,23.2758621 L12.9103448,23.2758621 C12.2586207,23.2758621 11.7310345,22.7482759 11.7310345,22.0965517 C11.7310345,21.5689655 11.3275862,21.1655172 10.8,21.1655172 C10.2724138,21.1655172 9.86896552,21.5689655 9.86896552,22.0965517 C9.86896552,23.6482759 11.0172414,24.9206897 12.5068966,25.1068966 L12.5068966,25.5103448 C12.5068966,26.037931 12.9103448,26.4413793 13.437931,26.4413793 C13.9655172,26.4413793 14.3689655,26.037931 14.3689655,25.5103448 L14.3689655,25.0758621 C15.8586207,24.8275862 17.0068966,23.5241379 17.0068966,21.9724138 C17.0068966,20.5448276 16.0137931,19.2724138 14.6172414,18.9310345 Z" id="Path" fill="#FFFFFF"></path>
                    <path d="M25.7586207,36 L0.931034483,36 C0.403448276,36 -4.72665385e-14,35.5965517 -4.72665385e-14,35.0689655 L-4.72665385e-14,0.931034483 C-4.72665385e-14,0.403448276 0.403448276,0 0.931034483,0 L25.7586207,0 C26.2862069,0 26.6896552,0.403448276 26.6896552,0.931034483 L26.6896552,35.0689655 C26.6896552,35.5965517 26.2862069,36 25.7586207,36 Z M1.86206897,34.137931 L24.8275862,34.137931 L24.8275862,1.86206897 L1.86206897,1.86206897 L1.86206897,34.137931 Z M28.5517241,36 C28.0241379,36 27.6206897,35.5965517 27.6206897,35.0689655 C27.6206897,23.6172414 28.6758621,15.2689655 30.537931,4.96551724 L28.5517241,4.96551724 C28.0241379,4.96551724 27.6206897,4.56206897 27.6206897,4.03448276 C27.6206897,3.50689655 28.0241379,3.10344828 28.5517241,3.10344828 L31.6551724,3.10344828 C31.9344828,3.10344828 32.1827586,3.22758621 32.3689655,3.44482759 C32.5551724,3.66206897 32.6172414,3.94137931 32.5551724,4.22068966 L32.4931034,4.5 C30.5689655,15.0827586 29.4517241,23.4931034 29.4517241,35.1 C29.4827586,35.5965517 29.0793103,36 28.5517241,36 Z" id="Shape" fill="#454B54"></path>
                </g>
            </g>
        </g>
    </g>
</svg>