<?xml version="1.0" encoding="UTF-8"?>
<svg width="12px" height="12px" viewBox="0 0 12 12" version="1.1" xmlns="http://www.w3.org/2000/svg" xmlns:xlink="http://www.w3.org/1999/xlink">
    <!-- Generator: Sketch 64 (93537) - https://sketch.com -->
    <title>icon-date</title>
    <desc>Created with Sketch.</desc>
    <g id="Symbols" stroke="none" stroke-width="1" fill="none" fill-rule="evenodd">
        <g id="scheduled" transform="translate(-278.000000, -34.000000)" fill="#000000" fill-rule="nonzero">
            <g id="Group-13">
                <g id="Group-9">
                    <g id="Group-8" transform="translate(278.000000, 32.000000)">
                        <path d="M2.5,2 C2.2265625,2 2,2.2265625 2,2.5 L2,3 L0.5,3 C0.36914075,3 0.23632825,3.0478515 0.14257825,3.14257825 C0.0478515,3.23632825 -8.8817842e-16,3.36914075 -8.8817842e-16,3.5 L-8.8817842e-16,13.5 C-8.8817842e-16,13.6308595 0.0478515,13.763672 0.14257825,13.8583985 C0.23632825,13.9521485 0.36914075,14 0.5,14 L11,14 C11.1308595,14 11.263672,13.9521485 11.3583985,13.8583985 C11.4521485,13.763672 11.5,13.6308595 11.5,13.5 L11.5,3.5 C11.5,3.36914075 11.4521485,3.23632825 11.3583985,3.14257825 C11.263672,3.0478515 11.1308595,3 11,3 L9.5,3 L9.5,2.5 C9.5,2.2265625 9.2734375,2 9,2 L8.5,2 C8.2265625,2 8,2.2265625 8,2.5 L8,3 L3.5,3 L3.5,2.5 C3.5,2.2265625 3.2734375,2 3,2 L2.5,2 Z M2.5,2.5 L3,2.5 L3,4 L2.5,4 L2.5,2.5 Z M8.5,2.5 L9,2.5 L9,4 L8.5,4 L8.5,2.5 Z M0.5,3.5 L2,3.5 L2,4 C2,4.2734375 2.2265625,4.5 2.5,4.5 L3,4.5 C3.2734375,4.5 3.5,4.2734375 3.5,4 L3.5,3.5 L8,3.5 L8,4 C8,4.2734375 8.2265625,4.5 8.5,4.5 L9,4.5 C9.2734375,4.5 9.5,4.2734375 9.5,4 L9.5,3.5 L11,3.5 L11,5.25 L0.5,5.25 L0.5,3.5 Z M0.5,5.75 L11,5.75 L11,13.5 L0.5,13.5 L0.5,5.75 Z M2,6.75 L2,12.5 L9.5,12.5 L9.5,6.75 L2,6.75 Z M2.5,7.25 L3.75,7.25 L3.75,8.5 L2.5,8.5 L2.5,7.25 Z M4.25,7.25 L5.5,7.25 L5.5,8.5 L4.25,8.5 L4.25,7.25 Z M6,7.25 L7.25,7.25 L7.25,8.5 L6,8.5 L6,7.25 Z M7.75,7.25 L9,7.25 L9,8.5 L7.75,8.5 L7.75,7.25 Z M2.5,9 L3.75,9 L3.75,10.25 L2.5,10.25 L2.5,9 Z M4.25,9 L5.5,9 L5.5,10.25 L4.25,10.25 L4.25,9 Z M6,9 L7.25,9 L7.25,10.25 L6,10.25 L6,9 Z M7.75,9 L9,9 L9,10.25 L7.75,10.25 L7.75,9 Z M2.5,10.75 L3.75,10.75 L3.75,12 L2.5,12 L2.5,10.75 Z M4.25,10.75 L5.5,10.75 L5.5,12 L4.25,12 L4.25,10.75 Z M6,10.75 L7.25,10.75 L7.25,12 L6,12 L6,10.75 Z M7.75,10.75 L9,10.75 L9,12 L7.75,12 L7.75,10.75 Z" id="icon-date"></path>
                    </g>
                </g>
            </g>
        </g>
    </g>
</svg>