<?xml version="1.0" encoding="UTF-8"?>
<svg width="25px" height="20px" viewBox="0 0 25 20" version="1.1" xmlns="http://www.w3.org/2000/svg" xmlns:xlink="http://www.w3.org/1999/xlink">
    <!-- Generator: Sketch 64 (93537) - https://sketch.com -->
    <title>icon-mail</title>
    <desc>Created with Sketch.</desc>
    <g id="Symbols" stroke="none" stroke-width="1" fill="none" fill-rule="evenodd">
        <g id="scheduled" transform="translate(-15.000000, -17.000000)" fill-rule="nonzero">
            <g id="Group-13">
                <g id="Group-9">
                    <g id="icon-mail" transform="translate(15.000000, 17.000000)">
                        <path d="M2.95454545,19.3181818 L21.1363636,19.3181818 C22.3863636,19.3181818 23.4090909,18.2954545 23.4090909,17.0454545 L23.4090909,2.95454545 C23.4090909,1.70454545 22.3863636,0.681818182 21.1363636,0.681818182 L2.95454545,0.681818182 C1.70454545,0.681818182 0.681818182,1.70454545 0.681818182,2.95454545 L0.681818182,17.0454545 C0.681818182,18.2954545 1.70454545,19.3181818 2.95454545,19.3181818 Z" id="Path" fill="#FFFFFF"></path>
                        <path d="M21.1363636,20 L2.95454545,20 C1.31818182,20 0,18.6818182 0,17.0454545 L0,5.90909091 C0,5.52272727 0.295454545,5.22727273 0.681818182,5.22727273 C1.06818182,5.22727273 1.36363636,5.52272727 1.36363636,5.90909091 L1.36363636,17.0454545 C1.36363636,17.9318182 2.06818182,18.6363636 2.95454545,18.6363636 L21.1363636,18.6363636 C22.0227273,18.6363636 22.7272727,17.9318182 22.7272727,17.0454545 L22.7272727,5.90909091 C22.7272727,5.52272727 23.0227273,5.22727273 23.4090909,5.22727273 C23.7954545,5.22727273 24.0909091,5.52272727 24.0909091,5.90909091 L24.0909091,17.0454545 C24.0909091,18.6818182 22.7727273,20 21.1363636,20 Z" id="Path" fill="#444B54"></path>
                        <path d="M12.0454545,11.1363636 C8.81818182,11.1363636 5.81818182,9.86363636 3.59090909,7.52272727 C3.34090909,7.25 3.34090909,6.81818182 3.61363636,6.56818182 C3.88636364,6.31818182 4.31818182,6.31818182 4.56818182,6.59090909 C6.54545455,8.63636364 9.18181818,9.77272727 12.0227273,9.77272727 C14.8636364,9.77272727 17.5227273,8.63636364 19.4772727,6.59090909 C19.7272727,6.31818182 20.1590909,6.31818182 20.4318182,6.56818182 C20.7045455,6.81818182 20.7045455,7.25 20.4545455,7.52272727 C18.2727273,9.86363636 15.2727273,11.1363636 12.0454545,11.1363636 Z" id="Path" fill="#444B54"></path>
                        <path d="M23.4090909,3.63636364 C23.0227273,3.63636364 22.7272727,3.34090909 22.7272727,2.95454545 C22.7272727,2.06818182 22.0227273,1.36363636 21.1363636,1.36363636 L2.95454545,1.36363636 C2.06818182,1.36363636 1.36363636,2.06818182 1.36363636,2.95454545 C1.36363636,3.34090909 1.06818182,3.63636364 0.681818182,3.63636364 C0.295454545,3.63636364 0,3.34090909 0,2.95454545 C0,1.31818182 1.31818182,0 2.95454545,0 L21.1363636,0 C22.7727273,0 24.0909091,1.31818182 24.0909091,2.95454545 C24.0909091,3.34090909 23.7954545,3.63636364 23.4090909,3.63636364 Z" id="Path" fill="#444B54"></path>
                    </g>
                </g>
            </g>
        </g>
    </g>
</svg>